<svg width="600" height="623" viewBox="0 0 600 623" fill="none" xmlns="http://www.w3.org/2000/svg">
<path fill-rule="evenodd" clip-rule="evenodd" d="M301.813 417.532C302.534 417.821 303.397 417.785 303.729 417.453C304.061 417.121 303.471 416.885 302.417 416.928C301.252 416.976 301.015 417.213 301.813 417.532Z" fill="#2E2E3A"/>
<path fill-rule="evenodd" clip-rule="evenodd" d="M153.959 2.42623C153.2 3.84423 151.786 5.42823 150.817 5.94723C149.145 6.84223 149.152 7.05023 150.962 10.0272C152.863 13.1522 152.862 13.1702 150.673 14.7562C149.465 15.6322 147.582 16.8412 146.489 17.4412C145.395 18.0422 143.945 19.6632 143.266 21.0442C142.587 22.4252 140.269 24.7762 138.115 26.2692C135.961 27.7622 133.97 29.8552 133.692 30.9212C133.395 32.0552 132.614 32.6382 131.807 32.3292C129.991 31.6322 126 35.4112 126 37.8292C126 38.8752 125.592 39.9832 125.094 40.2912C124.595 40.5992 123.506 42.8512 122.673 45.2942C121.312 49.2892 121.317 49.8672 122.716 51.0292C123.573 51.7392 125.106 54.1272 126.124 56.3352C130.108 64.9762 133.401 68.1842 134.177 64.1812C134.554 62.2362 139 61.5682 139 63.4572C139 64.1582 138.519 65.0282 137.932 65.3912C137.344 65.7542 137.096 66.6582 137.381 67.3992C137.673 68.1602 137.049 69.0162 135.949 69.3652C134.524 69.8172 134 70.8912 134 73.3572C134 75.2132 134.474 77.0242 135.054 77.3832C135.751 77.8132 135.553 78.8832 134.47 80.5362C133.493 82.0262 133.069 83.9892 133.421 85.3902C133.832 87.0272 133.477 88.0472 132.256 88.7412C130.704 89.6222 130.662 90.0062 131.892 92.0442C133.281 94.3452 133.28 94.3462 131.138 92.4402C129.218 90.7332 128.585 90.6662 125.14 91.8032C122.262 92.7532 120.763 92.7932 119.21 91.9612C116.481 90.5012 116 90.5562 116 92.3302C116 93.1442 114.794 94.1142 113.32 94.4842C110.564 95.1752 106.088 99.4712 106.032 101.479C106.014 102.1 103.975 104.267 101.5 106.295C99.025 108.324 97 110.55 97 111.243C97 113.09 102.859 111.99 105.133 109.716C107.533 107.316 111.48 107.155 110.583 109.494C110.234 110.402 110.663 111.924 111.541 112.894C112.62 114.087 112.78 114.867 112.041 115.324C111.341 115.756 111.186 117.773 111.608 120.954C112.255 125.827 112.193 125.978 107.967 129.88C105.602 132.063 102.687 133.849 101.489 133.849C100.29 133.849 98.495 134.749 97.5 135.849C96.505 136.949 94.681 137.849 93.448 137.849C91.286 137.849 85 142.48 85 144.072C85 144.499 86.125 144.849 87.5 144.849C90.554 144.849 90.752 146.208 87.883 147.488C85.849 148.396 85.905 148.539 89.304 151.132C92.081 153.25 93.512 153.697 95.957 153.208C97.67 152.865 99.506 151.772 100.037 150.779C101.99 147.132 108.374 149.704 107.325 153.716C106.82 155.646 107.147 155.829 110.839 155.684C113.357 155.586 115.123 154.971 115.467 154.074C115.915 152.908 116.316 152.866 117.512 153.859C118.33 154.538 119 155.683 119 156.404C119 157.125 119.9 158 121 158.349C122.1 158.698 123 159.347 123 159.791C123 160.904 128.249 161.858 130.759 161.202C131.89 160.906 133.02 159.879 133.271 158.92C133.537 157.904 135.699 156.527 138.453 155.62L143.179 154.064L139.089 157.994C136.84 160.155 135 162.75 135 163.761C135 166.211 129.919 167.205 124.971 165.722C120.628 164.421 110.44 165.36 109.266 167.169C108.845 167.818 108.5 169.249 108.5 170.349C108.5 171.874 107.729 172.423 105.25 172.662C102.711 172.907 101.977 173.454 101.894 175.162C101.835 176.365 101.723 178.047 101.644 178.899C101.472 180.753 97.139 185.913 94.476 187.434C93.432 188.03 91.735 190.055 90.706 191.934C88.022 196.831 86.034 198.584 81.5 200.053C78.272 201.099 77.439 201.88 77.184 204.099C76.931 206.295 77.274 206.849 78.884 206.849C79.993 206.849 81.33 206.081 81.856 205.142C82.705 203.624 83.142 203.789 85.794 206.629C89.009 210.07 89.863 209.797 92.479 204.492C93.06 203.314 94.54 201.905 95.768 201.362C96.995 200.819 98 199.806 98 199.112C98 198.417 99.07 197.849 100.378 197.849C101.686 197.849 104.331 197.191 106.257 196.386C109.483 195.038 109.892 195.072 111.473 196.819C112.416 197.861 113.817 198.473 114.586 198.178C115.354 197.883 116.26 198.363 116.599 199.245C117.522 201.651 123 201.404 123 198.956C123 197.915 123.675 196.804 124.5 196.487C125.49 196.107 126 194.541 126 191.88C126 189.466 126.47 187.849 127.171 187.849C127.815 187.849 129.053 187.234 129.921 186.482C130.79 185.73 133.355 184.834 135.623 184.49C139.04 183.973 140.403 184.312 143.585 186.471C145.918 188.054 147.57 188.64 147.795 187.964C148.041 187.227 149.946 187.06 153.435 187.47C158.226 188.033 158.754 187.897 159.258 185.969C159.695 184.298 160.585 183.849 163.456 183.849C165.46 183.849 168.398 183.177 169.986 182.356C171.574 181.535 173.549 181.123 174.376 181.44C175.202 181.757 176.661 181.578 177.618 181.043C178.934 180.307 179.757 180.562 180.996 182.092C182.278 183.676 183.054 183.897 184.567 183.11C188.216 181.212 196.011 180.667 201.047 181.958C205.355 183.062 206.164 183.01 207.799 181.531C208.821 180.606 210.549 179.849 211.638 179.849C212.727 179.849 214.491 179.2 215.559 178.408C216.626 177.615 218.476 177.205 219.669 177.496C221.372 177.911 221.909 177.524 222.169 175.692C222.456 173.67 225.096 171.702 230.292 169.636C230.727 169.463 231.284 167.176 231.53 164.554L231.977 159.786L224.258 160.068C218.494 160.278 216.534 160.023 216.519 159.063C216.509 158.355 215.825 157.349 215 156.828C213.802 156.07 213.966 155.877 215.816 155.864C219.784 155.838 222.073 154.036 221.581 151.324C221.338 149.981 220.845 148.407 220.485 147.825C220.055 147.129 220.727 146.993 222.457 147.427C224.278 147.885 225.68 147.544 227.04 146.313C229.357 144.216 229.562 142.849 227.559 142.849C226.766 142.849 225.854 142.423 225.532 141.901C225.204 141.371 225.935 141.144 227.192 141.386C230.013 141.929 236 136.417 236 133.275C236 132.075 236.723 129.364 237.606 127.25C238.666 124.714 239.049 121.708 238.732 118.415C238.336 114.285 237.67 112.924 234.876 110.531C230.282 106.596 226.167 104.96 219.12 104.268C213.96 103.76 212.889 103.96 211.083 105.766C209.938 106.911 209 108.524 209 109.349C209 111.313 208.103 111.233 204.661 108.964L201.823 107.093L205.521 103.395C208.64 100.276 209.125 99.2252 208.619 96.6932C207.515 91.1732 204.937 87.1432 200.449 83.9202C198.002 82.1632 196 80.4382 196 80.0872C196 79.7362 196.54 79.9892 197.2 80.6492C197.86 81.3092 199.21 81.8492 200.2 81.8492C201.19 81.8492 202 82.5512 202 83.4082C202 84.2652 202.45 84.6892 203 84.3492C204.731 83.2792 204.109 81.0582 200.5 75.4162C196.93 69.8362 196.007 65.3782 198.25 64.5592C199.054 64.2662 198.391 63.0762 196.392 61.2262C194.683 59.6442 192.475 56.6212 191.486 54.5102C189.594 50.4722 184.434 46.4422 179.669 45.2812C178.112 44.9022 176.571 43.8622 176.245 42.9702C175.918 42.0792 175.094 41.0112 174.413 40.5982C173.733 40.1862 172.854 37.9452 172.461 35.6202C172.069 33.2952 171.155 30.4832 170.432 29.3712C169.09 27.3092 168.262 24.0892 167.468 17.8492C166.381 9.30523 165.843 7.73523 163.663 6.74123C162.436 6.18223 160.548 4.40423 159.467 2.79023C157.046 -0.822767 155.744 -0.908767 153.959 2.42623ZM386.75 34.4152C385.431 35.7652 385.942 38.5052 388 41.1222C389.1 42.5202 390 44.1962 390 44.8462C390 45.4972 391.012 46.8792 392.25 47.9182C394.177 49.5372 394.285 49.9532 393 50.8132C392.175 51.3662 390.503 51.8252 389.285 51.8342C386.472 51.8532 384.372 55.3872 386.004 57.3532C386.632 58.1112 387.788 58.4842 388.573 58.1832C389.592 57.7922 390 58.4072 390 60.3362C390 62.1952 390.623 63.1992 392 63.5592C393.1 63.8472 394 64.4802 394 64.9662C394 65.4512 393.1 65.8492 392 65.8492C390.9 65.8492 390 66.1042 390 66.4152C390 68.0512 392.401 71.0712 394.315 71.8422C396.198 72.6002 396.009 72.7312 392.95 72.7862C390.998 72.8202 388.857 72.3062 388.193 71.6422C386.011 69.4602 383.5 73.2662 383.5 78.7572C383.5 82.2162 383.144 83.4582 382.25 83.1152C381.563 82.8512 381 82.2332 381 81.7422C381 81.2512 380.325 80.8492 379.5 80.8492C378.675 80.8492 378 81.5942 378 82.5042C378 83.9922 377.799 83.9772 376 82.3492C374.9 81.3542 374 79.9342 374 79.1942C374 78.0402 372.986 77.5162 371 77.6452C362.619 78.1872 356.351 79.1432 355.266 80.0432C353.284 81.6882 350.815 88.0332 351.354 90.0962C352.081 92.8742 350.058 92.1312 348.948 89.2132C347.986 86.6822 347.738 86.6062 342.723 87.3172C339.85 87.7242 335.25 88.3632 332.5 88.7382C325.361 89.7122 319.949 92.7102 316.809 97.4302C313.622 102.223 305.892 108.02 305.251 106.099C304.62 104.209 302.213 104.602 301.546 106.703C301.223 107.723 300.32 112.187 299.54 116.624C298.759 121.061 297.215 126.466 296.108 128.636C293.428 133.891 289.173 138.849 287.344 138.849C286.291 138.849 286.06 139.461 286.54 140.974C286.962 142.306 286.711 143.41 285.865 143.932C284.791 144.596 284.77 145.019 285.758 146.007C287.695 147.944 287.278 148.349 283.344 148.349C281.312 148.349 279.497 148.905 279.26 149.599C278.991 150.387 279.789 150.849 281.417 150.849C282.837 150.849 284 151.249 284 151.738C284 152.227 283.438 152.606 282.75 152.58C279.497 152.46 276.364 152.966 275 153.834C273.755 154.626 273.716 155.136 274.769 156.836C275.899 158.659 275.755 158.992 273.454 159.866C272.033 160.407 270.543 160.849 270.144 160.849C269.745 160.849 265.969 163.027 261.753 165.689C256.363 169.092 251.815 171.065 246.434 172.332C242.224 173.324 237.684 175.083 236.345 176.242C234.075 178.206 233.896 179.08 233.705 189.098C233.592 195.01 233.162 199.847 232.75 199.848C232.338 199.848 232 200.436 232 201.153C232 204.008 225.505 208.617 219.325 210.148C207.004 213.199 198.469 220.938 203.015 224.936C204.738 226.451 204.699 226.595 202.16 228.087C198.968 229.963 196.358 230.379 193 229.548C190.297 228.879 183.025 227.833 179 227.535C175.697 227.289 172.375 223.307 173.92 221.445C174.533 220.707 174.737 219.327 174.373 218.379C173.814 216.923 172.886 216.758 168.411 217.317C165.243 217.713 162.309 217.55 161.116 216.911C158.671 215.603 157.25 217.24 159 219.349C159.645 220.126 159.911 221.183 159.593 221.699C159.042 222.591 160.461 226.268 163.543 231.93C164.315 233.35 165.157 237.771 165.413 241.755C165.67 245.739 166.366 249.585 166.961 250.302C167.785 251.294 167.501 251.75 165.771 252.213C162.034 253.214 160.743 252.961 161.362 251.349C162.098 249.431 160.063 249.416 156.405 251.314C153.936 252.595 153.379 252.597 151.977 251.328C150.739 250.208 150.101 250.148 149.186 251.063C148.534 251.715 148 251.856 148 251.375C148 250.894 146.837 251.591 145.415 252.925L142.83 255.349L141.165 253.242C140.249 252.084 138.264 249.561 136.753 247.635L134.006 244.134L128.753 245.317C125.165 246.125 123.394 247.05 123.165 248.235C122.902 249.596 122.2 249.832 119.915 249.33C117.957 248.9 117 249.085 117 249.892C117 250.8 116.663 250.814 115.622 249.95C114.587 249.092 113.527 249.091 111.372 249.949C109.792 250.578 107.297 251.208 105.826 251.349C104.355 251.489 101.768 252.59 100.076 253.795C97.664 255.512 97 256.726 97 259.417C97 262.215 97.38 262.849 99.059 262.849C100.191 262.849 100.859 263.268 100.543 263.78C100.226 264.292 100.432 264.998 101 265.349C101.568 265.7 101.774 266.406 101.457 266.918C101.141 267.43 101.546 267.849 102.358 267.849C103.169 267.849 103.989 267.383 104.178 266.814C104.391 266.176 105.279 266.333 106.499 267.225C108.366 268.59 108.255 268.706 104.487 269.337C102.294 269.704 99.938 270.181 99.25 270.396C97.098 271.068 97.882 272.603 100.744 273.321C104.319 274.218 106 275.672 106 277.864C106 280.147 108.831 281.234 110.71 279.675C112.73 277.998 115.815 277.922 117.138 279.515C117.747 280.249 119.485 280.849 121 280.849C122.515 280.849 124.315 281.524 125 282.349C125.685 283.174 127.02 283.849 127.967 283.849C128.915 283.849 130.505 284.749 131.5 285.849C132.495 286.949 134.339 287.849 135.596 287.849C136.853 287.849 138.187 288.342 138.559 288.945C138.932 289.547 140.745 289.864 142.589 289.649C144.719 289.4 146.124 289.73 146.44 290.553C146.713 291.266 146.558 291.849 146.094 291.849C144.813 291.849 145.085 296.827 146.375 297.001C146.994 297.085 147.95 297.258 148.5 297.386C149.05 297.514 150.318 297.67 151.317 297.734C152.663 297.819 152.97 298.368 152.5 299.849C152.085 301.155 152.322 301.854 153.183 301.864C153.907 301.873 155.122 302.274 155.883 302.755C157.042 303.49 157.002 304.009 155.633 305.963C153.397 309.155 153.579 310.73 156.446 312.985C157.792 314.044 159.45 316.451 160.131 318.334C160.956 320.617 162.391 322.172 164.435 322.997C166.121 323.678 167.725 324.495 168 324.813C169.12 326.105 174.219 327.831 175.175 327.241C175.768 326.874 175.707 327.528 175.03 328.792C174.291 330.174 174.205 331.413 174.796 332.163C176.718 334.6 176.746 338.744 174.855 340.774C172.939 342.831 172.347 345.849 173.859 345.849C175.219 345.849 184 353.896 184 355.142C184 355.76 182.373 354.541 180.385 352.434C178.059 349.967 176.521 349.005 176.071 349.735C175.258 351.05 173.047 370.907 172.496 381.849C172.288 385.974 171.841 390.677 171.503 392.299C171.165 393.922 170.23 398.422 169.424 402.299C167.604 411.065 165.655 413.783 159.967 415.483C153.855 417.31 150.958 417.185 145.859 414.871C140.479 412.43 138.2 412.358 135.773 414.555C134.234 415.947 133.534 416.039 131.958 415.055C130.896 414.392 129.539 413.849 128.942 413.849C128.345 413.849 127.182 413.174 126.357 412.349C124.759 410.75 119.775 411.027 113.032 413.088C108.647 414.428 100.355 414.351 96.685 412.935C95.137 412.338 92.576 411.849 90.994 411.849C89.412 411.849 87.84 411.399 87.5 410.849C87.16 410.299 85.031 409.849 82.77 409.849C80.338 409.849 77.906 409.169 76.819 408.185C75.318 406.827 74.569 406.737 72.74 407.697C71.508 408.343 64.89 409.053 58.033 409.274L45.566 409.675L42.223 406.74C40.385 405.126 38.407 404.098 37.828 404.455C37.25 404.813 36.427 404.54 36 403.849C35.516 403.067 34.71 402.917 33.862 403.452C33.113 403.925 31.228 404.382 29.673 404.467C28.062 404.556 26.211 405.531 25.367 406.736C24.553 407.898 23.237 408.849 22.443 408.849C21.148 408.849 20.568 410.512 20.87 413.36C21.049 415.037 15.084 417.116 11.915 416.482C9.673 416.034 8.419 416.43 6.729 418.12C5.503 419.346 4.126 420.349 3.669 420.349C2.024 420.349 0 424.298 0 427.509C0 430.011 0.355 430.65 1.5 430.211C2.532 429.814 3 430.273 3 431.683C3 432.809 3.489 434.033 4.087 434.403C4.685 434.772 4.965 435.874 4.71 436.851C4.004 439.551 5.594 441.655 7.158 440.091C8.655 438.594 10 438.479 10 439.849C10 440.399 9.325 440.849 8.5 440.849C6.57 440.849 6.581 442.256 8.523 443.868C9.402 444.597 9.796 445.917 9.455 446.99C9.1 448.11 9.351 448.849 10.088 448.849C10.893 448.849 10.746 449.473 9.655 450.678C7.915 452.6 7.337 459.849 8.923 459.849C9.431 459.849 11.216 458.697 12.889 457.289C16.832 453.972 21.724 452.521 23.496 454.143C24.581 455.137 24.538 455.657 23.252 457.099C21.832 458.69 21.852 459.028 23.471 460.817C24.946 462.446 25.617 462.587 27.376 461.633C30.225 460.089 36 459.539 36 460.812C36 461.423 37.656 461.623 40.144 461.31C45.121 460.685 46 460.213 46 458.168C46 457.089 46.387 456.892 47.25 457.532C47.938 458.042 50.629 458.424 53.23 458.381C57.827 458.305 59.839 459.683 58.439 461.948C57.404 463.623 59.094 467.027 60.663 466.425C61.478 466.112 63.025 466.327 64.101 466.903C65.995 467.917 65.97 468.074 63.279 471.878C61.75 474.039 59.697 475.816 58.716 475.828C57.735 475.839 56.003 477.424 54.867 479.349C53.732 481.274 52.172 482.849 51.401 482.849C49.71 482.849 49.591 484.04 51.129 485.578C51.759 486.208 52.338 490.497 52.44 495.286C52.609 503.249 52.456 503.975 50.311 505.381C47.673 507.11 47.294 509.364 49.5 510.211C51.169 510.851 51.621 516.849 50 516.849C49.45 516.849 49 517.749 49 518.849C49 520.627 48.333 520.849 43 520.849C36.257 520.849 35.409 522.006 39.405 525.759C40.727 527.002 42.102 529.579 42.46 531.487C43.188 535.367 45.728 538.849 47.831 538.849C49.482 538.849 48.557 543.847 46.671 545.117C46.027 545.551 45.042 546.231 44.482 546.627C43.922 547.024 42.952 549.336 42.327 551.765C41.387 555.414 41.445 556.437 42.663 557.655C43.474 558.466 44.848 560.214 45.717 561.54C46.585 562.865 47.904 563.716 48.648 563.431C49.392 563.145 49.993 563.235 49.985 563.63C49.962 564.696 48.37 567.019 47.661 567.022C45.306 567.031 43 568.331 43 569.651C43 570.514 41.988 572.299 40.75 573.617C38.98 575.503 38.533 577.073 38.653 580.976C38.941 590.336 39.299 590.849 45.539 590.849C49.659 590.849 52.017 591.466 54.934 593.307C59.138 595.961 62.235 599.66 61.394 601.021C60.423 602.592 62.052 605.629 64.163 606.181C65.586 606.553 66.062 607.245 65.645 608.333C64.889 610.301 69.692 617.849 71.7 617.849C72.488 617.849 74.679 619.028 76.569 620.469C79.563 622.753 80.229 622.914 81.748 621.719C84.93 619.219 85.727 618.278 87.394 615.054C89.162 611.635 94.627 608.677 97.693 609.479C98.834 609.777 100.732 608.762 102.783 606.757L106.053 603.56L121.501 603.219C130.749 603.016 138.058 603.301 139.712 603.93C142.051 604.819 142.732 604.663 144.148 602.915C146.043 600.574 149.082 600.259 152.028 602.098C153.776 603.19 154.378 602.969 156.801 600.348C158.326 598.699 160.369 595.246 161.34 592.676C163.567 586.785 170.857 580.397 174.549 581.103C175.897 581.361 177 581.154 177 580.643C177 580.132 177.841 579.981 178.868 580.307C179.895 580.633 181.868 580.469 183.253 579.943C185.541 579.073 185.724 578.583 185.27 574.548C184.964 571.839 185.204 569.841 185.885 569.42C186.498 569.041 187 567.633 187 566.29C187 564.787 187.576 563.849 188.5 563.849C189.325 563.849 190 563.158 190 562.314C190 559.67 192.966 556.105 196.299 554.742C198.059 554.022 200.085 552.862 200.799 552.164C201.514 551.465 202.986 550.272 204.072 549.511C206.616 547.729 205.692 545.286 201.984 543.993C198.761 542.87 196.848 539.667 194.993 532.292C193.78 527.469 193.848 527.005 196.458 522.292C198.891 517.899 205.736 508.235 208.532 505.246C209.1 504.639 210.406 502.276 211.434 499.996C212.535 497.554 213.985 495.849 214.961 495.849C215.872 495.849 217.485 495.215 218.546 494.439C220.377 493.1 220.387 492.934 218.744 491.119C217.093 489.294 217.14 489.089 219.812 486.529C221.351 485.055 223.282 483.849 224.105 483.849C224.927 483.849 226.029 483.42 226.553 482.896C227.078 482.371 231.775 480.8 236.993 479.404C243.595 477.637 246.982 476.198 248.133 474.672C249.043 473.466 253.735 470.2 258.56 467.414C263.385 464.628 268.213 461.156 269.288 459.697C271.135 457.193 271.153 456.863 269.618 453.785C268.723 451.991 268.106 450.485 268.246 450.437C271.836 449.199 274.274 445.849 271.583 445.849C270.686 445.849 270 445.013 270 443.92C270 442.86 269.325 441.317 268.5 440.492C266.133 438.125 266.494 427.404 269.082 423.217C270.226 421.365 271.689 419.78 272.332 419.697C272.974 419.613 273.95 419.489 274.5 419.422C275.05 419.354 278.068 417.398 281.207 415.074C287.618 410.328 287.844 410.254 289.392 412.37C290.004 413.207 292.191 413.955 294.252 414.032C296.472 414.116 298 414.674 298 415.402C298 416.077 299.526 416.808 301.391 417.026C305.391 417.493 307.232 417.033 306.447 415.764C306.136 415.261 306.31 414.849 306.834 414.849C307.358 414.849 308.064 415.574 308.405 416.461C308.842 417.6 309.899 417.944 312.012 417.634C314.399 417.284 315 417.563 315 419.022C315 420.164 315.728 420.849 316.941 420.849C318.009 420.849 319.128 421.247 319.429 421.733C320.095 422.811 331.534 424.81 335 424.454C336.375 424.313 338.767 423.669 340.315 423.023C341.863 422.377 343.551 421.849 344.065 421.849C344.579 421.849 345 420.74 345 419.384C345 417.913 345.837 416.472 347.076 415.808C348.217 415.198 350.017 413.832 351.076 412.773C352.134 411.715 353.45 410.849 354 410.849C354.55 410.849 355 410.277 355 409.578C355 407.88 362.52 404.099 367.466 403.31C372.484 402.509 376.382 399.755 377.989 395.875C378.679 394.211 379.791 392.849 380.461 392.849C381.131 392.849 382.182 391.746 382.796 390.397C384.518 386.617 388.975 384.727 393.33 385.93C395.309 386.476 397.2 387.364 397.533 387.902C397.866 388.441 398.538 388.635 399.027 388.333C399.515 388.03 402.747 389.736 406.208 392.122C409.668 394.508 413.214 396.304 414.087 396.112C417.367 395.395 420.047 399.066 420.957 405.522C421.494 409.333 422.721 412.905 424.163 414.856C425.959 417.285 426.502 419.325 426.511 423.664C426.521 429.006 426.656 429.311 429.011 429.33C430.775 429.343 431.502 429.899 431.505 431.236C431.508 432.275 432.473 433.48 433.65 433.915C434.827 434.351 437.043 436.35 438.575 438.358C440.719 441.169 441.059 442.195 440.052 442.817C438.025 444.07 439.843 445.927 442.454 445.271C445.874 444.413 450.7 447.346 452.899 451.62C454.046 453.849 456.102 455.904 458.011 456.728C459.768 457.487 461.722 459.289 462.353 460.733C463.804 464.055 473.189 472.849 475.282 472.849C476.927 472.849 479.358 474.879 480.801 477.458C481.49 478.689 482.114 478.754 484.184 477.811C486.212 476.887 487.324 476.965 489.713 478.2C491.822 479.291 493.015 479.434 493.764 478.685C494.348 478.101 495.333 477.937 495.953 478.32C497.789 479.455 502 486.657 502 488.662C502 491.338 502.88 491.845 505.678 490.781C507.435 490.113 508.708 490.232 510.076 491.19C511.973 492.518 511.972 492.564 510.024 494.327C507.962 496.194 508.251 498.679 510.339 497.028C510.978 496.523 513.182 495.807 515.238 495.436C518.696 494.813 519.128 495.01 520.99 498.056C522.098 499.867 522.778 501.912 522.502 502.599C522.226 503.286 521.751 504.461 521.446 505.21C521.094 506.075 522.208 507.194 524.507 508.285C526.495 509.228 528.353 510.606 528.638 511.347C529.468 513.512 532.151 514.022 533.982 512.365C535.512 510.981 535.848 511.024 537.46 512.805C538.442 513.889 539.632 516.851 540.106 519.385C540.579 521.92 541.868 525.26 542.971 526.808C544.073 528.356 545.222 531.361 545.524 533.486C545.826 535.611 546.789 539.012 547.664 541.045C549.472 545.245 548.92 547.849 546.223 547.849C545.21 547.849 543.526 548.475 542.479 549.241C540.925 550.377 540.804 550.908 541.817 552.129C542.807 553.321 542.803 554.206 541.8 556.487C540.215 560.09 539.026 560.934 537.037 559.869C536.083 559.358 534.494 559.549 532.987 560.356C531.246 561.287 530.132 561.373 529.253 560.644C528.34 559.886 528 560.028 528 561.168C528 563.432 526.351 564.107 523.955 562.825C522.264 561.92 520.98 562.17 517.184 564.144C513.967 565.817 510.778 566.601 507 566.647C503.975 566.684 500.111 567.011 498.414 567.374C496.234 567.84 494.859 567.566 493.735 566.441C492.859 565.566 491.716 564.849 491.194 564.849C490.672 564.849 489.71 564.205 489.057 563.418C487.896 562.018 482 561.511 482 562.81C482 563.171 481.341 564.34 480.535 565.408C479.113 567.293 478.998 567.262 476.571 564.349C474.646 562.038 474.064 561.751 474.036 563.099C474.016 564.061 473.636 564.849 473.191 564.849C471.029 564.849 468.942 567.758 468.426 571.49C467.923 575.122 468.2 575.958 470.676 578.288C472.508 580.011 474.29 580.801 475.749 580.535C476.986 580.311 478.786 580.725 479.749 581.456C480.712 582.187 482.218 582.8 483.095 582.817C483.972 582.835 485.538 583.786 486.575 584.932C487.611 586.077 489.819 587.664 491.48 588.458C493.141 589.253 495.625 590.559 497 591.361C498.375 592.163 500.753 592.826 502.285 592.834C506.012 592.854 509.528 595.294 511.02 598.898C511.741 600.637 512.99 601.849 514.062 601.849C515.063 601.849 516.148 602.28 516.474 602.806C516.799 603.333 518.288 603.729 519.783 603.688C521.277 603.647 523.513 603.943 524.75 604.347C526.801 605.017 527 604.766 527 601.501C527 598.943 527.572 597.613 529 596.849C531.076 595.738 531.712 592.407 530.044 591.376C529.518 591.051 529.328 590.159 529.621 589.394C529.92 588.616 529.239 587.512 528.078 586.891C525.957 585.756 525.257 582.426 526.923 581.397C527.431 581.083 528.155 579.42 528.532 577.702C528.91 575.984 530.902 571.974 532.959 568.791C536.589 563.175 536.703 563.094 536.787 566.078C536.836 567.77 537.466 569.54 538.187 570.012C540.246 571.359 547.204 570.537 548.032 568.849C548.437 568.024 549.383 566.033 550.134 564.425C550.885 562.816 552.962 560.634 554.75 559.576C557.775 557.785 558 557.28 558 552.273C558 547.602 558.338 546.674 560.568 545.213C561.98 544.287 564.672 543.588 566.549 543.658C569.073 543.753 570.255 543.24 571.085 541.691C571.852 540.257 571.878 539.392 571.168 538.953C570.597 538.6 570.264 536.295 570.428 533.83C570.711 529.582 570.502 529.18 566.405 526.099C564.029 524.312 561.151 522.849 560.01 522.849C557.257 522.849 555.71 518.93 557.611 516.77C558.375 515.902 559 514.045 559 512.643C559 511.241 559.675 509.534 560.5 508.849C561.325 508.164 562 507.08 562 506.439C562 505.798 563.272 503.75 564.827 501.888C566.828 499.49 568.16 498.697 569.39 499.168C570.345 499.535 570.893 500.214 570.606 500.677C569.943 501.75 576.358 504.845 579.284 504.863C584.784 504.897 586.167 506.04 587.526 511.677C588.289 514.844 589.077 515.838 592.039 517.369C595.949 519.391 597.598 518.813 598.281 515.178C598.574 513.622 599.103 511.449 599.458 510.348C600.23 507.954 594.848 499.253 592.045 498.363C591.039 498.044 590.013 497.005 589.764 496.055C589.515 495.104 586.654 493.028 583.406 491.442C580.158 489.855 575.852 487.151 573.838 485.432C571.823 483.713 567.773 481.454 564.838 480.412C561.902 479.37 556.013 476.77 551.75 474.636C543.063 470.286 542.207 468.551 547 465.007C550.143 462.684 550.867 459.808 548.75 458.064C548.012 457.456 543.458 457.176 537.628 457.38C528.515 457.699 527.381 457.523 522.878 455.091C520.195 453.642 518 451.869 518 451.153C518 450.436 517.48 449.849 516.845 449.849C516.21 449.849 512.858 446.961 509.397 443.431C504.247 438.178 502.804 435.953 501.457 431.181C499.485 424.194 495.366 412.401 494.02 409.886C493.488 408.892 491.954 407.803 490.61 407.466C489.267 407.129 485.795 404.827 482.894 402.351C479.993 399.875 477.256 397.849 476.813 397.849C476.369 397.849 474.209 396.226 472.012 394.241C467.878 390.506 466.707 387.617 465.496 378.171C464.883 373.388 464.98 373.031 466.763 373.497C468.213 373.876 469.017 373.222 469.991 370.871C471.173 368.016 471.099 367.606 469.144 366.237C467.965 365.411 467 363.883 467 362.842C467 361.801 466.297 360.555 465.437 360.074C463.553 359.019 464.355 354.613 466.79 352.64C467.997 351.662 468.202 351.652 467.633 352.599C466.307 354.806 469.406 353.979 477.08 350.075C481.161 348 484.387 345.75 484.25 345.075C483.907 343.391 485.543 343.535 487.357 345.349C489.255 347.247 490.428 347.243 492.01 345.337C493.539 343.494 496.179 345.179 495.763 347.732C495.597 348.752 496.331 349.467 497.75 349.669C499.286 349.887 500 349.476 500 348.373C500 346.593 495.688 341.849 494.07 341.849C493.395 341.849 493.371 341.004 494 339.349C494.886 337.018 494.609 336.437 492.75 336.731C491.332 336.954 492.001 334.063 493.5 333.487C496.051 332.508 495.157 330.042 492 329.349C488.167 328.507 488.219 327.53 492.25 324.715C494.038 323.467 495.781 322.038 496.125 321.54C496.728 320.667 502.451 321.451 504.5 322.688C505.05 323.02 506.4 323.407 507.5 323.549C508.6 323.691 510.69 324.02 512.144 324.282C514.198 324.651 515.639 323.93 518.601 321.053C522.113 317.642 522.894 317.341 528.483 317.254C531.821 317.202 535.615 316.59 536.913 315.895C538.231 315.19 540.761 314.873 542.641 315.178C545.71 315.676 545.96 315.531 545.472 313.537C545.069 311.886 545.681 310.858 547.966 309.349C549.631 308.249 550.996 307.012 550.997 306.599C550.999 306.186 552.125 305.849 553.5 305.849C554.875 305.849 556.033 305.512 556.074 305.099C556.115 304.686 556.337 303.337 556.568 302.099C556.799 300.861 556.63 299.849 556.194 299.849C555.757 299.849 555.4 298.3 555.4 296.407C555.4 293.704 555.868 292.848 557.581 292.418C561.492 291.436 561.657 285.51 557.807 284.288C556.338 283.821 556.096 283.353 556.906 282.543C557.717 281.732 558.413 281.833 559.499 282.919C560.479 283.9 562.352 284.273 565.016 284.019C568.839 283.654 569.038 283.471 568.856 280.492C568.75 278.763 568.987 276.361 569.382 275.154C570.022 273.196 568.485 268.567 564.936 261.769C564.444 260.826 564.641 259.168 565.424 257.658C566.511 255.562 566.505 254.577 565.387 251.918C564.645 250.152 563.645 248.95 563.166 249.246C562.687 249.543 561.441 249.139 560.397 248.349C558.148 246.646 554.388 246.412 553.458 247.917C552.548 249.389 546.271 248.404 544.113 246.451C543.139 245.57 541.568 244.849 540.622 244.849C539.675 244.849 537.461 244.087 535.7 243.156C533.94 242.226 531.15 241.351 529.5 241.213C527.85 241.074 525.6 240.823 524.5 240.655C522.862 240.404 522.446 240.989 522.203 243.882C521.991 246.393 521.268 247.695 519.703 248.382C518.491 248.914 517.359 250.34 517.187 251.55C516.913 253.472 516.549 253.628 514.313 252.778C512.388 252.046 511.474 252.158 510.626 253.231C508.946 255.359 503 254.193 503 251.736C503 250.698 502.591 249.849 502.09 249.849C501.59 249.849 499.241 247.814 496.87 245.326C494.499 242.839 492.041 241.003 491.406 241.247C490.772 241.49 489.67 240.6 488.957 239.269C488.245 237.938 487.219 236.849 486.677 236.849C486.135 236.849 484.134 235.029 482.23 232.804C480.326 230.58 478.258 228.933 477.634 229.144C476.405 229.56 472 224.201 472 222.29C472 221.646 471.122 220.002 470.048 218.637C468.274 216.382 468.234 215.959 469.612 213.992C471.586 211.175 470.727 208.759 467.003 206.646C463.821 204.84 463.016 202.849 465.469 202.849C466.276 202.849 466.739 202.287 466.496 201.599C466.254 200.912 467.164 199.091 468.52 197.552C470.457 195.354 471.989 194.697 475.682 194.483C478.266 194.333 480.557 193.679 480.773 193.029C480.99 192.38 481.929 191.849 482.861 191.849C483.793 191.849 485.326 190.949 486.268 189.849C487.21 188.749 488.605 187.849 489.368 187.849C490.131 187.849 491.305 187.186 491.978 186.375C492.651 185.565 494.731 184.615 496.6 184.264C498.47 183.913 500 183.326 500 182.958C500 182.59 502.292 181.403 505.093 180.319C511.084 178.001 511.653 177.359 509.564 175.27C507.409 173.115 507.579 172.903 510.75 173.799C512.263 174.226 513.389 175.084 513.253 175.704C512.9 177.312 516.155 180.849 517.986 180.849C519.608 180.849 522.707 174.764 524.076 168.894C525.157 164.261 523.181 157.914 520.236 156.558C518.721 155.86 518.154 154.94 518.523 153.778C518.826 152.823 518.197 150.48 517.125 148.571C515.368 145.443 515.328 144.95 516.72 143.557C518.766 141.511 518.767 131.179 516.721 129.519C514.876 128.021 513.839 125.066 514.924 124.396C515.385 124.111 515.979 122.737 516.246 121.341C516.643 119.264 515.77 117.926 511.434 113.963C508.521 111.3 506.244 108.395 506.374 107.507C506.504 106.619 507.663 104.772 508.948 103.404C510.811 101.421 511.286 99.8032 511.286 95.4342C511.286 92.4202 510.79 88.6922 510.184 87.1512C509.578 85.6102 508.93 82.5492 508.743 80.3492C508.44 76.7682 508.121 76.3442 505.706 76.3032C504.222 76.2772 502.471 75.7202 501.816 75.0652C500.895 74.1442 501.347 73.7302 503.812 73.2372C508.291 72.3412 507.895 69.9712 502.436 65.0032C497.661 60.6572 496.149 60.1642 492.911 61.8972C491.424 62.6922 490.58 62.5722 489.405 61.3972C488.015 60.0062 488.014 59.8492 489.397 59.8492C490.351 59.8492 490.72 59.2822 490.365 58.3572C489.49 56.0782 492.857 55.2712 494.406 57.3892C495.658 59.1012 495.763 59.0962 496.791 57.2652C497.648 55.7402 497.442 54.8952 495.787 53.1282C494.067 51.2932 493.927 50.6422 494.976 49.3782C496.7 47.3012 494.68 44.8582 491.849 45.5992C490.096 46.0572 489.878 45.8082 490.454 43.9952C490.98 42.3352 490.723 41.8522 489.317 41.8642C486.769 41.8862 484.62 43.4252 485.393 44.6762C485.75 45.2532 485.266 46.1602 484.318 46.6912C482.909 47.4792 482.823 47.9312 483.846 49.1632C484.706 50.2002 484.765 50.8762 484.032 51.3292C483.447 51.6912 483.233 52.5192 483.558 53.1682C483.883 53.8182 483.552 53.6492 482.824 52.7942C482.072 51.9112 479.573 51.1322 477.039 50.9912C474.585 50.8552 472.048 50.3042 471.401 49.7672C470.564 49.0722 469.475 50.0702 467.626 53.2242C465 57.7052 457.512 62.5602 454.757 61.5672C452.94 60.9122 448.003 64.0082 447.985 65.8152C447.952 69.1252 446.58 69.8632 443.464 68.2462C441.836 67.4022 439.407 66.9202 438.066 67.1772C435.29 67.7072 433 67.0592 433 65.7422C433 65.2512 433.597 64.8492 434.326 64.8492C436.58 64.8492 439.707 60.5342 440.305 56.5992C440.839 53.0792 440.715 52.8492 438.266 52.8492C436.831 52.8492 434.876 53.5562 433.921 54.4202C432.332 55.8592 431.833 55.7682 428 53.3492C425.698 51.8952 423.218 50.9352 422.49 51.2152C421.761 51.4942 420.898 51.0252 420.571 50.1722C420.209 49.2292 419.223 48.8192 418.055 49.1242C416.384 49.5612 416.254 49.3102 417.06 47.1902C418.188 44.2242 415.701 37.3772 413.755 38.0932C413.065 38.3482 411.164 37.8052 409.531 36.8882C406.914 35.4182 406.226 35.3892 403.723 36.6372C401.216 37.8882 400.672 37.8622 399.079 36.4202C397.125 34.6522 387.973 33.1632 386.75 34.4152ZM379 86.7902C379 88.4462 377.541 88.6832 376.211 87.2442C375.139 86.0852 375.266 85.8492 376.961 85.8492C378.082 85.8492 379 86.2722 379 86.7902ZM356 93.2902C356 93.5332 355.55 94.0092 355 94.3492C354.45 94.6892 354 94.4902 354 93.9082C354 93.3262 354.45 92.8492 355 92.8492C355.55 92.8492 356 93.0472 356 93.2902ZM292 157.456C292 157.672 291.325 157.849 290.5 157.849C289.675 157.849 289 157.413 289 156.88C289 156.348 289.675 156.171 290.5 156.487C291.325 156.804 292 157.24 292 157.456ZM282 160.349C283.375 161.135 284.05 161.778 283.5 161.778C282.95 161.778 281.375 161.135 280 160.349C278.625 159.563 277.95 158.92 278.5 158.92C279.05 158.92 280.625 159.563 282 160.349ZM464 200.967C464 201.517 463.55 201.689 463 201.349C462.45 201.009 462 200.281 462 199.731C462 199.181 462.45 199.009 463 199.349C463.55 199.689 464 200.417 464 200.967ZM176.5 375.849C176.84 376.399 176.641 376.849 176.059 376.849C175.477 376.849 175 376.399 175 375.849C175 375.299 175.198 374.849 175.441 374.849C175.684 374.849 176.16 375.299 176.5 375.849ZM400.885 428.599C400.822 430.111 400.84 432.078 400.926 432.968C401.043 434.185 400.453 434.467 398.553 434.104C396.828 433.774 395.828 434.134 395.405 435.235C395.065 436.123 394.249 436.849 393.592 436.849C390.924 436.849 386.907 439.488 386.363 441.599C386.044 442.837 385.382 443.849 384.892 443.849C383.532 443.849 383.829 446.613 385.25 447.187C386.25 447.59 386.25 447.707 385.25 447.77C383.168 447.902 383.85 451.699 386.18 452.945C388.253 454.055 388.271 454.177 386.555 455.433C384.426 456.989 385.171 460.104 387.462 459.225C389.428 458.471 389.46 460.222 387.511 461.84C385.621 463.409 386.474 464.845 389.309 464.864C390.966 464.876 391.16 465.095 390.104 465.763C388.141 467.006 389.434 469.641 392.722 471.096C394.25 471.772 396.095 472.893 396.821 473.587C398.816 475.492 399.713 475.128 400.471 472.109C400.849 470.602 401.585 469.106 402.106 468.784C402.627 468.462 403.32 465.757 403.645 462.774C403.971 459.79 404.915 456.268 405.742 454.946C406.917 453.07 407.089 450.987 406.527 445.446C405.632 436.626 405.255 432.138 405.111 428.599C405.028 426.553 404.488 425.849 403 425.849C401.513 425.849 400.97 426.554 400.885 428.599ZM395 480.485C390.877 484.695 384.673 488.849 382.51 488.849C381.669 488.849 380.21 487.949 379.268 486.849C377.035 484.241 376.023 484.319 376.019 487.099C376.018 488.337 375.9 491.149 375.758 493.349C375.564 496.353 375.874 497.349 377 497.349C378.753 497.349 381.049 499.961 380.325 501.132C380.052 501.574 380.253 502.479 380.773 503.143C382.189 504.949 383.109 510.849 381.975 510.849C380.74 510.849 380.687 516.537 381.915 517.296C382.418 517.607 383.057 517.296 383.336 516.605C383.641 515.847 383.873 516.043 383.921 517.099C383.964 518.061 383.613 518.849 383.139 518.849C382.256 518.849 380.751 527.504 380.906 531.694C380.964 533.24 380.314 534.216 378.997 534.56C376.673 535.168 376.333 537.656 378.462 538.473C379.266 538.781 380.196 539.892 380.529 540.941C381.247 543.204 383 543.493 383 541.349C383 540.524 383.477 539.849 384.059 539.849C384.641 539.849 384.881 540.233 384.591 540.702C384.301 541.171 384.753 542.408 385.595 543.452C386.725 544.852 387.266 545.011 387.66 544.057C388.076 543.052 388.512 543.029 389.627 543.954C391.548 545.549 396.338 541.249 395.635 538.56C394.952 535.951 398.813 534.608 401.715 536.446C404.772 538.383 407 538.201 407 536.016C407 535.007 407.309 533.873 407.687 533.495C408.065 533.117 408.447 532.03 408.536 531.079C408.625 530.127 409.011 525.749 409.393 521.349C409.776 516.949 410.312 512.599 410.585 511.683C410.858 510.767 410.613 509.728 410.041 509.374C408.344 508.325 408.848 504.973 411.177 501.823C413.031 499.316 413.173 498.541 412.134 496.599C411.463 495.345 410.792 493.182 410.644 491.792C410.496 490.402 409.965 488.608 409.464 487.807C408.963 487.005 408.493 485.899 408.42 485.349C408.002 482.203 406.475 480.153 403.391 478.599C401.481 477.637 399.599 476.863 399.209 476.881C398.819 476.898 396.925 478.52 395 480.485Z" fill="#323437"/>
<path fill-rule="evenodd" clip-rule="evenodd" d="M473.813 50.5322C474.534 50.8212 475.397 50.7852 475.729 50.4532C476.061 50.1212 475.471 49.8852 474.417 49.9282C473.252 49.9762 473.015 50.2132 473.813 50.5322ZM198.564 63.1422C198.94 64.1282 199.499 64.6832 199.807 64.3752C200.115 64.0682 199.808 63.2612 199.124 62.5822C198.136 61.6022 198.022 61.7172 198.564 63.1422ZM538.813 457.532C539.534 457.821 540.397 457.785 540.729 457.453C541.061 457.121 540.471 456.885 539.417 456.928C538.252 456.976 538.015 457.213 538.813 457.532ZM380.079 514.432C380.127 515.597 380.364 515.834 380.683 515.037C380.972 514.315 380.936 513.452 380.604 513.12C380.272 512.788 380.036 513.378 380.079 514.432Z" fill="#404040"/>
<path fill-rule="evenodd" clip-rule="evenodd" d="M30.733 403.973C31.412 404.657 32.219 404.964 32.526 404.656C32.834 404.348 32.279 403.789 31.293 403.413C29.868 402.871 29.753 402.985 30.733 403.973Z" fill="#373737"/>
<path fill-rule="evenodd" clip-rule="evenodd" d="M382.079 79.4321C382.127 80.5971 382.364 80.8341 382.683 80.0371C382.972 79.3151 382.936 78.4521 382.604 78.1201C382.272 77.7881 382.036 78.3781 382.079 79.4321ZM8.73297 448.973C9.41197 449.657 10.219 449.964 10.526 449.656C10.834 449.348 10.279 448.789 9.29297 448.413C7.86797 447.871 7.75297 447.985 8.73297 448.973Z" fill="black"/>
</svg>
