<?xml version="1.0" encoding="UTF-8" standalone="no"?>
<!-- Created with Inkscape (http://www.inkscape.org/) -->

<svg
   version="1.1"
   id="svg1"
   width="393.04395"
   height="576.91388"
   viewBox="0 0 393.04395 576.91388"
   xml:space="preserve"
   xmlns="http://www.w3.org/2000/svg"
   xmlns:svg="http://www.w3.org/2000/svg"><defs
     id="defs1" /><g
     id="g1"
     style="display:inline"
     transform="translate(-5252.3521,1254.6224)"><g
       id="g5"
       transform="translate(8.8388352,198.87379)"><path
         style="display:inline;fill:#000000"
         d="m 5413.1878,-678.75601 c -2.732,-1.0006 -4.2798,-3.3394 -3.2803,-4.9566 1.0701,-1.7315 6.344,-0.9001 9.0487,1.4264 4.461,3.8372 0.9448,5.989 -5.7684,3.5302 z m 8.164,-4.8664 c 0,-1.7213 -0.7316,-2.0271 -5.25,-2.1948 -8.6503,-0.3209 -10.1058,-0.453 -13.5,-1.2249 -3.4725,-0.7898 -4.1947,-2.0038 -1.75,-2.9419 0.849,-0.3258 1.5,-1.8155 1.5,-3.4327 0,-1.7744 0.9726,-3.7708 2.5668,-5.2684 2.0511,-1.927 2.45,-3.0338 1.9856,-5.5092 -0.5126,-2.7326 -0.1963,-3.3042 2.6832,-4.8496 1.8907,-1.0147 4.7372,-1.6102 6.7644,-1.4152 3.1993,0.3078 3.6369,0.7493 5.0935,5.1391 1.8202,5.4855 6.4553,10.7839 13.7845,15.7571 2.7887,1.8923 5.082,3.7269 5.0962,4.077 0.039,0.9662 -8.3932,2.0237 -10.3006,1.2918 -1.137,-0.4363 -1.6736,-0.1269 -1.6736,0.9647 0,1.1699 -0.952,1.607 -3.5,1.607 -2.8334,0 -3.5,-0.3809 -3.5,-2 z m 211.2183,-6.539 c -2.5055,-3.4058 -2.9012,-4.461 -1.6731,-4.461 2.0687,0 7.4548,5.3632 7.4548,7.4231 0,2.834 -2.4359,1.5861 -5.7817,-2.9621 z m -247.2294,-8.4816 c -2.1225,-3.9659 1.5127,-4.5846 6.8207,-1.1609 1.7583,1.1341 1.997,1.688 1,2.3203 -2.4711,1.5672 -6.6967,0.9407 -7.8207,-1.1594 z m 11.7611,0.4487 c -3.3825,-1.8351 -3.4112,-2.4583 -0.25,-5.4281 3.8412,-3.6087 3.1762,-5.6176 -0.8444,-2.5509 -4.4789,3.4163 -6.3837,3.2224 -10.8108,-1.1006 -3.6939,-3.607 -3.7204,-3.6885 -2.1692,-6.6882 1.2068,-2.3335 1.3103,-3.4531 0.4474,-4.8349 -0.6177,-0.989 -1.123,-2.8853 -1.123,-4.214 0,-1.7877 -0.7838,-2.6889 -3.0149,-3.4667 -4.0029,-1.3954 -5.2838,-4.8448 -3.0246,-8.1447 2.7125,-3.9621 3.4259,-5.355 2.444,-4.7719 -0.4975,0.2954 -1.917,0.1544 -3.1545,-0.3133 -1.7908,-0.6768 -2.25,-1.6278 -2.25,-4.66 0,-2.0954 0.695,-4.802 1.5445,-6.0148 1.1576,-1.6528 1.2828,-2.694 0.5,-4.1568 -1.4555,-2.7196 -1.3034,-4.0832 0.4555,-4.0832 0.8419,0 1.5,-0.8928 1.5,-2.0352 0,-1.1193 0.7244,-3.1408 1.6099,-4.4922 2.1895,-3.3417 1.3417,-4.8709 -3.5058,-6.3232 -4.6368,-1.3893 -4.9477,-2.076 -2.1041,-4.6494 1.1,-0.9955 2,-2.3712 2,-3.0571 0,-0.686 1.35,-1.7178 3,-2.293 1.65,-0.5752 3,-1.5192 3,-2.0979 0,-0.5786 0.9,-1.052 2,-1.052 1.2727,0 2,-0.6666 2,-1.8333 0,-1.0083 0.3375,-2.1708 0.75,-2.5833 0.4125,-0.4125 0.7816,-1.95 0.8204,-3.4167 0.1026,-3.8879 2.4262,-18.0572 3.6769,-22.4216 1.2598,-4.3962 0.7575,-5.2141 -2.6733,-4.353 -2.1532,0.5404 -2.4359,1.0487 -1.9459,3.4988 0.3205,1.6025 0.097,3.161 -0.5069,3.5342 -0.765,0.4728 -0.739,1.2142 0.089,2.5401 1.4706,2.3548 -0.5953,5.2807 -3.4124,4.8331 -2.2143,-0.3518 -2.1836,-0.1671 -1.2966,-7.8095 0.5066,-4.3651 1.1041,-5.9888 2.2038,-5.9888 1.0884,0 1.2762,-0.4876 0.6738,-1.75 -1.3563,-2.8427 -0.8236,-10.5018 0.9715,-13.9666 2.0972,-4.0482 2.1742,-5.9343 0.6361,-15.5793 -1.0937,-6.8578 -1.055,-7.9407 0.3219,-9 0.8608,-0.6622 2.4754,-3.9485 3.588,-7.3027 1.1125,-3.3542 2.6629,-7.4042 3.4453,-9 3.9285,-8.013 5.09,-13.9426 5.1716,-26.4014 0.045,-6.875 0.4536,-13.3071 0.908,-14.2937 0.4544,-0.9865 0.5635,-3.4122 0.2425,-5.3905 -0.3211,-1.9783 -0.1043,-4.4928 0.4817,-5.5878 2.2826,-4.2651 5.0092,-18.823 5.8488,-31.228 0.4839,-7.15 1.2861,-14.8494 1.7828,-17.1098 0.5027,-2.2879 0.5624,-8.9374 0.1347,-15 l -0.7683,-10.89019 -6.1049,-5.7561 c -3.9899,-3.762 -9.1247,-7.2225 -14.8217,-9.9892 -10.2829,-4.9935 -19.7709,-13.5281 -18.8699,-16.9737 0.5128,-1.9608 -1.8346,-7.2668 -6.3179,-14.281 -2.1632,-3.3844 -8.068,-15.3445 -9.9812,-20.2168 -0.6947,-1.7693 -1.9226,-3.7642 -2.7286,-4.4331 -0.806,-0.669 -2.3419,-2.9341 -3.413,-5.0336 -1.0711,-2.0995 -3.7619,-4.9628 -5.9797,-6.3628 -3.0548,-1.9284 -3.8876,-3.0014 -3.4354,-4.4262 0.3283,-1.0343 -0.041,-3.407 -0.8202,-5.2725 -1.7551,-4.2005 -0.504,-7.1196 4.7786,-11.1487 4.1567,-3.1705 4.6387,-5.6063 1.1094,-5.6063 -1.3426,0 -2.7618,-0.519 -3.1539,-1.1534 -1.1323,-1.8322 -0.8268,-8.8249 0.441,-10.0927 0.6346,-0.6346 1.1539,-1.9088 1.1539,-2.8314 0,-0.9227 0.6482,-2.2156 1.4406,-2.8732 0.7923,-0.6576 1.5798,-2.4002 1.75,-3.8725 0.2329,-2.0148 1.1111,-2.9359 3.5514,-3.7247 3.7696,-1.2185 6.181,-4.0078 6.2262,-7.2021 0.017,-1.2439 0.6561,-2.25 1.4282,-2.25 0.768,0 2.8188,-1.6201 4.5574,-3.6002 2.395,-2.7277 3.0326,-4.2424 2.6309,-6.25 -0.2916,-1.4574 -0.6309,-6.0248 -0.7541,-10.1498 -0.2017,-6.7526 -0.5519,-7.9361 -3.5145,-11.877 -2.2133,-2.9441 -3.1155,-5.0741 -2.756,-6.5064 0.4051,-1.6141 -0.2086,-2.5684 -2.5355,-3.9429 -3.037,-1.7941 -3.1012,-1.787 -6.0103,0.6608 -1.6172,1.3608 -3.5196,2.6691 -4.2274,2.9073 -1.0315,0.347 -1.0145,0.7631 0.086,2.0956 1.1007,1.3335 1.126,1.9596 0.1276,3.1626 -1.6026,1.931 -4.6207,1.931 -5.3617,0 -0.3166,-0.825 -1.2423,-1.5 -2.0573,-1.5 -0.8149,0 -1.9186,-0.7808 -2.4527,-1.7351 -0.6892,-1.2316 -2.1381,-1.7045 -4.9925,-1.6297 -2.5624,0.067 -4.2122,-0.3917 -4.5472,-1.2649 -0.2892,-0.7536 -1.4881,-1.3703 -2.6642,-1.3703 -1.4667,0 -1.9619,-0.4599 -1.5766,-1.464 0.7344,-1.9138 -4.3379,-5.536 -7.7522,-5.536 -3.7714,0 -6.8728,-3.4616 -6.1303,-6.8423 0.5128,-2.3346 -0.3045,-3.6393 -5.8712,-9.3728 -3.5568,-3.6633 -5.9659,-6.8276 -5.3535,-7.0318 0.6124,-0.2041 0.7927,-0.8901 0.4007,-1.5244 -0.5144,-0.8323 -1.3526,-0.8617 -3.012,-0.1057 -1.8118,0.8256 -3.9488,0.4782 -10.082,-1.6387 -4.2806,-1.4774 -8.7424,-2.8127 -9.9151,-2.9674 -4.0299,-0.5313 -6.1439,-1.8077 -11.3822,-6.8725 l -5.25,-5.0761 v -10.2841 -10.2842 h 16.9503 c 18.8668,0 19.6864,0.293 17.9323,6.4094 -0.4855,1.6926 -0.8826,4.2628 -0.8826,5.7116 0,1.4488 -0.675,3.1943 -1.5,3.879 -0.825,0.6847 -1.5,1.6439 -1.5,2.1314 0,0.4998 6.3315,0.6481 14.5127,0.3399 14.3866,-0.542 14.5323,-0.5257 16.7526,1.87 1.2319,1.3292 3.1386,2.5918 4.2372,2.8056 1.4631,0.2849 1.9975,1.1866 1.9975,3.371 0,1.6402 -0.3522,3.4959 -0.7827,4.1239 -0.4304,0.628 -1.2298,5.0777 -1.7764,9.8883 -0.5467,4.8106 -1.1641,9.022 -1.3722,9.3587 -0.6611,1.0697 2.7891,6.6661 7.1012,11.5186 5.4502,6.133 9.2828,6.9079 15.8931,3.2133 2.5789,-1.4414 5.8401,-2.6207 7.2472,-2.6207 3.1559,0 10.3192,3.3806 12.672,5.9804 1.7124,1.8922 1.8173,1.8627 5.3821,-1.5166 1.9996,-1.8955 3.9732,-3.4503 4.3857,-3.4551 0.4125,0 0.75,-1.3791 0.75,-3.0541 0,-3.5193 3.8447,-7.9546 6.8955,-7.9546 1.0925,0 2.2645,-0.45 2.6045,-1 0.3399,-0.55 1.9573,-1 3.5942,-1 3.0066,0 6.151,-1.5879 11.1294,-5.6204 1.6584,-1.3433 3.5162,-1.9989 4.75,-1.6762 2.689,0.7032 2.5752,2.9407 -0.2236,4.3969 -3.0978,1.6117 -3.0392,1.4909 -1.8231,3.7632 1.0587,1.9782 1.2147,1.9883 5.6058,0.3608 3.5119,-1.3016 4.4557,-2.1191 4.242,-3.6745 -0.3781,-2.7531 2.8579,-3.2827 3.7072,-0.6066 0.4497,1.4168 1.5058,2.0568 3.3943,2.0568 3.0271,0 5.3436,1.4892 6.8892,4.4287 0.8571,1.6302 1.9566,1.8901 7.1054,1.68 4.2479,-0.1734 6.7696,0.2265 8.3327,1.3214 2.9988,2.1004 6.0767,1.9778 10.7965,-0.4301 4.7298,-2.4129 11,-2.7062 11,-0.5144 0,0.8171 2.7,2.8486 6,4.5144 3.3,1.6659 6,3.218 6,3.4493 0,0.2313 -0.3995,1.4713 -0.8878,2.7555 -0.8348,2.1958 -0.6506,2.3412 3.0906,2.4393 4.3893,0.1151 11.5229,4.4213 13.3305,8.0471 0.5782,1.1598 3.2823,3.8348 6.009,5.9445 4.8278,3.7352 5.1541,3.8301 12.4577,3.6237 10.4656,-0.2959 19.1224,2.5933 24.5612,8.1972 2.2337,2.3015 4.7087,4.4361 5.5,4.7434 0.7913,0.3073 2.2936,3.5784 3.3384,7.269 1.4238,5.0291 2.4886,6.9786 4.25,7.7812 3.5983,1.6394 2.8355,4.4731 -2.6496,9.8441 -4.8061,4.7059 -6.0903,6.9057 -4.0314,6.9057 0.5327,0 0.7096,0.675 0.393,1.5 -0.3166,0.825 -0.078,1.5 0.5314,1.5 0.6088,0 1.107,-1.1091 1.107,-2.4648 0,-4.0276 2.1009,-4.5277 15.3665,-3.6576 1.4478,0.095 1.7561,0.7003 1.3742,2.6983 -0.3514,1.8382 -0.1843,2.2677 0.5834,1.5 3.3044,-3.3044 21.6527,2.3617 25.1759,7.7744 1.7675,2.7155 2.5598,3.0772 6.8157,3.1112 2.6487,0.021 5.7802,0.5547 6.959,1.1856 1.1789,0.6309 5.3118,1.1289 9.1843,1.1067 6.1811,-0.035 7.8003,0.3778 13.2585,3.3837 3.4196,1.8833 6.5696,3.9803 7,4.6601 2.2574,3.566 7.6039,6.7024 11.4249,6.7024 5.7958,0 7.5997,1.3928 9.3239,7.1987 3.5449,11.9369 1.2759,19.8991 -8.4394,29.6144 -3.1775,3.1775 -6.7233,7.557 -7.8796,9.7321 -2.9597,5.5677 -4.6133,7.4548 -6.5323,7.4548 -2.5874,0 -3.5583,4.1348 -3.0971,13.1905 0.4495,8.8291 -0.7917,17.5975 -3.1091,21.9638 -0.7749,1.4599 -1.4088,3.9755 -1.4088,5.59029 0,3.1604 -5.5812,15.2554 -7.0395,15.2554 -0.4859,0 -1.3745,1.8238 -1.9747,4.0528 -0.6436,2.39 -2.7108,5.6721 -5.0386,8 -3.9124,3.9124 -4.0152,3.9472 -11.6425,3.9472 -6.668,0 -8.0364,0.3118 -10.25,2.3356 -1.4051,1.2846 -4.7358,3.1384 -7.4016,4.1197 -3.0536,1.124 -6.9939,3.885 -10.65,7.4625 l -5.8031,5.6784 -0.35,10.1558 c -0.3493,10.1356 -0.3573,10.1634 -3.994,13.9519 -2.0042,2.0879 -4.6008,5.7086 -5.7703,8.0461 -1.7879,3.5734 -2.6008,4.25 -5.1061,4.25 -1.6388,0 -2.9796,0.3882 -2.9796,0.8625 0,0.4744 -1.35,2.5613 -3,4.6375 -1.65,2.0763 -3,4.8561 -3,6.1774 0,2.8864 -3.187,9.403 -5.563,11.3748 -0.94,0.7802 -2.7713,3.1012 -4.0696,5.1579 -3.574,5.6615 -6.4526,7.1167 -13.6505,6.9008 -3.4362,-0.1031 -7.1735,-0.8352 -8.4143,-1.6482 -1.2277,-0.8045 -3.2252,-1.4627 -4.4387,-1.4627 -1.2136,0 -3.0294,-0.7447 -4.0352,-1.655 -1.6266,-1.472 -1.8287,-1.4813 -1.8287,-0.084 0,0.864 1.8233,3.0151 4.0519,4.7802 3.4251,2.7127 3.9607,3.6249 3.4617,5.8967 -0.4431,2.0175 0.043,3.3702 1.9481,5.4263 1.396,1.5064 2.5383,3.0034 2.5383,3.3268 0,0.3233 -1.35,2.7819 -3,5.4635 -1.65,2.6815 -3,5.2671 -3,5.7455 0,3.0059 -15.4347,8.2999 -24.9253,8.5494 l -6.4253,0.1689 -0.1908,4.4409 c -0.105,2.4424 -0.5145,6.3463 -0.91,8.6752 -0.6637,3.9077 -1.0328,4.3189 -4.7833,5.3288 -3.2687,0.8802 -4.8734,0.7854 -8.1982,-0.4844 -2.2737,-0.8683 -4.4565,-1.5788 -4.8506,-1.5788 -1.3524,0 -0.7166,8.555 0.7965,10.7151 0.8981,1.2823 2.8251,2.2871 4.7418,2.4725 2.1254,0.2057 3.3423,0.9115 3.5609,2.0655 0.4274,2.256 -2.5389,3.4009 -4.9346,1.9047 -2.8989,-1.8103 -4.4207,-1.4115 -2.5407,0.6659 1.5458,1.7081 1.4923,1.9611 -0.845,3.9934 -1.3725,1.1933 -2.4932,3.1852 -2.4905,4.4263 0,1.2412 -0.7612,4.3941 -1.6975,7.0066 -1.3977,3.8996 -2.1384,4.75 -4.1369,4.75 -3.6029,0 -9.1789,6.2974 -9.1389,10.3212 0.037,3.738 3.9363,8.6788 6.849,8.6788 1.0871,0 2.7252,0.7487 3.6402,1.6637 2.6745,2.6745 1.156,7.2409 -3.9358,11.8363 -5.0849,4.5891 -8.5759,9.9833 -8.5813,13.2595 0,1.4903 -1.3336,3.1925 -3.91,5 -2.2393,1.571 -4.2906,4.0208 -4.8068,5.7405 -1.0276,3.4236 0.2317,10.9409 2.3408,13.9725 2.0675,2.972 1.754,4.7835 -0.6934,4.0067 -2.7568,-0.875 -12.6383,4.2996 -13.3634,6.9979 -0.299,1.1126 -0.5498,3.3954 -0.5573,5.0729 -0.012,2.7472 -1.5282,5.5145 -2.9636,5.41 -0.3025,-0.022 -1.7875,-0.7114 -3.3,-1.5319 z m -18.1616,-55.173 c -1.0755,-1.0755 -1.6465,0.4307 -0.8915,2.3518 0.7082,1.8021 0.7617,1.8052 1.1119,0.065 0.2024,-1.0056 0.1032,-2.0931 -0.2204,-2.4167 z m 22.0568,-437.77299 c 0.627,-1.6339 -1.416,-7.4821 -2.6137,-7.4821 -1.594,0 -2.7469,4.501 -1.7289,6.75 1.1668,2.5779 3.4844,2.9686 4.3426,0.7321 z m 79.3647,474.02999 c -0.902,-1.087 -0.6457,-2.1233 1.1632,-4.7031 1.276,-1.8199 2.4232,-3.4856 2.5493,-3.7015 0.1261,-0.2158 0.8581,0.1294 1.6266,0.7673 0.7686,0.6378 2.0704,0.9015 2.8928,0.5859 0.9272,-0.3558 1.6789,0.1281 1.9784,1.2737 0.695,2.6574 -8.4875,7.8535 -10.2103,5.7777 z m -4.9748,-3.4463 c -1.4213,-2.6558 -1.3745,-2.7638 1.5108,-3.488 3.711,-0.9313 4.7246,0.1741 2.7055,2.9507 -2.1381,2.9404 -2.8796,3.0349 -4.2163,0.5373 z m -95.7981,-68.3885 c -2.1668,-3.6725 -1.5177,-5.6773 1.838,-5.6773 2.2737,0 3.4708,5.8828 1.5815,7.7721 -1.1643,1.1643 -1.6846,0.8456 -3.4195,-2.0948 z m -112.5494,-334.71279 c -1.908,-2.7241 -2.1342,-3.9645 -0.7228,-3.9645 1.2595,0 3.273,3.7865 2.7877,5.2425 -0.2075,0.6223 -1.1366,0.047 -2.0649,-1.278 z m 198.3124,-73.4293 c 0,-0.8056 0.8503,-1.9199 1.8896,-2.4761 1.5139,-0.8102 1.9893,-0.6299 2.3912,0.9069 0.6005,2.2961 0.01,3.034 -2.4475,3.034 -1.0083,0 -1.8333,-0.6591 -1.8333,-1.4648 z m -50,-13.5942 c 0,-0.5824 0.45,-0.7809 1,-0.441 0.55,0.3399 1,0.8165 1,1.059 0,0.2426 -0.45,0.441 -1,0.441 -0.55,0 -1,-0.4765 -1,-1.059 z m 5,0.559 c 0,-0.275 0.225,-0.5 0.5,-0.5 0.275,0 0.5,0.225 0.5,0.5 0,0.275 -0.225,0.5 -0.5,0.5 -0.275,0 -0.5,-0.225 -0.5,-0.5 z m 44,0 c 0,-0.275 0.225,-0.5 0.5,-0.5 0.275,0 0.5,0.225 0.5,0.5 0,0.275 -0.225,0.5 -0.5,0.5 -0.275,0 -0.5,-0.225 -0.5,-0.5 z m 3,-7.5 c 0,-0.55 0.4765,-1 1.059,-1 0.5824,0 0.7809,0.45 0.441,1 -0.34,0.55 -0.8165,1 -1.0591,1 -0.2425,0 -0.4409,-0.45 -0.4409,-1 z m 11.3333,0.3334 c 0.3667,-0.3667 0.9667,-0.3667 1.3333,0 0.3667,0.3666 0.067,0.6666 -0.6666,0.6666 -0.7334,0 -1.0334,-0.3 -0.6667,-0.6666 z m -9.3333,-4.8334 c 0,-0.275 0.225,-0.5 0.5,-0.5 0.275,0 0.5,0.225 0.5,0.5 0,0.275 -0.225,0.5 -0.5,0.5 -0.275,0 -0.5,-0.225 -0.5,-0.5 z m -1,-5 c -1.0196,-1.2285 -0.9513,-1.5 0.3775,-1.5 0.8924,0 1.6225,0.675 1.6225,1.5 0,0.825 -0.1699,1.5 -0.3776,1.5 -0.2077,0 -0.9378,-0.675 -1.6224,-1.5 z m -2,-5.5 c 0,-0.55 0.45,-1 1,-1 0.55,0 1,0.45 1,1 0,0.55 -0.45,1 -1,1 -0.55,0 -1,-0.45 -1,-1 z m -0.5,-6 c -0.34,-0.55 -0.1415,-1 0.4409,-1 0.5825,0 1.0591,0.45 1.0591,1 0,0.55 -0.1985,1 -0.441,1 -0.2426,0 -0.7191,-0.45 -1.059,-1 z m -2.5,-5.5 c 0,-0.275 0.225,-0.5 0.5,-0.5 0.275,0 0.5,0.225 0.5,0.5 0,0.275 -0.225,0.5 -0.5,0.5 -0.275,0 -0.5,-0.225 -0.5,-0.5 z m -6.6667,-2.1666 c 0.3667,-0.3667 0.9667,-0.3667 1.3333,0 0.3667,0.3666 0.067,0.6666 -0.6666,0.6666 -0.7334,0 -1.0334,-0.3 -0.6667,-0.6666 z m -59.3712,-3.7998 c -1.4753,-1.4753 -12.3738,-2.4553 -13.6056,-1.2234 -0.8105,0.8105 -4.3565,-1.0985 -4.3565,-2.3454 0,-0.5886 8.0579,-0.9648 20.6666,-0.9648 11.3667,0 20.3695,0.2973 20.0062,0.6605 -0.3633,0.3633 -4.3697,0.7744 -8.9032,0.9135 -7.0871,0.2174 -8.437,0.5455 -9.6282,2.3395 -1.644,2.4761 -2.2356,2.5638 -4.1793,0.6201 z m 46.0379,0.9664 c 0,-0.275 0.225,-0.5 0.5,-0.5 0.275,0 0.5,0.225 0.5,0.5 0,0.275 -0.225,0.5 -0.5,0.5 -0.275,0 -0.5,-0.225 -0.5,-0.5 z m -87.9417,-2.391 c -1.5244,-2.8483 -1.3741,-3.109 1.7924,-3.109 4.016,0 9.3124,2.0104 8.8616,3.3637 -0.2082,0.625 -2.4524,1.2683 -4.9871,1.4296 -3.7481,0.2385 -4.8062,-0.076 -5.6669,-1.6843 z m 100.0849,1.0007 c -0.8343,-0.5286 -0.9709,-1.0982 -0.3548,-1.4789 0.5511,-0.3406 1.26,0.053 1.5754,0.875 0.6626,1.7268 0.6002,1.7576 -1.2206,0.6039 z m -28.1432,-2.1097 c 0,-1.6597 0.6666,-2 3.9182,-2 5.0641,0 7.0896,0.816 6.4116,2.5828 -0.3667,0.9558 -2.137,1.4172 -5.4368,1.4172 -4.2264,0 -4.893,-0.2725 -4.893,-2 z m -138,-1.5 c 0,-0.275 0.225,-0.5 0.5,-0.5 0.275,0 0.5,0.225 0.5,0.5 0,0.275 -0.225,0.5 -0.5,0.5 -0.275,0 -0.5,-0.225 -0.5,-0.5 z"
         id="path2"
         transform="translate(-8.8388352,-198.87379)" /><path
         style="display:inline;fill:#daaa44;fill-opacity:1"
         d="m 5512.0607,-1093.645 c 0,-0.6033 0.5248,-1.9372 1.1662,-2.9643 0.9508,-1.5225 0.776,-2.3635 -0.9464,-4.5531 -2.9629,-3.7668 -14.1012,-12.2415 -15.4935,-11.7884 -0.4255,0.1385 -2.1703,-1.3389 -3.8773,-3.2831 -2.3315,-2.6554 -3.6096,-3.3743 -5.1374,-2.8893 -3.8111,1.2095 9.9327,-14.2401 16.2774,-18.2977 5.3655,-3.4315 5.9946,-4.2 6.5854,-8.0457 0.6966,-4.5344 -1.3185,-9.2482 -3.9536,-9.2482 -1.0682,0 -1.1328,-1.0127 -0.3252,-5.0972 1.1296,-5.7129 0.2196,-7.1236 -4.2956,-6.6597 -2.227,0.2289 -2.633,-0.2817 -3.717,-4.6743 -1.6086,-6.5185 -3.2683,-8.0377 -8.5313,-7.8096 -6.7983,0.2948 -7.916,-0.3664 -7.1872,-4.2516 0.3444,-1.8359 0.071,-4.8729 -0.6072,-6.7489 -1.0685,-2.955 -0.9412,-4.255 0.9527,-9.7275 2.4136,-6.9744 1.8564,-11.1056 -1.8477,-13.7001 -1.0624,-0.7441 -2.0735,-2.5855 -2.247,-4.092 -0.2928,-2.543 -0.7091,-2.7749 -5.8153,-3.2391 l -5.5,-0.5 -0.5806,-6.5 c -0.3193,-3.575 -0.8905,-7.4442 -1.2692,-8.5982 -0.7227,-2.202 -4.4908,-4.4018 -7.54,-4.4018 -0.9876,0 -3.779,-1.1174 -6.203,-2.4832 -6.3242,-3.5634 -8.7269,-4.5168 -11.3834,-4.5168 -1.3921,0 -3.3988,-1.2511 -4.9349,-3.0767 -2.4825,-2.9502 -3.0559,-5.6597 -2.6053,-12.3091 0.1946,-2.8719 0.172,-2.8836 -4.6922,-2.4162 -3.1623,0.3039 -7.0378,1.7298 -10.978,4.039 -5.0601,2.9657 -7.2509,3.6281 -12.9519,3.9162 l -6.8615,0.3468 -0.3023,-5.25 c -0.3129,-5.435 -1.0662,-6.3183 -3.1977,-3.75 -1.6361,1.9714 -7.6052,1.9714 -8.3617,0 -0.3166,-0.825 -1.4897,-1.5 -2.607,-1.5 -1.121,0 -2.0313,-0.6591 -2.0313,-1.4707 0,-0.809 -1.3289,-3.3965 -2.953,-5.75 -3.29,-4.7677 -3.2602,-9.0596 0.075,-10.8448 1.0327,-0.5526 1.8777,-1.7446 1.8777,-2.6487 0,-0.9041 0.5162,-3.0713 1.1471,-4.816 1.5933,-4.4063 9.8685,-8.5136 17.8529,-8.861 2.3011,-0.1001 2.6325,-0.7452 4.1657,-8.1088 2.2728,-10.9158 2.2374,-14.7178 -0.1657,-17.7728 -2.9183,-3.71 -2.5722,-6.3321 1,-7.5773 3.6676,-1.2786 3.7554,-1.9121 0.4398,-3.1727 -3.8102,-1.4487 -1.9854,-2.9772 3.5541,-2.9772 2.6817,0 6.1333,-0.478 7.6702,-1.0624 2.1502,-0.8175 2.8944,-0.7621 3.2285,0.2404 0.2389,0.7165 1.6987,2.5673 3.2442,4.1127 2.4231,2.4231 3.3106,2.716 6.4467,2.1277 3.8823,-0.7283 12.4165,-5.0883 12.4165,-6.3434 0,-0.4146 1.125,-1.2665 2.5,-1.893 2.9428,-1.3408 3.3023,-3.182 0.6213,-3.182 -1.7632,0 -3.0482,-2.1283 -4.5581,-7.5496 -0.5108,-1.8342 -0.2015,-2.0065 2.9422,-1.6395 1.9322,0.2255 3.774,0.8322 4.0929,1.3482 0.3397,0.5497 1.2004,0.4229 2.0791,-0.3063 0.8246,-0.6844 3.822,-2.0516 6.6609,-3.0383 2.8389,-0.9867 6.1526,-2.9236 7.3637,-4.3042 2.687,-3.0631 4.7361,-3.2936 3.9922,-0.4491 -0.3201,1.2242 0.01,2.2708 0.8061,2.5773 1.8113,0.6951 2.7395,3.3528 1.6548,4.7383 -1.7599,2.248 -2.0477,6.2503 -0.7258,10.0953 2.1975,6.3922 7.6757,9.5162 10.5707,6.0279 0.6846,-0.825 2.2882,-1.5 3.5634,-1.5 1.2752,0 2.5949,-0.4472 2.9327,-0.9937 0.3378,-0.5466 2.4516,-0.8485 4.6973,-0.6708 3.2343,0.2558 4.1795,-0.045 4.5465,-1.4491 0.6381,-2.4398 5.4805,-3.3235 8.9371,-1.6308 1.7509,0.8573 4.8281,1.2238 8.1029,0.9648 5.0439,-0.3988 5.3732,-0.603 7.3665,-4.5689 2.2732,-4.5227 4.709,-7.6515 5.9568,-7.6515 0.4363,0 1.5809,2.807 2.5435,6.2377 1.1817,4.2117 2.7232,7.1263 4.746,8.9739 l 2.9959,2.7363 -6.1813,6.0861 c -8.0254,7.9019 -10.687,15.8168 -4.1889,12.4565 2.7475,-1.4208 2.9693,-1.38 4.0929,0.7537 1.7441,3.3116 2.5048,3.5485 8.2068,2.5564 4.1153,-0.7161 5.7678,-1.6116 8.0289,-4.3511 2.3101,-2.7991 3.5452,-3.4495 6.55,-3.4495 2.0366,0 4.1305,0.4003 4.653,0.8895 0.5225,0.4892 3.7276,1.8867 7.1224,3.1057 4.8526,1.7424 6.4289,2.8352 7.3714,5.1106 0.6593,1.5918 1.7067,2.9543 2.3275,3.0277 0.6208,0.073 3.1537,0.238 5.6287,0.3658 2.475,0.1277 6.75,0.7609 9.5,1.4069 2.75,0.6461 6.5001,0.9041 8.3337,0.5733 4.2378,-0.7646 11.7321,2.9675 18.3887,9.1576 5.2836,4.9133 8.1057,6.2767 12.721,6.1455 4.0525,-0.1152 4.8542,0.7743 6.596,7.3187 3.0005,11.2741 1.1165,16.943 -9.1238,27.4526 -4.0786,4.1859 -7.4156,8.1083 -7.4156,8.7165 0,2.4244 -4.565,7.7162 -6.6621,7.7228 -2.6801,0.01 -3.6753,4.7034 -3.2486,15.3258 0.3569,8.8841 -0.7007,15.9362 -3.1864,21.2468 -1.0466,2.2361 -1.9029,5.1177 -1.9029,6.4035 0,2.8854 -4.6972,13.0307 -6.0332,13.0307 -0.536,0 -1.532,2.0844 -2.2134,4.6321 -0.8236,3.0794 -1.989,4.9738 -3.4769,5.6517 -1.231,0.5609 -2.5021,1.8515 -2.8247,2.868 -0.6042,1.9035 -1.661,2.1016 -12.1261,2.2726 -3.7981,0.062 -5.7927,0.6499 -7.5,2.2104 -1.2791,1.1691 -4.5399,3.0882 -7.2461,4.2646 -5.7113,2.4827 -12.5224,7.8071 -15.7055,12.2774 -1.875,2.6331 -2.2515,4.5866 -2.3995,12.4491 l -0.1755,9.326 -3.9305,4.2741 c -2.1618,2.3507 -4.5337,5.7365 -5.2709,7.524 -1.0684,2.5905 -1.9174,3.25 -4.1839,3.25 -1.9314,0 -3.2232,0.7218 -4.0272,2.25 -0.6511,1.2375 -2.1777,3.4458 -3.3926,4.9072 -1.2148,1.4615 -2.491,4.4221 -2.8359,6.5791 -0.3449,2.1571 -1.6466,5.4266 -2.8926,7.2657 -2.3309,3.4404 -4.7655,5.0076 -4.7655,3.0678 z m 19.4477,-227.3453 c -0.3238,-0.8438 -0.4445,-3.0394 -0.2682,-4.8793 0.3455,-3.6062 -0.09,-3.4966 11.5705,-2.9082 1.8016,0.091 1.4973,3.1837 -0.5788,5.8822 -2.2606,2.9384 -9.8122,4.2801 -10.7235,1.9053 z m -6.9477,-3.7245 c 0.3399,-0.55 0.843,-1 1.118,-1 0.275,0 0.2219,0.45 -0.118,1 -0.34,0.55 -0.8431,1 -1.1181,1 -0.275,0 -0.2219,-0.45 0.1181,-1 z"
         id="path1" /></g></g></svg>
