<?xml version="1.0" encoding="UTF-8" standalone="no"?>
<!-- Created with Inkscape (http://www.inkscape.org/) -->

<svg
   version="1.1"
   id="svg1"
   width="746.18982"
   height="635.93738"
   viewBox="0 0 746.18982 635.93738"
   xmlns="http://www.w3.org/2000/svg"
   xmlns:svg="http://www.w3.org/2000/svg">
  <defs
     id="defs1" />
  <g
     id="g1"
     transform="translate(-1345.5992,61.199959)">
    <path
       style="fill:#000000"
       d="m 1753.8271,573.76062 c -1.2497,-0.5019 -2.5457,-1.6252 -2.8799,-2.4963 -0.3749,-0.977 0.4955,-2.7381 2.2722,-4.5972 2.2643,-2.3693 3.5211,-2.9197 5.8799,-2.5749 1.65,0.2412 4.744,-0.1759 6.8757,-0.9268 2.1316,-0.751 4.1226,-1.3654 4.4243,-1.3654 0.3017,0 -0.4426,1.055 -1.654,2.3445 -1.2578,1.3389 -1.9472,3.0101 -1.6072,3.896 0.44,1.1466 -0.8889,2.2309 -5.0926,4.1555 -3.1284,1.4322 -5.7461,2.5755 -5.8171,2.5406 -0.071,-0.035 -1.1516,-0.474 -2.4013,-0.976 z m -76.4988,-4.3949 c -0.974,-0.7242 -3.5925,-1.6081 -5.8189,-1.9641 -3.005,-0.4805 -3.9658,-1.0647 -3.7291,-2.2673 0.1754,-0.8909 1.1049,-2.1149 2.0655,-2.7198 1.2925,-0.814 2.2638,-0.7769 3.7364,0.1428 1.0945,0.6835 3.5039,1.2427 5.3543,1.2427 1.8504,0 4.7815,0.494 6.5135,1.0978 1.7321,0.6038 3.1493,1.515 3.1493,2.0248 0,0.5098 -1.0125,1.2999 -2.25,1.7557 -1.2375,0.4559 -3.375,1.0933 -4.75,1.4165 -1.4099,0.3314 -3.2723,0.014 -4.271,-0.7291 z m -97.5375,-10.6407 c 0.1971,-0.5913 0.7859,-1.075 1.3084,-1.075 0.5225,0 1.1112,0.4837 1.3083,1.075 0.1971,0.5912 -0.3917,1.075 -1.3083,1.075 -0.9167,0 -1.5055,-0.4838 -1.3084,-1.075 z m 204.8109,-1.9191 c -1.0515,-2.5386 -0.9818,-3.3885 0.4586,-5.5868 0.9343,-1.4259 1.4768,-2.8145 1.2056,-3.0858 -0.2712,-0.2712 -1.6199,0.2452 -2.9972,1.1476 -2.1018,1.3772 -3.1802,1.4586 -6.714,0.5071 -4.005,-1.0784 -4.362,-0.9899 -7.3327,1.8192 -1.7175,1.624 -4.1726,3.4926 -5.4557,4.1524 -1.2831,0.6597 -4.2565,1.274 -6.6076,1.365 -3.6385,0.1408 -4.8806,-0.382 -8.3463,-3.513 -2.2394,-2.0232 -5.7909,-4.1559 -7.8924,-4.7395 -2.1014,-0.5835 -4.3181,-1.0635 -4.9261,-1.0665 -0.6079,0 -1.5227,1.4569 -2.0328,3.2444 -0.7492,2.6252 -1.6379,3.427 -4.6221,4.1708 -2.5489,0.6353 -4.5076,0.5504 -6.317,-0.2741 -1.4424,-0.6572 -2.8551,-2.084 -3.1393,-3.1708 -0.2842,-1.0867 -1.0334,-1.9759 -1.6649,-1.9759 -0.6315,0 -2.8274,-0.9 -4.8797,-2 -2.0524,-1.1 -4.9707,-2.0052 -6.4852,-2.0115 -2.2066,-0.01 -3.122,-0.7807 -4.6079,-3.8837 -1.0209,-2.1317 -1.5763,-4.7483 -1.2357,-5.8214 0.449,-1.4146 -0.013,-2.237 -1.6834,-2.9982 -1.9723,-0.8986 -2.2457,-1.6396 -1.9087,-5.1733 0.2163,-2.2684 0.7908,-4.3701 1.2766,-4.6703 0.4858,-0.3003 0.1744,-1.6276 -0.6919,-2.9498 -0.8663,-1.3221 -1.2413,-2.9439 -0.8333,-3.6039 0.5445,-0.8811 -0.097,-1.0323 -2.4139,-0.569 -3.0963,0.6193 -3.1554,0.5601 -3.1554,-3.1568 0,-2.8315 0.6943,-4.4484 2.75,-6.4037 1.5125,-1.4387 3.9933,-2.9231 5.5129,-3.2987 1.5197,-0.3757 3.3197,-0.228 4,0.3282 0.7838,0.6407 3.1582,0.704 6.4805,0.1729 2.8839,-0.461 6.2589,-1.5515 7.5,-2.4233 1.4027,-0.9852 2.2566,-2.6167 2.2566,-4.3113 v -2.7262 h 10.2808 c 6.3775,0 10.5539,-0.4178 11,-1.1005 0.3955,-0.6053 2.5192,-2.2118 4.7192,-3.5701 2.2,-1.3583 6.025,-3.2695 8.5,-4.2471 3.0538,-1.2063 7.3507,-1.7974 13.3709,-1.8396 7.2675,-0.051 9.0387,0.2379 9.7996,1.5976 0.5299,0.9468 2.1654,1.6597 3.8077,1.6597 1.5834,0 3.4735,0.6594 4.2003,1.4653 0.7268,0.8059 1.9195,2.175 2.6504,3.0423 0.7682,0.9116 2.1041,1.331 3.1659,0.994 1.0102,-0.3206 2.0957,-0.1641 2.4121,0.3478 0.3164,0.5119 3.7218,1.7019 7.5677,2.6444 5.843,1.4319 7.8003,1.5198 11.9067,0.5347 3.5101,-0.8421 5.9818,-0.8842 8.6504,-0.1473 2.9659,0.8189 4.3787,0.7036 6.8522,-0.5592 1.7139,-0.8749 4.3848,-2.4832 5.9355,-3.5739 1.5507,-1.0908 3.2437,-3.0991 3.7623,-4.4631 0.5991,-1.5758 0.5809,-3.8243 -0.05,-6.1676 -0.5461,-2.0282 -2.4642,-5.0503 -4.2623,-6.7157 -1.7981,-1.6654 -4.4847,-3.5424 -5.9702,-4.171 -1.4854,-0.6287 -6.0377,-4.3128 -10.1161,-8.1869 -4.0785,-3.8741 -7.8911,-7.0438 -8.4725,-7.0438 -0.5814,0 -2.3291,-1.0634 -3.8838,-2.3632 -1.5547,-1.2997 -3.8703,-2.6899 -5.1457,-3.0893 -1.2755,-0.3993 -3.1863,-2.1484 -4.2463,-3.8868 -1.06,-1.7384 -1.929,-3.7232 -1.931,-4.4107 0,-0.6875 1.1152,-1.25 2.4828,-1.25 1.9238,0 2.8378,-0.8404 4.0382,-3.7134 0.8533,-2.0423 2.2222,-4.4544 3.0418,-5.3601 1.1517,-1.2726 1.2566,-2.2614 0.4619,-4.3517 -0.5657,-1.4878 -1.0284,-3.0488 -1.0284,-3.4689 0,-0.4202 2.2589,-1.822 5.0197,-3.1152 3.336,-1.5624 4.6855,-2.6855 4.023,-3.3479 -0.6625,-0.6625 -2.7656,-0.5899 -6.2698,0.2165 -2.9001,0.6673 -7.0729,2.0798 -9.2729,3.1389 -2.2,1.0591 -6.25,2.5053 -9,3.2137 -2.75,0.7085 -6.7311,2.3642 -8.8468,3.6795 -3.4644,2.1536 -3.785,2.7003 -3.2258,5.5 0.3416,1.7098 1.6529,4.1412 2.9142,5.4033 1.9534,1.9547 2.7008,2.1396 5.0452,1.2483 1.5136,-0.5754 3.8457,-0.7718 5.1826,-0.4362 1.3368,0.3355 2.4306,0.765 2.4306,0.9545 0,0.1895 -0.5065,1.4561 -1.1255,2.8147 -0.619,1.3586 -2.194,2.7383 -3.5,3.0661 -1.306,0.3278 -3.4067,0.3369 -4.6683,0.02 -1.5696,-0.3939 -2.8814,0.074 -4.155,1.481 -1.0237,1.1311 -2.7215,2.0566 -3.773,2.0566 -1.0514,0 -3.4049,1.1389 -5.23,2.531 -2.8964,2.2092 -3.649,2.3802 -5.9203,1.3453 -2.3216,-1.0577 -2.5373,-1.591 -2.0008,-4.9462 0.5509,-3.4452 0.3443,-3.8935 -2.4632,-5.3453 -1.6856,-0.8717 -3.7354,-1.5848 -4.5553,-1.5848 -0.8198,0 -1.7557,-0.4289 -2.0797,-0.9532 -0.324,-0.5242 1.6855,-2.485 4.4655,-4.3572 4.0111,-2.7012 4.7785,-3.6331 3.7169,-4.5142 -0.7575,-0.6286 -2.8776,-0.8604 -4.8874,-0.5342 -1.9523,0.3168 -4.4748,0.081 -5.6055,-0.5243 -1.1307,-0.6051 -2.3532,-2.454 -2.7166,-4.1086 -0.3634,-1.6545 -0.8279,-3.0083 -1.0321,-3.0083 -0.2042,0 -2.531,0.4731 -5.1705,1.0513 -4.2323,0.9271 -5.0197,1.5262 -6.6659,5.0718 -1.2101,2.6063 -3.0568,4.5881 -5.25,5.6339 -3.1422,1.4984 -3.3833,1.9515 -3.3833,6.3568 0,2.9788 -0.5846,5.3279 -1.5715,6.3148 -0.8643,0.8642 -2.1776,1.5714 -2.9184,1.5714 -0.7409,0 -2.2837,1.5156 -3.4286,3.368 -1.1448,1.8524 -2.0815,4.9731 -2.0815,6.9349 0,1.9618 -0.4243,4.6827 -0.9428,6.0464 -0.5185,1.3638 -1.8528,2.7684 -2.9652,3.1215 -1.3007,0.4128 -2.2508,1.8583 -2.6619,4.0499 -0.3517,1.8744 -1.2556,3.9194 -2.0087,4.5445 -1.1373,0.9438 -0.97,1.6703 0.9865,4.2856 1.2958,1.7321 3.0628,4.5483 3.9268,6.2583 0.864,1.7101 2.9422,3.6772 4.6181,4.3714 1.6759,0.6942 3.0403,1.545 3.0318,1.8908 -0.01,0.3458 -0.436,1.2941 -0.9503,2.1073 -0.6557,1.037 -2.7591,1.4851 -7.0416,1.5 -5.0801,0.018 -6.3911,0.3885 -7.7996,2.2058 -1.2789,1.6499 -2.9195,2.2441 -6.7057,2.4286 -3.5142,0.1713 -5.8553,-0.3079 -7.832,-1.6031 -1.8824,-1.2334 -4.4844,-1.8094 -7.8296,-1.7332 -2.7557,0.063 -6.0844,0.8179 -7.3973,1.6781 -1.3128,0.8602 -3.0828,2.9098 -3.9334,4.5546 -0.8506,1.6448 -2.3224,2.9746 -3.2708,2.9552 -0.9484,-0.02 -2.8493,-0.6786 -4.2243,-1.4646 -1.375,-0.786 -2.8375,-1.4451 -3.25,-1.4646 -0.4125,-0.02 -0.75,0.7645 -0.75,1.7421 0,0.9776 0.6791,2.747 1.5091,3.9321 0.83,1.185 1.6175,4.6549 1.75,7.7109 0.1496,3.4513 0.7341,5.7458 1.5428,6.0565 0.7161,0.275 1.025,0.052 0.6866,-0.4955 -0.3384,-0.5476 0.096,-1.2687 0.966,-1.6024 0.8698,-0.3338 2.9233,-0.051 4.5634,0.6283 1.6401,0.6794 2.9821,1.8291 2.9821,2.5549 0,0.7258 -0.39,1.5607 -0.8667,1.8553 -0.4805,0.297 -0.4056,2.5501 0.1682,5.0575 0.5691,2.4871 0.7368,4.8199 0.3727,5.184 -0.3641,0.3641 -1.4877,-0.085 -2.4969,-0.9986 -1.0091,-0.9133 -2.5869,-1.6605 -3.5061,-1.6605 -1.1812,0 -1.6712,0.8587 -1.6712,2.9286 0,1.6107 -0.6966,3.6251 -1.5479,4.4764 -1.1514,1.1514 -1.2885,2.0323 -0.5351,3.4399 0.5569,1.0407 0.7284,2.1763 0.3811,2.5236 -0.3473,0.3473 -1.7111,0.6315 -3.0306,0.6315 -1.3194,0 -3.3267,-0.4965 -4.4605,-1.1033 -1.5655,-0.8378 -2.253,-0.7932 -2.858,0.1857 -0.6489,1.0499 -1.089,1.0464 -2.3728,-0.019 -0.8669,-0.7194 -1.5762,-2.5423 -1.5762,-4.0508 0,-1.5085 -0.9351,-3.9314 -2.078,-5.3844 -1.5422,-1.9605 -1.9084,-3.4134 -1.4205,-5.6348 0.4289,-1.9531 0.2627,-2.9932 -0.4783,-2.9932 -0.6246,0 -1.9941,-1.9405 -3.0432,-4.3122 -1.0491,-2.3717 -2.8891,-5.1842 -4.0889,-6.25 -1.1998,-1.0658 -3.0346,-3.8443 -4.0772,-6.1745 -1.0427,-2.3302 -2.7223,-4.6791 -3.7325,-5.2197 -1.0102,-0.5407 -2.0609,-2.1558 -2.3349,-3.5893 -0.2741,-1.4335 -0.1501,-5.7777 0.2753,-9.6537 0.7191,-6.5507 0.6083,-7.2326 -1.5726,-9.674 -1.2905,-1.4446 -4.9031,-4.4266 -8.028,-6.6266 -3.1249,-2.2 -7.7679,-5.8058 -10.3177,-8.0128 -2.5499,-2.2071 -6.5544,-4.6459 -8.8989,-5.4197 -2.5761,-0.8502 -5.8275,-3.1043 -8.2176,-5.6973 -2.1752,-2.3598 -3.7167,-4.9114 -3.4255,-5.6702 0.2911,-0.7588 -0.1661,-1.9568 -1.0161,-2.6622 -0.8501,-0.7055 -1.5455,-2.5618 -1.5455,-4.1251 0,-1.8578 -0.7225,-3.229 -2.0857,-3.9586 -1.1471,-0.6139 -2.1833,-0.9672 -2.3027,-0.7851 -0.1193,0.182 -1.045,1.6507 -2.0571,3.2637 l -1.8401,2.9328 -1.8572,-2.2935 c -1.0215,-1.2615 -1.8572,-3.8329 -1.8572,-5.7142 0,-1.9167 -0.5824,-3.6441 -1.3246,-3.9289 -0.7285,-0.2795 -3.4285,0.3936 -6,1.4959 -2.5715,1.1023 -4.6754,2.6051 -4.6754,3.3396 0,0.7346 0.5512,1.8868 1.2249,2.5605 0.9595,0.9595 0.9631,1.6443 0.017,3.1594 -0.6644,1.064 -0.9559,3.1903 -0.6477,4.7251 0.3082,1.5348 1.0881,3.4896 1.7331,4.344 0.645,0.8544 3.2025,2.9394 5.6832,4.6333 3.5955,2.455 4.8904,4.1684 6.3834,8.4465 1.1777,3.3748 3.5724,7.1298 6.4519,10.1168 4.1937,4.3502 4.9767,4.75 9.3033,4.75 4.5954,0 4.7329,0.088 5.0377,3.2385 0.2842,2.9368 1.0938,3.6596 8.6921,7.7599 5.3424,2.8829 9.6556,6.0681 11.9026,8.7896 3.3938,4.1104 3.4537,4.3214 1.6214,5.7083 -1.0465,0.792 -2.168,1.4544 -2.4922,1.4719 -0.3242,0.017 -1.0762,-1.0365 -1.6711,-2.3421 -0.7428,-1.6303 -2.2608,-2.5951 -4.8458,-3.0801 -3.2236,-0.6047 -4.0217,-0.3715 -5.5567,1.6239 -0.9858,1.2816 -1.8025,3.2666 -1.8147,4.4111 -0.013,1.2112 1.0228,2.6403 2.4778,3.419 1.375,0.7359 2.5,1.9001 2.5,2.5872 0,0.6871 0.2563,1.9171 0.5695,2.7334 0.3655,0.9524 -0.5302,2.1338 -2.5,3.2974 -1.6882,0.9973 -3.0695,2.5817 -3.0695,3.5209 0,0.9392 -1.165,3.0922 -2.5889,4.7844 -1.4239,1.6922 -3.4971,3.0767 -4.607,3.0767 -1.3386,0 -1.8335,-0.4813 -1.4698,-1.429 0.3015,-0.7859 0.8508,-3.0409 1.2204,-5.011 0.3696,-1.9702 1.071,-3.8287 1.5586,-4.1301 0.4877,-0.3014 0.8867,-1.1795 0.8867,-1.9514 0,-0.7719 -0.9014,-3.8127 -2.0032,-6.7573 -1.5879,-4.2438 -2.7328,-5.7017 -5.5228,-7.0321 -1.9358,-0.9231 -3.9482,-2.8058 -4.4721,-4.1838 -0.5744,-1.5107 -1.7394,-2.5053 -2.9347,-2.5053 -1.0901,0 -3.2388,-1.575 -4.7747,-3.5 -2.1891,-2.7435 -3.5143,-3.5 -6.1315,-3.5 -2.8022,0 -4.5205,-1.1654 -10.6899,-7.25 -4.043,-3.9875 -8.8082,-8.6 -10.5894,-10.25 -1.7811,-1.65 -4.9054,-6.6064 -6.9428,-11.0142 -3.2897,-7.117 -4.2055,-8.2644 -8.1812,-10.25 -2.4623,-1.2297 -5.1367,-2.2358 -5.9431,-2.2358 -0.8063,0 -2.5571,1.1792 -3.8904,2.6205 -1.3334,1.4413 -4.4134,3.4831 -6.8446,4.5374 -2.4311,1.0543 -6.1323,3.4637 -8.2248,5.3541 -2.0925,1.8905 -4.9291,3.7195 -6.3036,4.0645 -1.5952,0.4003 -4.0696,-0.1331 -6.8409,-1.4747 -2.3881,-1.156 -5.1804,-2.1018 -6.2052,-2.1018 -1.0248,0 -3.302,-0.5203 -5.0606,-1.1562 -2.8147,-1.0178 -3.6009,-0.874 -6.571,1.2018 -1.8555,1.2969 -3.6954,2.8297 -4.0887,3.4062 -0.3932,0.5765 -0.4479,4.213 -0.1216,8.0811 l 0.5934,7.0329 -5.5698,4.2053 c -3.0634,2.3129 -7.6697,4.7669 -10.2362,5.4533 -2.9958,0.8013 -5.5491,2.3271 -7.1318,4.2619 -1.3558,1.6575 -4.2323,5.8414 -6.3921,9.2974 -2.1597,3.4561 -3.9268,7.3238 -3.9268,8.595 0,1.2712 0.9,3.1258 2,4.1213 1.1,0.9955 2,2.255 2,2.799 0,0.544 -1.5714,2.3867 -3.4919,4.095 -1.9205,1.7083 -4.058,4.906 -4.75,7.106 -1.0112,3.2148 -1.7883,4.0612 -3.9587,4.3116 -1.5388,0.1776 -3.9626,1.7491 -5.6343,3.6531 -1.6136,1.8378 -3.1237,3.9111 -3.3558,4.6073 -0.2956,0.8869 -3.6538,1.3694 -11.2184,1.6121 -7.4556,0.2392 -11.4523,0.8058 -12.9162,1.8312 -1.1659,0.8166 -2.8071,1.4925 -3.6472,1.502 -0.8402,0.01 -2.5813,1.1282 -3.8692,2.4861 -1.8707,1.9724 -2.7256,2.2634 -4.2513,1.4468 -1.0503,-0.5621 -3.0502,-3.2729 -4.4443,-6.024 -1.3964,-2.7556 -3.641,-5.506 -4.9981,-6.1243 -1.8646,-0.8496 -3.4129,-0.8091 -6.3697,0.1668 -2.2177,0.7319 -5.394,1.0101 -7.3477,0.6436 -2.3499,-0.4408 -3.8069,-1.4481 -4.5942,-3.176 -0.6341,-1.3917 -1.1529,-4.7846 -1.1529,-7.5397 0,-4.2718 -0.4345,-5.4062 -2.9508,-7.7044 -2.6362,-2.4078 -2.8613,-3.0681 -2.1115,-6.1937 0.4616,-1.9242 1.7546,-5.5235 2.8733,-7.9985 1.1187,-2.475 2.5402,-7.321 3.1589,-10.7688 0.6187,-3.4478 0.8282,-6.7488 0.4656,-7.3354 -0.3625,-0.5867 -0.6262,-4.0657 -0.5858,-7.7313 0.055,-5.0235 -0.4688,-7.7074 -2.1287,-10.8999 -2.0967,-4.0327 -2.1221,-4.3676 -0.53,-7 0.9197,-1.5205 2.4904,-2.922 3.4905,-3.1144 1.0002,-0.1925 2.7185,-1.1532 3.8185,-2.1351 1.1,-0.9819 3.0341,-2.0991 4.298,-2.4828 1.2638,-0.3837 2.8388,-0.2648 3.5,0.2642 0.6611,0.5289 6.152,1.295 12.202,1.7024 6.0499,0.4073 14.3749,0.9035 18.4999,1.1024 4.125,0.199 10.7034,0.6425 14.6187,0.9857 4.3943,0.3851 7.889,0.2116 9.1314,-0.4533 1.4496,-0.7758 2.3295,-2.8338 3.1447,-7.3554 0.6226,-3.4531 1.5747,-10.3909 2.1158,-15.4173 0.541,-5.0265 0.7038,-10.539 0.3616,-12.25 -0.3459,-1.7292 -1.2531,-3.111 -2.0427,-3.111 -0.7812,0 -2.525,-1.1045 -3.875,-2.4545 -1.35,-1.35 -2.4801,-3.4875 -2.5113,-4.75 -0.038,-1.5562 -1.9563,-3.8388 -5.9544,-7.0872 -4.741,-3.852 -6.8807,-4.9081 -10.9108,-5.3854 -2.9116,-0.3449 -5.6891,-1.3406 -6.6253,-2.3752 -1.3327,-1.4726 -1.4002,-2.1774 -0.389,-4.0667 0.9036,-1.68838 0.9244,-2.38495 0.08,-2.66652 -0.6289,-0.20963 -1.1434,-0.99738 -1.1434,-1.75056 0,-0.82221 2.6626,-2.16822 6.6633,-3.36846 6.3803,-1.91414 6.7732,-1.92462 9.25,-0.24677 1.9494,1.3206 4.0208,1.65443 8.4082,1.3551 l 5.8216,-0.39718 -0.6877,-4.1533 c -0.3782,-2.28431 -1.0854,-4.91122 -1.5716,-5.83756 -0.4861,-0.92634 -0.8838,-2.38884 -0.8838,-3.25 0,-1.07304 0.944,-1.56574 3,-1.56574 1.9679,0 3,0.50391 3,1.46482 0,0.80565 0.8704,1.93065 1.9342,2.5 1.0639,0.56935 3.2771,1.03518 4.9182,1.03518 1.6412,0 3.6958,-0.27314 4.5658,-0.60699 0.87,-0.33384 1.5818,-1.62271 1.5818,-2.86414 0,-1.75308 1.0025,-2.64004 4.4892,-3.97161 2.4691,-0.94296 5.3941,-2.86478 6.5,-4.27072 1.1059,-1.40594 2.0108,-3.8614 2.0108,-5.45658 0,-1.59518 0.7081,-3.98101 1.5735,-5.30184 0.8654,-1.32083 3.0029,-2.71311 4.75,-3.09396 1.7471,-0.38086 5.3607,-1.93696 8.0303,-3.45802 3.2712,-1.86378 6.1316,-4.67484 8.7722,-8.62085 2.1551,-3.22041 4.6129,-8.20947 5.4617,-11.08681 0.8489,-2.87733 2.0142,-5.52248 2.5896,-5.87811 0.5755,-0.35563 1.4391,-0.0265 1.9191,0.73151 0.4801,0.75797 0.8798,2.65312 0.8882,4.21145 0.01,1.82967 0.4582,2.67783 1.2654,2.39434 0.7924,-0.27831 1.1902,-2.14458 1.0867,-5.09863 -0.1454,-4.15218 0.1839,-4.92438 3.0238,-7.09048 1.9566,-1.49234 4.7222,-2.50358 7.1632,-2.61923 2.187,-0.10361 4.6406,-0.0153 5.4525,0.19615 0.918,0.23911 1.606,-0.46573 1.8193,-1.86383 0.219,-1.43475 1.2773,-2.48282 2.9248,-2.8963 1.4199,-0.35637 4.1656,-0.0752 6.1015,0.62488 3.1079,1.12381 3.6707,1.0666 4.808,-0.48873 0.7085,-0.96885 1.5988,-3.83374 1.9786,-6.36642 0.4858,-3.23892 0.2013,-5.98251 -0.9589,-9.24918 -0.9073,-2.55438 -1.6495,-6.19539 -1.6495,-8.09113 0,-2.65314 -0.5757,-3.75489 -2.5,-4.78477 -2.3781,-1.27268 -2.5,-1.77046 -2.5,-10.20221 0,-7.48325 0.3911,-9.63625 2.5109,-13.81938 2.2238,-4.38848 3.028,-5.08532 7.0328,-6.09372 2.487,-0.62624 4.942,-1.86898 5.4555,-2.76165 0.5136,-0.89266 1.3162,-2.19092 1.7837,-2.88501 0.6547,-0.97221 1.5797,-1.00755 4.0284,-0.15394 2.7787,0.96864 3.0979,1.44193 2.5372,3.76198 -0.3528,1.45967 -1.0255,3.69573 -1.495,4.96904 -0.4694,1.2733 -0.8535,3.37505 -0.8535,4.67054 0,1.80407 0.7022,2.50969 3,3.01436 2.3147,0.50841 3,1.20591 3,3.05378 0,1.64954 -0.9337,2.87767 -3,3.94622 -1.769,0.91474 -3,2.34727 -3,3.49088 0,1.06673 -1.3929,3.52585 -3.0952,5.46471 -2.8973,3.29987 -3.0502,3.86137 -2.3922,8.7848 0.3866,2.89278 1.4419,6.09753 2.3451,7.12166 0.9033,1.02413 4.2376,4.11297 7.4097,6.86408 5.4298,4.70911 5.9353,4.93253 8.6325,3.81528 1.5758,-0.6527 4.1272,-2.50404 5.6697,-4.11408 1.5425,-1.61004 3.6331,-2.92734 4.6457,-2.92734 1.0127,0 4.1447,2.475 6.9602,5.5 2.8154,3.025 5.5027,5.5 5.9717,5.5 0.469,0 0.8528,-0.64307 0.8528,-1.42904 0,-0.88304 2.1969,-2.05516 5.75,-3.06777 3.1625,-0.9013 7.464,-2.13741 9.559,-2.74692 2.095,-0.6095 4.2641,-1.95857 4.8204,-2.99792 0.5562,-1.03935 2.9146,-2.70555 5.2407,-3.70266 2.3262,-0.99711 6.5013,-2.1254 9.2781,-2.5073 4.9528,-0.68118 5.0731,-0.63551 6.3314,2.40231 0.7055,1.70318 1.9771,3.48529 2.8258,3.96025 0.8932,0.49987 2.7483,0.44341 4.4049,-0.13407 1.7865,-0.6228 3.6073,-2.459 4.8461,-4.88725 1.1129,-2.18155 2.7198,-3.88963 3.6593,-3.88963 0.9212,0 2.937,-1.20919 4.4796,-2.68709 1.5426,-1.4779 2.8048,-2.17946 2.8048,-1.55902 0,0.62044 -0.45,1.40619 -1,1.74611 -0.55,0.33992 -1,1.04148 -1,1.55902 0,0.51754 0.9014,0.94098 2.0032,0.94098 1.9483,0 1.9851,-0.43856 1.3437,-15.99855 -0.558,-13.53654 -0.4257,-16.26807 0.8599,-17.74999 0.8357,-0.9633 2.2973,-3.8369 3.248,-6.38577 1.447,-3.87954 2.3966,-4.89676 5.8305,-6.24564 2.2561,-0.88622 4.3524,-1.25549 4.6583,-0.82059 0.306,0.4349 2.5229,3.35793 4.9265,6.49563 2.4036,3.13771 4.6819,5.70492 5.0629,5.70492 0.381,0 1.8516,-1.2375 3.268,-2.75 2.2311,-2.38248 2.6349,-3.85255 3.0217,-11 l 0.4465,-8.25 h -2.8089 c -2.0992,0 -3.1945,-0.74554 -4.3347,-2.95034 -0.8535,-1.65063 -1.5252,-5.50525 -1.5246,-8.75 v -5.79966 l 4.8963,-2.75 c 2.8316,-1.59035 6.4213,-2.75 8.5126,-2.75 1.9889,0 4.4413,-0.51532 5.4499,-1.14515 1.416,-0.88435 3.4517,-0.74862 8.9385,0.59598 4.616,1.13121 8.5229,1.50157 11.1528,1.05726 3.0682,-0.51837 4.0478,-1.14316 4.0478,-2.58159 0,-1.4146 1.1456,-2.18617 4.5,-3.03082 4.2332,-1.06591 4.5,-1.33553 4.5,-4.54651 0,-1.87738 -0.6238,-4.90659 -1.3864,-6.73158 l -1.3864,-3.31817 -5.8636,0.89643 c -3.2249,0.49303 -9.2386,1.60797 -13.3636,2.47764 -4.125,0.86967 -9.075,2.36191 -11,3.31608 -1.925,0.95417 -6.4858,2.71636 -10.1351,3.91596 -5.764,1.89471 -7.233,2.03057 -11.1881,1.03465 -3.5633,-0.89723 -4.7604,-1.74144 -5.5071,-3.88344 -0.7134,-2.04648 -2.3689,-3.3112 -6.5619,-5.01301 l -5.6077,-2.27602 0.043,-6.13385 c 0.024,-3.37362 0.3935,-7.93689 0.8212,-10.14059 0.5145,-2.65052 0.3457,-5.0199 -0.4985,-7 -0.7018,-1.6463 -1.2989,-4.79327 -1.3268,-6.99327 -0.028,-2.2 -0.5177,-5.68186 -1.0886,-7.73746 -0.9848,-3.54609 -0.7715,-4.16051 4.1666,-12 2.8625,-4.5444 7.7684,-10.96254 10.902,-14.26254 3.1336,-3.3 7.7308,-8.925 10.2159,-12.5 2.4852,-3.575 4.8408,-7.54899 5.2347,-8.83108 0.3939,-1.28209 2.5867,-3.53209 4.873,-5 4.0282,-2.58629 4.1474,-2.81682 3.851,-7.445808 -0.2908,-4.5412 -0.5667,-4.95009 -5.5925,-8.28701 -4.7343,-3.1434 -5.747,-3.43898 -9.6941,-2.82929 -2.4241,0.37445 -7.895,2.42113 -12.1575,4.54817 -7.4689,3.72708 -7.75,3.99515 -7.75,7.391358 0,1.93822 -0.7415,4.65567 -1.6477,6.03879 -1.4462,2.20711 -1.4908,3.16888 -0.365,7.86177 1.2762,5.32006 1.2647,5.37663 -2.2839,11.2182 -2.417,3.97895 -6.1761,7.96022 -11.6635,12.35304 -4.4534,3.56502 -9.235,8.11827 -10.6258,10.11832 -1.5362,2.20912 -3.6244,3.8556 -5.3202,4.19476 -2.6844,0.53687 -2.8774,0.99182 -5.033,11.86353 -1.2328,6.21789 -2.8013,11.98025 -3.4854,12.80525 -0.8486,1.02333 -1.1036,3.94938 -0.8025,9.20782 0.4381,7.65091 0.4651,7.71565 3.6563,8.76883 1.7682,0.58356 4.6041,2.51505 6.302,4.29219 1.6979,1.77714 3.8029,4.97362 4.6779,7.10328 0.8749,2.12967 1.5908,4.76853 1.5908,5.86413 0,1.09561 -1.9125,3.70287 -4.25,5.79391 -3.4226,3.06176 -4.0066,4.05187 -3,5.08587 0.6875,0.70619 1.25,1.625 1.25,2.04182 0,0.41681 -1.9264,1.88681 -4.281,3.26666 -2.3545,1.37984 -5.6111,3.89724 -7.2369,5.5942 -1.8236,1.90345 -3.0376,4.31047 -3.169,6.28334 -0.1171,1.75887 -0.6222,7.69795 -1.1223,13.19795 -0.5483,6.03042 -1.8583,12.56333 -3.3,16.45742 -1.863,5.03176 -2.9427,6.61039 -4.8909,7.15032 -1.375,0.38109 -4.1569,0.73776 -6.1819,0.79258 -2.8737,0.0778 -4.1428,0.747 -5.7818,3.04876 -1.3717,1.9263 -1.8954,3.76407 -1.5101,5.29909 0.531,2.11598 0.061,2.51662 -4.7182,4.02294 -2.9194,0.92011 -6.3609,1.39746 -7.6478,1.06079 -1.8566,-0.48573 -2.2411,-1.12848 -1.8618,-3.11255 0.2629,-1.37523 -0.3288,-4.30233 -1.3148,-6.50466 -1.6119,-3.60046 -1.6495,-4.41005 -0.3728,-8.02868 1.3201,-3.74172 1.2777,-4.17579 -0.6041,-6.17887 -1.1132,-1.18494 -4.2294,-7.22352 -6.9249,-13.41907 -3.4464,-7.92138 -5.2767,-13.7905 -6.1671,-19.77517 -0.7896,-5.30783 -1.7801,-8.70775 -2.6319,-9.03462 -0.7512,-0.28825 -3.9346,0.45538 -7.0743,1.65251 -4.5027,1.71686 -7.1871,3.75264 -12.7085,9.63804 -6.7595,7.20505 -7.1918,7.48215 -12.5828,8.06433 -5.3946,0.58258 -5.7885,0.45568 -11.6865,-3.76513 -3.357,-2.40242 -6.5992,-5.43888 -7.2048,-6.7477 -0.8688,-1.87756 -0.7767,-2.73817 0.4365,-4.07874 0.8457,-0.93449 1.5377,-3.12614 1.5377,-4.87033 0,-1.74419 -0.1958,-3.17126 -0.4349,-3.17126 -0.2392,0 -1.5765,0.43403 -2.9718,0.9645 l -2.5368,0.9645 0.077,-5.7145 c 0.042,-3.14297 -0.1272,-9.5395 -0.3765,-14.2145 -0.2493,-4.675 -0.8103,-13.08167 -1.2467,-18.68148 -0.7597,-9.74863 -0.6774,-10.45451 1.9359,-16.60343 1.9544,-4.5985 3.8918,-7.31536 6.8234,-9.56851 2.9335,-2.25457 5.168,-3.14658 7.8824,-3.14658 3.7399,0 3.7855,-0.0471 3.5682,-3.69093 -0.2145,-3.59829 -0.1008,-3.72525 4.5302,-5.0582 4.4368,-1.27703 4.8235,-1.65827 5.8606,-5.77678 0.6371,-2.53024 1.809,-4.61209 2.7497,-4.88484 0.9017,-0.26143 3.7769,-0.77706 6.3894,-1.14583 4.1865,-0.59096 4.75,-0.96015 4.75,-3.11183 0,-1.34273 1.7571,-5.02866 3.9045,-8.19096 2.1475,-3.16229 5.5225,-7.3676 7.5,-9.34513 1.9776,-1.97752 3.5955,-4.37368 3.5955,-5.32479 0,-0.95111 2.025,-3.61506 4.5,-5.91989 3.5773,-3.33132 4.5,-4.867108 4.5,-7.489898 0,-1.98495 1.3573,-5.54245 3.4069,-8.93011 2.3854,-3.94244 3.6137,-7.42988 4.0965,-11.63081 0.6064,-5.27699 1.6419,-7.45066 8.5931,-18.03854 5.8448,-8.90263 7.9036,-12.89859 7.9036,-15.34022 0,-1.99206 1.0908,-4.8448 2.75,-7.19203 1.5858,-2.24347 4.1383,-4.35886 6.0297,-4.99713 2.5484,-0.85997 3.9245,-2.38402 6.1709,-6.8342 1.9023,-3.76842 4.2299,-6.61327 6.805,-8.3174 2.1525,-1.4245 5.3035,-4.7703603 7.0021,-7.4352403 1.6986,-2.66488 3.4042,-6.56524002 3.7902,-8.66746 0.518,-2.82082 1.3622,-4.0733 3.2226,-4.78059 l 2.5207,-0.95839 -2.1456,-2.28385 c -1.18,-1.2561197 -2.1455,-2.7631397 -2.1455,-3.3489397 0,-0.5858 2.0399,-2.7367 4.5332,-4.77977 2.587,-2.11985 5.163,-3.47304 6,-3.15185 0.8067,0.30956 1.4668,1.38696 1.4668,2.39422 0,1.00726 -0.54,2.37139 -1.2,3.03139 -0.66,0.66 -0.7725,1.18405 -0.25,1.16456 0.5225,-0.0195 2.075,-0.67854 3.45,-1.46456 1.375,-0.78602 4.8451,-1.44508 7.7114,-1.46457 5.194,-0.0353 5.2149,-0.0484 6.252,-3.89977 0.9292,-3.45059 1.7007,-4.1606 7.206,-6.63123 5.8952,-2.6456 6.2239,-2.68701 7.498,-0.94453 0.7329,1.00229 1.3326,2.41135 1.3326,3.13123 0,0.71987 0.3937,1.30887 0.875,1.30887 0.4813,0 3.5952,-3.51622 6.9198,-7.81382 3.7155,-4.802911 6.3119,-9.238471 6.7383,-11.511051 0.3815,-2.03347 1.0792,-3.93553 1.5504,-4.22679 0.4713,-0.29126 3.057,0.41688 5.7459,1.57364 l 4.889,2.1032 8.6593,-3.4917 8.6593,-3.49169 6.951,3.21964 c 4.7977,2.22227 9.7484,5.78503 15.9815,11.50106 4.9667,4.554781 9.0305,8.818901 9.0305,9.475831 0,0.65693 -2.4576,2.66437 -5.4614,4.46098 -3.0037,1.79662 -5.7328,3.70578 -6.0645,4.24258 -0.3318,0.53681 -0.3008,1.92894 0.069,3.09362 0.6011,1.894 1.1934,2.05586 5.6092,1.53287 2.9187,-0.34567 5.9842,-0.10771 7.498,0.58204 2.3315,1.06231 2.8079,0.86396 5.3212,-2.21542 l 2.7604,-3.38219 4.6341,2.71575 c 2.5487,1.49367 4.6341,2.96482 4.6341,3.26923 0,0.30441 -0.9554,1.89511 -2.123,3.5348897 -1.1701,1.64321 -1.7311,3.33603 -1.25,3.77146 0.4801,0.43452 3.1093,1.53121 5.8426,2.4371 2.7333,0.90588 9.4833,2.35704998 15,3.22480998 9.9517,1.56536002 10.101,1.63065002 19.0304,8.32190002 4.95,3.7092903 14.7834,11.7985103 21.852,17.9760403 7.0686,6.17754 13.8965,11.70778 15.1731,12.28942 1.2766,0.58165 2.5492,2.01358 2.8281,3.18207 0.2789,1.16849 0.8197,6.26351 1.2018,11.32226 0.6768,8.96031 0.6205,9.316 -2.1802,13.77995 -1.8208,2.90217 -5.1857,6.09351 -9.1777,8.70414 -4.4868,2.9343 -7.6795,4.2542 -11.0809,4.58103 -3.5533,0.34143 -8.188,-0.51171 -18.0799,-3.32808 -8.2799,-2.3574 -14.3672,-4.68376 -16.124,-6.16199 -1.5523,-1.30613 -7.4209,-3.92346 -13.0415,-5.81627 -5.6206,-1.89282 -10.3322,-3.32847 -10.4703,-3.19034 -0.1382,0.13813 1.7384,2.91081 4.1702,6.16153 2.4318,3.25071 6.1782,6.95795 8.3252,8.23832 2.1471,1.28036 4.8017,3.74601 5.8991,5.47921 1.9657,3.1046 1.9677,3.23133 0.1356,8.55622 -1.8252,5.30512 -1.8232,5.49699 0.1049,10.388768 1.0805,2.7411 1.9645,6.77378 1.9645,8.9615 0,3.42589 0.4508,4.24485 3.25,5.90368 1.7875,1.0593 3.7336,2.34677 4.3247,2.86103 0.5911,0.51427 2.3911,2.52939 4,4.47806 1.7123,2.0739 5.0049,4.36162 7.9406,5.5172 l 5.0154,1.97418 2.795,-2.22858 c 2.2448,-1.79002 2.6655,-2.74394 2.1376,-4.84739 -0.4585,-1.82663 -1.6888,-2.95923 -4.0672,-3.74418 -2.1914,-0.72323 -4.4795,-2.67991 -6.403,-5.47572 -1.6462,-2.39269 -2.9931,-5.07912 -2.9931,-5.96984 0,-0.89071 0.7019,-2.97696 1.5599,-4.63611 1.3732,-2.65546 1.9246,-2.93653 4.6059,-2.34763 1.6752,0.36795 4.2357,1.9558 5.69,3.52857 1.5089,1.63182 6.026,4.18099 10.5208,5.93728 4.3322,1.69273 7.9882,2.9472 8.1245,2.78771 0.1363,-0.15949 1.1571,-2.08565 2.2684,-4.28036 l 2.0205,-3.99037 -2.4429,-4.82095 c -1.6015,-3.160338 -2.2086,-5.574858 -1.7624,-7.009628 0.3743,-1.20377 2.2734,-3.98867 4.2201,-6.18867 1.9467,-2.2 5.3766,-4.96503 7.622,-6.14452 2.2454,-1.17948 5.5709,-4.21698 7.39,-6.75 1.8191,-2.53301 3.6988,-4.60548 4.1771,-4.60548 0.4783,0 4.5634,1.36193 9.078,3.02652 4.5146,1.66459 8.2904,2.90209 8.3908,2.75 0.1003,-0.15209 0.9522,-2.35575 1.8931,-4.89703 1.4184,-3.83102 1.5245,-5.45425 0.621,-9.5 -0.6661,-2.98259 -2.0269,-5.65699 -3.5004,-6.87949 l -2.4106,-2 2.0507,-8.5 c 1.6261,-6.74041 1.9181,-10.21943 1.4103,-16.80596 l -0.6403,-8.30595 3.3067,0.51391 c 1.8187,0.28265 5.8575,0.78562 8.9751,1.1177 l 5.6683,0.60379 3.6188,7.62026 c 1.9904,4.19115 3.4085,8.16852 3.1513,8.8386 -0.2571,0.67008 -2.4113,1.53453 -4.7871,1.921 -2.5283,0.41127 -5.4601,1.77427 -7.0696,3.28675 -1.5125,1.42124 -2.75,3.20859 -2.75,3.97189 0,0.76329 2.0159,4.5041 4.4798,8.3129 3.931,6.07672 4.8539,6.92511 7.5332,6.92511 1.6794,0 5.2216,-1.0987 7.8716,-2.44156 4.8149,-2.43988 4.8187,-2.4458 5.4604,-8.58507 0.3531,-3.37893 0.8889,-6.54283 1.1905,-7.03088 0.3016,-0.48805 2.3353,-1.42274 4.5194,-2.07709 2.389,-0.71576 7.8593,-4.47161 13.7315,-9.42777 7.7341,-6.52768 11.4253,-8.88005 17.7789,-11.33027 5.6518,-2.17955 9.7167,-4.60587 13.7724,-8.22063 3.1646,-2.8206203 5.9621,-4.9202603 6.2165,-4.6658603 0.2544,0.2544 0.7981,4.4712803 1.2083,9.3708403 l 0.7459,8.90829 2.7909,-0.19445 c 1.535,-0.10695 5.7716,-2.3214 9.4147,-4.92102 l 6.6237,-4.72657 5.4575,1.14473 5.4576,1.14474 4.6236,-4.07633 c 2.5429,-2.24198 6.3153,-4.9414803 8.3831,-5.9988903 l 3.7595,-1.92256 3.7405,5.9663703 c 2.0572,3.2815 4.2018,6.72061 4.7657,7.64247 0.8651,1.41426 1.7475,0.59001 5.6483,-5.27618 l 4.6229,-6.9522903 -3.3982,-7.70559002 c -1.869,-4.23807998 -3.3982,-8.09951998 -3.3982,-8.58097998 0,-0.48147 1.8671,-2.3542397 4.1493,-4.1617097 l 4.1493,-3.28631 11.0034,2.28842 c 10.921,2.27129 11.1127,2.36121 25.6007,12.0103697 8.0285,5.34707 15.9473,10.27906 17.5973,10.95999 1.65,0.6809203 4.8123,3.6244803 7.0274,6.5412403 3.9815,5.24262 4.0483,5.4734 5.8453,20.20387 l 1.8178,14.90068 -3.5923,7.46551 c -2.1725,4.51494 -5.6684,9.59549 -8.8452,12.85479 -2.8892,2.96411 -8.6676,8.17195 -12.841,11.57297 -4.1734,3.40103 -11.3178,10.32489 -15.8765,15.38636 -4.5586,5.061468 -12.2816,12.356768 -17.162,16.211778 -4.9266,3.89149 -8.8735,7.7641 -8.8735,8.70649 0,0.93356 -1.3728,16.12095 -3.0505,33.74974 -1.6778,17.6288 -4.1238,39.02736 -5.4356,47.55236 -1.5074,9.79632 -3.5149,18.55228 -5.4553,23.7947 -1.6886,4.56209 -4.2429,10.63709 -5.6761,13.5 -1.4333,2.86292 -4.3116,7.4553 -6.3962,10.2053 -2.0847,2.75 -4.2342,6.63703 -4.7768,8.63785 -0.9405,3.46872 -0.8056,3.79915 2.902,7.10691 3.2753,2.92204 3.8885,4.09148 3.8885,7.41637 0,2.62074 -0.9567,5.45579 -2.8466,8.43592 -2.4912,3.92813 -3.4997,4.63936 -8.0763,5.69578 -2.8764,0.66394 -6.7704,1.20716 -8.6534,1.20716 -1.8831,0 -3.4237,0.42589 -3.4237,0.94642 0,0.52054 1.6548,3.78304 3.6774,7.25 2.0227,3.46697 4.8352,7.76607 6.25,9.55355 1.4149,1.78748 2.9293,3.24998 3.3653,3.25 0.4359,2e-5 3.3326,-1.87636 6.437,-4.16972 l 5.6444,-4.16974 3.4265,1.9872 c 1.8846,1.09296 4.0312,3.42548 4.7704,5.18339 1.2615,3.00031 1.1711,3.39454 -1.4749,6.43255 -1.5503,1.77999 -3.5246,4.61535 -4.3872,6.3008 -1.0302,2.01283 -1.3818,4.45569 -1.0246,7.11854 0.4439,3.31016 1.1056,4.30757 3.6058,5.43554 2.1303,0.96113 3.4642,2.56659 4.3838,5.27638 0.7269,2.14221 1.8852,4.57747 2.5739,5.41169 0.6887,0.83423 3.5899,2.55241 6.4472,3.81819 2.8573,1.26577 5.6619,3.17361 6.2324,4.23964 0.7024,1.31244 0.7136,2.85797 0.035,4.7869 -0.6626,1.88244 -2.2742,3.38358 -4.7513,4.42571 -2.7816,1.17024 -4.495,1.32821 -6.6424,0.6124 -2.2733,-0.75776 -3.1407,-0.62723 -4.0444,0.60863 -0.9516,1.30144 -1.917,1.40161 -5.5872,0.57974 -2.7615,-0.6184 -5.4538,-2.1044 -7.1304,-3.93567 -1.4815,-1.61818 -3.5188,-2.94214 -4.5275,-2.94214 -1.0086,0 -2.8719,0.72708 -4.1406,1.61573 -1.6974,1.18888 -2.6015,1.32097 -3.4225,0.5 -0.6137,-0.61365 -2.5125,-1.11573 -4.2196,-1.11573 -2.2344,0 -4.054,0.98039 -6.4961,3.5 -1.8658,1.925 -3.8766,3.5 -4.4684,3.5 -0.5918,0 -2.7335,-1.36629 -4.7594,-3.0362 -3.0286,-2.49646 -4.0049,-2.83544 -5.4918,-1.90685 -1.5357,0.95907 -2.5764,0.36139 -6.9016,-3.9638 -4.4416,-4.44157 -5.6094,-5.09315 -9.129,-5.09315 -2.6637,0 -4.2314,-0.50963 -4.6111,-1.49898 -0.5047,-1.31526 -1.0036,-1.29467 -4.071,0.16808 -3.287,1.56743 -3.7327,1.56027 -7.4582,-0.11969 l -3.9623,-1.78674 -3.185,3.62757 c -1.7518,1.99517 -4.1692,3.87458 -5.372,4.17648 -1.2029,0.30189 -4.1312,2.806 -6.5075,5.5647 -3.723,4.32217 -4.2456,5.47783 -3.7784,8.35667 0.405,2.49545 0.059,3.77831 -1.3681,5.06962 -1.8332,1.65904 -2.062,1.55862 -5.6733,-2.48995 -2.5817,-2.89443 -4.2729,-4.01959 -5.3876,-3.58434 -0.8936,0.34891 -2.4686,2.50792 -3.5,4.79781 -1.151,2.5553 -1.8128,6.10535 -1.7134,9.19109 0.089,2.76523 -0.1864,5.47768 -0.6121,6.02768 -0.4258,0.55 -1.063,2.21069 -1.4161,3.69042 -0.4776,2.00176 -0.1543,3.03198 1.2631,4.02477 1.0478,0.73388 2.0621,2.43913 2.2541,3.7895 0.2445,1.7193 1.2481,2.7227 3.3491,3.3483 1.65,0.4912 3.9593,1.2539 5.1318,1.6948 1.1726,0.4409 3.83,3.597 5.9053,7.0134 3.0569,5.0322 3.5632,6.5485 2.666,7.9851 -0.8965,1.4356 -0.6881,2.0664 1.0947,3.3126 l 2.2022,1.5392 -4,3.5936 c -2.2,1.9764 -5.8458,4.4297 -8.1018,5.4518 -3.0077,1.3627 -4.5411,2.885 -5.7487,5.7074 -0.9058,2.117 -2.66,5.1233 -3.8982,6.6806 l -2.2513,2.8315 2.6709,2.3026 c 1.4691,1.2664 3.1541,4.0422 3.7445,6.1685 0.5904,2.1262 1.0759,5.4772 1.079,7.4467 0,2.8281 1.6871,6.0432 8.0056,15.296 4.4,6.4433 8.0182,12.032 8.0406,12.4192 0.022,0.3872 1.2598,2.1088 2.75,3.8258 1.4901,1.717 3.7219,3.4348 4.9594,3.8174 1.2375,0.3826 2.25,1.1387 2.25,1.6802 0,0.5415 -1.3822,1.4664 -3.0715,2.0553 -1.7311,0.6035 -3.4766,2.1365 -4,3.5131 -0.5107,1.3433 -0.9285,3.5856 -0.9285,4.9829 0,1.3973 -1.125,3.8776 -2.5,5.5117 -1.375,1.6341 -2.5,4.2384 -2.5,5.7873 0,1.549 -0.6234,3.0555 -1.3852,3.3479 -0.7619,0.2923 -2.611,-0.748 -4.1093,-2.3118 -1.4982,-1.5638 -2.4131,-3.3464 -2.0331,-3.9612 0.38,-0.6149 0.3896,-2.9015 0.021,-5.0813 -0.3683,-2.1798 -1.0562,-3.9633 -1.5287,-3.9633 -0.4726,0 -3.8842,2.2897 -7.5815,5.0881 -6.3163,4.7808 -6.9818,5.0493 -11.0164,4.4442 -3.3869,-0.5078 -4.9927,-1.4851 -7.6015,-4.6257 l -3.3076,-3.9819 -3.229,1.6109 c -1.776,0.886 -3.229,1.9478 -3.229,2.3595 0,0.4117 0.7181,2.8563 1.5958,5.4323 1.2222,3.5868 1.3515,5.3849 0.5521,7.6781 -0.62,1.7786 -0.6644,2.9945 -0.1093,2.9945 0.514,0 1.6156,1.63 2.4479,3.6221 0.8324,1.9922 1.5135,3.9089 1.5135,4.2595 0,0.3505 -0.9183,1.2108 -2.0407,1.9117 -1.1224,0.701 -2.5849,0.9217 -3.25,0.4906 -0.6651,-0.4312 -3.9093,-1.2969 -7.2093,-1.9239 -3.8749,-0.7361 -6.4222,-0.7984 -7.192,-0.1757 -0.6556,0.5303 -5.087,1.1969 -9.8476,1.4812 -6.2095,0.3708 -10.1117,1.1949 -13.808,2.9159 -2.8339,1.3195 -6.9978,2.4035 -9.2532,2.4088 -2.2554,0 -5.4684,-0.467 -7.1399,-1.0496 -2.2995,-0.8017 -3.8568,-0.7218 -6.3992,0.3283 -2.3618,0.9754 -4.3584,1.1247 -6.7198,0.5024 -1.8478,-0.4869 -3.4406,-0.7472 -3.5395,-0.5783 -0.099,0.1688 -1.2515,2.6695 -2.5613,5.557 -1.3098,2.8875 -2.6999,5.25 -3.0892,5.25 -0.3892,0 -1.2658,-1.3473 -1.9479,-2.9941 z m -125.4436,-25.5377 c -1.0676,-0.8075 -2.6426,-1.4523 -3.5,-1.4328 -0.9992,0.023 -0.6613,0.5486 0.9412,1.4646 1.375,0.786 2.95,1.4308 3.5,1.4328 0.55,0 0.1264,-0.6571 -0.9412,-1.4646 z m -77.0937,17.5803 c -1.1191,-0.4536 -2.6367,-1.5501 -3.3724,-2.4366 -0.7358,-0.8866 -1.7979,-1.6119 -2.3602,-1.6119 -0.5624,0 -4.1073,-1.9035 -7.8776,-4.2301 -3.7703,-2.3265 -6.855,-4.4868 -6.855,-4.8007 0,-0.3139 2.0713,-1.577 4.6029,-2.807 3.5275,-1.7137 4.9238,-1.97 5.9761,-1.0966 0.8464,0.7024 3.1085,0.9084 5.897,0.537 2.4882,-0.3314 6.5948,-0.8766 9.1259,-1.2114 4.4744,-0.5919 4.5823,-0.5434 3.8958,1.75 -0.3883,1.2973 -1.3665,3.4048 -2.1737,4.6833 -1.1386,1.8032 -1.2313,3.0027 -0.4135,5.3487 0.7193,2.0635 0.731,3.6281 0.037,4.9255 -0.5597,1.0457 -1.7892,1.8728 -2.7324,1.8379 -0.9431,-0.035 -2.6304,-0.4345 -3.7495,-0.8881 z m -56.7284,-27.7985 c -1.0297,-1.1455 -1.7207,-4.3408 -2.0006,-9.25 -0.2352,-4.125 -0.7309,-8.4 -1.1017,-9.5 -0.5465,-1.6213 0.284,-2.6219 4.3858,-5.2842 2.7829,-1.8064 5.4983,-3.0133 6.0341,-2.6822 0.5358,0.3312 1.836,2.2914 2.8893,4.3562 1.7549,3.4398 1.8152,4.4598 0.7209,12.1821 -1.1096,7.8293 -1.371,8.4527 -3.6795,8.7743 -1.3668,0.1904 -2.845,0.9779 -3.2848,1.75 -0.4399,0.7721 -1.1576,1.4038 -1.595,1.4038 -0.4375,0 -1.5033,-0.7875 -2.3685,-1.75 z m 166.5133,0.7188 c -1.2375,-0.4974 -2.25,-1.2966 -2.25,-1.7761 0,-0.4794 1.0871,-1.367 2.4159,-1.9724 1.9457,-0.8866 2.5296,-0.8046 3,0.4212 0.3212,0.8371 0.5841,2.1603 0.5841,2.9403 0,0.78 -0.3375,1.3897 -0.75,1.3548 -0.4125,-0.035 -1.7625,-0.4704 -3,-0.9678 z m -222.075,-5.1548 c -1.7463,-1.1057 -3.1751,-2.3262 -3.1751,-2.7122 0,-0.386 0.54,-1.2418 1.2,-1.9018 0.66,-0.66 2.1982,-1.2 3.4182,-1.2 1.22,0 2.93,0.2731 3.8,0.607 0.87,0.3338 1.5818,1.0503 1.5818,1.5923 0,0.5419 -0.8212,2.0292 -1.8249,3.3051 l -1.8248,2.3199 z m 58.4409,-26.3408 c -1.1443,-1.1443 -1.616,-3.4458 -1.616,-7.8841 0,-5.7464 0.2119,-6.3647 2.547,-7.4286 1.4009,-0.6383 3.2009,-1.1605 4,-1.1605 1.0958,0 1.4343,1.2906 1.3769,5.25 -0.042,2.8875 -0.6354,6.7978 -1.3189,8.6896 -0.6836,1.8918 -1.7221,3.5994 -2.3079,3.7947 -0.5857,0.1952 -1.7922,-0.3723 -2.6811,-1.2611 z m -105.616,-104.47319 c 0,-0.55 0.45,-1 1,-1 0.55,0 1,0.45 1,1 0,0.55 -0.45,1 -1,1 -0.55,0 -1,-0.45 -1,-1 z m -3.6667,-3.66667 c 0.3667,-0.36666 0.9667,-0.36666 1.3333,0 0.3667,0.36667 0.067,0.66667 -0.6666,0.66667 -0.7334,0 -1.0334,-0.3 -0.6667,-0.66667 z m -25.3333,-11.61539 c 0,-0.54685 1.81,-2.95792 4.0222,-5.35792 2.2123,-2.4 4.5345,-5.48783 5.1605,-6.86183 0.9426,-2.06875 1.8381,-2.49819 5.2093,-2.49819 h 4.071 l -4.9815,-3.37336 c -4.0372,-2.73385 -5.4344,-3.20249 -7.3702,-2.47202 -1.3138,0.49573 -2.4987,0.77625 -2.6332,0.62336 -0.1345,-0.15289 -0.5524,-1.71585 -0.9288,-3.47325 -0.634,-2.96076 -0.4016,-3.33943 3.1657,-5.15938 2.1175,-1.08025 4.4209,-3.03088 5.1187,-4.33472 0.7145,-1.33511 1.1372,-4.72815 0.9675,-7.76779 l -0.3012,-5.39716 4.7771,-1.50683 c 3.5621,-1.12358 4.9298,-2.1153 5.3775,-3.89911 0.4045,-1.61166 -0.4076,-4.34685 -2.4888,-8.38229 -2.2481,-4.35892 -2.9296,-6.78888 -2.5026,-8.92374 0.3227,-1.61354 0.1705,-2.93371 -0.3382,-2.93371 -0.5088,0 -1.4138,0.48878 -2.0112,1.08618 -0.7003,0.70033 -3.0804,0.83701 -6.7,0.38477 -3.4841,-0.4353 -5.6138,-1.18042 -5.6138,-1.96405 0,-0.69446 0.6934,-2.92221 1.5409,-4.95056 1.4563,-3.48538 1.4201,-3.89022 -0.6592,-7.37212 -1.21,-2.02632 -3.1173,-4.42818 -4.2384,-5.33747 -1.7912,-1.45288 -1.9066,-2.0824 -0.9516,-5.19409 0.5977,-1.94746 0.8366,-3.79099 0.5308,-4.09674 -0.3057,-0.30575 -1.3809,-0.55591 -2.3892,-0.55591 -1.0083,0 -1.8332,-0.61842 -1.8332,-1.37427 0,-0.75585 0.693,-3.33896 1.5403,-5.74025 1.2096,-3.42849 1.2911,-4.83182 0.3793,-6.53551 -0.9466,-1.76859 -0.6905,-3.56938 1.3856,-9.74409 1.6781,-4.99123 3.5098,-8.40355 5.3707,-10.00527 1.898,-1.63372 4.6273,-2.64682 8.324,-3.08979 3.025,-0.36248 6.5125,-0.89949 7.75,-1.19335 1.9278,-0.45778 2.25,-0.13039 2.25,2.28627 0,1.95637 -1.2568,4.10109 -4.1018,6.99999 -2.8788,2.93328 -3.9263,4.73354 -3.5132,6.03785 0.5138,1.62224 1.6856,1.85842 9.221,1.85842 7.532,0 8.7981,0.25493 9.9332,2 1.1272,1.73295 0.7713,3.33527 -2.6657,12 -2.1816,5.5 -4.8456,10.74713 -5.9201,11.66029 -1.0744,0.91316 -1.9534,1.88991 -1.9534,2.17055 0,0.28064 1.3834,0.8141 3.0742,1.18547 1.6909,0.37138 4.5687,1.98729 6.3951,3.59093 2.6072,2.28916 3.6865,4.40782 5.0225,9.85931 1.3754,5.61271 2.3191,7.41461 4.9235,9.40103 1.8713,1.42734 4.7399,5.53313 6.8435,9.79492 1.9919,4.03562 4.5232,9.47499 5.6252,12.08749 1.5655,3.71153 2.5077,4.75082 4.3097,4.75374 1.2685,0.002 3.8242,0.92917 5.6795,2.06026 3.2169,1.96121 3.349,2.27237 2.8483,6.71382 -0.3981,3.53243 -1.2535,5.30826 -3.5413,7.35248 -1.6591,1.48235 -3.5498,3.69168 -4.2016,4.90961 -0.9422,1.76062 -0.9078,2.39017 0.1681,3.07195 0.7443,0.47163 2.1408,0.86441 3.1033,0.87283 0.9625,0.008 1.75,0.24662 1.75,0.52933 0,0.28272 -1.0102,2.05509 -2.2449,3.9386 -1.5945,2.43246 -3.4052,3.71855 -6.25,4.43933 -2.2028,0.55812 -8.7301,1.30234 -14.5051,1.65384 -5.775,0.35149 -13.1236,0.70998 -16.3303,0.79664 -4.5501,0.12297 -6.1569,0.59669 -7.3184,2.15757 -0.8186,1.1 -1.8389,2.60911 -2.2675,3.35358 -0.6351,1.10311 -1.1532,1.12004 -2.8002,0.0915 -1.5253,-0.95257 -3.2792,-1.01326 -7.1522,-0.24747 -3.3877,0.66983 -5.1314,0.67674 -5.1314,0.0203 z m -38.9774,-19.19076 c -0.6929,-0.83489 -3.0064,-2.04128 -5.1412,-2.68087 -2.1347,-0.63959 -3.8813,-1.7401 -3.8813,-2.44558 0,-0.70548 0.4682,-1.57208 1.0405,-1.92577 0.5723,-0.35369 2.1078,-2.33377 3.4122,-4.40017 1.3045,-2.06639 2.9158,-5.57297 3.5808,-7.7924 1.0842,-3.61878 0.9938,-4.33192 -0.8762,-6.90885 -1.1469,-1.58045 -2.5481,-5.79854 -3.1137,-9.37354 -0.5657,-3.575 -1.0319,-6.80168 -1.0361,-7.17041 0,-0.36872 2.913,-0.98316 6.4825,-1.36543 6.1651,-0.66023 6.4608,-0.8117 5.9053,-3.02495 -0.3696,-1.47265 0.2534,-3.82124 1.6933,-6.38306 1.7912,-3.18702 3.3606,-4.45922 7.3447,-5.95355 5.0105,-1.87938 5.0703,-1.87871 5.3944,0.0607 0.2923,1.74943 0.8861,1.89493 5.5,1.34764 l 5.1723,-0.61349 3.1779,5.96829 c 1.9811,3.7204 2.969,6.7679 2.6229,8.09132 -0.3053,1.16767 -1.8766,2.80637 -3.4917,3.64156 l -2.9364,1.51853 0.7361,8.19143 c 0.4049,4.50528 0.6897,8.86642 0.633,9.69142 -0.057,0.825 -1.2261,4.02523 -2.5987,7.11163 -2.4414,5.48993 -2.5974,5.62311 -7.193,6.1411 -2.5836,0.29121 -4.9793,0.96765 -5.3238,1.5032 -0.3445,0.53554 -3.1013,2.33921 -6.1263,4.00816 -3.025,1.66894 -6.449,3.31493 -7.6089,3.65775 -1.3082,0.38668 -2.587,0.047 -3.3686,-0.89466 z m 44.0128,-40.3708 c 0.019,-0.36101 0.6785,-1.78138 1.4646,-3.15638 0.786,-1.375 1.445,-1.9743 1.4645,-1.33179 0.019,0.64252 0.2859,1.82088 0.592,2.61858 0.3478,0.9062 -0.215,1.65215 -1.5,1.98817 -1.1311,0.29579 -2.0406,0.24243 -2.0211,-0.11858 z m 157.1558,-14.11156 c -1.2381,-1.67465 -2.8703,-3.04482 -3.6272,-3.04482 -0.7568,0 -2.0933,-2.10516 -2.97,-4.67814 -0.8767,-2.57298 -1.594,-4.80142 -1.594,-4.95209 0,-0.15068 2.7241,-1.87052 6.0535,-3.82186 3.3295,-1.95134 6.1522,-3.5479 6.2726,-3.5479 0.1205,0 1.0513,1.54546 2.0686,3.43437 1.8205,3.38043 1.8162,3.48826 -0.2726,6.86802 -1.1672,1.88852 -2.1538,4.73055 -2.1924,6.31563 -0.039,1.58509 -0.3892,3.68964 -0.7788,4.67679 -0.6239,1.58036 -0.9775,1.431 -2.9597,-1.25 z m -17.5316,-2.79482 c -0.2522,-0.4125 -0.6162,-2.08108 -0.8091,-3.70796 -0.3196,-2.69704 -0.015,-3.03771 3.4539,-3.86221 2.0925,-0.49735 3.9535,-0.74127 4.1358,-0.54205 0.1822,0.19922 0.6472,2.27472 1.0334,4.61222 l 0.7022,4.25 h -4.0289 c -2.2159,0 -4.2352,-0.3375 -4.4873,-0.75 z m 77.8703,-36.89942 c -0.5644,-3.76362 -0.329,-5.14491 1.2354,-7.25 1.0629,-1.43032 3.1255,-2.74296 4.5837,-2.91699 1.8356,-0.21909 2.6511,0.14727 2.6511,1.19098 0,0.82907 -0.3909,1.74899 -0.8687,2.04426 -0.4777,0.29527 -1.1702,2.42245 -1.5387,4.72706 -0.3685,2.30462 -1.4401,4.77528 -2.3813,5.49036 -0.9413,0.71509 -1.9978,1.31446 -2.3478,1.33196 -0.3501,0.0175 -0.9502,-2.06045 -1.3337,-4.61763 z m 37.4702,-15.68624 c 0,-1.37542 -0.2615,-3.18214 -0.5811,-4.01495 -0.3843,-1.00145 0.4319,-2.038 2.4103,-3.06105 2.3741,-1.2277 3.6393,-1.32096 6.1321,-0.45197 1.8702,0.65198 3.019,1.67807 2.8397,2.53654 -0.1656,0.79291 -2.6635,2.80302 -5.551,4.46692 l -5.25,3.02527 z m -23,-37.05734 c 0,-1.31616 0.7156,-2.66762 1.5902,-3.00325 0.8746,-0.33562 1.9996,-0.35721 2.5,-0.048 0.5004,0.30925 0.9098,1.0486 0.9098,1.643 0,0.59441 -0.7875,1.67854 -1.75,2.40918 -0.9625,0.73065 -2.0875,1.34275 -2.5,1.36025 -0.4125,0.0175 -0.75,-1.04506 -0.75,-2.36121 z m -254.4166,-39.25012 c -0.3468,-0.90372 -0.4159,-1.85776 -0.1535,-2.12009 0.2623,-0.26234 1.6626,-0.17939 3.1117,0.18433 2.1727,0.54529 2.4225,0.9172 1.4242,2.12009 -0.6659,0.80234 -1.7825,1.4588 -2.4813,1.4588 -0.6988,0 -1.5543,-0.73941 -1.9011,-1.64313 z m 528.892,-150.680828 c -0.2227,-0.64683 -1.0708,-4.10104 -1.8846,-7.6760403 l -1.4796,-6.50000002 3.3448,-3.38373998 3.3448,-3.38373 6.0996,4.27862 c 3.3547,2.35324998 6.087,4.77593 6.0717,5.38374 -0.015,0.60781 -1.3732,2.88347 -3.0177,5.05702 -1.9289,2.5495303 -4.6017,4.5637503 -7.5319,5.6760403 -3.3012,1.25309 -4.6527,1.40283 -4.9471,0.54809 z M 1604.5993,4.0522717 c 0,-0.55185 1.1486,-3.60070002 2.5525,-6.77522 1.404,-3.17452 2.9113,-5.36801 3.3497,-4.87443 0.4383,0.49358 1.5628,2.8768 2.4987,5.29604 0.936,2.41924998 1.3412,4.75872 0.9004,5.19882 -0.4407,0.4401 -2.7138,1.10573 -5.0513,1.47918 -2.6274,0.41975 -4.25,0.2959 -4.25,-0.32439 z m 401.3211,-17.4905597 c -1.8522,-1.31588 -4.01,-4.31167 -5.2359,-7.26932 -1.1469,-2.76706 -2.0852,-5.50637 -2.0852,-6.08737 0,-0.58099 1.1359,-2.12349 2.5242,-3.42776 l 2.5242,-2.3714 6.4758,6.4182 c 3.5617,3.53001 6.4758,6.90542 6.4758,7.50092 0,0.5955 -1.484,2.521 -3.2977,4.27889 -1.8136,1.75789 -3.5075,3.19617 -3.764,3.19617 -0.2566,0 -1.8843,-1.00725 -3.6172,-2.23833 z m -34.4403,-23.296351 c -6.4217,-0.7808 -12.1886,-2.09186 -14.5899,-3.31687 -3.9582,-2.01936 -3.9743,-2.05183 -5.1321,-10.33709 -0.6388,-4.57125 -1.1608,-8.87386 -1.1601,-9.56136 9e-4,-0.929641 3.0396,-1.250001 11.8562,-1.250001 h 11.8549 l 4.7933,7.750001 c 2.6364,4.2625 5.3538,9.86038 6.0387,12.43974 0.6849,2.57936 0.9932,4.94186 0.6851,5.25 -0.3082,0.30814 -1.2728,0.50546 -2.1436,0.4385 -0.8708,-0.067 -6.362,-0.70278 -12.2025,-1.41292 z"
       id="path22" />
    <path
       style="fill:#daaa44;fill-opacity:1"
       d="m 1674.9936,566.526 c -1.0677,-0.80751 -2.8677,-1.47509 -4,-1.48351 -3.7683,-0.028 -5.3588,-1.79374 -3.1409,-3.48675 1.4972,-1.14294 2.2318,-1.20354 3.349,-0.27633 0.7871,0.65325 3.1401,1.27557 5.2289,1.38293 8.0003,0.41121 10.2616,2.41287 4.8549,4.29763 -3.9007,1.35979 -3.9223,1.35829 -6.2919,-0.43397 z m -20.0291,-21.01904 c -3.073,-1.05644 -4.1453,-1.09156 -4.7664,-0.15612 -1.1675,1.75836 -3.7634,-1.98371 -3.7634,-5.42515 0,-1.51242 -0.4476,-3.02648 -0.9946,-3.36457 -2.5636,-1.58437 -3.0626,-4.4461 -1.115,-6.39374 1.915,-1.91502 1.9117,-1.94244 -0.3068,-2.49925 -1.2694,-0.31859 -3.0768,-2.20121 -4.1634,-4.33666 -1.0561,-2.07552 -3.3827,-5.54217 -5.1702,-7.70367 -1.7875,-2.1615 -3.25,-4.56845 -3.25,-5.34879 0,-0.78033 -1.3844,-2.712 -3.0764,-4.29258 l -3.0764,-2.87379 0.9428,-8.77742 c 1.107,-10.30674 0.9058,-10.65483 -11.29,-19.53358 -3.85,-2.80285 -8.35,-6.30033 -10,-7.77217 -1.65,-1.47184 -5.025,-3.45044 -7.5,-4.39689 -5.5338,-2.11613 -12.2185,-8.31115 -11.4797,-10.63876 0.2887,-0.90951 -0.1484,-2.2124 -0.9713,-2.89532 -0.8228,-0.68292 -1.7854,-2.78364 -2.1389,-4.66828 -0.3623,-1.93136 -1.5203,-3.89621 -2.6537,-4.50276 -2.0886,-1.11782 -2.3725,-0.91466 -4.8875,3.497 -1.786,3.1329 -4.3316,-0.41454 -4.4062,-6.14023 -0.034,-2.59954 -0.4278,-6.41886 -0.8755,-8.48739 -1.1291,-5.21744 0.2621,-6.62307 5.9235,-5.98495 2.6045,0.29357 5.0409,0.033 5.8321,-0.62364 0.7474,-0.62031 3.5636,-1.41694 6.2581,-1.77029 5.8091,-0.76178 8.4927,-3.15193 9.8991,-8.81656 0.7127,-2.87063 1.7901,-4.40498 3.75,-5.34032 3.1567,-1.50649 3.1684,-1.56804 1.5093,-7.93893 -1.4077,-5.40551 -3.1039,-7.18676 -6.8872,-7.23255 -1.4453,-0.0175 -4.2434,-0.7068 -6.2179,-1.5318 -4.9927,-2.08608 -5.914,-1.90946 -7.8577,1.50632 -2.3933,4.20595 -5.0141,3.80885 -11.5914,-1.75632 -10.0177,-8.476 -12.2051,-11.74883 -12.2051,-18.26107 0,-3.31415 15.6077,-11.98893 21.5705,-11.98893 3.4874,0 4.6513,-3.46019 2.691,-8 -0.8312,-1.925 -1.5676,-6.27638 -1.6364,-9.66974 -0.1017,-5.01484 -0.5699,-6.64319 -2.5014,-8.69894 -1.8813,-2.00222 -2.2196,-3.11278 -1.6241,-5.33024 0.6875,-2.56005 0.7586,-7.00382 0.2107,-13.16584 -0.1921,-2.16014 0.606,-2.6103 9.2232,-5.20215 5.1884,-1.56056 9.825,-3.53708 10.3036,-4.39227 1.2845,-2.29536 7.6328,-5.24482 13.6379,-6.33628 l 5.2746,-0.95869 1.6253,3.40824 c 1.8382,3.85491 4.5397,4.93719 8.5336,3.41874 1.5017,-0.57095 5.3091,-0.82718 8.4609,-0.56939 3.1518,0.25778 9.6233,0.662 14.381,0.89825 l 8.6505,0.42955 0.4495,-3.66562 c 0.5596,-4.56386 -0.8756,-6.62241 -4.7504,-6.81376 -8.794,-0.43428 -10.3996,-3.08122 -11.2214,-18.5001 -0.5073,-9.51799 -0.3527,-11.00402 1.4557,-14 1.1127,-1.84346 2.5718,-5.06716 3.2424,-7.16377 0.7268,-2.27209 2.0887,-4.13699 3.3713,-4.61647 6.0039,-2.24438 5.9527,-2.2651 11.0312,4.4637 5.6571,7.49564 5.3632,7.38685 9.1837,3.39913 2.636,-2.75143 2.9421,-3.75081 2.9863,-9.75 0.027,-3.67639 0.3948,-7.69684 0.8173,-8.93434 0.7015,-2.05442 0.4604,-2.25 -2.7734,-2.25 -4.4078,0 -6.5931,-3.54907 -6.5931,-10.70762 0,-5.75398 4.8532,-9.56487 13.4091,-10.52924 2.661,-0.29994 5.1371,-1.02882 5.5023,-1.61974 0.4618,-0.74727 2.3271,-0.60474 6.1263,0.46814 3.0043,0.8484 8.2748,1.50782 11.7123,1.4654 3.4375,-0.0424 6.25,0.0703 6.25,0.25055 0,0.18023 -1.125,3.09634 -2.5,6.48023 -2.7637,6.80159 -3.1135,11.86947 -1.29,18.68749 1.0359,3.87305 0.9729,4.92515 -0.4375,7.31283 -1.5598,2.64051 -1.5443,2.85333 0.29,3.99892 1.464,0.91423 1.9462,2.36896 1.973,5.95151 0.019,2.60784 0.6785,5.86653 1.4645,7.24153 0.7861,1.375 1.4451,3.95094 1.4646,5.72432 0.041,3.69815 3.7234,6.27568 8.9667,6.27568 2.3703,0 3.1627,0.52624 3.6368,2.4151 0.5756,2.29357 0.765,2.34831 3.7632,1.08768 2.729,-1.14746 3.5645,-1.10206 6.1629,0.33489 4.415,2.44161 4.6496,3.02437 4.1914,10.41233 -0.3231,5.21151 -0.1103,6.75 0.9336,6.75 0.7623,0 1.8329,1.90957 2.4545,4.37813 0.6754,2.68247 1.9397,4.83567 3.2644,5.55948 2.7353,1.49464 9.6619,10.91713 9.6619,13.14338 0,2.25358 -4.996,4.20908 -8.5041,3.3286 l -2.8117,-0.70568 0.658,6.2957 c 0.3619,3.46264 1.1041,6.83317 1.6493,7.49006 0.5451,0.65689 0.7735,1.412 0.5075,1.67802 -0.266,0.26603 0.8484,0.28817 2.4765,0.0492 1.6281,-0.23896 3.4798,-1.06052 4.1148,-1.82569 2.877,-3.46654 12.6234,-1.78098 15.5858,2.69543 2.0891,3.15683 2.465,4.46509 1.6521,5.74999 -1.6658,2.63326 0.451,5.85783 5.0547,7.69987 4.7318,1.8933 5.5806,2.90977 5.6018,6.70836 0.024,4.35024 7.1422,7.32256 14.009,5.8499 l 5.0734,-1.08804 3.0233,3.44342 c 1.6685,1.90032 3.6297,3.21078 4.3763,2.92428 0.744,-0.28553 2.7299,0.19294 4.4129,1.06327 1.683,0.87033 3.5004,1.46539 4.0386,1.32236 4.3312,-1.15108 11.8427,10.24325 7.7803,11.80213 -1.0125,0.38856 -1.1012,1.88009 -0.3992,6.71862 1.3107,9.03468 0.051,11.71242 -5.5245,11.74142 -5.0911,0.0265 -8.5105,2.3377 -9.6192,6.50169 -0.5948,2.23387 -1.5236,3.11249 -3.724,3.52308 -1.6124,0.30086 -4.5904,1.30741 -6.6178,2.2368 -2.0275,0.92938 -5.8525,2.24067 -8.5,2.91397 -12.0824,3.07268 -15.2179,8.04447 -9.7282,15.4255 2.2363,3.00686 2.4736,3.08308 6.3635,2.0448 4.4346,-1.18366 6.5706,-0.18588 5.5114,2.57446 -0.7298,1.90171 -4.6034,3.01066 -7.7542,2.21987 -1.5696,-0.39394 -2.8814,0.0736 -4.155,1.48095 -1.0237,1.13115 -2.7215,2.05664 -3.773,2.05664 -1.0514,0 -3.4277,1.15633 -5.2806,2.56962 -4.6359,3.53594 -7.4977,2.13169 -7.4977,-3.67907 0,-3.76387 -0.2718,-4.15325 -3.9898,-5.71481 -4.9645,-2.0851 -4.9659,-2.0697 0.4916,-5.51756 2.474,-1.56301 4.4982,-3.14226 4.4982,-3.50946 0,-1.60939 -4.0849,-3.00919 -7.2721,-2.49198 -4.799,0.77879 -7.7279,-0.99942 -7.7279,-4.6919 0,-3.34331 -0.059,-3.35991 -6.824,-1.90914 -4.3945,0.94245 -5.1168,1.48669 -6.7345,5.07423 -1.2378,2.74498 -3.0377,4.6438 -5.6792,5.9914 -3.1219,1.59265 -3.7424,2.36597 -3.2197,4.01271 1.21,3.81233 -0.4057,8.79354 -3.0691,9.462 -3.3834,0.84917 -6.1159,5.84243 -6.9316,12.66631 -0.6023,5.03862 -1.0564,5.95239 -3.6154,7.27568 -2.1854,1.13015 -2.9265,2.22724 -2.9265,4.33268 0,1.55064 -0.887,3.62209 -1.9711,4.60323 -1.9616,1.7752 -1.9616,1.79611 0,4.28985 1.0841,1.37827 1.9711,3.12026 1.9711,3.87109 0,1.55211 -3.5704,1.86923 -4.4797,0.39789 -0.7932,-1.28341 -6.575,-0.14393 -8.7264,1.7198 -1.4702,1.27368 -1.5107,1.67348 -0.2925,2.89168 1.4341,1.43406 1.026,4.35577 -0.6083,4.35577 -0.4912,0 -0.8931,1.09844 -0.8931,2.44098 0,3.45404 -1.3105,3.87242 -6.5538,2.09227 -2.5268,-0.85788 -5.0442,-1.28168 -5.5942,-0.94178 -0.55,0.3399 -2.3806,0.71358 -4.068,0.83041 -2.9582,0.2048 -7.8834,4.41959 -9.0032,7.70452 -0.4691,1.37623 -1.2433,1.22098 -8.0308,-1.61038 -2.3057,-0.96179 -2.4065,3.3137 -0.1798,7.61979 0.9282,1.79483 1.4564,4.88759 1.2919,7.56334 -0.2541,4.13187 -0.02,4.65824 2.6797,6.03282 1.8214,0.92724 2.5079,1.02913 1.7863,0.26515 -2.3195,-2.45602 -0.4473,-4.1101 2.7694,-2.4467 3.1873,1.64822 3.5067,2.4454 1.7025,4.24958 -0.9333,0.93333 -0.9333,1.46667 0,2.4 1.167,1.16704 1.7153,5.8 0.6864,5.8 -0.2824,0 -1.3478,-0.52102 -2.3675,-1.15782 -3.0277,-1.8908 -5.1189,-0.36556 -5.1189,3.73342 0,2.82327 -0.3361,3.50942 -1.5,3.06277 -1.7436,-0.66909 -1.8746,0.24615 -0.5382,3.76113 1.2549,3.30055 0.3815,3.70446 -4.432,2.04966 z m 4.8824,-14.30717 c 0.8384,-1.35644 -5.6775,-4.38765 -8.4265,-3.92005 -2.2661,0.38548 -2.0882,0.61326 2.0143,2.57848 5.0673,2.42743 5.664,2.55227 6.4122,1.34157 z m 30.3378,-11.93677 c -2.2044,-0.44325 -2.2596,-1.79569 -0.1068,-2.62177 1.9556,-0.75044 2.6568,-0.23396 2.1952,1.61682 -0.1861,0.74625 -1.1259,1.19848 -2.0884,1.00495 z m -130.75,-35.20522 c 0,-0.73333 0.3,-1.03333 0.6667,-0.66667 0.3666,0.36667 0.3666,0.96667 0,1.33334 -0.3667,0.36666 -0.6667,0.0667 -0.6667,-0.66667 z m -32,-186.73699 c -3.1512,-0.58566 -3.9655,-1.86738 -3.9847,-6.27245 -0.01,-2.41518 -0.6389,-3.89891 -2.0153,-4.75848 -6.4908,-4.05354 -1.3512,-26.35944 6.5309,-28.34416 3.222,-0.81131 4.984,-1.951 6.2007,-4.01065 3.0298,-5.12905 8.3874,-2.52596 6.4195,3.11906 -2.0132,5.7751 -1.5053,9.91853 1.3489,11.00368 3.3189,1.26183 3.3557,4.74713 0.059,5.57458 -1.7141,0.4302 -2.6455,1.55273 -3.1275,3.76905 -0.3775,1.736 -1.9069,4.55236 -3.3986,6.25857 -2.4542,2.80718 -2.6492,3.59284 -2.0503,8.26118 0.8448,6.58514 0.7682,6.65426 -5.9825,5.39962 z m 26.752,-2.5187 c -0.9343,-1.42594 -2.5731,-2.87013 -3.6418,-3.20932 -1.7927,-0.56897 -4.1102,-5.12981 -4.1102,-8.08874 0,-1.00265 9.8334,-7.44624 11.3635,-7.44624 1.5462,0 2.6858,6.03749 1.5401,8.15927 -0.6952,1.2874 -1.7564,4.77904 -2.3584,7.75919 l -1.0944,5.41846 z m -18.1923,-5.3623 c -0.8124,-3.23715 -0.5251,-3.53305 3.6184,-3.72673 3.0549,-0.14279 3.3471,0.10596 3.6353,3.09473 0.4337,4.49882 -6.1394,5.07153 -7.2537,0.632 z m 29.6903,-1.03361 c -0.6875,-0.28328 -1.25,-1.8499 -1.25,-3.48138 0,-1.63148 -0.6778,-4.27705 -1.5062,-5.87905 -1.2559,-2.42865 -1.3058,-3.66226 -0.3,-7.42292 1.1054,-4.13292 1.0289,-4.70071 -0.915,-6.78762 -5.3757,-5.77126 -15.4449,-35.5751 -13.623,-40.32285 0.9425,-2.45612 -3.7122,-2.67732 -9.6457,-0.45836 -4.7565,1.77884 -7.0296,3.51384 -12.3258,9.40795 -6.0794,6.7658 -6.855,7.29237 -12.1572,8.25342 l -5.6635,1.02654 -6.4203,-4.59206 c -7.1727,-5.13015 -8.2895,-7.04581 -6.0074,-10.30407 3.1808,-4.5412 2.1077,-8.9806 -1.9852,-8.21276 -3.5012,0.65683 -3.5396,0.62721 -2.8333,-2.18681 0.3937,-1.56896 0.5914,-3.53571 0.4392,-4.37054 -0.1521,-0.83483 -0.4206,-5.34288 -0.5966,-10.01788 -0.176,-4.67501 -0.8212,-13.31137 -1.4337,-19.19192 l -1.1137,-10.69192 3.1661,-6.30808 c 4.3492,-8.66507 8.0529,-11.71538 14.2879,-11.76745 5.2475,-0.0438 5.017,0.40389 3.0482,-5.92046 -0.4912,-1.57773 0.2237,-2.07388 4.4487,-3.08743 4.806,-1.15295 5.1061,-1.42511 6.63,-6.01333 l 1.5963,-4.80573 5.5533,-0.85684 c 5.1741,-0.79835 5.6353,-1.09648 6.7546,-4.36654 1.659,-4.84652 8.9117,-15.30778 12.0287,-17.35014 1.4155,-0.92745 2.5736,-2.62469 2.5736,-3.77165 0,-1.16836 1.9308,-3.90658 4.3907,-6.22695 3.403,-3.209948 4.5002,-5.041348 4.8775,-8.141568 0.2677,-2.2 1.9854,-6.40473 3.8171,-9.34384 2.4453,-3.92374 3.5017,-6.99963 3.9752,-11.57461 0.5854,-5.65595 1.3358,-7.23867 8.1339,-17.15616 5.4466,-7.94598 7.6815,-12.15256 8.1952,-15.42539 0.9107,-5.80237 4.1589,-10.49264 8.6777,-12.530363 2.6832,-1.20994 4.2567,-2.979793 6.2345,-7.012373 1.7097,-3.48597 4.0041,-6.29312 6.4866,-7.93591 4.3614,-2.88626 9.8763,-10.1846903 10.7863,-14.27478032 0.3362,-1.51061998 0.8159,-3.50626998 1.066,-4.43478998 0.2502,-0.92852 1.9647,-2.18652 3.8101,-2.79555 2.2767,-0.75138 3.5585,-1.9171 3.9875,-3.6264697 0.8477,-3.37752 7.4854,-6.3392 14.2716,-6.3678 l 5.2098,-0.022 1.1981,-3.99902 c 1.0399,-3.47059 1.9201,-4.32951 6.661,-6.5 6.8124,-3.11883 6.7203,-3.12442 8.2212,0.49902 0.6834,1.65 1.5652,3 1.9595,3 1.6665,0 12.9701,-16.02474 13.999,-19.84601 1.2829,-4.7642 1.3806,-4.79485 7.2562,-2.2763 l 4.3805,1.87769 8.8025,-3.52246 8.8025,-3.52246 7.089,3.39477 c 5.0786,2.43206 9.5167,5.73787 15.6499,11.65717 9.6283,9.29252 9.5884,7.8185 0.3848,14.23271 -6.1156,4.26209 -5.0465,8.63067 2.022,8.26243 6.1428,-0.32002 6.0327,0.004 -3.7312,10.9701897 -13.3875,15.0365403 -16.2445,27.4689903 -7.4088,32.2400433 2.0044,1.082273 3.8666,2.882273 4.1383,4.000003 0.2717,1.11773 1.3141,4.16902 2.3164,6.78063 1.5673,4.08347 1.6325,5.05267 0.4656,6.9212 -6.1023,9.77127 -7.3931,15.31129 -4.0492,17.37795 0.5077,0.31377 0.9258,1.33143 0.9292,2.26147 0,0.93004 0.5998,2.82835 1.3253,4.21847 1.4348,2.74927 3.6198,10.60315 4.3493,15.63306 0.3703,2.5534 0.055,3.28843 -1.6393,3.82629 -1.849,0.58686 -2.0765,1.36968 -1.9193,6.60594 0.098,3.26711 -0.1207,6.239078 -0.486,6.604378 -0.3653,0.36529 0.4256,1.82037 1.7574,3.23351 1.6938,1.7971 2.5544,4.07211 2.8636,7.56933 0.243,2.75 1.0515,6.44458 1.7966,8.21017 1.1786,2.79294 1.137,3.66656 -0.3198,6.72153 l -1.6744,3.51136 5.5668,5.26484 c 9.9267,9.38835 9.9567,13.63982 0.1867,26.46883 -2.4391,3.2028 -6.0566,7.98549 -8.0388,10.6282 -8.9159,11.88651 -18.9709,21.69507 -22.2401,21.69507 -3.4813,0 -14.5978,3.22627 -27.4954,7.97975 -10.1615,3.74511 -17.2959,3.11624 -18.4871,-1.62958 -0.4548,-1.81229 -2.1104,-3.14954 -6.0637,-4.89789 -6.5801,-2.91003 -7.2855,-4.78207 -5.5215,-14.65304 1.0919,-6.10953 1.0361,-7.50381 -0.4561,-11.4113 -0.935,-2.44825 -1.4131,-5.19914 -1.0624,-6.11308 0.3507,-0.91394 0.094,-3.7809 -0.5693,-6.37103 l -1.207,-4.70931 4.8617,-7.84726 c 2.6739,-4.31599 7.4201,-10.54726 10.5472,-13.84726 5.5767,-5.88526 16.9194,-21.65697 16.9194,-23.52609 0,-0.52185 1.8,-2.08511 4,-3.47391 3.8388,-2.42332 3.9996,-2.73617 3.9912,-7.762538 l -0.01,-5.23746 -5.8288,-3.75492 c -7.0276,-4.52716 -11.3182,-4.20533 -23.1113,1.73356 -6.3913,3.21862 -7.0424,3.82638 -7.0424,6.57377 0,1.665 -0.929,4.848298 -2.0645,7.074018 -1.9527,3.82769 -1.9805,4.29326 -0.5128,8.60053 l 1.5516,4.55379 -3.4187,5.62776 c -2.258,3.71711 -6.1676,7.82839 -11.5157,12.10963 -4.4533,3.56502 -9.2521,8.14304 -10.6639,10.17337 -1.5763,2.26696 -3.6878,3.9377 -5.4714,4.32946 -1.5975,0.35087 -2.9046,0.76453 -2.9046,0.91924 0,2.66537 -4.5618,21.66136 -5.5893,23.27461 -3.3529,5.26432 -1.228,18.86032 3.1747,20.31337 4.2229,1.39366 8.4807,6.2378 10.784,12.269 l 1.8033,4.72171 -4.8166,4.36069 c -4.3097,3.90185 -4.6675,4.54021 -3.4006,6.06677 1.548,1.86516 1.3994,2.05313 -3.9555,5.00492 -1.375,0.75795 -3.9196,2.87899 -5.6548,4.71341 -3.3393,3.53028 -3.369,3.65733 -5.217,22.33532 -1.6481,16.65844 -4.407,21.5 -12.2512,21.5 -5.3214,0 -9.6302,4.15992 -9.0325,8.72058 0.2119,1.61727 -0.3729,2.52762 -2.0232,3.14968 -3.5463,1.33667 -8.1784,2.05204 -9.5713,1.47813 z m 49.3531,-30.18163 c -1.3914,-2.25131 -0.8918,-8.19023 0.8509,-10.11596 2.3638,-2.61191 6.0752,-2.83279 5.0545,-0.3008 -0.3881,0.9625 -0.9478,3.45461 -1.2438,5.53801 -0.5129,3.60998 -3.5083,6.74486 -4.6616,4.87875 z m 36.3969,-21.00624 c 0,-3.56175 3.6884,-5.60967 7.496,-4.16203 3.4071,1.29536 3.1548,2.12112 -1.4518,4.75151 -5.1275,2.92785 -6.0442,2.83844 -6.0442,-0.58948 z m -48,-236.0334143 c 0,-0.48008002 0.9754,-3.06758 2.1675,-5.75 l 2.1675,-4.87712 1.8063,4 c 2.4647,5.45815998 2.3364,6.15444998 -1.2663,6.875 -4.1389,0.82778 -4.875,0.79035 -4.875,-0.24788 z m 14.655,-12.9558597 c -2.3516,-2.59847 -2.139,-3.29275 2.3507,-7.67686 6.3342,-6.18516 8.8292,-3.05311 3.4891,4.37994 -4.2583,5.9273197 -3.7295,5.6287697 -5.8398,3.29692 z"
       id="path62" />
  </g>
</svg>
