<?xml version="1.0" encoding="UTF-8" standalone="no"?>
<!-- Created with Inkscape (http://www.inkscape.org/) -->

<svg
   version="1.1"
   id="svg1"
   width="619.00061"
   height="544.84491"
   viewBox="0 0 619.00061 544.84491"
   xml:space="preserve"
   xmlns="http://www.w3.org/2000/svg"
   xmlns:svg="http://www.w3.org/2000/svg"><defs
     id="defs1" /><g
     id="g1"
     style="display:inline"
     transform="translate(2426.3403,1012.1265)"><g
       id="g17"
       transform="translate(-473.43752,1059.3751)"><path
         style="fill:#000000"
         d="m -1430.6046,-1527.6827 c -3.3785,-1.632 -3.1583,-3.9323 0.7108,-7.4279 2.6197,-2.3667 4.1863,-3.0584 6.0987,-2.6928 1.4155,0.2706 4.977,-0.2218 7.9145,-1.0941 7.0137,-2.0828 7.7769,-2.0024 4.6128,0.4865 -1.5378,1.2096 -2.6348,3.071 -2.6348,4.4707 0,1.9367 -1.0638,2.8847 -5.5297,4.9274 -5.9983,2.7437 -7.8018,2.9584 -11.1723,1.3302 z m -87.7731,-4.9214 c -1.6363,-1.0035 -4.8988,-2.113 -7.25,-2.4655 -2.3512,-0.3526 -4.2749,-0.815 -4.2749,-1.0276 0,-0.2125 0.9,-1.2864 2,-2.3864 2.1998,-2.1998 4.1188,-2.4975 6.7635,-1.049 0.9551,0.5231 4.2115,1.2235 7.2365,1.5566 4.897,0.5392 10.0704,2.7875 8.927,3.8795 -0.2349,0.2243 -2.677,1.0624 -5.427,1.8623 -4.5985,1.3378 -5.239,1.3081 -7.9751,-0.3699 z m -111.8311,-10.519 c -0.7989,-0.7989 0.1042,-2.3605 1.3652,-2.3605 0.5175,0 0.941,0.675 0.941,1.5 0,1.5464 -1.18,1.9867 -2.3062,0.8605 z m 236.6152,-3.8386 c -1.547,-3.2442 -1.5459,-3.6027 0.016,-5.3288 0.9211,-1.0178 1.6748,-2.6161 1.6748,-3.5518 0,-1.4985 -0.3468,-1.4448 -2.9098,0.4501 -2.6836,1.9841 -3.3046,2.0567 -7.9869,0.9334 l -5.077,-1.218 -4.5478,4.0032 c -7.7728,6.8419 -18.8909,7.3831 -22.7397,1.107 -1.6506,-2.6915 -9.4642,-6.083 -13.1626,-5.7131 -2.3929,0.2393 -3.1193,0.9115 -3.7863,3.504 -0.6648,2.5839 -1.5512,3.4094 -4.5576,4.2444 -2.0528,0.5701 -4.2584,1.039 -4.9013,1.0421 -2.0954,0.01 -6.986,-3.2971 -7.9195,-5.3553 -0.5013,-1.1053 -2.2615,-2.4351 -3.9115,-2.9549 -1.65,-0.5199 -3.7105,-1.5615 -4.5788,-2.3147 -0.8683,-0.7532 -3.5039,-1.3695 -5.857,-1.3695 -3.4203,0 -4.161,-0.3053 -3.6939,-1.5227 0.3256,-0.8484 -0.3328,-2.4398 -1.4867,-3.5937 -1.5876,-1.5876 -1.9292,-2.8273 -1.4633,-5.3104 0.5126,-2.7328 0.2426,-3.4058 -1.7268,-4.3031 -1.9266,-0.8778 -2.2961,-1.7368 -2.1153,-4.9169 0.1204,-2.1192 0.5243,-4.6055 0.8974,-5.5251 0.3731,-0.9195 0.1937,-2.5774 -0.3986,-3.6842 -0.5924,-1.1069 -1.077,-2.9624 -1.077,-4.1235 0,-1.8833 -0.3895,-2.038 -3.6102,-1.4338 l -3.6102,0.6773 0.6792,-4.382 c 0.9041,-5.8322 5.9935,-10.8819 10.9675,-10.8819 1.9006,0 3.7246,0.4352 4.0534,0.9672 1.057,1.7102 14.0897,-1.5734 18.0154,-4.539 1.7097,-1.2915 1.7812,-1.6405 0.5,-2.4392 -1.1597,-0.723 -1.2454,-1.331 -0.3818,-2.7105 1.0969,-1.7522 6.7179,-2.0611 20.32,-1.1169 2.0147,0.1399 3.6026,-0.2693 3.8429,-0.9903 0.6195,-1.8585 10.055,-7.5903 16.4073,-9.967 4.6238,-1.73 7.3767,-2.0498 15.3905,-1.7877 7.5103,0.2456 10.0281,0.6864 10.9247,1.9126 0.6409,0.8764 2.993,1.8857 5.2271,2.2429 2.8877,0.4618 4.6895,1.4984 6.2327,3.5856 1.5939,2.1559 2.6977,2.7688 4.1541,2.3066 1.0908,-0.3463 2.5401,-0.1675 3.2205,0.3972 0.6804,0.5647 4.6471,1.9622 8.8148,3.1056 6.9458,1.9056 8.0269,1.962 12.9649,0.6769 4.1432,-1.0784 6.5688,-1.1598 10.5045,-0.3528 4.842,0.9929 5.4206,0.8783 10.75,-2.1295 l 5.6327,-3.1788 v 31.0085 31.0086 h -2.8792 c -1.5835,0 -5.3738,1.1421 -8.4228,2.538 -7.5173,3.4415 -14.4524,4.1775 -19.6744,2.0881 -3.8815,-1.553 -4.3053,-1.5367 -8.1357,0.3139 -3.0496,1.4734 -4.6513,1.7203 -6.5295,1.0062 -4.3185,-1.6419 -5.1802,-1.0934 -7.9389,5.0538 -1.481,3.3 -3.0885,6 -3.5723,6 -0.4838,0 -1.626,-1.5652 -2.5382,-3.4781 z m -459.7043,-0.02 c -1.0423,-0.789 -2.7578,-3.3622 -3.812,-5.7181 -1.0543,-2.356 -2.8674,-5.2961 -4.0291,-6.5336 -2.4594,-2.6198 -7.2627,-2.943 -10.2442,-0.6894 -1.8567,1.4034 -4.2471,1.353 -9.7804,-0.2061 -2.6301,-0.7412 -4.7373,-5.6425 -4.7527,-11.0549 -0.019,-6.8036 -0.7031,-8.6005 -3.9904,-10.4872 -2.6193,-1.5033 -2.8359,-2.0237 -2.2765,-5.4709 0.34,-2.0952 1.8837,-6.6005 3.4304,-10.0117 3.4549,-7.6195 5.2863,-18.4336 4.0521,-23.9264 -0.4913,-2.1866 -0.5902,-5.9844 -0.2199,-8.4395 0.5726,-3.7967 0.2267,-5.3041 -2.3143,-10.0849 l -2.9876,-5.6211 2.228,-3.1289 c 1.2255,-1.721 3.0277,-3.129 4.005,-3.129 0.9773,0 2.5761,-0.8831 3.5528,-1.9624 2.4997,-2.7621 7.9465,-4.4224 10.3277,-3.1481 1.0403,0.5568 6.5748,1.2241 12.2989,1.4829 5.7241,0.2589 12.6997,0.9782 15.5013,1.5985 3.2178,0.7124 6.9006,0.8207 10,0.2939 3.4786,-0.5912 6.0701,-0.4333 8.9062,0.5429 4.8475,1.6684 14.9769,1.1474 16.986,-0.8737 1.9482,-1.96 4.471,-17.0085 5.1999,-31.0177 l 0.6027,-11.5837 -3.9435,-1.5778 c -3.8887,-1.556 -6.3451,-4.8959 -6.3451,-8.6273 0,-2.2031 -11.2819,-11.4103 -15.8992,-12.9753 -1.8696,-0.6337 -4.6495,-1.1522 -6.1775,-1.1522 -3.7841,0 -7.3352,-4.3676 -5.6913,-7 0.8847,-1.4166 0.8389,-2.2096 -0.1998,-3.4612 -1.9893,-2.397 -1.0262,-2.8846 14.1039,-7.141 0.8999,-0.2532 3.0037,0.6904 4.675,2.0967 1.8269,1.5372 3.2918,2.148 3.6729,1.5313 0.3487,-0.5642 3.0824,-1.0258 6.075,-1.0258 6.4086,0 6.5285,-0.3526 3.4539,-10.1609 -1.0929,-3.4865 -1.9929,-6.4516 -2,-6.5891 -0.01,-0.1375 1.7383,-0.25 3.8787,-0.25 3.2912,0 3.986,0.3763 4.5038,2.4393 0.5003,1.9936 1.4479,2.5646 5.186,3.1252 5.8403,0.8758 9.8658,-0.7464 9.1018,-3.6679 -0.4494,-1.7185 0.4551,-2.4911 5.6408,-4.8182 6.6415,-2.9804 8.5365,-5.3464 8.8733,-11.0784 0.2403,-4.0912 3.4422,-9 5.8703,-9 0.9304,0 4.7619,-1.5453 8.5144,-3.4339 3.7526,-1.8887 7.1817,-3.2121 7.6204,-2.941 0.4387,0.2711 0.7976,-0.1009 0.7976,-0.8268 0,-0.7258 2.1153,-4.4649 4.7008,-8.309 2.6302,-3.9106 5.4282,-9.6322 6.3522,-12.9893 1.2786,-4.6456 2.0797,-6 3.5492,-6 1.5178,0 1.9593,0.8509 2.2053,4.25 0.3169,4.3807 0.7263,4.8316 3.05,3.3592 1.067,-0.6761 1.146,-1.8521 0.3691,-5.4949 -0.9801,-4.5952 -0.957,-4.6598 2.7085,-7.5629 2.8009,-2.2184 4.8929,-2.9811 8.6309,-3.1468 2.7137,-0.1203 5.7215,0.1251 6.684,0.5453 1.4551,0.6353 1.75,0.2405 1.75,-2.3429 0,-3.0671 0.065,-3.107 5.0657,-3.107 2.7862,0 6.0064,0.5034 7.1561,1.1187 1.758,0.9409 2.3801,0.7421 3.9121,-1.25 2.2397,-2.9123 2.5856,-15.5024 0.5404,-19.6684 -0.7291,-1.4852 -1.4277,-4.7253 -1.5524,-7.2003 -0.1704,-3.3811 -0.8354,-5.0067 -2.6743,-6.5376 -2.3034,-1.9175 -2.4476,-2.638 -2.4476,-12.2278 0,-9.0379 0.3045,-10.8111 2.6924,-15.68 2.5338,-5.1665 2.954,-5.529 7.1336,-6.1558 4.312,-0.6466 5.4082,-1.4001 8.9755,-6.1697 1.551,-2.0736 1.9808,-2.1631 4.9485,-1.0307 3.7154,1.4177 3.7501,1.5815 1.7391,8.2105 -2.307,7.6051 -2.0047,9.4777 1.7861,11.0616 2.3894,0.9984 3.3336,2.0737 3.491,3.9758 0.1804,2.1797 -0.2888,2.7082 -2.8612,3.2227 -1.6923,0.3384 -3.2257,1.1139 -3.4075,1.7232 -0.1817,0.6093 -0.5883,2.2328 -0.9034,3.6078 -0.315,1.375 -1.9276,4.0235 -3.5835,5.8855 -3.179,3.5749 -3.4291,4.9995 -2.0917,11.9174 0.9378,4.8506 2.8256,7.1817 11.9929,14.8086 l 6.4119,5.3345 3.7493,-2.1072 c 2.0621,-1.159 4.7236,-3.4251 5.9144,-5.0357 1.84,-2.4887 2.6182,-2.829 5.1817,-2.266 1.6958,0.3725 4.6176,2.4458 6.6737,4.7357 6.5875,7.3366 9.8807,9.7761 8.5634,6.3435 -0.5166,-1.3464 0.9418,-1.9088 17.403,-6.7112 2.3701,-0.6915 5.325,-2.4644 6.5666,-3.9399 2.3415,-2.7827 10.8955,-6.2198 18.2275,-7.324 4.0228,-0.6058 4.1389,-0.5392 5.9116,3.3919 3.1796,7.0512 10.1372,6.2681 13.5863,-1.5291 1.4179,-3.2054 2.5777,-4.504 4.0225,-4.504 1.1166,0 3.4003,-1.3702 5.075,-3.0449 3.2925,-3.2925 4.6135,-3.3413 2.8823,-0.1065 -1.5009,2.8045 -1.3836,3.1514 1.0659,3.1514 2.0976,0 2.1306,-0.224 1.4374,-9.75 -1.2694,-17.4445 -0.7385,-26.1175 1.8792,-30.699 1.273,-2.2281 2.8381,-5.7043 3.4779,-7.7249 0.9865,-3.1151 1.867,-3.9136 5.7891,-5.25 2.5442,-0.8669 4.7302,-1.5761 4.8579,-1.5761 0.1277,0 2.9388,3.3908 6.247,7.5352 l 6.0148,7.5351 3.6328,-3.1896 c 3.4895,-3.0638 3.6252,-3.4299 3.4401,-9.2851 -0.106,-3.3526 0.1505,-8.0081 0.5699,-10.3456 l 0.7626,-4.25 h -4.0065 c -3.5461,0 -4.1555,-0.3598 -5.3034,-3.1311 -0.7133,-1.7221 -1.3304,-5.8697 -1.3713,-9.2169 l -0.074,-6.0858 4.7794,-3.1463 c 3.3558,-2.2091 6.4553,-3.3191 10.4063,-3.7269 3.0948,-0.3194 5.9725,-1.14 6.395,-1.8236 0.6003,-0.9713 2.696,-0.8066 9.5937,0.7539 4.9049,1.1096 10.9103,1.8162 13.5184,1.5905 4.198,-0.3633 4.7253,-0.6832 5,-3.0337 0.2622,-2.2424 0.9667,-2.7567 4.8072,-3.5092 2.475,-0.485 4.8306,-1.3968 5.2347,-2.0263 1.2793,-1.9932 0.8261,-7.4491 -0.9236,-11.1183 l -1.6888,-3.5416 -8.0612,0.6015 c -9.2093,0.6871 -22.6271,3.8419 -27.0887,6.369 -4.3901,2.4866 -17.499,6.3758 -20.8082,6.1734 -4.8528,-0.2968 -9.2474,-2.7081 -10.5156,-5.7699 -0.9121,-2.2019 -2.607,-3.4344 -7.14,-5.1921 -5.3312,-2.0672 -6.0098,-2.6561 -6.5833,-5.7128 -0.3516,-1.8744 -0.079,-7.1769 0.6067,-11.7833 1.1138,-7.4859 1.0594,-8.8644 -0.5123,-12.9796 -0.9812,-2.5692 -1.4909,-5.6694 -1.1534,-7.0144 0.3327,-1.3256 -0.068,-4.6745 -0.8893,-7.4419 l -1.4942,-5.0316 6.5517,-10.3515 c 3.6034,-5.6933 9.178,-13.0515 12.388,-16.3515 6.7774,-6.9674 15.4407,-18.7317 17.6002,-23.9001 0.9328,-2.2326 3.1013,-4.5922 5.7384,-6.2438 2.3314,-1.4603 4.3889,-3.0378 4.5722,-3.5056 0.1833,-0.4678 23.6477,-0.8505 52.143,-0.8505 58.2311,0 53.0237,-0.7921 53.0237,8.0649 0,4.838 0.061,4.933 4.75,7.3427 2.6125,1.3427 6.325,4.4727 8.25,6.9556 2.6339,3.3973 4.9211,5.054 9.2433,6.695 5.442,2.0662 5.8775,2.0926 8.3037,0.5029 5.3203,-3.486 4.5219,-8.9269 -1.5497,-10.5618 -3.247,-0.8744 -4.6305,-2.0852 -7.49,-6.5553 -3.9218,-6.1308 -3.9701,-6.3343 -2.3468,-9.897 1.0199,-2.2384 1.7705,-2.547 6.1953,-2.547 3.9813,0 5.5701,0.5129 7.5936,2.4515 2.1978,2.1057 19.8772,10.1277 20.5625,9.3303 1.0893,-1.2674 4.4881,-9.0235 4.4881,-10.242 0,-1.2285 1.3141,-1.5398 6.5,-1.5398 h 6.5 v 215.1187 215.1187 l -3.4333,-2.6187 c -1.8883,-1.4403 -3.9608,-2.6187 -4.6056,-2.6187 -1.3602,0 -4.6224,-2.6585 -14.7885,-12.0517 -4.0301,-3.7237 -8.4018,-7.04 -9.7148,-7.3695 -1.313,-0.3296 -3.5077,-1.7196 -4.8771,-3.089 -1.3694,-1.3694 -3.3675,-2.4898 -4.4403,-2.4898 -1.2495,0 -2.8829,-1.5912 -4.5454,-4.4281 -1.4273,-2.4354 -2.595,-4.6279 -2.595,-4.8722 0,-0.2442 1.8212,-0.7353 4.047,-1.0912 2.2259,-0.356 3.7825,-1.0753 3.4592,-1.5985 -0.6399,-1.0352 1.8605,-6.5109 4.1866,-9.1686 1.1394,-1.3018 1.2336,-2.4484 0.4379,-5.3301 -0.962,-3.4841 -0.8606,-3.7567 1.9872,-5.3414 1.6505,-0.9185 4.6617,-2.701 6.6915,-3.9612 l 3.6906,-2.2912 -8.5,0.6299 c -4.675,0.3464 -8.95,1.1702 -9.5,1.8307 -1.3009,1.562 -12.0395,5.6219 -14.8703,5.6219 -1.2058,0 -4.7307,1.5877 -7.8331,3.5283 -5.432,3.3978 -5.6081,3.6421 -4.759,6.6027 0.4849,1.6909 2.0619,4.6217 3.5044,6.5129 2.112,2.769 3.0448,3.2915 4.7903,2.6831 1.1922,-0.4155 3.7427,-0.7716 5.6677,-0.7913 3.1415,-0.032 3.4714,0.2182 3.2212,2.443 -0.4102,3.6481 -1.7543,4.4954 -7.1528,4.509 -3.2073,0.01 -5.5131,0.6065 -6.791,1.7623 -1.0642,0.9625 -2.8445,1.75 -3.9561,1.75 -1.1117,0 -3.9669,1.4094 -6.3449,3.132 -3.5939,2.6034 -4.7583,2.9752 -6.9,2.2028 -2.2933,-0.827 -2.5598,-1.4319 -2.4255,-5.5035 0.1422,-4.3123 -0.066,-4.6964 -3.6362,-6.7029 -2.0829,-1.1706 -4.5133,-2.1284 -5.4009,-2.1284 -2.9132,0 -1.7003,-1.6595 3.9597,-5.4174 4.7738,-3.1697 5.3898,-3.9219 4.2933,-5.243 -0.9801,-1.181 -2.3999,-1.3939 -6.059,-0.9085 -6.4622,0.8572 -9.8078,-1.2417 -9.8078,-6.1531 0,-2.5485 -0.3707,-3.3497 -1.3722,-2.9654 -0.7547,0.2896 -3.4533,0.8386 -5.997,1.22 -4.3026,0.6453 -4.8168,1.0516 -7.3779,5.8305 -1.9154,3.5741 -3.8762,5.6859 -6.445,6.9416 -3.5078,1.7146 -3.6867,2.0394 -3.5849,6.5073 0.1269,5.5748 -1.542,9.188 -4.244,9.188 -2.814,0 -6.6864,6.5907 -7.3444,12.5 -0.848,7.6156 -1.5733,9.232 -4.7298,10.5394 -2.3127,0.9579 -2.9048,1.8279 -2.9048,4.2675 0,1.7563 -0.915,4.0381 -2.1436,5.346 l -2.1437,2.2817 2.4994,3.2827 c 1.3746,1.8055 3.4538,5.1569 4.6205,7.4475 1.5571,3.0575 3.0578,4.474 5.6442,5.3276 3.5678,1.1774 4.5564,3.2209 2.2732,4.6986 -0.6875,0.4449 -4.112,0.8212 -7.61,0.8362 -5.5663,0.024 -6.6348,0.3467 -8.5626,2.5879 -1.7969,2.089 -3.3967,2.6722 -8.6849,3.166 -5.5645,0.5196 -6.6416,0.3503 -7.6072,-1.1959 -1.478,-2.3665 -9.0002,-4.3082 -11.5025,-2.969 -1.0221,0.547 -2.6794,0.734 -3.6829,0.4155 -1.2862,-0.4082 -2.8977,0.6089 -5.4622,3.4475 -2.0007,2.2146 -3.6377,4.4753 -3.6377,5.0237 0,1.5222 -5.7313,1.1874 -9.0497,-0.5286 l -2.9503,-1.5257 v 3.0609 c 0,1.6835 0.6498,4.0575 1.4441,5.2757 1.5186,2.329 2.3683,11.5912 1.2321,13.4296 -1.3009,2.105 2.5706,2.3778 4.0368,0.2845 l 1.4327,-2.0454 3.9271,2.2072 c 4.3433,2.4411 4.6279,3.0125 2.4148,4.8491 -0.9648,0.8008 -1.1796,1.6596 -0.5932,2.3725 1.062,1.291 1.8176,8.2386 0.9864,9.0698 -0.3079,0.3079 -1.3767,-0.343 -2.3753,-1.4464 -0.9985,-1.1034 -2.8708,-2.0061 -4.1605,-2.0061 -2.1126,0 -2.345,0.446 -2.345,4.5 0,3.8433 -0.2938,4.5 -2.0134,4.5 -1.9038,0 -1.9357,0.1861 -0.5852,3.4184 0.7856,1.8802 1.1667,3.6802 0.8468,4 -1.0531,1.0532 -4.2966,0.6079 -7.4498,-1.0227 -2.8471,-1.4723 -3.1761,-1.4723 -4,0 -0.4938,0.8824 -1.2284,1.6043 -1.6325,1.6043 -1.3606,0 -4.1659,-5.7844 -4.1659,-8.5899 0,-1.5296 -1.0047,-3.8507 -2.2327,-5.1577 -2.1512,-2.29 -2.1711,-2.4837 -0.5465,-5.3145 1.3538,-2.3587 1.413,-2.9379 0.3008,-2.9379 -1.5978,0 -5.5216,-5.1288 -5.5216,-7.2173 0,-0.7747 -1.4069,-2.7302 -3.1265,-4.3456 -1.7196,-1.6154 -4.1667,-5.148 -5.4381,-7.8502 -1.2714,-2.7022 -3.5163,-5.8737 -4.9888,-7.0478 l -2.6772,-2.1347 0.9893,-10.3719 0.9894,-10.372 -3.6241,-3.6728 c -1.9932,-2.0201 -6.774,-5.8679 -10.624,-8.5507 -3.85,-2.6828 -8.742,-6.5094 -10.8711,-8.5034 -2.129,-1.9941 -6.1673,-4.4513 -8.9738,-5.4605 -5.7447,-2.0658 -13.5802,-9.5987 -13.6268,-13.1007 -0.016,-1.1701 -0.7033,-2.6877 -1.5283,-3.3724 -0.825,-0.6847 -1.5,-2.2897 -1.5,-3.5667 0,-1.277 -1.0469,-3.5389 -2.3265,-5.0264 l -2.3264,-2.7047 -2.2551,3.6489 c -1.2403,2.0069 -2.5987,3.6489 -3.0186,3.6489 -1.7759,0 -3.9098,-3.7839 -4.2294,-7.5 -0.4949,-5.7543 -2.1131,-6.5981 -7.4613,-3.8905 -2.4262,1.2284 -4.9673,2.438 -5.647,2.6881 -0.9222,0.3394 -0.7837,1.2818 0.546,3.7148 1.6345,2.9908 1.6498,3.4058 0.1847,5.0247 -1.3248,1.4639 -1.4122,2.4506 -0.5128,5.7907 1.079,4.0073 4.2196,7.3893 10.0719,10.8463 2.1444,1.2668 3.6577,3.5715 5.4852,8.3539 1.7773,4.6511 4.1261,8.2856 7.9415,12.2883 5.3206,5.5817 5.5177,5.6837 10.9828,5.6837 h 5.565 v 3.8693 c 0,3.7809 0.1394,3.9297 6.1081,6.5183 12.9398,5.6118 22.8104,14.5957 19.8954,18.1081 -1.7716,2.1347 -3.5363,1.8664 -5.2858,-0.8037 -0.965,-1.4728 -3.2041,-2.6952 -6.1873,-3.3779 l -4.6751,-1.0698 -2.1767,4.4802 -2.1766,4.4803 3.749,3.1476 c 5.0092,4.2055 5.0909,7.6583 0.249,10.5151 -2.3494,1.3861 -3.5097,2.8158 -3.5293,4.3488 -0.038,2.9349 -5.3357,8.7837 -7.9566,8.7837 -1.1078,0 -2.0141,-0.2507 -2.0141,-0.5572 0,-2.1617 2.5226,-10.223 3.5866,-11.4615 1.4616,-1.7014 0.6782,-6.7099 -2.0834,-13.3195 -1.2101,-2.896 -2.6479,-4.2806 -5.9719,-5.751 -3.4004,-1.5041 -4.5269,-2.6143 -5.0446,-4.9713 -0.4454,-2.0279 -1.2173,-2.968 -2.3266,-2.8335 -2.7643,0.3353 -5.011,-1.1286 -7.2215,-4.7052 -1.7339,-2.8056 -2.7063,-3.4008 -5.5554,-3.4008 -4.5949,0 -6.3294,-1.2606 -18.9424,-13.7671 -9.6259,-9.5446 -11.203,-11.6251 -14.9783,-19.7593 l -4.2197,-9.0915 -6.2278,-2.7949 -6.2278,-2.7948 -4.1436,4.0161 c -2.279,2.2089 -5.8582,4.719 -7.9539,5.578 -2.0956,0.859 -6.26,3.6547 -9.2541,6.2126 -3.1291,2.6733 -6.444,4.6509 -7.796,4.6509 -3.3569,0 -9.2708,-2.1007 -10.6741,-3.7915 -0.7201,-0.8677 -2.0988,-1.2122 -3.4722,-0.8675 -1.2529,0.3145 -3.7023,-0.1648 -5.4432,-1.0651 -3.0713,-1.5882 -3.2951,-1.5546 -7.5454,1.1344 -5.3649,3.394 -6.7375,6.0413 -5.4536,10.5179 0.5219,1.8197 0.9304,5.1116 0.9078,7.3152 -0.039,3.7602 -0.4454,4.3055 -6.617,8.8682 -4.2076,3.1107 -8.7848,5.4792 -12.7089,6.5765 -4.7092,1.3167 -6.5527,2.3936 -7.9409,4.6384 -0.9943,1.6079 -4.0562,6.4624 -6.8043,10.7877 -5.4015,8.5016 -5.7771,11.6161 -1.8311,15.1871 2.7223,2.4637 2.5012,3.1818 -2.2879,7.4317 -3.0389,2.6968 -4.53,4.9893 -5.292,8.1359 -0.9467,3.9097 -1.3992,4.4143 -4.2054,4.6897 -2.9796,0.2924 -7.9316,4.6907 -10.7714,9.5669 -0.8405,1.4431 -2.9622,1.7718 -13.2991,2.0602 -9.0175,0.2516 -12.753,0.7371 -14,1.8194 -0.9355,0.812 -2.9859,1.7822 -4.5565,2.1561 -1.6171,0.385 -3.0759,1.5226 -3.3636,2.6231 -0.2795,1.0687 -0.876,1.7159 -1.3254,1.4381 -0.4495,-0.2778 -1.0999,-0.048 -1.4453,0.5113 -0.8643,1.3984 -2.6536,1.2226 -4.9054,-0.482 z m 314.5444,-29.7042 c -1.6908,-1.0705 -4.1035,-1.7679 -5.3616,-1.5496 -1.9689,0.3416 -1.6668,0.6907 2.1682,2.5063 5.2941,2.5064 7.581,1.8213 3.1934,-0.9567 z m -87.7749,21.513 c -1.1691,-0.2294 -3.16,-1.5181 -4.4243,-2.8638 -1.2642,-1.3457 -2.9867,-2.4467 -3.8278,-2.4467 -1.8625,0 -17.1221,-9.174 -17.1221,-10.2938 0,-0.439 2.3249,-1.8754 5.1664,-3.1919 4.4581,-2.0654 5.5206,-2.223 7.75,-1.1494 1.7226,0.8295 4.0831,0.9902 7.0836,0.4823 14.8499,-2.5141 15,-2.5253 15,-1.1221 0,0.7516 -1.1039,3.44 -2.453,5.9744 -1.9133,3.5941 -2.2231,5.0371 -1.4084,6.5594 0.5744,1.0734 0.7579,3.4793 0.4076,5.3464 -0.6463,3.4448 -1.1893,3.6829 -6.172,2.7052 z m -67.1999,-32.625 c -1.8456,-1.9645 -2.1743,-3.484 -2.1743,-10.0496 0,-4.8587 -0.5481,-8.7951 -1.4738,-10.5852 l -1.4738,-2.85 6.4703,-4.2155 6.4702,-4.2155 1.9894,2.3651 c 3.5967,4.276 4.2485,8.5183 2.8218,18.3652 l -1.3041,9 -3.148,0.3057 c -2.1192,0.2059 -3.3141,0.9411 -3.6564,2.25 -0.6674,2.5525 -1.868,2.4542 -4.5213,-0.3702 z m 192.5757,0.1522 c -1.5125,-0.5524 -2.75,-1.3729 -2.75,-1.8232 0,-0.6544 5.2057,-3.0145 6.6492,-3.0145 0.1929,0 0.3508,1.35 0.3508,3 0,3.2575 -0.1661,3.3293 -4.25,1.8377 z m -257.6388,-5.5975 -4.3888,-2.6072 2.7397,-2.1846 c 2.3788,-1.8967 3.2534,-2.0541 6.6388,-1.1948 4.4498,1.1295 4.7297,2.1565 1.6131,5.9201 l -2.214,2.6736 z m 68.6228,-29.4902 c -1.1452,-0.8685 -1.8486,-3.5391 -2.3047,-8.75 l -0.6564,-7.5 4.5101,-2.1868 c 2.4806,-1.2027 4.7817,-1.9152 5.1136,-1.5833 1.2068,1.2068 0.562,10.7254 -1.0792,15.9322 -1.734,5.5007 -2.7447,6.2407 -5.5834,4.0879 z m -122.734,-121.2814 c 0,-0.8077 0.675,-1.4686 1.5,-1.4686 0.825,0 1.5,0.4018 1.5,0.893 0,0.4912 -0.675,1.152 -1.5,1.4686 -0.9137,0.3506 -1.5,0 -1.5,-0.893 z m -4,-4.4686 c 0,-0.55 0.45,-1 1,-1 0.55,0 1,0.45 1,1 0,0.55 -0.45,1 -1,1 -0.55,0 -1,-0.45 -1,-1 z m -15.2143,-13.3592 c -1.3211,-1.0088 -3.104,-1.0852 -7.7747,-0.333 -3.3333,0.5368 -6.3424,0.6941 -6.687,0.3495 -0.3446,-0.3446 1.4184,-2.8127 3.9177,-5.4847 2.4994,-2.672 5.2668,-6.2554 6.1499,-7.9631 1.4413,-2.787 2.1358,-3.1358 6.7842,-3.4072 l 5.1785,-0.3023 -5.7184,-3.7876 c -4.7056,-3.1168 -6.2971,-3.679 -8.9862,-3.1745 -3.0762,0.5771 -3.3337,0.3983 -4.3916,-3.0484 l -1.1237,-3.6614 4.1828,-1.8516 c 6.0869,-2.6944 8.0945,-6.6311 7.3154,-14.3442 l -0.6195,-6.1323 5.9359,-1.8496 c 5.0495,-1.5734 6.0275,-2.2672 6.5501,-4.6464 0.6704,-3.0524 -1.1641,-8.3204 -4.5564,-13.0845 -1.6946,-2.3797 -1.9754,-3.7669 -1.4236,-7.0327 l 0.6873,-4.0682 -2.3532,1.4803 c -1.8269,1.1493 -3.7657,1.304 -8.6686,0.692 -3.4734,-0.4336 -6.5268,-0.9997 -6.7852,-1.2581 -0.2583,-0.2584 0.4685,-2.9774 1.6152,-6.0423 l 2.0849,-5.5725 -2.6913,-4.2633 c -1.4802,-2.3448 -3.6005,-4.9996 -4.7119,-5.8995 -1.8047,-1.4614 -1.9056,-2.0894 -0.944,-5.8775 1.0569,-4.1641 1.0235,-4.2599 -1.8379,-5.2574 -1.6029,-0.5588 -2.9144,-1.2111 -2.9144,-1.4497 0,-0.2385 0.9115,-3.1395 2.0256,-6.4466 1.7785,-5.2795 1.8521,-6.2604 0.6038,-8.0427 -1.255,-1.7917 -1.1299,-2.9891 1.0664,-10.2056 2.703,-8.8816 5.7633,-13.047 10.7191,-14.59 3.6133,-1.125 17.7032,-3.3009 18.1944,-2.8097 1.2267,1.2267 -2.263,8.0818 -5.6905,11.1783 -3.1328,2.8303 -3.9715,4.2578 -3.7302,6.3485 0.2409,2.0865 0.7642,2.6112 2.3114,2.3173 1.1,-0.2089 5.4174,-0.5375 9.5944,-0.7301 6.9543,-0.3207 7.784,-0.1483 9.8449,2.0454 l 2.2505,2.3956 -4.7018,11.8345 c -2.5861,6.509 -5.7912,12.997 -7.1225,14.4179 l -2.4206,2.5835 4.2775,1.2568 c 6.9879,2.0531 10.3317,6.1003 12.8189,15.5154 1.8454,6.9853 2.6334,8.4845 5.4878,10.4404 3.4329,2.3523 8.4979,11.1886 13.9692,24.3705 2.3529,5.6688 3.1845,6.75 5.1915,6.75 1.3144,0 4.1414,0.8936 6.2822,1.9857 2.8785,1.4685 3.9809,2.7058 4.2324,4.75 0.6236,5.0695 -1.2809,9.594 -5.8158,13.8171 -5.4118,5.0398 -5.6313,7.1234 -0.8451,8.0213 1.9489,0.3657 3.4043,0.9485 3.2341,1.2953 -0.1701,0.3468 -1.339,2.2838 -2.5973,4.3045 -3.6493,5.8596 -10.9921,7.2161 -44.0958,8.1459 -4.2859,0.1204 -6.5616,0.6174 -6.8557,1.4973 -0.2421,0.7244 -1.4052,2.4007 -2.5845,3.7249 -1.8371,2.0629 -2.3899,2.2203 -3.8586,1.0988 z m -59.9071,-22.2871 c -0.7427,-0.8948 -3.2692,-2.4495 -5.6145,-3.4548 -4.6112,-1.9766 -5.1301,-2.9354 -2.6861,-4.9637 1.8094,-1.5016 5.9747,-9.4161 8.0473,-15.2905 1.3635,-3.8644 1.3211,-4.0912 -1.2705,-6.7963 -2.1924,-2.2883 -2.8874,-4.3369 -3.8132,-11.2394 l -1.1321,-8.4409 2.9202,-0.5841 c 1.6062,-0.3212 4.9391,-0.584 7.4066,-0.584 h 4.4863 l -0.6572,-3.5031 c -0.9424,-5.0233 3.7498,-11.7194 9.6628,-13.7897 2.3495,-0.8226 5.0593,-1.8164 6.0218,-2.2084 1.4059,-0.5727 1.75,-0.1914 1.75,1.9395 0,2.5298 0.1732,2.6181 3.75,1.9124 7.7049,-1.5203 8.0801,-1.3418 11.9614,5.6903 4.399,7.9699 4.0975,11.1287 -1.3079,13.7064 -3.1523,1.5032 -3.4862,2.0251 -3.0204,4.7213 0.2879,1.6672 0.7784,6.6313 1.0899,11.0313 0.5165,7.2953 0.3143,8.5726 -2.2945,14.5 l -2.8608,6.5 -5.4089,0.8615 c -2.9748,0.4738 -5.6358,1.2215 -5.9132,1.6615 -0.8238,1.3069 -14.2763,8.6232 -17.1312,9.3171 -1.8187,0.442 -3.0541,0.1363 -3.9858,-0.9864 z m 51.5374,-47.6037 c 0.3205,-0.6875 0.8605,-2.0375 1.2,-3 0.8456,-2.3976 2.0342,-2.1954 2.7297,0.4642 0.5843,2.2343 -0.6868,3.7419 -3.1791,3.7705 -0.7333,0.01 -1.0711,-0.5472 -0.7506,-1.2347 z m 182.6542,-15.0068 c -1.2516,-2.0662 -3.3264,-4.0204 -4.6106,-4.3427 -1.6713,-0.4195 -2.7788,-1.8891 -3.8972,-5.1714 -0.8593,-2.522 -1.5624,-4.9165 -1.5624,-5.3212 0,-0.8492 12.3308,-7.9079 13.8143,-7.9079 0.5441,0 1.9005,1.4392 3.0143,3.1983 l 2.0251,3.1984 -2.1515,3.0215 c -1.2507,1.7564 -2.6132,5.9653 -3.2539,10.0517 l -1.1023,7.0301 z m -18.0702,-3.463 c -3.0071,-0.5796 -3.9644,-1.894 -3.9847,-5.4714 -0.014,-2.3668 0.4969,-2.7959 4.2347,-3.5609 4.894,-1.0015 5.3928,-0.5575 5.9004,5.2521 0.3771,4.315 -0.5188,4.8657 -6.1504,3.7802 z m 32,-4.273 c -2.05,-0.4936 -2.5113,-1.2235 -2.5628,-4.0546 -0.035,-1.8989 -0.8747,-4.9948 -1.8672,-6.8797 -1.5984,-3.0355 -1.6616,-4.0227 -0.5536,-8.6414 1.1952,-4.9822 1.1384,-5.364 -1.2757,-8.573 -5.0047,-6.6526 -12.3951,-25.7332 -14.286,-36.8837 -0.9769,-5.7611 -2.1629,-10.9113 -2.6355,-11.4448 -0.5447,-0.6149 -3.4361,-0.093 -7.8968,1.4258 -6.4658,2.2013 -7.6828,3.0988 -14.98,11.0472 -7.8374,8.5368 -8.0286,8.6672 -14.4439,9.8492 l -6.5013,1.1979 -7.2486,-5.0875 c -9.2373,-6.4833 -10.609,-8.8344 -7.8033,-13.3741 2.4023,-3.887 2.7416,-8.5885 0.6198,-8.5885 -0.7892,0 -2.5204,0.4127 -3.8471,0.9171 l -2.4122,0.9171 0.1596,-14.6671 c 0.088,-8.0669 -0.2443,-15.4964 -0.7378,-16.51 -0.4936,-1.0136 -1.2294,-7.0886 -1.6352,-13.5 l -0.7378,-11.6571 3.7296,-7.5 c 4.8256,-9.7038 10.0588,-14 17.0532,-14 h 4.7739 l -1.4264,-4.0426 c -1.0992,-3.1157 -1.1464,-4.1366 -0.2056,-4.4524 0.6714,-0.2254 3.4631,-1.0386 6.2039,-1.8072 4.8525,-1.3609 5.024,-1.5392 6.5414,-6.7977 l 1.5582,-5.4001 6.943,-1.0084 c 6.9163,-1.0046 6.9452,-1.0219 7.5133,-4.5174 0.6929,-4.2624 7.7299,-14.8673 13.0619,-19.6844 2.1444,-1.9374 3.899,-4.3356 3.899,-5.3295 0,-0.9938 1.165,-3.1914 2.5889,-4.8836 l 2.5889,-3.0767 h 54.3773 54.3774 l -2.0899,3.5421 c -2.0399,3.4574 -2.0488,3.6728 -0.3727,9.0017 l 1.7173,5.4595 -3.8357,6.5569 c -2.9452,5.0348 -6.1742,8.4978 -13.909,14.9171 -5.5403,4.598 -11.1689,9.9938 -12.5079,11.9906 -1.485,2.2145 -3.5211,3.8579 -5.2201,4.2134 -3.6337,0.7604 -4.0949,1.7812 -6.6939,14.8187 -1.2061,6.05 -2.8291,11.9967 -3.6068,13.2148 -0.9004,1.4106 -1.3709,4.6786 -1.2955,9 0.183,10.4927 0.8752,12.5651 4.5495,13.6189 4.5282,1.2986 9.8846,7.2476 12.7687,14.1813 l 2.4895,5.985 -5.6837,5.1774 c -5.5614,5.066 -5.6447,5.2205 -3.8716,7.1798 1.7731,1.9592 1.7187,2.06 -2.5293,4.6875 -2.3878,1.4768 -6.2612,4.5343 -8.6077,6.7944 -3.3149,3.1929 -4.2345,4.7839 -4.1242,7.135 0.078,1.6642 -0.3535,5.0509 -0.9593,7.5259 -0.6057,2.475 -1.1123,7.4235 -1.1258,10.9966 -0.023,6.2231 -3.8443,20.6742 -6.2804,23.7534 -0.5701,0.7206 -3.2516,1.25 -6.3317,1.25 -4.5589,0 -5.8654,0.4589 -8.9049,3.1276 -2.9737,2.6109 -3.5163,3.6999 -3.2848,6.5919 0.2714,3.3891 0.1581,3.5014 -5.2226,5.1769 -3.025,0.942 -6.625,1.4419 -8,1.1108 z m 55.625,-37.1322 c -1.6029,-8.0143 1.0785,-12.875 7.1025,-12.875 3.4709,0 3.5283,0.06 1.8427,1.9224 -0.9568,1.0573 -1.9816,3.8698 -2.2772,6.25 -0.3392,2.7314 -1.3222,4.9648 -2.6652,6.0554 -2.9115,2.3641 -3.2847,2.238 -4.0028,-1.3528 z m 42.9982,-19.4145 c -1.5657,-4.08 -0.6666,-7.0771 2.5848,-8.6169 2.8508,-1.3502 3.6301,-1.3535 7,-0.03 2.0856,0.8193 3.792,1.7662 3.792,2.1042 0,0.4941 -9.5746,6.7187 -12.1119,7.8743 -0.3529,0.1607 -0.9222,-0.4386 -1.2649,-1.3318 z m -26.6232,-43.8931 c 0,-2.9025 3.3363,-4.3631 5.6258,-2.463 1.3487,1.1194 1.2543,1.4815 -0.798,3.0604 -3.2155,2.4736 -4.8278,2.2741 -4.8278,-0.5974 z m -294.5239,-44.6428 c -0.8882,-2.7982 -0.2073,-3.2441 3.6577,-2.3952 l 3.2768,0.7197 -2.3161,1.8754 c -2.9604,2.3972 -3.8058,2.3606 -4.6184,-0.1999 z m -86.4653,-61.6746 -0.011,-10.25 h 7.0794 7.0795 l -0.6849,3.25 c -0.6847,3.2495 -1.4642,4.3204 -9.2801,12.75 l -4.1724,4.5 z"
         id="path9" /><path
         style="display:inline;fill:#daaa44;fill-opacity:1"
         d="m -1854.2993,-1549.6224 c -1.1033,-0.537 -2.8509,-3.019 -3.8836,-5.5157 -3.5163,-8.5018 -9.0185,-11.2816 -15.5967,-7.8798 -1.5879,0.8211 -3.478,1.3087 -4.2004,1.0835 -0.7223,-0.2251 -2.4737,-0.6612 -3.8919,-0.9689 -2.9481,-0.6398 -4.9162,-4.1928 -4.9324,-8.9046 -0.025,-7.3718 -1.1757,-10.7481 -4.1936,-12.3087 -2.5736,-1.3309 -2.8526,-1.9002 -2.3049,-4.7042 0.3428,-1.7545 1.9283,-6.115 3.5235,-9.69 3.6383,-8.1536 5.4265,-18.9911 4.1347,-25.0581 -0.5202,-2.4431 -0.6398,-6.4669 -0.2658,-8.9419 0.5832,-3.8589 0.2695,-5.2074 -2.2024,-9.4653 -2.7032,-4.6564 -2.7872,-5.123 -1.3499,-7.5 0.8429,-1.3941 2.3508,-2.7019 3.351,-2.9062 1.0001,-0.2043 3.0906,-1.4419 4.6454,-2.7503 3.5564,-2.9924 6.9052,-3.8595 9.5141,-2.4632 1.1151,0.5967 5.8526,1.085 10.5278,1.085 4.6752,0 11.5672,0.6328 15.3157,1.4062 4.4554,0.9194 8.5066,1.1403 11.6994,0.6382 3.3745,-0.5306 6.3107,-0.3247 9.5,0.6662 5.8613,1.8211 14.7682,1.0942 17.2227,-1.4056 2.27,-2.312 4.7068,-16.1251 5.5497,-31.4589 l 0.6406,-11.6539 -4.1151,-2.0994 c -4.2552,-2.1709 -6.7702,-5.4139 -6.3501,-8.1885 0.1362,-0.8998 -2.4999,-3.976 -6.0451,-7.0542 -6.0934,-5.2907 -11.6458,-7.8501 -17.0303,-7.8501 -3.7005,0 -5.389,-2.4858 -4.0672,-5.9877 0.8319,-2.2039 0.753,-3.1415 -0.3576,-4.2521 -1.2331,-1.2331 -0.3974,-1.7234 6.2106,-3.6434 l 7.6355,-2.2186 3.3497,2.5549 c 1.9746,1.5061 3.6043,2.1427 3.9701,1.5509 0.3413,-0.5522 3.2939,-1.004 6.5615,-1.004 5.0419,0 5.941,-0.2709 5.941,-1.7899 0,-1.7884 -2.3106,-11.3017 -3.4715,-14.2932 -1.0333,-2.6624 5.0295,-1.1823 6.2651,1.5296 0.8113,1.7805 2.1395,2.3854 6.3262,2.8813 6.1856,0.7326 10.1858,-1.1122 9.6832,-4.4655 -0.2403,-1.6036 0.8135,-2.4956 5.0938,-4.311 6.5904,-2.7953 9.0409,-5.7666 9.1142,-11.0513 0.069,-4.9496 2.337,-7.8076 7.5308,-9.4886 2.177,-0.7047 5.8745,-2.3905 8.2167,-3.7463 3.1978,-1.8511 5.3535,-2.378 8.6545,-2.1151 2.4179,0.1925 4.1875,0.013 3.9325,-0.4 -0.255,-0.4125 -1.562,-0.75 -2.9045,-0.75 -1.3426,0 -2.441,-0.3114 -2.441,-0.692 0,-0.3807 2.2023,-4.0932 4.894,-8.25 2.6918,-4.1569 5.4768,-9.9205 6.1891,-12.808 0.7122,-2.8875 1.8216,-5.25 2.4653,-5.25 0.6436,0 1.5711,2.2317 2.0609,4.9593 l 0.8907,4.9594 2.3015,-1.7525 c 2.1159,-1.6112 2.2188,-2.1119 1.276,-6.2094 -0.9941,-4.3199 -0.9265,-4.54 2.1984,-7.1648 4.1674,-3.5003 10.7991,-4.6281 14.1817,-2.4117 2.4182,1.5844 2.4632,1.5586 3.0876,-1.7699 0.5442,-2.9006 1.1184,-3.4564 4.0647,-3.9345 1.9793,-0.3212 4.8778,0.048 6.8506,0.8721 3.339,1.3951 3.4702,1.3579 5.5554,-1.5704 1.8377,-2.5808 2.0843,-4.0791 1.7677,-10.7384 -0.2024,-4.2566 -0.7622,-8.5984 -1.2439,-9.6484 -0.8188,-1.7849 -0.5352,-1.8689 4.3556,-1.2896 4.7713,0.5651 5.9068,1.2503 12.9107,7.7912 4.2236,3.9444 8.6298,7.6046 9.7915,8.134 2.6362,1.2011 9.2252,-1.9142 12.2906,-5.8113 2.886,-3.669 5.8018,-2.6922 11.7807,3.9466 2.6572,2.9503 5.7835,5.8596 6.9476,6.465 2.9175,1.5173 3.8455,7.8234 1.853,12.5921 -1.4805,3.5436 -1.4448,3.7314 1.4001,7.3588 3.1296,3.9903 4.3895,9.3502 3.0406,12.9356 -0.5852,1.5555 -0.1518,3.7841 1.4585,7.5 1.8784,4.3343 2.1121,5.8845 1.2973,8.604 -0.8371,2.7942 -1.3558,3.2264 -3.2894,2.7412 -2.4228,-0.6081 -21.5801,7.249 -24.3315,9.9793 -1.7632,1.7495 -1.5317,7.6204 0.4516,11.4558 0.7793,1.507 5.2005,6.175 9.8248,10.3733 6.7385,6.1177 9.0336,7.6332 11.5594,7.6332 2.6231,0 3.4342,-0.5927 4.8373,-3.5351 1.5275,-3.2032 1.972,-3.4736 4.7338,-2.8796 1.6765,0.3606 4.3174,1.3044 5.8689,2.0974 1.5514,0.793 3.8551,1.3063 5.1193,1.1407 3.0832,-0.4041 7.7715,2.1828 7.1048,3.9202 -0.2888,0.7525 0.1455,2.973 0.965,4.9344 2.0936,5.0106 1.8693,7.2273 -0.8352,8.2555 -2.9629,1.1266 -5.6747,5.2401 -5.6747,8.6082 0,4.1034 -5.0002,8.4583 -9.7117,8.4583 -2.126,0 -5.5857,0.877 -7.6883,1.949 -3.0509,1.5554 -4.7024,1.7846 -8.1788,1.1352 -3.5311,-0.6597 -4.6467,-0.4925 -5.8914,0.8828 -1.3656,1.5089 -1.3732,2.2355 -0.069,6.5681 1.6173,5.374 1.4749,6.0877 -0.9448,4.7336 -1.9737,-1.1045 -13.5157,4.0325 -13.5157,6.0154 0,0.699 0.7297,2.3127 1.6216,3.5861 1.4393,2.0548 1.4534,2.4833 0.1261,3.8106 -1.1793,1.1794 -1.2985,2.3723 -0.5637,5.6426 1.1048,4.9174 2.5324,6.6444 8.8353,10.689 4.0314,2.5869 5.0647,3.953 6.9954,9.248 2.4448,6.7052 8.8087,15.0798 13.1748,17.3376 1.4911,0.7711 4.5335,1.402 6.7608,1.402 3.7474,0 4.0508,0.2052 4.065,2.75 0.022,3.8649 0.7121,4.5702 7.4847,7.6431 8.8483,4.0148 14.6911,8.0888 17.4325,12.1551 2.0305,3.0119 2.1957,3.758 1,4.5147 -2.0987,1.328 -2.5021,1.1772 -3.6624,-1.3693 -0.7494,-1.6448 -2.4403,-2.6244 -5.894,-3.4148 -2.6637,-0.6095 -5.1945,-0.8911 -5.6239,-0.6257 -0.4295,0.2654 -1.6868,2.2584 -2.7941,4.429 -2.2749,4.4591 -1.7163,6.5359 2.5013,9.2993 3.6451,2.3884 3.4394,6.6 -0.4299,8.8015 -1.7021,0.9684 -3.2513,2.8788 -3.6493,4.5 -0.9464,3.8557 -4.4855,8.1947 -6.7386,8.2618 -1.512,0.045 -1.736,-0.4326 -1.2017,-2.5614 0.3612,-1.4391 0.9162,-3.9141 1.2334,-5.5 0.3172,-1.5858 1.204,-2.8833 1.9707,-2.8833 1.6423,0 1.2514,-2.3867 -1.9402,-11.8456 -1.9245,-5.7033 -2.5357,-6.5034 -6.0383,-7.9049 -2.7554,-1.1025 -4.3065,-2.5393 -5.2947,-4.9044 -1.0434,-2.4974 -2.0159,-3.3451 -3.8371,-3.3451 -1.6436,0 -3.4882,-1.305 -5.654,-4 -2.7482,-3.4199 -3.774,-4 -7.072,-4 -3.5942,0 -4.706,-0.8399 -16.2892,-12.3061 -11.2372,-11.1236 -12.8083,-13.125 -16.35,-20.8274 -3.1983,-6.9556 -4.6302,-8.9442 -7.7934,-10.8231 -7.7084,-4.5786 -9.1462,-4.5313 -14.5014,0.4779 -2.6334,2.4633 -5.4823,4.5349 -6.3309,4.6037 -0.8485,0.069 -1.8803,0.1822 -2.2928,0.252 -0.4125,0.07 -3.645,2.5379 -7.1834,5.4844 -6.0715,5.056 -6.682,5.3293 -10.8541,4.8591 -2.4314,-0.2741 -5.7398,-1.4736 -7.3521,-2.6655 -1.7478,-1.2923 -3.682,-1.929 -4.7907,-1.5772 -1.0226,0.3246 -3.4353,-0.1614 -5.3615,-1.0799 -3.483,-1.6609 -3.5269,-1.6524 -7.9815,1.5466 -5.121,3.6776 -6.6955,6.4779 -5.6539,10.0555 0.4003,1.375 0.7727,4.6112 0.8275,7.1915 0.097,4.5716 -0.047,4.8046 -5.6503,9.1103 -3.5258,2.7095 -8.071,5.0877 -11.75,6.1481 -6.9485,2.0028 -8.9454,3.5412 -11.7472,9.0501 -1.1189,2.2 -3.7818,6.5787 -5.9175,9.7304 -4.278,6.3129 -4.3932,9.265 -0.5276,13.5219 l 2.0452,2.2523 -4.5223,4.3332 c -3.4425,3.2985 -4.6814,5.3276 -5.1883,8.4977 -0.5997,3.75 -0.9481,4.1645 -3.5007,4.1645 -3.0932,0 -9.5019,5.4091 -10.6337,8.975 -0.4594,1.4476 -1.5502,2.0479 -3.8253,2.1055 -1.7505,0.044 -7.2326,0.1568 -12.1826,0.25 -6.7588,0.1273 -9.6157,0.6053 -11.4725,1.9195 -1.3599,0.9625 -3.4668,1.75 -4.6819,1.75 -1.3136,0 -3.0756,1.2165 -4.3456,3 -2.3224,3.2615 -2.5348,3.3344 -5.506,1.8884 z m 82.9412,-90.9932 c -0.9258,-1.498 -3.42,-1.0191 -2.8211,0.5416 0.3033,0.7903 1.1866,1.1932 1.9629,0.8953 0.7763,-0.2979 1.1625,-0.9445 0.8582,-1.4369 z m 86.2479,-72.0827 c -0.3192,-0.7977 -0.5562,-0.5608 -0.6042,0.6042 -0.043,1.0541 0.1929,1.6447 0.5252,1.3125 0.3323,-0.3323 0.3679,-1.1948 0.079,-1.9167 z m -35.0723,-45.69 c -0.8859,-0.979 -1.6108,-2.3855 -1.6108,-3.1256 0,-0.8599 -0.9023,-0.4979 -2.5,1.0031 -1.6505,1.5506 -2.5,3.4295 -2.5,5.5296 0,2.7276 0.4632,3.3163 3.25,4.1296 3.1281,0.913 3.2822,0.8229 4.1108,-2.4041 0.6609,-2.5737 0.4867,-3.7662 -0.75,-5.1326 z m 92.2622,200.1731 c -1.4448,-0.2226 -3.6607,-1.5052 -4.9243,-2.8502 -1.2635,-1.345 -2.8818,-2.4454 -3.5961,-2.4454 -0.7143,0 -4.7207,-2.1118 -8.9031,-4.6929 l -7.6043,-4.6928 4.7209,-2.3993 c 3.9632,-2.0142 5.08,-2.2072 6.9572,-1.2025 2.3439,1.2544 8.5906,0.94 16.4767,-0.8293 2.475,-0.5553 4.6888,-0.8224 4.9195,-0.5935 0.2308,0.2288 -0.6147,2.6245 -1.879,5.3237 -1.8427,3.9344 -2.1032,5.4707 -1.3134,7.7471 0.9424,2.7161 -0.1556,7.5596 -1.6299,7.1897 -0.3285,-0.082 -1.7793,-0.332 -3.2242,-0.5546 z m -66.623,-32.0355 c -2.0177,-1.3487 -2.25,-2.3227 -2.25,-9.4317 0,-5.0059 -0.5398,-8.9716 -1.4646,-10.76 -1.4628,-2.8286 -1.4576,-2.837 4.1023,-6.5285 l 5.567,-3.6962 2.3823,2.2381 c 3.2481,3.0514 3.8437,7.3388 2.4164,17.3939 -1.2042,8.4834 -1.2241,8.5243 -4.1389,8.5243 -1.9469,0 -3.1696,0.6311 -3.6468,1.8821 -0.6557,1.7194 -0.9121,1.7521 -2.9677,0.378 z m -65.5,-5.8321 c -3.2255,-1.7498 -3.4051,-2.5378 -0.9304,-4.0833 1.9621,-1.2253 6.8423,-0.7008 7.7931,0.8377 0.5682,0.9194 -2.3313,4.8574 -3.5177,4.7775 -0.3273,-0.022 -1.8325,-0.7113 -3.345,-1.5319 z m 68.3215,-29.8419 c -0.6454,-0.7776 -1.4332,-4.5117 -1.7506,-8.298 l -0.5771,-6.8841 4.0393,-1.5867 4.0394,-1.5867 0.3387,5.0067 c 0.3355,4.9588 -2.393,14.7627 -4.1087,14.7627 -0.4442,0 -1.3357,-0.6363 -1.981,-1.4139 z m -151.7046,-143.5473 c 2.5523,-2.7286 5.1577,-6.0961 5.7898,-7.4834 1.1227,-2.4642 2.8149,-3.0977 10.1268,-3.7914 2.5978,-0.2464 2.3505,-0.5567 -3.7035,-4.6483 -5.2479,-3.5468 -7.0532,-4.2711 -9.4503,-3.7917 -2.5915,0.5183 -3.0876,0.2356 -3.9557,-2.2547 -0.9372,-2.6885 -0.7735,-2.9462 2.9337,-4.6179 2.1936,-0.9892 4.8553,-3.2735 6.0311,-5.1761 1.7748,-2.8716 2.0012,-4.321 1.4442,-9.2442 l -0.6606,-5.8386 5.7429,-1.9143 c 4.9699,-1.6566 5.853,-2.3395 6.5615,-5.0738 0.8955,-3.4558 -0.6028,-8.115 -4.2625,-13.2545 -1.7039,-2.3929 -1.9646,-3.7655 -1.4132,-7.442 0.7173,-4.7837 0.2963,-5.1851 -3.3283,-3.1728 -2.1734,1.2067 -12.3712,0.8498 -13.7005,-0.4795 -0.3006,-0.3006 0.4166,-2.7241 1.5939,-5.3855 l 2.1405,-4.8389 -2.3784,-4.4164 c -1.3081,-2.429 -3.4643,-5.2811 -4.7917,-6.338 -2.2313,-1.7767 -2.3368,-2.2559 -1.3992,-6.3534 0.9923,-4.3362 0.9527,-4.4532 -1.8366,-5.4256 -1.568,-0.5466 -2.8508,-1.1717 -2.8508,-1.3892 0,-0.2176 0.9019,-3.017 2.0043,-6.2211 1.7903,-5.2037 1.8477,-6.0644 0.5375,-8.064 -1.3213,-2.0165 -1.2138,-3.0157 1.0839,-10.081 3.4101,-10.4854 6.9235,-13.8075 15.644,-14.7921 3.4267,-0.3869 7.4917,-0.955 9.0334,-1.2625 2.6515,-0.5289 2.7687,-0.4032 2.167,2.3265 -0.3504,1.5896 -2.6514,4.7341 -5.1235,7.0017 -4.1964,3.8491 -4.4426,4.3556 -3.7945,7.8099 0.5539,2.9529 1.0194,3.5392 2.3204,2.9225 0.8951,-0.4242 5.2428,-0.9315 9.6615,-1.1273 7.0647,-0.313 8.2556,-0.1112 9.8697,1.6724 1.7925,1.9807 1.7259,2.305 -2.841,13.8174 -3.4195,8.6199 -5.5175,12.4947 -7.8047,14.4142 l -3.1281,2.6253 5.5789,1.6218 c 7.7277,2.2465 11.0579,6.2408 13.366,16.0314 1.5686,6.6534 2.2195,7.8765 5.3554,10.062 3.8523,2.6849 6.9392,7.9369 12.9508,22.0343 3.4711,8.1397 4.1142,9.0278 6.7285,9.2908 4.6775,0.4705 9.1725,3.3038 9.7455,6.1427 0.8564,4.2435 -1.2537,9.4584 -4.8144,11.8982 -1.8164,1.2446 -3.955,3.9955 -4.8219,6.2024 l -1.5578,3.9659 h 3.9835 3.9835 l -2.1786,3.8764 c -1.855,3.3004 -3.016,4.113 -7.814,5.4689 -6.1424,1.7358 -29.7976,3.3304 -38.8249,2.6172 -2.6081,-0.2061 -4.2128,1.1081 -6.9168,5.6648 -0.9682,1.6316 -1.4096,1.7021 -3.5342,0.565 -1.8404,-0.9849 -3.5087,-1.0503 -6.8937,-0.2703 -7.24,1.6684 -7.4701,1.3246 -2.5988,-3.8832 z m -50.2326,-18.377 c -0.6108,-0.736 -2.9159,-1.879 -5.1225,-2.5401 -4.3083,-1.2908 -4.8575,-2.175 -2.5436,-4.0953 2.0645,-1.7134 5.9713,-8.9331 7.9052,-14.609 l 1.6352,-4.799 -2.7543,-2.8689 c -2.2547,-2.3485 -2.9441,-4.3161 -3.8006,-10.8462 -0.5755,-4.3876 -0.838,-8.1857 -0.5834,-8.4403 0.2547,-0.2547 2.5255,-0.4692 5.0463,-0.4767 7.8775,-0.023 9.346,-0.7727 8.662,-4.419 -0.453,-2.4144 0.072,-4.2012 2.2353,-7.6128 2.3236,-3.664 3.7496,-4.753 8.0066,-6.1143 l 5.1795,-1.6563 v 2.5164 c 0,2.1091 0.3642,2.4258 2.25,1.9559 1.2375,-0.3083 4.0896,-0.853 6.338,-1.2103 l 4.0881,-0.6497 3.3201,6.4036 c 3.9715,7.6601 3.6794,10.6307 -1.2779,12.9947 l -3.344,1.5946 0.7615,6.8554 c 1.338,12.0463 0.9535,16.4168 -1.9662,22.3456 -2.583,5.245 -2.9127,5.5199 -7.385,6.1597 -2.5747,0.3683 -6.1671,1.7849 -7.983,3.148 -4.4703,3.3558 -13.2995,7.7022 -15.6459,7.7022 -1.051,0 -2.4106,-0.6022 -3.0214,-1.3382 z m 555.6157,-114.6343 c -2.3294,-3.2911 -2.5014,-22.4503 -0.2286,-25.4545 0.8019,-1.0599 1.7003,-1.6846 1.9965,-1.3884 0.2963,0.2963 0.4134,7.0134 0.2604,14.927 -0.2711,14.0138 -0.3239,14.324 -2.0283,11.9159 z"
         id="path16" /></g></g></svg>
