<?xml version="1.0" encoding="UTF-8" standalone="no"?>
<!-- Created with Inkscape (http://www.inkscape.org/) -->

<svg
   version="1.1"
   id="svg1"
   width="823.15759"
   height="701.00006"
   viewBox="0 0 823.15759 701.00006"
   xml:space="preserve"
   xmlns="http://www.w3.org/2000/svg"
   xmlns:svg="http://www.w3.org/2000/svg"><defs
     id="defs1" /><g
     id="g1"
     style="display:inline"
     transform="translate(-881.89783,1077.7906)"><g
       id="g4"><path
         style="fill:#000000"
         d="m 881.8983,-727.29057 v -350.50003 h 312.5 c 249.3417,0 312.4968,0.2526 312.4844,1.25 -0.09,7.2283 -2.9204,12.7628 -12.193,23.8445 -6.4234,7.6767 -11.0404,14.3937 -14.1224,20.5458 -2.5184,5.0272 -6.7378,11.6074 -9.3764,14.6227 -3.7509,4.2864 -5.4238,7.4056 -7.6688,14.2992 -4.4216,13.57723 -16.4117,32.06243 -30.1238,46.44223 -6.3816,6.6924 -14.1489,16.2303 -18.5,22.7174 -4.6507,6.9337 -8.6772,11.8253 -10.5985,12.8758 -2.1237,1.1611 -6.0207,6.2884 -12.3874,16.2982 l -9.2889,14.6042 -16.7246,11.1479 c -11.9849,7.9886 -18.6956,11.7827 -23.6793,13.3878 l -6.9547,2.2399 -7.8869,-3.3878 c -7.7823,-3.3429 -7.9146,-3.4607 -9.979,-8.8878 l -2.0922,-5.5 -6.4542,-0.2636 -6.4543,-0.2637 -6.5,9.1627 c -8.7405,12.3209 -18.5032,21.8235 -22.5,21.9004 -2.5079,0.048 -4.3804,1.6259 -11.4156,9.6174 l -8.4155,9.5595 -0.5845,13.8657 -0.5844,13.8657 -16.5,12.667 c -11.6813,8.9677 -19.1856,13.9237 -25.6959,16.9701 -8.6006,4.0245 -9.2612,4.5495 -10.2048,8.1109 -1.2438,4.6939 -3.0418,12.5738 -3.0749,13.4752 -0.013,0.367 1.9342,1.4153 4.3281,2.3295 6.7566,2.5804 18.7966,15.3437 22.1714,23.5032 1.4785,3.575 6.643,12.8 11.4764,20.5 10.8515,17.2871 12.6116,23.6885 11.0145,40.061 -0.9097,9.3254 -0.8473,10.0416 1.0093,11.6005 3.2962,2.7675 -5.1135,24.7801 -9.5241,24.9296 -8.6511,0.2933 -13.8569,2.2849 -14.7154,5.6297 -0.7246,2.8231 -1.1636,3.1614 -3.5556,2.7395 -1.501,-0.2647 -5.4105,-0.8732 -8.6878,-1.3522 l -5.9589,-0.8708 -8.0411,5.0201 c -8.5523,5.3392 -21.3148,9.6256 -22.0605,7.4092 -0.2159,-0.6416 -1.286,-4.9916 -2.378,-9.6666 l -1.9856,-8.5 4.9415,-8.7421 c 5.5492,-9.8174 5.5621,-9.9113 3.0291,-22.0297 -1.3404,-6.4126 -2.809,-10.2411 -5.4606,-14.2346 -4.5454,-6.8459 -4.6916,-6.1783 2.4963,-11.3975 5.2722,-3.8282 5.9974,-4.7432 5.5473,-7 -0.2847,-1.4278 -0.8339,-5.3963 -1.2203,-8.8187 -0.7851,-6.9537 -0.221,-6.5305 -11.014,-8.262 -6.3773,-1.0231 -7.5709,-0.9332 -12.287,0.9257 -6.7156,2.647 -6.1907,2.7813 -9.4807,-2.4262 -2.2682,-3.5902 -3.6604,-4.691 -7,-5.5347 -8.3494,-2.1091 -8.23,-1.7926 -3.3121,-8.7765 14.6166,-20.7575 15.1295,-34.86 1.4783,-40.6476 -7.3763,-3.1273 -10.0622,-4.807 -11.7293,-7.3354 l -2.1624,-3.2792 -3.3412,2.5485 c -2.579,1.9671 -5.3671,2.8051 -12.2216,3.6733 -12.9068,1.6348 -29.6444,10.0576 -40.7565,20.5096 -9.2586,8.7086 -8.9737,8.7481 -7.4532,-1.0322 l 1.1925,-7.6707 -3.1312,-3.235 -3.1312,-3.235 9.0942,-14.3189 9.0941,-14.3189 -4.7047,-4.7765 c -4.6365,-4.7073 -4.8281,-4.79 -13.2277,-5.713 l -8.523,-0.9365 -8.0968,10.3398 c -8.0103,10.2295 -8.2146,10.4006 -19.1475,16.0319 l -11.0509,5.6921 -6.8028,9.5 c -3.7416,5.225 -7.351,10.3185 -8.021,11.3189 -0.8025,1.1982 -3.7766,2.3177 -8.7164,3.281 -6.8726,1.3401 -9.5422,1.3103 -17.1471,-0.1913 -2.533,-0.5002 -2.7663,-0.1704 -5.3334,7.5379 l -2.6846,8.0611 5.2006,6.2462 c 6.3283,7.6008 5.3839,7.0864 16.9662,9.2407 10.8837,2.0243 10.8113,1.9801 13.0949,7.9959 1.5247,4.0166 1.5581,5.0122 0.3078,9.1667 -1.9834,6.5901 -1.9688,6.6266 3.8473,9.6474 6.7642,3.5132 5.4368,3.9354 17.1153,-5.4436 5.5741,-4.4764 12.4091,-9.1941 15.1888,-10.4836 l 5.0542,-2.3446 10.4458,5.6658 10.4459,5.6658 11.8573,0.404 11.8572,0.4041 -0.709,6.6638 c -0.914,8.5897 -0.4478,8.1638 -8.936,8.1638 -12.1718,0 -25.6957,7.0811 -36.9596,19.352 -4.6663,5.0836 -9.6437,9.8633 -11.0608,10.6217 -2.1101,1.1293 -20.2986,22.3719 -22.9108,26.7577 -1.7563,2.949 7.4691,13.2767 15.4591,17.306 l 7.5974,3.8315 8.0759,19.3155 c 7.1863,17.1877 8.0172,19.8195 7.5424,23.8899 l -0.5336,4.5743 6.5928,3.9257 6.5927,3.9257 0.017,4.625 c 0.029,7.7832 -0.975,10.8197 -4.1162,12.4441 -3.9302,2.0324 -3.7649,2.3854 3.6748,7.848 5.0939,3.7402 7.2011,6.1102 9.524,10.712 l 2.983,5.9091 -10.1958,4.986 c -5.6077,2.7423 -10.3949,5.185 -10.6381,5.4283 -1.6041,1.6041 4.7753,7.915 12.808,12.6704 4.9378,2.9233 8.9777,5.779 8.9777,6.3461 -10e-5,0.567 -1.1055,4.6133 -2.4564,8.9916 -1.351,4.3783 -3.0204,13.1031 -3.7098,19.3885 -1.422,12.9634 -1.8183,13.6259 -8.6964,14.5383 l -4.9951,0.6626 -9.2674,15.225 c -5.0971,8.3737 -12.3175,21.4125 -16.0454,28.975 l -6.778,13.75 h -65.5257 -65.5257 z m 386.3617,210.875 -4.1382,-1.4672 1.3745,-4.5671 c 1.1886,-3.9497 1.1649,-5.4882 -0.1755,-11.3816 l -1.5499,-6.8145 5.0637,-6.962 c 6.3872,-8.7816 6.9981,-7.2928 -6.9703,-16.9884 -14.2804,-9.9123 -14.002,-8.486 -2.9374,-15.0478 5.5722,-3.3047 9.574,-6.411 10.4558,-8.1163 2.7636,-5.3442 12.4863,-5.6277 15.7564,-0.4596 2.2137,3.4986 2.3625,3.5591 7.3948,3.0047 l 5.1356,-0.5658 4.0352,6.2453 c 5.8123,8.9955 6.6059,16.0703 2.4031,21.422 -2.089,2.66 -3.9629,7.3223 -6.159,15.3233 -1.736,6.325 -3.8248,13.8121 -4.6419,16.638 l -1.4854,5.1381 -8.9117,3.1119 c -10.1046,3.5285 -9.1613,3.4328 -14.6498,1.487 z m 56.1383,-46.7301 -5,-1.1528 -1.1926,-5.9961 c -2.1572,-10.8464 -2.1461,-10.9105 3.2069,-18.4503 l 4.9857,-7.0225 9.3536,-0.012 9.3535,-0.012 5.9839,-5 c 6.4233,-5.3672 6.9004,-5.5566 9.9213,-3.9399 1.0894,0.583 3.8399,1.3774 6.1121,1.7653 3.9875,0.6808 6.1167,4.5318 6.731,12.1746 0.022,0.275 -1.9679,1.85 -4.4222,3.5 -3.3448,2.2486 -5.0014,4.315 -6.614,8.25 -2.5523,6.2281 -1.9713,6.1179 -9.2193,1.7474 -6.734,-4.0605 -6.5561,-4.0325 -11.0897,-1.7474 -2.6415,1.3314 -4.3854,3.534 -7.2911,9.209 -4.3104,8.4184 -4.0371,8.2495 -10.8191,6.6859 z m 62.8126,-24.3656 c -1.9522,-2.9272 -3.5994,-7.0801 -4.2506,-10.7166 l -1.0633,-5.9372 3.5502,-2.9264 3.5502,-2.9264 -7.7994,-3.8721 c -9.1408,-4.5381 -18.0389,-4.2538 -23.3904,0.7473 -3.3723,3.1515 -21.3635,8.9386 -30.4093,9.7816 -14.2721,1.33 -14.1602,1.2853 -15.5386,6.2083 -1.6032,5.7262 -2.1284,5.9418 -6.8538,2.8147 -3.9033,-2.5831 -4.0942,-2.6061 -12.785,-1.5402 -4.8525,0.5951 -9.2221,1.0833 -9.7103,1.0849 -1.3056,0 0.2418,-11.2853 1.6713,-12.1937 0.669,-0.4251 2.7042,-0.7798 4.5227,-0.7882 2.8213,-0.013 6.0485,-2.3763 22,-16.1099 l 18.6937,-16.0946 6.5,0.6049 c 8.8472,0.8235 21.0615,-0.7134 36,-4.5298 l 12.5,-3.1934 5.9151,3.5965 5.9151,3.5966 4.8228,-3.6928 c 4.089,-3.1309 4.7307,-4.0732 4.217,-6.1928 -0.3332,-1.375 -0.6652,-3.0507 -0.7379,-3.7237 -0.073,-0.6731 3.4601,-6.1366 7.8506,-12.1412 l 7.9826,-10.9174 7.8994,-0.6891 c 6.9169,-0.6034 8.1818,-1.0246 10.1692,-3.3865 1.3861,-1.6473 5.95,-4.1848 11.7235,-6.5181 l 9.4539,-3.8207 6.7914,-9.4887 c 4.5758,-6.3932 8.8245,-11.0098 13.0236,-14.1516 l 6.2323,-4.663 7.7644,-20.2556 7.7644,-20.2556 -1.4742,-17.7444 -1.4743,-17.7444 3.9525,-4.1621 3.9524,-4.1621 10.3153,-0.7031 c 11.4138,-0.7779 10.9142,-0.4093 11.9662,-8.8291 1.0451,-8.3645 1.7944,-7.6503 4.3846,4.1796 2.6229,11.9786 3.0531,13.0231 7.7249,18.7546 8.2557,10.1281 10.0549,37.1596 2.8764,43.2135 -2.2545,1.9014 -3.5703,4.1989 -4.4147,7.7087 -3.0998,12.8852 -2.7876,12.3212 -7.3173,13.217 -6.5402,1.2934 -9.4767,9.2566 -7.4273,20.1414 1.9906,10.5735 0.4688,20.1937 -4.6395,29.3282 -4.8534,8.6787 -5.3504,18.9386 -1.2124,25.0282 3.3077,4.8677 3.2362,5.1826 -1.9916,8.7794 -2.8353,1.9507 -4.7098,4.0887 -5.0835,5.798 -0.3256,1.4893 -0.7356,3.193 -0.9111,3.786 -0.2802,0.9466 -13.6181,9.4218 -14.8276,9.4218 -0.2553,0 -1.2431,-2.8776 -2.1951,-6.3947 l -1.731,-6.3948 -4.7042,1.955 c -4.2067,1.7482 -4.8997,2.5037 -6.5533,7.1447 -1.017,2.8544 -2.4786,6.7155 -3.2479,8.5802 l -1.3989,3.3904 -3.1779,-3.847 c -1.7478,-2.1158 -3.9092,-4.7462 -4.8031,-5.8453 -1.5742,-1.9357 -1.772,-1.7694 -6.3042,5.3013 -3.9415,6.1492 -5.0251,7.2158 -6.8748,6.7666 -28.4638,-6.9119 -41.0127,-6.1766 -34.4221,2.0169 5.2936,6.581 5.4259,5.9308 -1.6892,8.2986 l -6.5014,2.1635 -4.8105,8.6823 -4.8105,8.6823 -5.9811,0.2793 -5.981,0.2794 z m 117.2467,-238.4037 c -4.9804,-1.1673 -4.7162,-0.5947 -3.1007,-6.7188 1.3665,-5.1801 1.3387,-5.3518 -2.0767,-12.8464 -5.5075,-12.0854 -4.8747,-13.9378 8.8132,-25.8017 l 10.9705,-9.5087 h 6.2505 6.2505 l 4.1396,-13.75 c 2.2768,-7.5625 4.8638,-18.8234 5.7489,-25.0243 l 1.6093,-11.2743 -2.4666,-7.3362 -2.4666,-7.3362 4.1344,-6.1007 c 5.0329,-7.4266 3.6292,-7.9992 14.5017,5.9155 8.0424,10.2928 15.5288,17.643 33.2466,32.642 1.627,1.3774 7.1519,3.3989 14.3883,5.2648 15.7381,4.0579 31.0076,22.5248 23.9001,28.9047 -2.8577,2.5651 -18.6164,7.9834 -24.9817,8.5894 l -7.0793,0.674 -6.5322,7.6853 c -4.8925,5.7561 -7.1029,9.3747 -8.8056,14.4156 -2.7516,8.1461 -0.2751,8.441 -19.0575,-2.2696 -18.3385,-10.4575 -15.7063,-9.9472 -28.0054,-5.4294 l -9.7205,3.5707 -5.4409,-3.0707 c -6.6343,-3.7441 -6.3815,-3.7404 -8.2535,-0.1203 -2.1729,4.202 -2.0291,4.5647 2.9743,7.4968 2.475,1.4505 4.5,2.8841 4.5,3.1858 0,1.2867 -8.3411,19.3579 -8.8928,19.2666 -0.334,-0.055 -2.3805,-0.516 -4.5479,-1.0239 z m 184.5533,-117.5277 c -1.5845,-3.4777 -1.0335,-3.8603 8.2938,-5.7589 10.0096,-2.0376 10.0811,-1.8715 1.6176,3.7563 -8.1813,5.4402 -8.3313,5.4705 -9.9114,2.0026 z m -140.0601,-40.6622 c -4.699,-6.2236 -4.7104,-6.3321 -1.981,-18.75633 1.6494,-7.5079 1.9495,-11.3652 1.4729,-18.9294 -0.533,-8.4585 -0.3231,-10.3094 1.914,-16.8824 l 2.5125,-7.3825 -3.8544,-13.3276 c -2.1199,-7.3302 -3.6359,-14.4706 -3.3689,-15.8676 l 0.4855,-2.5399 h 12.7681 12.7681 l -4.8847,15.5686 c -6.5826,20.9804 -6.5468,23.2213 0.5634,35.2537 11.9607,20.2409 13.5799,33.16413 3.79,30.24863 -3.8245,-1.139 -7.3971,-2.0709 -7.9392,-2.0709 -0.542,0 -2.7262,4.3073 -4.8538,9.5718 -4.7656,11.7919 -4.4715,11.6318 -9.3925,5.1139 z"
         id="path3" /><path
         style="display:inline;fill:#daaa44;fill-opacity:1"
         d="m 1264.4828,-519.05208 c -1.65,-0.6069 -3.0926,-1.1391 -3.2057,-1.1826 -0.1132,-0.044 0.4225,-1.9025 1.1902,-4.1311 1.2051,-3.4976 1.1922,-5.0368 -0.094,-11.2524 l -1.4903,-7.2006 5.05,-6.9432 c 6.3866,-8.7808 7.0155,-7.2449 -6.9499,-16.9738 -14.2433,-9.9225 -13.73,-7.7841 -3.3906,-14.1247 4.7352,-2.9039 9.3373,-6.4263 10.2269,-7.82752 3.6634,-5.7705 11.7874,-6.0108 15.2239,-0.4503 2.1911,3.54512 2.2978,3.58852 7.3316,2.97752 l 5.1082,-0.62 3.6682,5.7725 c 5.4142,8.5199 6.1256,15.7376 2.0649,20.9492 -2.2127,2.8397 -4.07,7.8106 -7.2196,19.3233 -4.8727,17.8109 -4.2453,16.8869 -13.8207,20.3541 -7.9301,2.8714 -9.1731,2.9921 -13.6928,1.3296 z m 55.8483,-46.8302 -4.1517,-0.9323 -1.5229,-8.2106 -1.523,-8.2106 4.7206,-6.50002 4.7207,-6.5 9.7936,-0.7013 c 9.7804,-0.7004 9.8013,-0.7076 15.3987,-5.3157 4.1904,-3.4498 6.1238,-4.4465 7.6604,-3.949 1.1304,0.3659 4.1332,1.1472 6.6729,1.736 4.4983,1.043 4.6481,1.2019 5.8027,6.1503 l 1.1851,5.0797 -3.2649,2.75 c -1.7957,1.5125 -3.6251,2.75002 -4.0653,2.75002 -0.4403,0 -1.9151,2.5205 -3.2775,5.6011 l -2.4771,5.601 -4.7603,-2.7695 c -2.6182,-1.5233 -5.5434,-3.2493 -6.5005,-3.8356 -3.622,-2.2185 -10.0203,2.7947 -14.1065,11.0528 -2.0003,4.0426 -4.2031,7.302 -4.8951,7.2431 -0.692,-0.059 -3.1265,-0.5266 -5.4099,-1.0394 z m 64.4841,-23.05822 c -6.3332,-8.4353 -7.0363,-14.8055 -2.1927,-19.8669 l 3.4178,-3.5716 -8.2787,-4.0974 c -9.7699,-4.8354 -18.1841,-4.6117 -24.2941,0.6459 -4.0704,3.5026 -21.4051,8.7064 -34.3452,10.3104 l -10.3605,1.2843 -1.4977,4.5 c -1.9164,5.758 -1.4617,5.5708 -6.0901,2.5078 -3.8865,-2.5719 -4.1955,-2.6136 -11.6641,-1.5749 -11.6364,1.6185 -11.5933,1.6481 -9.9021,-6.8079 0.5722,-2.8611 0.9554,-3.125 4.5381,-3.125 3.6122,0 5.3521,-1.2357 22.625,-16.0697 l 18.7119,-16.0696 6.1871,0.5261 c 8.8556,0.7531 23.1236,-1.029 35.5465,-4.4398 13.2628,-3.6415 12.4799,-3.6616 19.3873,0.4993 l 5.7211,3.4464 2.579,-1.9346 c 8.1808,-6.1366 8.4869,-6.5592 7.1281,-9.8397 -1.3793,-3.3298 -0.8085,-4.3553 10.7389,-19.2912 l 4.3858,-5.6728 7.6631,-0.6686 c 6.7944,-0.5927 7.9465,-0.9962 10.1631,-3.5591 1.5351,-1.7749 6.0872,-4.3836 11.794,-6.7587 l 9.2941,-3.8681 7.3238,-9.9 c 4.8649,-6.5761 9.3086,-11.3314 13.2357,-14.1637 l 5.912,-4.2638 7.4702,-19.2362 7.4702,-19.2362 -0.2762,-10.5 c -0.1519,-5.775 -0.7228,-14.325 -1.2686,-19 l -0.9923,-8.5 3.9895,-3.6101 c 4.2516,-3.8472 8.2287,-4.8899 18.652,-4.8899 6.0427,0 7.3956,-1.3492 7.3956,-7.3752 0,-6.59 1.6995,-4.5673 3.4942,4.1585 2.0658,10.0441 2.5671,11.2278 7.1634,16.916 8.2202,10.173 10.1401,37.1836 3.0382,42.7417 -2.5191,1.9714 -3.457,3.9132 -5.1387,10.6382 -2.0805,8.3202 -2.557,8.9456 -8.0571,10.5766 -2.4996,0.7412 -3.3587,1.8865 -5.1503,6.8669 -2.1377,5.9419 -2.1606,7.5907 -0.2298,16.5257 1.5292,7.0766 -0.4712,16.9998 -5.1748,25.6712 -5.0882,9.3805 -5.6508,19.306 -1.4451,25.4952 3.3173,4.8819 3.2262,5.2753 -1.9203,8.2913 -3.6998,2.1683 -4.5277,3.2267 -5.0797,6.4939 -0.5598,3.3135 -1.3653,4.3135 -5.3298,6.6172 -2.5686,1.4925 -5.6595,3.3508 -6.8687,4.1295 -2.1318,1.3729 -2.2488,1.2391 -3.8607,-4.4155 -3.0318,-10.6357 -11.0255,-7.895 -15.8598,5.4376 l -2.919,8.0504 -4.4535,-5.4096 c -5.4792,-6.6555 -4.8009,-6.7628 -10.2085,1.6157 -2.475,3.8348 -4.8612,6.9729 -5.3026,6.9735 -0.4414,7e-4 -3.8164,-0.6414 -7.5,-1.4267 -21.5507,-4.5948 -22.6637,-4.6957 -27.6167,-2.5048 l -4.5812,2.0265 3.8457,5.192 3.8457,5.1921 -6.0671,2.011 c -6.0516,2.006 -6.079,2.0328 -10.7385,10.5111 l -4.6713,8.50002 -5.4538,0.2953 c -5.1472,0.2788 -5.5927,0.1102 -7.9278,-3.00002 z m 115.4176,-239.9141 c -1.7875,-0.5161 -3.2302,-1.038 -3.2059,-1.1598 0.024,-0.1218 0.63,-2.4455 1.3461,-5.1638 1.2621,-4.7916 1.1982,-5.1669 -2.0979,-12.3006 -5.3697,-11.6221 -4.7013,-13.6482 8.188,-24.8209 l 10.3089,-8.9361 6.8162,-0.5 6.8162,-0.5 1.2033,-4 c 5.8533,-19.4564 7.2969,-25.106 8.3046,-32.5 0.6371,-4.67502 1.3546,-9.74872 1.5944,-11.27492 0.2399,-1.5262 -0.6222,-6.1076 -1.9157,-10.1808 l -2.3518,-7.4058 3.951,-5.5694 3.951,-5.5694 8.7754,11.2524 c 4.8264,6.1888 11.8783,13.9999 15.6708,17.3581 22.6706,20.07412 19.4421,17.95972 32.1578,21.06102 15.0976,3.6823 31.2807,22.2066 24.1535,27.6478 -2.5353,1.9356 -18.6786,7.6916 -22.9159,8.1708 -8.859,1.0019 -9.3572,1.2858 -16.0806,9.163 -4.5227,5.2988 -7.0478,9.342 -8.5461,13.6841 -2.5431,7.3701 -0.9547,7.6064 -19.6399,-2.922 -9.7257,-5.48 -15.9194,-8.3934 -17.2129,-8.0966 -1.1113,0.2551 -5.9308,1.9003 -10.7101,3.656 l -8.6896,3.1923 -6.1161,-3.5845 -6.1161,-3.5846 -1.9962,4.5128 c -2.3147,5.2327 -2.1636,5.6473 3.145,8.6309 4.5419,2.5527 4.5569,2.2273 -0.6236,13.6088 -1.815,3.9875 -3.6631,7.2094 -4.1069,7.1598 -0.4438,-0.05 -2.2694,-0.5125 -4.0569,-1.0286 z"
         id="path4" /></g></g></svg>
