<?xml version="1.0" encoding="UTF-8" standalone="no"?>
<!-- Created with Inkscape (http://www.inkscape.org/) -->

<svg
   version="1.1"
   id="svg1"
   width="324.91016"
   height="567.01654"
   viewBox="0 0 324.91016 567.01654"
   xml:space="preserve"
   xmlns="http://www.w3.org/2000/svg"
   xmlns:svg="http://www.w3.org/2000/svg"><defs
     id="defs1" /><g
     id="g1"
     style="display:inline"
     transform="translate(-8316.1914,1159.73)"><g
       id="g11"><path
         style="display:inline;fill:#000000"
         d="m 8423.7668,-594.69769 c -1.396,-1.5425 -1.5134,-2.3303 -0.6011,-4.0349 1.0553,-1.9718 0.9053,-2.1041 -2.1703,-1.9151 -6.3387,0.3895 -9.3636,-1.5938 -6.3039,-4.1332 0.825,-0.6846 1.5,-2.245 1.5,-3.4674 0,-1.2224 0.9358,-3.0695 2.0796,-4.1046 1.513,-1.3693 1.9288,-2.6359 1.5262,-4.6491 -0.6555,-3.2774 1.9532,-5.4286 7.2096,-5.9453 3.536,-0.3476 3.3815,-0.518 7.7871,8.589 1.2103,2.5019 4.3421,5.7519 8.6475,8.9741 8.6746,6.4919 8.4485,7.4694 -1.567,6.7733 -1.5493,-0.1076 -2.5644,0.2129 -2.2557,0.7124 0.6394,1.0346 -1.6666,2.1176 -4.5091,2.1176 -1.2515,0 -1.9182,-0.695 -1.9182,-2 0,-1.6558 -0.6453,-1.989 -3.75,-1.936 l -3.75,0.064 3.25,1.6174 c 1.8823,0.9368 3.25,2.3828 3.25,3.4361 0,2.5657 -6.078,2.4948 -8.4247,-0.098 z m 206.9424,-8.6488 c -1.4958,-1.9612 -2.4765,-3.8089 -2.1793,-4.1061 0.8359,-0.8359 5.6616,4.3859 5.6616,6.1263 0,2.2232 -0.4407,1.9675 -3.4823,-2.0202 z m -230.5177,-7.3526 c 0,-0.505 -0.2731,-1.63 -0.607,-2.5 -0.8036,-2.0943 3.3352,-2.1014 6.1021,-0.01 1.7115,1.2934 1.7826,1.6421 0.5,2.4529 -1.9214,1.2147 -5.9951,1.2539 -5.9951,0.058 z m 10.75,-0.7022 c -3.3612,-1.7642 -3.3648,-1.8602 -0.2089,-5.6108 3.1707,-3.7682 2.5143,-4.6564 -1.3879,-1.8778 -5.8943,4.1971 -14.5933,-1.2054 -11.5176,-7.1531 1.1033,-2.1336 1.2296,-3.2726 0.4495,-4.0528 -0.5968,-0.5968 -1.0851,-2.2905 -1.0851,-3.7637 0,-2.0361 -0.7228,-2.9781 -3.0127,-3.9266 -4.0343,-1.6711 -4.7963,-5.0499 -2.0186,-8.9508 1.38,-1.938 2.0135,-4.0374 1.7478,-5.7919 l -0.4168,-2.7521 -0.1499,2.75 c -0.1596,2.9302 -0.768,3.277 -3.129,1.7841 -1.6997,-1.0749 -1.5186,-7.7033 0.2699,-9.8744 0.9075,-1.1016 1.336,-1.0231 2.4067,0.4412 1.1902,1.6276 1.3026,1.5518 1.3026,-0.8783 0,-1.8897 -0.4121,-2.5017 -1.4233,-2.1136 -0.8075,0.3099 -1.8891,-0.3242 -2.5,-1.4657 -1.4259,-2.6642 -1.3614,-3.1433 0.4233,-3.1433 0.825,0 1.5,-0.8139 1.5,-1.8088 0,-0.9949 0.6607,-2.6824 1.4682,-3.75 2.5055,-3.3126 1.8335,-5.0342 -2.4682,-6.323 -4.3117,-1.2918 -4.8457,-2.1714 -2.5,-4.1182 0.825,-0.6846 1.5,-2.0897 1.5,-3.1224 0,-1.1877 0.7086,-1.8776 1.9286,-1.8776 1.0607,0 2.7161,-0.7875 3.6786,-1.75 0.9625,-0.9625 2.1259,-1.75 2.5854,-1.75 1.5874,0 3.9741,-5.7789 2.7094,-6.5605 -0.6875,-0.4249 -0.8206,-1.2622 -0.3274,-2.0601 0.4569,-0.7393 0.9314,-2.0271 1.0545,-2.8618 1.4784,-10.0266 2.5447,-15.4737 3.3083,-16.9005 1.4067,-2.6286 -0.2729,-4.5007 -3.346,-3.7293 -4.7842,1.2007 -5.7481,-6.9818 -1.9057,-16.1779 0.8539,-2.0438 1.1826,-4.5763 0.7919,-6.1019 -1.1872,-4.6352 -1.6441,-14.108 -0.6804,-14.108 0.5121,0 1.692,-2.1375 2.622,-4.75 0.93,-2.6125 2.5661,-6.6745 3.6359,-9.0267 1.0697,-2.3522 1.9477,-5.0522 1.9511,-6 0,-0.9478 0.6703,-2.9967 1.4822,-4.5532 1.748,-3.3516 1.8304,-4.2159 1.6231,-17.0387 -0.089,-5.5245 0.2919,-10.4125 0.866,-11.1042 0.5639,-0.6795 0.9694,-3.4386 0.9009,-6.1313 -0.068,-2.6927 0.8269,-8.3272 1.9895,-12.521 1.1627,-4.1938 2.5425,-13.4188 3.0663,-20.5 0.5238,-7.0812 1.3601,-14.7471 1.8585,-17.0353 1.4259,-6.5478 -0.3413,-25.3276 -2.5313,-26.8997 -0.9688,-0.6954 -3.4587,-2.8359 -5.5331,-4.7568 -2.0744,-1.9209 -7.4815,-5.3562 -12.0156,-7.634 -10.3853,-5.2172 -16.7127,-10.9932 -16.7127,-15.2562 0,-2.557 -2.945,-8.98193 -4.9472,-10.79293 -0.8098,-0.7325 -2.9218,-4.1992 -3.96,-6.5 -8.3457,-18.4965 -13.577,-27.2631 -17.7314,-29.7143 -2.7491,-1.6219 -3.3614,-2.592 -3.3614,-5.3254 0,-1.8382 -0.45,-3.6203 -1,-3.9603 -2.1681,-1.3399 -0.7736,-4.4106 4,-8.8078 4.9136,-4.5262 6.5264,-7.4919 3.4276,-6.3027 -5.3915,2.0689 -7.0787,-5.17828 -2.994,-12.86058 1.3385,-2.5173 2.576,-5.5222 2.75,-6.6775 0.2096,-1.3911 1.4986,-2.4807 3.8164,-3.226 2.6848,-0.8632 3.7597,-1.9289 4.6152,-4.5756 0.6133,-1.8976 2.0838,-3.8824 3.2678,-4.4107 2.5988,-1.1597 6.5137,-7.1883 5.6136,-8.6446 -0.3542,-0.5731 -0.7007,-4.5188 -0.7699,-8.7682 -0.1155,-7.0918 -0.3969,-8.0871 -3.4263,-12.1201 -3.5821,-4.7688 -3.8692,-5.6366 -2.2054,-6.6649 1.2053,-0.7449 -3.6986,-4.4236 -5.9117,-4.4347 -2.8304,-0.014 -8.2873,5.1632 -7.0338,6.6735 0.9247,1.1143 0.807,1.7866 -0.5465,3.1201 -1.6238,1.5999 -1.8016,1.597 -3.0243,-0.05 -0.7146,-0.9625 -1.6641,-1.75 -2.1102,-1.75 -0.446,0 -1.6128,-0.7256 -2.5929,-1.6125 -0.98,-0.887 -3.1785,-1.7225 -4.8855,-1.8568 -1.7069,-0.1342 -3.618,-0.7586 -4.2468,-1.3874 -0.6288,-0.6288 -1.7283,-1.1433 -2.4433,-1.1433 -0.715,0 -1.3,-0.6494 -1.3,-1.4433 0,-2.0188 -3.9363,-4.5567 -7.0675,-4.5567 -3.4125,0 -6.3279,-3.1787 -5.4506,-5.943 0.4964,-1.5638 -0.3577,-3.245 -3.4098,-6.7124 l -4.0721,-4.6261 v -10.7342 -10.7343 l 3.25,-0.7875 c 5.5324,-1.3406 12.9847,-0.7945 14.0036,1.0262 0.4993,0.8922 2.0449,2.0545 3.4347,2.5829 2.2646,0.861 2.4608,1.3481 1.8913,4.6946 -0.3495,2.0536 -1.0346,6.9775 -1.5225,10.9419 -0.488,3.9644 -1.1674,7.6615 -1.51,8.2157 -0.9251,1.4969 2.8048,7.994 7.3634,12.8262 4.9226,5.2182 9.6028,5.7481 15.4889,1.7538 4.7355,-3.2136 9.7008,-2.3014 16.1244,2.9622 2.5297,2.0729 4.4762,3.0928 4.4762,2.3454 0,-0.7274 1.575,-2.6358 3.5,-4.2408 2.0473,-1.7071 3.5,-3.8278 3.5,-5.1096 0,-3.188 3.7303,-7.461 6.5136,-7.461 1.3026,0 2.6465,-0.45 2.9864,-1 0.3399,-0.55 1.907,-1 3.4824,-1 1.7382,0 4.6826,-1.3878 7.4885,-3.5296 2.5433,-1.9413 5.0528,-3.2648 5.5766,-2.941 1.6665,1.0299 1.0264,3.3124 -1.1198,3.9936 -1.4565,0.4623 -1.864,1.1509 -1.3714,2.3174 1.4753,3.4934 1.5095,5.7286 0.1165,7.6135 -1.8201,2.4626 -0.2486,6.5461 2.5191,6.5461 2.6925,0 3.2021,-2.3374 1.3081,-6 -2.1026,-4.0659 -1.4931,-5.5171 2.93,-6.9769 2.3946,-0.7902 3.57,-1.7917 3.57,-3.0416 0,-2.6784 1.7409,-3.3733 2.4954,-0.996 0.3868,1.2188 1.5123,2.0145 2.8495,2.0145 2.782,0 6.6551,2.6519 6.6551,4.5567 0,1.6555 0.5948,1.7697 7.7034,1.478 3.4316,-0.1407 5.976,0.3278 7.4725,1.376 3.036,2.1265 6.0981,2.0025 10.0499,-0.4069 3.9149,-2.3869 8.3292,-2.6059 9.1549,-0.4541 0.3271,0.8524 3.1054,2.6992 6.1741,4.104 3.8301,1.7536 5.4016,2.992 5.0123,3.9504 -0.3119,0.7678 -0.8402,2.0709 -1.1741,2.8959 -0.4745,1.1727 0.2017,1.5 3.0989,1.5 5.0529,0 10.4144,2.7328 12.6164,6.4305 1.0053,1.6883 3.4172,4.3262 5.3598,5.8622 1.9425,1.5359 3.5319,3.5035 3.5319,4.3724 0,1.0904 0.3873,1.2933 1.25,0.6551 1.2521,-0.9262 15.9287,-1.0067 18.75,-0.1028 7.2415,2.3201 10.0435,3.9731 12.7505,7.5222 1.3678,1.7932 3.0016,3.2604 3.6307,3.2604 0.6291,0 1.9761,2.9063 2.9934,6.4585 1.2594,4.3976 2.6116,6.9577 4.2375,8.023 3.2535,2.1318 3.1533,2.4091 -3.1063,8.5918 -5.9018,5.8293 -6.484,6.9081 -3.7558,6.96 1.4692,0.028 1.372,0.3482 -0.6061,1.9962 l -2.3561,1.963 2.9068,-0.5814 c 2.4568,-0.4913 3.096,-0.166 4.1294,2.1019 0.8228,1.80578 1.7321,2.48758 2.781,2.08508 0.8572,-0.3289 2.3093,-0.6573 3.2268,-0.7297 0.9175,-0.072 0.093,-0.40988 -1.8318,-0.74998 -3.7615,-0.6646 -5.8748,-7.3416 -2.9046,-9.1773 1.0648,-0.6581 11.824,-0.1474 12.7284,0.6041 0.6769,0.5625 -2.8975,6.3967 -4.4522,7.2668 -1.2468,0.6977 -1.333,1.0938 -0.3679,1.6903 0.8095,0.50028 2.3759,-0.4827 4.3784,-2.7475 3.9137,-4.4266 5.9757,-5.1248 9.9591,-3.3722 1.7374,0.7644 5.7463,2.3933 8.9088,3.6197 3.1625,1.2265 5.75,2.82058 5.75,3.54248 0,2.8055 3.0128,4.4768 6.9385,3.8491 2.244,-0.3588 4.7251,-0.1091 6.0709,0.6111 1.2517,0.6699 5.2491,1.2002 8.8832,1.1783 6.5756,-0.04 15.5662,3.5627 17.8447,7.1497 2.364,3.7216 7.5844,6.667 11.8164,6.667 11.8912,0 12.6256,19.5087 1.1798,31.3434 -3.2748,3.3862 -7.5011,8.7441 -9.3917,11.9066 -2.1899,3.663 -4.1038,5.75 -5.2731,5.75 -2.55,0 -3.0293,2.49343 -3.4109,17.74103 -0.2656,10.6087 -0.6616,13.6058 -1.9923,15.0762 -0.9136,1.0095 -2.0587,3.826 -2.5447,6.2591 -1.1022,5.5168 -3.5368,11.1942 -5.4987,12.8224 -0.8215,0.6818 -1.8076,2.6695 -2.1914,4.4172 -1.4518,6.6096 -7.4422,10.6926 -15.5078,10.5698 -6.2377,-0.095 -7.3998,0.188 -9.7522,2.3745 -1.4689,1.3652 -3.8728,2.7649 -5.342,3.1103 -9.6986,2.2805 -16.8765,12.0804 -17.1274,23.384 -0.1913,8.6169 -0.3392,9.1747 -2.9844,11.2545 -1.5308,1.2036 -3.9008,4.394 -5.2669,7.0897 -2.1374,4.2181 -2.8995,4.9013 -5.4668,4.9013 -1.9379,0 -2.9832,0.5076 -2.9832,1.4485 0,0.7967 -1.125,2.6624 -2.5,4.146 -1.375,1.4837 -2.5074,3.8694 -2.5164,5.3016 -0.016,2.5808 -1.4378,5.2732 -7.7519,14.6826 -4.9678,7.4033 -13.9994,9.8771 -21.596,5.9152 -1.5754,-0.8216 -3.5649,-1.4939 -4.4212,-1.4939 -0.8564,0 -2.3799,-0.7447 -3.3857,-1.6549 -1.7017,-1.54 -1.8288,-1.54 -1.8288,0 0,1.7342 2.3714,4.3999 5.5531,6.2421 1.3785,0.7981 1.813,2.0475 1.6343,4.6998 -0.1859,2.76 0.2354,3.8689 1.7847,4.6981 2.6737,1.4309 2.5581,3.3408 -0.4721,7.8001 -1.375,2.0235 -2.5,4.1979 -2.5,4.832 0,2.991 -12.0263,7.4656 -22.355,8.3175 l -6.8549,0.5653 -0.4297,5.7761 c -0.7871,10.5799 -3.5096,13.2363 -11.3,11.0255 -1.9582,-0.5557 -4.2354,-1.1884 -5.0604,-1.4059 -1.1844,-0.3124 -1.4867,0.6043 -1.437,4.3574 0.068,5.1186 2.0467,7.6545 6.0204,7.7151 2.6083,0.04 3.4315,0.8296 2.7407,2.6296 -0.6442,1.6788 -3.4844,1.8419 -5.037,0.2894 -0.612,-0.6121 -1.629,-0.7939 -2.2598,-0.404 -0.7939,0.4907 -0.5919,1.1147 0.6563,2.0274 1.6973,1.2411 1.642,1.4455 -0.9401,3.4766 -2.1466,1.6885 -2.7435,2.9996 -2.7435,6.0264 0,2.1276 -0.45,4.1465 -1,4.4864 -0.55,0.34 -1,1.4915 -1,2.5591 0,1.4191 -0.6928,1.9409 -2.5769,1.9409 -8.689,0 -11.9028,13.3861 -4.1229,17.1727 0.9349,0.455 2.4873,1.2102 3.4498,1.6782 4.0848,1.986 2.7587,6.6613 -3.6905,13.0112 -4.9856,4.9088 -6.0633,6.5573 -6.0808,9.302 -0.018,2.7388 -0.7329,3.8394 -3.9966,6.1484 -5.6303,3.9832 -6.5057,10.9068 -2.3862,18.8729 1.4993,2.8995 1.4795,2.969 -0.7786,2.7265 -2.0612,-0.2214 -5.9886,1.5185 -10.4937,4.649 -0.8396,0.5834 -1.7636,3.1637 -2.0533,5.7339 -0.6568,5.8264 -1.9094,6.9802 -5.5203,5.0848 z m -5.75,-88.8205 c 0,-0.2426 -0.5195,-0.7621 -1.1545,-1.1545 -0.7153,-0.4421 -0.8831,-0.2744 -0.441,0.4409 0.7125,1.1528 1.5955,1.5477 1.5955,0.7136 z m 88.6831,-88.7466 c -0.3192,-0.7977 -0.5562,-0.5607 -0.6041,0.6042 -0.043,1.0542 0.1929,1.6448 0.5252,1.3125 0.3323,-0.3323 0.3678,-1.1948 0.079,-1.9167 z m -5.9628,159.5745 c -1.4085,-1.4085 3.5362,-6.2232 6.1094,-5.9488 3.4505,0.3679 3.9257,2.3241 0.8487,3.494 -1.3662,0.5195 -2.7794,1.4222 -3.1403,2.0062 -0.7198,1.1647 -2.8512,1.4152 -3.8178,0.4486 z m -4.1067,-2.9517 c -0.768,-2.0012 0.044,-3.4353 1.9454,-3.4353 1.8332,0 1.8687,2.4002 0.058,3.9031 -1.071,0.8889 -1.5232,0.7833 -2.0032,-0.4678 z m -89.0452,-62.641 c -2.1588,-3.0822 -2.0068,-5.7943 0.3246,-5.7943 1.9694,0 3.107,1.839 3.107,5.0228 0,2.8705 -1.6945,3.2514 -3.4316,0.7715 z m -0.2114,-17.2821 c 0.314,-0.8183 0.8701,-3.7433 1.2358,-6.5 0.3657,-2.7567 0.9444,-5.0053 1.286,-4.9968 2.7515,0.068 3.2908,3.0543 2.2096,12.2346 -0.049,0.4125 -1.2615,0.75 -2.6954,0.75 -1.897,0 -2.4515,-0.4052 -2.036,-1.4878 z m 79.8722,-363.69971 c 0.6181,-1.8542 2.7708,-2.1617 2.7708,-0.3958 0,0.8708 -0.7125,1.5833 -1.5833,1.5833 -0.8708,0 -1.4052,-0.5343 -1.1875,-1.1875 z m -42.2292,-12.3125 c 0,-0.275 0.225,-0.5 0.5,-0.5 0.275,0 0.5,0.225 0.5,0.5 0,0.275 -0.225,0.5 -0.5,0.5 -0.275,0 -0.5,-0.225 -0.5,-0.5 z m 45,-15.5 c 0,-0.7333 0.3,-1.0333 0.6667,-0.6666 0.3667,0.3666 0.3667,0.9666 0,1.3333 -0.3667,0.3667 -0.6667,0.067 -0.6667,-0.6667 z m -66.2874,-21.7159 c -1.3302,-1.3302 -3.4299,-1.7557 -8.7255,-1.7679 -4.1368,-0.01 -6.8747,-0.423 -6.7304,-1.0162 0.1338,-0.55 2.337,-0.8595 4.8959,-0.6879 4.9738,0.3337 6.8101,-0.9472 4.8111,-3.3559 -0.6647,-0.8009 -0.8587,-1.4562 -0.4311,-1.4562 0.4275,0 0,-0.8644 -0.9611,-1.921 -2.2023,-2.4335 12.2922,-2.9382 16.5204,-0.5753 1.3245,0.7402 4.3206,2.2544 6.6581,3.3649 6.6003,3.1355 5.551,4.6 -3.4508,4.8162 -6.4978,0.156 -7.9361,0.5081 -9.2634,2.2679 -1.4972,1.9848 -1.6541,2.0004 -3.3232,0.3314 z m -38.7126,-1.2841 c -1.2805,-2.3927 1.8929,-2.8008 6.6849,-0.8596 l 2.8151,1.1403 -2.5,0.76 c -4.231,1.2862 -5.8864,1.0401 -7,-1.0407 z m 67,-0.4425 c 0,-1.1834 1.1007,-1.5575 4.5834,-1.5575 5.902,0 5.5553,2.3678 -0.4111,2.8075 -3.2421,0.239 -4.1723,-0.04 -4.1723,-1.25 z m -63.0363,-13.0137 c 1.5829,-1.9072 0.4942,-3.5438 -2.3574,-3.5438 -1.2679,0 -3.4595,-1.3285 -4.9487,-3 -1.4702,-1.65 -3.5543,-3 -4.6314,-3 -1.0771,0 -3.4361,-0.6499 -5.2423,-1.4443 -1.8061,-0.7944 -4.9279,-1.7067 -6.9373,-2.0272 -2.0094,-0.3206 -3.9078,-1.2456 -4.2186,-2.0557 -0.7122,-1.8557 -5.0043,-1.9055 -7.9132,-0.092 -3.9733,2.4775 -7.9285,2.9674 -7.5368,0.9335 0.5166,-2.6827 8.3144,-5.1979 16.3077,-5.2602 6.9397,-0.054 8.8032,0.5301 20.8454,6.5341 1.557,0.7764 3.2684,1.4115 3.803,1.4115 0.5346,0 2.6276,1.125 4.6511,2.5 2.0235,1.375 4.4887,2.5 5.4783,2.5 0.9896,0 2.0583,0.675 2.3749,1.5 0.3166,0.825 1.3273,1.5 2.2461,1.5 2.2828,0 6.2829,2.9201 5.5732,4.0685 -0.3166,0.5123 -4.6543,0.9315 -9.6391,0.9315 -7.8219,0 -8.8979,-0.1994 -7.8549,-1.4562 z m -35.4637,-9.5438 c -0.3399,-0.55 0.1101,-1 1,-1 0.8899,0 1.3399,0.45 1,1 -0.3399,0.55 -0.7899,1 -1,1 -0.2101,0 -0.6601,-0.45 -1,-1 z"
         id="path10" /><path
         style="display:inline;fill:#daaa44;fill-opacity:1"
         d="m 8423.4751,-598.43427 c -3.5635,-1.7567 -4.1109,-3.0848 -1.6591,-4.0256 2.1519,-0.8258 8.4091,2.2675 8.4091,4.1571 0,1.948 -2.6356,1.8967 -6.75,-0.1315 z m 8.75,-3.8524 c 0,-1.4509 -2.0033,-1.918 -6.6545,-1.5516 -1.1849,0.093 -2.4225,-0.264 -2.7502,-0.7941 -0.3276,-0.5302 -2.2831,-0.7633 -4.3455,-0.518 -4.531,0.5387 -7.3766,-0.9094 -5.4914,-2.7946 0.6829,-0.6829 1.2416,-2.4232 1.2416,-3.8673 0,-1.5022 1.0612,-3.6227 2.48,-4.9556 1.7399,-1.6345 2.3129,-2.9958 1.9199,-4.5615 -0.6833,-2.7228 2.7069,-5.4573 6.7659,-5.4573 2.8953,0 5.8342,3.1171 5.8342,6.1878 0,2.3205 5.0148,7.9187 11.0855,12.375 6.2583,4.594 5.5443,5.8125 -2.9584,5.0481 -4.6658,-0.4196 -5.9612,-0.3117 -4.3771,0.3644 2.9475,1.258 2.8528,2.0247 -0.25,2.0247 -1.5555,0 -2.5,-0.5666 -2.5,-1.5 z m -33.8999,-13.7251 c -1.1096,-2.9566 1.0466,-3.564 4.5358,-1.2777 2.8921,1.8949 2.8648,1.9813 -0.9089,2.887 -2.2897,0.5495 -2.9219,0.269 -3.6269,-1.6093 z m 9.9804,-0.1862 -2.4196,-1.3405 2.7237,-2.7237 c 4.12,-4.12 3.0321,-6.2132 -1.5347,-2.953 -4.038,2.8827 -5.4899,2.6011 -9.6783,-1.8776 -2.2082,-2.3611 -2.2483,-2.6448 -0.7764,-5.4912 1.3652,-2.6399 1.3746,-3.1488 0.079,-4.2245 -0.8105,-0.6727 -1.4737,-2.2814 -1.4737,-3.5749 0,-1.5798 -0.9451,-2.8406 -2.8788,-3.8406 -4.1216,-2.1314 -4.4623,-4.09 -1.4921,-8.5783 2.6921,-4.0681 2.8768,-9.0234 0.7916,-21.2416 -0.4522,-2.6501 -0.1667,-4.4815 0.9691,-6.2148 1.7827,-2.7208 2.075,-4.528 0.7323,-4.528 -3.9702,0 -8.2888,-3.1949 -6.2495,-4.6233 1.1701,-0.8195 2.1274,-2.3645 2.1274,-3.4334 0,-1.4061 0.691,-1.9433 2.5,-1.9433 1.5556,0 2.5,-0.5666 2.5,-1.5 0,-0.8333 0.8889,-1.5 2,-1.5 1.115,0 2,-0.6666 2,-1.5066 0,-0.8286 1.125,-2.4848 2.5,-3.6803 2.8928,-2.5152 3.1025,-3.652 0.9627,-5.2167 -1.66,-1.2138 -0.4514,-13.4463 1.8093,-18.3123 1.3873,-2.986 -0.6382,-5.4812 -3.8042,-4.6866 -4.5314,1.1373 -5.3299,-8.0415 -1.2657,-14.5494 0.9074,-1.453 0.897,-4.0086 -0.045,-11.0835 -1.0349,-7.7728 -1.006,-9.3705 0.1872,-10.3298 0.7763,-0.6241 2.1916,-3.3848 3.1453,-6.1348 0.9536,-2.75 2.3302,-6.35 3.059,-8 2.0237,-4.5817 4.4495,-13.1015 4.4666,-15.6879 0.01,-1.2716 0.3738,-2.8766 0.8119,-3.5666 0.4381,-0.69 0.3952,-4.7025 -0.095,-8.9166 -0.6214,-5.3395 -0.5517,-8.2972 0.2298,-9.7575 0.6169,-1.1526 1.0583,-3.8901 0.9811,-6.0835 -0.077,-2.1933 0.8232,-7.1379 2.0011,-10.9879 2.422,-7.9164 3.1781,-13.4741 3.4012,-25 0.085,-4.4 0.5393,-8.5955 1.0092,-9.3234 1.2732,-1.9722 1.7692,-19.1977 0.7141,-24.7982 -0.5568,-2.9551 -0.5578,-5.0086 0,-5.2088 0.5041,-0.1817 1.6847,-1.9817 2.6236,-4 0.9388,-2.0182 2.5885,-4.8882 3.6659,-6.3777 1.6418,-2.2699 1.7467,-2.9639 0.6479,-4.2879 -1.6719,-2.0145 -1.7008,-8.9586 -0.046,-10.9531 0.7575,-0.9127 1.0022,-2.5741 0.6096,-4.1386 -0.3608,-1.43745 -0.1658,-4.09905 0.4334,-5.91465 0.921,-2.7907 0.7739,-3.8185 -0.9519,-6.6492 -3.0152,-4.9456 -2.7136,-6.1956 1.3126,-5.4403 2.3429,0.4395 3.7272,0.19 4.5681,-0.8233 1.7454,-2.103 8.5121,-5.4492 13.1076,-6.4818 4.358,-0.9792 4.1845,-1.2348 4.151,6.1148 -0.022,4.7802 5.0726,10.7822 9.1517,10.7822 1.4839,0 5.2278,1.3499 8.3198,2.9999 3.092,1.6501 6.5987,3.0001 7.7925,3.0001 4.1499,0 6.3668,3.39165 7.1034,10.86765 l 0.6805,6.906 4.882,0.6476 c 3.814,0.506 4.8819,1.0451 4.8819,2.4649 0,0.9995 1.35,3.2299 3,4.9564 3.5611,3.7263 3.6999,5.6597 0.8778,12.2199 -1.8375,4.2713 -1.9543,5.3386 -0.8709,7.9543 0.6883,1.6615 1.0166,4.7715 0.7296,6.911 -0.5506,4.1056 3.1284,6.2021 8.1097,4.6211 2.8809,-0.9144 5.5425,1.9331 6.6415,7.1052 1.0065,4.737 1.1054,4.8383 4.4022,4.5068 l 3.3726,-0.3391 -0.4635,5.5891 c -0.3443,4.1511 -0.1298,5.5891 0.8336,5.5891 1.7864,0 3.3674,3.2556 3.3674,6.9343 0,2.9613 -2.9045,7.0657 -5,7.0657 -0.55,0 -1.8492,0.8493 -2.8871,1.8872 -1.038,1.0379 -2.5024,2.2754 -3.2543,2.75 -4.0883,2.5804 -13.0752,15.5344 -10.5471,15.2031 1.6283,-0.2134 3.5494,0.5578 5.3628,2.1528 1.5542,1.3669 4.4007,3.3361 6.3257,4.3759 7.5553,4.0809 13.6435,10.6377 12.4522,13.4104 -0.4066,0.9464 -0.6397,2.9682 -0.518,4.4929 0.5801,7.2694 -15.7634,13.2986 -21.23,7.8319 -0.6073,-0.6073 -2.3124,-1.1042 -3.7892,-1.1042 -1.7908,0 -3.2546,-0.8693 -4.3954,-2.6105 -1.6205,-2.4732 -1.6213,-3.3975 -0.01,-9.3895 0.5875,-2.1817 0.4593,-2.1181 -1.0072,0.5 -2.7702,4.9459 -1.5231,11.2677 2.9662,15.0368 2.9811,2.5028 3.5481,3.5403 3.0403,5.5636 -0.4491,1.7892 -0.047,3.0095 1.4324,4.3484 2.5442,2.3025 2.6131,4.9386 0.2193,8.3969 -1.0105,1.4599 -2.1113,3.4156 -2.4462,4.3461 -1.4185,3.9404 -15.1564,8.8082 -24.8586,8.8082 -4.5515,0 -4.7761,0.1301 -4.7507,2.75 0.1276,13.167 -3.7907,17.4983 -12.5274,13.8478 -5.3983,-2.2555 -5.5798,-2.1506 -5.5798,3.2279 0,5.3839 2.8155,9.1743 6.8145,9.1743 1.202,0 2.1855,0.4235 2.1855,0.941 0,1.7237 -1.8214,2.0976 -4.4293,0.9093 -2.9979,-1.366 -4.392,-0.5448 -2.6463,1.5587 0.9716,1.1707 0.803,1.8637 -0.8575,3.5241 -1.1368,1.1368 -2.0669,3.1626 -2.0669,4.5018 0,1.3392 -0.5248,3.7017 -1.1662,5.25 -0.6414,1.5483 -1.2039,3.2646 -1.25,3.8138 -0.046,0.5493 -0.7588,1.0085 -1.5838,1.0205 -10.9944,0.1598 -13.1737,15.561 -2.6818,18.9523 5.5483,1.7935 4.9563,5.9305 -1.7596,12.296 -4.2187,3.9986 -5.8063,6.3308 -6.685,9.8204 -0.8634,3.4289 -1.9927,5.1202 -4.5033,6.7443 -5.5565,3.5947 -6.1618,9.9451 -1.8995,19.9292 0.5459,1.2789 0.3707,1.615 -0.6399,1.2272 -3.1732,-1.2176 -12.8299,5.4258 -12.8445,8.8366 -0.032,7.3382 -1.3816,8.77 -5.9059,6.2635 z m 32.9195,-257.0887 c 0,-0.275 -0.225,-0.5 -0.5,-0.5 -0.275,0 -0.5,0.225 -0.5,0.5 0,0.275 0.225,0.5 0.5,0.5 0.275,0 0.5,-0.225 0.5,-0.5 z m 25,0 c 0,-0.275 -0.225,-0.5 -0.5,-0.5 -0.275,0 -0.5,0.225 -0.5,0.5 0,0.275 0.225,0.5 0.5,0.5 0.275,0 0.5,-0.225 0.5,-0.5 z m -79,214.6225 c 0,-3.6925 1.938,-6.8512 3.342,-5.4471 1.754,1.754 0.6645,9.3246 -1.342,9.3246 -1.6561,0 -2,-0.6666 -2,-3.8775 z m 1.4807,-10.1833 c -0.9007,-2.8378 0.1,-3.5915 1.441,-1.0855 0.6519,1.218 0.7128,2.2542 0.153,2.6002 -0.5119,0.3163 -1.2292,-0.3653 -1.594,-1.5147 z m 3.6789,-31.4882 c -0.6517,-1.4305 -0.9277,-3.0171 -0.6133,-3.5259 1.0388,-1.6807 3.451,-0.9612 3.6037,1.0749 0.083,1.1 0.195,2.525 0.25,3.1667 0.1994,2.326 -2.0843,1.8216 -3.2404,-0.7157 z m 6.8404,-3.451 c 0,-0.55 0.4235,-1 0.941,-1 0.5175,0 1.2191,0.45 1.559,1 0.3399,0.55 -0.084,1 -0.941,1 -0.8574,0 -1.559,-0.45 -1.559,-1 z m -5.625,-14.125 c 0.3438,-1.7187 0.625,-4.4187 0.625,-6 0,-1.7907 0.5254,-2.875 1.393,-2.875 1.9247,0 2.8854,2.9597 1.5018,4.6268 -0.8577,1.0335 -0.8317,1.7444 0.1052,2.8732 1.4655,1.7658 -0.2039,4.5 -2.7474,4.5 -1.1496,0 -1.3557,-0.7342 -0.8776,-3.125 z"
         id="path11" /></g></g></svg>
