<?xml version="1.0" encoding="UTF-8" standalone="no"?>
<!-- Created with Inkscape (http://www.inkscape.org/) -->

<svg
   version="1.1"
   id="svg1"
   width="708.79834"
   height="692.50616"
   viewBox="0 0 708.79834 692.50616"
   xml:space="preserve"
   xmlns="http://www.w3.org/2000/svg"
   xmlns:svg="http://www.w3.org/2000/svg"><defs
     id="defs1" /><g
     id="g1"
     style="display:inline"
     transform="translate(-3144.9468,1286.6821)"><g
       id="g6"><path
         style="fill:#000000"
         d="m 3580.7763,-596.4222 c -4.3575,-3.6632 -4.6835,-8.2687 -0.8642,-12.2092 2.9984,-3.0936 3.0571,-3.2967 1.1011,-3.8082 -2.519,-0.6588 -2.7768,-4.8419 -0.5602,-9.0919 0.8216,-1.5754 1.4938,-3.4391 1.4938,-4.1416 0,-0.7025 1.125,-1.5597 2.5,-1.9048 1.375,-0.3451 2.5,-1.0532 2.5,-1.5736 0,-0.5204 1.35,-2.4837 3,-4.3629 3.7155,-4.2317 4.1128,-11.0473 1,-17.1528 -1.1,-2.1576 -2,-4.4804 -2,-5.1618 0,-0.6814 -0.7614,-1.665 -1.692,-2.1858 -2.1551,-1.206 -6.4255,1.3776 -5.6439,3.4146 0.6325,1.6483 -2.548,3.2122 -3.515,1.7284 -1.1054,-1.6962 -5.2321,-3.4775 -6.7272,-2.9038 -0.782,0.3001 -1.4219,0.1097 -1.4219,-0.423 0,-0.5328 -0.6225,-0.9686 -1.3833,-0.9686 -0.7609,0 -1.6187,-0.9 -1.9064,-2 -0.3393,-1.2973 -1.364,-2 -2.9166,-2 -2.9539,0 -4.7937,-1.7286 -4.7937,-4.5039 0,-1.1571 -1.575,-3.6303 -3.5,-5.4961 -1.925,-1.8658 -3.5,-3.937 -3.5,-4.6026 0,-0.6729 -0.7988,-1.0013 -1.7994,-0.7396 -0.9897,0.2588 -3.8022,-0.2268 -6.25,-1.0791 -2.4478,-0.8523 -5.168,-1.5562 -6.045,-1.5642 -0.8769,-0.01 -4.1656,-2.2645 -7.3082,-5.0145 -6.1977,-5.4236 -7.4351,-5.8077 -11.0595,-3.4329 -1.8574,1.217 -3.1343,1.3486 -5.7148,0.5889 -5.7038,-1.6793 -16.0639,-6.0669 -17.7303,-7.509 -0.876,-0.7581 -2.8186,-1.6695 -4.3168,-2.0253 -6.8615,-1.6293 -13.6533,-8.3702 -12.052,-11.9615 1.7046,-3.8228 -10.3946,-20.6602 -14.846,-20.6602 -0.6112,0 -0.8827,-0.8738 -0.6035,-1.9417 0.3345,-1.2791 -0.3082,-2.5545 -1.8833,-3.7374 -1.3151,-0.9876 -2.3912,-2.3638 -2.3912,-3.0583 0,-0.6944 -0.6704,-1.2626 -1.4897,-1.2626 -1.7101,0 -8.0921,-9.244 -9.0118,-13.0531 -0.3948,-1.6352 -1.7184,-2.9689 -3.6818,-3.71 l -3.0654,-1.1571 0.5625,3.4663 c 0.3094,1.9065 2.1654,5.4223 4.1244,7.8131 1.959,2.3907 3.5618,4.7972 3.5618,5.3477 0,0.5506 1.0646,2.1497 2.3657,3.5536 1.3011,1.404 3.4089,5.0697 4.684,8.146 1.2751,3.0764 2.7485,5.5935 3.2741,5.5935 1.7574,0 3.586,3.4038 2.5192,4.6893 -1.4448,1.7407 -10.843,-7.3104 -10.843,-10.4426 0,-1.5937 -1.0002,-2.8829 -3.1366,-4.0432 -5.9321,-3.2217 -8.6181,-5.9579 -6.6134,-6.7372 2.5299,-0.9835 2.1557,-2.9472 -1.0806,-5.6704 -1.5568,-1.31 -4.5355,-5.9625 -6.6193,-10.3388 -4.686,-9.8416 -6.5666,-11.946 -12.1478,-13.5939 -2.912,-0.8598 -4.4023,-1.8616 -4.4023,-2.9591 0,-0.9126 -0.697,-2.2378 -1.549,-2.9449 -0.852,-0.707 -2.7638,-3.7996 -4.2485,-6.8724 -1.4847,-3.0728 -3.505,-6.4779 -4.4896,-7.5669 -0.9847,-1.0891 -2.0328,-3.1141 -2.3294,-4.5 -0.2965,-1.386 -0.939,-3.4199 -1.4279,-4.5199 -0.8045,-1.81 -1.0746,-5.3091 -1.081,-14 0,-1.65 0.3127,-6.7708 0.6976,-11.3795 1.2158,-14.5582 -2.7509,-27.1205 -8.5635,-27.1205 -0.5548,0 -1.0087,-0.4638 -1.0087,-1.0306 0,-0.5668 -1.5735,-2.4121 -3.4967,-4.1007 -4.0485,-3.5546 -3.7755,-5.0334 0.7855,-4.2556 3.1218,0.5324 3.1447,0.5106 0.8234,-0.7827 -1.3132,-0.7317 -2.379,-1.7804 -2.3684,-2.3304 0.011,-0.55 -0.6023,-1.8877 -1.3622,-2.9725 -0.7598,-1.0849 -1.3816,-3.3923 -1.3816,-5.1276 0,-3.202 -2.1622,-6.0357 -3.8225,-5.0096 -1.3674,0.8451 -4.5057,-3.0925 -3.8424,-4.8211 0.3177,-0.8278 0.1399,-1.7757 -0.395,-2.1063 -0.535,-0.3306 -0.7268,-0.999 -0.4262,-1.4854 0.7038,-1.1386 -2.5633,-4.9775 -4.2361,-4.9775 -0.7028,0 -1.2778,0.675 -1.2778,1.5 0,1.9435 -1.4464,1.9107 -3.4351,-0.078 -2.9388,-2.9389 -3.6884,-5.5027 -3.9033,-13.3504 -0.2147,-7.8409 -1.4648,-11.0716 -4.284,-11.0716 -0.7577,0 -1.3776,0.45 -1.3776,1 0,0.55 0.6592,1 1.4649,1 1.4062,0 3.5351,2.8793 3.5351,4.7812 0,0.502 -0.8443,1.8863 -1.8763,3.0762 l -1.8763,2.1634 -2.3737,-1.9901 c -2.025,-1.6978 -2.1533,-2.1377 -0.8737,-2.9951 1.2837,-0.8601 1.2446,-1.0072 -0.2714,-1.0203 -0.9743,-0.01 -2.2344,-1.0278 -2.8003,-2.2653 -3.0001,-6.5609 -17.1894,-15.5653 -25.9283,-16.4539 -5.1126,-0.5199 -12.7684,-3.8361 -15,-6.4975 -2.3072,-2.7516 -5.8149,-1.3383 -6.1942,2.4958 -0.2469,2.4957 -0.8903,3.2407 -3.3433,3.8715 -1.6707,0.4296 -4.3424,2.1431 -5.9371,3.8076 -4.6895,4.8947 -5.9222,4.1268 -5.1745,-3.2235 0.4752,-4.6714 1.1784,-6.6984 2.7841,-8.025 1.1816,-0.9763 1.8769,-2.0465 1.5452,-2.3782 -0.6383,-0.6383 -1.8002,0.6136 -9.3206,10.0431 -4.3612,5.4684 -4.5697,5.9833 -2.9126,7.1949 2.1325,1.5594 0.1697,4.6747 -5.8564,9.2951 -1.8794,1.441 -4.6009,4.0585 -6.0477,5.8166 -1.4469,1.7581 -3.5109,3.4759 -4.5868,3.8174 -1.0758,0.3415 -1.9561,1.1719 -1.9561,1.8454 0,0.6735 -2.8125,2.4668 -6.25,3.9852 -3.4375,1.5183 -7.4444,3.412 -8.9042,4.208 -3.2708,1.7837 -3.8458,1.8038 -3.8458,0.1346 0,-1.8608 5.4862,-6.8891 7.1294,-6.5343 2.0967,0.4527 13.5434,-11.2178 14.102,-14.3777 0.601,-3.3995 -2.7533,-7.1666 -4.2397,-4.7616 -0.7329,1.1859 -1.3216,1.0251 -3.4018,-0.9291 -2.4148,-2.2686 -2.6181,-2.2959 -5.0809,-0.6822 -3.3255,2.1789 -4.5054,1.3414 -4.5243,-3.2112 -0.022,-5.3904 -1.0413,-6.578 -4.3503,-5.0703 -3.5522,1.6185 -10.2594,-4.0843 -8.5532,-7.2724 0.68,-1.2705 0.6496,-1.8483 -0.097,-1.8483 -3.4684,0 -4.0274,-6.8387 -0.9812,-12.005 1.6484,-2.7957 2.997,-5.5273 2.997,-6.0704 0,-0.543 1.5522,-0.8828 3.4492,-0.755 2.0166,0.1358 4.1972,-0.4251 5.25,-1.3504 0.9905,-0.8705 2.8133,-1.8912 4.0508,-2.2683 1.8809,-0.5732 2.25,-1.3953 2.25,-5.0113 0,-5.1889 -2.1805,-6.6549 -5.4054,-3.6342 -1.6076,1.5058 -2.5183,1.7239 -3.917,0.938 -1.0023,-0.5631 -2.9148,-0.7497 -4.25,-0.4146 -4.3294,1.0866 -7.2149,-0.4223 -10.4508,-5.4651 -1.7083,-2.662 -3.6295,-5.0146 -4.2693,-5.2279 -1.7342,-0.5781 12.4053,-9.7358 15.0319,-9.7358 1.5486,0 2.2606,0.5941 2.2606,1.8865 0,2.6112 5.4463,3.3335 9.1695,1.2161 3.4929,-1.9865 3.6634,-4.1026 0.3305,-4.1026 -1.8605,0 -2.5,-0.5289 -2.5,-2.0674 0,-1.6037 -0.443,-1.9268 -1.9753,-1.4404 -1.3506,0.4286 -2.6161,-0.1037 -4.0008,-1.6827 -1.1139,-1.2702 -4.3104,-4.8655 -7.1033,-7.9894 -6.1825,-6.9153 -6.4608,-10.1325 -0.9206,-10.642 3.6591,-0.3364 9,-4.4532 9,-6.9372 0,-3.0242 5.246,-10.4099 7.0576,-9.9361 1.1124,0.2909 2.9979,-0.7986 5.0545,-2.9204 2.1413,-2.2094 4.2229,-3.3844 5.9952,-3.3844 1.7854,0 3.5741,-1.0211 5.2243,-2.9822 2.7126,-3.2238 7.2854,-2.5941 10.656,1.4672 0.7306,0.8803 2.4948,1.5135 3.9204,1.407 4.8501,-0.3623 6.1407,0.1057 7.076,2.5657 0.8678,2.2826 1.2913,2.4154 5.9438,1.8644 3.8989,-0.4617 5.6261,-0.1861 7.7909,1.2435 3.2596,2.1526 10.7946,3.6655 17.6029,3.5346 3.6121,-0.07 5.6189,0.5021 8,2.2789 1.7482,1.3045 5.5037,2.9137 8.3458,3.5762 2.842,0.6625 5.9909,2.1146 6.9976,3.227 4.3858,4.8462 10.335,6.2006 10.335,2.3529 0,-3.1384 3.0367,-4.8066 7.2952,-4.0077 2.7872,0.5229 4.0182,0.015 8.3792,-3.4573 5.9382,-4.7281 5.7326,-4.6818 9.086,-2.0441 l 2.5757,2.0261 2.6367,-2.5261 c 3.2637,-3.1269 5.6338,-3.2295 6.3754,-0.2761 1.3625,5.426 3.2519,6.5282 5.749,3.3535 l 2.2681,-2.8833 2.3505,2.8899 c 2.1325,2.6217 2.4449,2.7275 3.3671,1.1399 1.2311,-2.1194 5.4773,-2.258 8.9171,-0.291 7.1012,4.0606 15.8931,7.7298 19,7.9294 7.63,0.4901 8.7252,2.2408 6.4294,10.2778 -0.8746,3.0617 8.6881,4.3767 14.688,2.0198 4.0533,-1.5922 9.0896,0.3171 12.1975,4.6241 0.5165,0.7158 0.6146,0.1938 0.2463,-1.3101 -0.3368,-1.375 -0.8816,-4.579 -1.2107,-7.12 l -0.5982,-4.62 4.7955,-1.8314 c 4.6503,-1.776 4.8282,-1.7759 5.8739,0 2.5377,4.3192 5.9023,7.5675 7.8385,7.5675 1.1453,0 2.9202,0.7582 3.9442,1.6849 1.6231,1.4689 9.1031,2.0748 17.0456,1.3806 0.4125,-0.036 0.75,-1.1356 0.75,-2.4436 0,-1.3162 0.95,-3.0087 2.1275,-3.7906 2.0727,-1.3762 2.0211,-1.4606 -2,-3.2738 -5.4734,-2.4682 -2.1183,-10.7127 4.2836,-10.5257 6.0623,0.177 9.0275,12.9682 3.0062,12.9682 -1.6247,0 -1.5648,0.2083 0.4695,1.6332 1.884,1.3196 2.2295,2.2631 1.7993,4.9139 -0.343,2.1138 -6e-4,3.9339 0.9625,5.1168 1.3869,1.7034 1.4576,1.612 0.9781,-1.2646 -0.4377,-2.6255 0.088,-3.6909 3.4282,-6.9529 5.7258,-5.5911 4.8174,-12.4638 -2.1661,-16.3888 -3.9813,-2.2376 -4.9629,-3.974 -4.905,-8.6768 0.019,-1.5844 0.028,-4.7974 0.019,-7.1399 -0.017,-4.43 3.9166,-12.2409 6.1646,-12.2409 2.2879,0 8.8326,8.0098 8.8326,10.8099 0,1.4992 1.125,4.3814 2.5,6.4049 3.0277,4.4555 3.0348,4.5871 0.398,7.3938 l -2.102,2.2375 4.102,2.5895 c 2.2561,1.4242 4.102,3.2588 4.102,4.0769 0,1.8541 0.9473,1.8419 3.4412,-0.044 4.1829,-3.1638 7.9881,2.2297 6.98,9.8935 -0.6731,5.1167 0.8168,9.6383 3.176,9.6383 1.2446,0 5.4028,-9.6763 5.4028,-12.5727 0,-0.8237 0.6995,-2.5652 1.5544,-3.8699 1.0333,-1.577 1.2009,-2.5907 0.5,-3.0238 -2.9453,-1.8203 -1.1721,-8.8072 2.0706,-8.1586 1.7188,0.3437 4.2359,0.625 5.5937,0.625 1.5721,0 2.6465,0.6804 2.9586,1.8737 0.2695,1.0306 1.8024,2.8441 3.4064,4.03 3.7766,2.7922 3.9425,6.6716 0.3552,8.3061 -2.9529,1.3454 -2.7526,4.3363 0.6021,8.9913 4.434,6.1525 -8.3389,19.4592 -13.872,14.4518 -2.8692,-2.5966 -5.3353,-2.1639 -4.5901,0.8052 0.4272,1.702 -0.098,3.4625 -1.7078,5.7229 -1.2786,1.7957 -2.2203,4.177 -2.0926,5.2919 0.4141,3.6169 -3.9955,9.9699 -7.3069,10.5271 -3.6685,0.6172 -8.9673,4.0756 -7.5688,4.9399 2.0497,1.2668 -0.074,5.1443 -3.1551,5.7605 -2.3677,0.4736 -3.414,1.5589 -5.012,5.199 -1.1108,2.5303 -2.4499,4.8794 -2.9758,5.2202 -4.4533,2.8862 -5.1668,22.3804 -0.8192,22.3804 2.1079,0 2.7061,0.8426 4.4429,6.2586 1.982,6.1804 2.0464,6.2513 5.1503,5.669 3.5898,-0.6734 11.7053,2.648 13.8091,5.6516 2.0242,2.8899 11.8202,7.5663 17.0953,8.1609 5.8504,0.6594 6.1583,1.1095 6.3849,9.3328 0.285,10.3458 6.1406,19.0095 10.6296,15.7273 3.5479,-2.594 3.6141,-3.2048 1.3432,-12.4054 -1.9711,-7.9858 -1.9816,-8.3709 -0.255,-9.3616 11.1861,-6.4185 13.4724,-16.0851 5.8104,-24.5661 l -3.4404,-3.8081 2.0743,-3.8295 c 2.1715,-4.0089 2.0809,-16.2438 -0.1649,-22.2585 -1.7523,-4.6929 1.8848,-6.7375 8.0446,-4.5225 4.1922,1.5075 5.4978,1.6072 7.7299,0.5902 3.0044,-1.3689 5.927,0.5485 9.4183,6.1788 0.961,1.5496 3.2636,3.5746 5.117,4.5 3.227,1.6112 3.391,1.9666 3.8698,8.3846 0.275,3.6862 0.95,7.0647 1.5,7.5078 0.55,0.4431 2.4647,2.1258 4.2548,3.7394 l 3.2547,2.9339 3.3923,-3.288 c 1.972,-1.9114 3.9115,-5.1424 4.6324,-7.7173 1.9595,-6.9987 3.0088,-6.7637 7.2429,1.6221 1.5273,3.025 3.9418,7.75 5.3655,10.5 4.277,8.2614 4.6502,9.2947 3.984,11.0307 -0.9895,2.5786 4.6092,8.8309 10.3471,11.5551 2.7798,1.3197 4.8559,2.9159 4.6137,3.5471 -0.2422,0.6312 0.421,1.9845 1.4737,3.0074 1.0528,1.0228 2.8198,2.7259 3.9266,3.7846 5.2259,4.999 1.5274,13.2403 -6.746,15.032 -1.792,0.3881 -3.7149,1.5587 -4.2729,2.6014 -1.931,3.6082 -4.9588,4.3177 -17.3165,4.0578 -12.1874,-0.2564 -15.6523,0.7334 -15.6523,4.4715 0,0.7027 -1.0125,1.5861 -2.25,1.9633 -2.7506,0.8382 -5.5837,3.2489 -6.9783,5.9379 -0.9932,1.9151 -0.9291,1.909 1.3426,-0.126 5.9203,-5.3034 15.8121,-8.0365 18.6857,-5.1628 1.9872,1.9871 1.3749,3.7227 -2.05,5.8109 -2.8865,1.76 -2.9983,1.982 -1,1.9853 2.4225,0 2.7335,0.6916 1.3218,2.9219 -2.061,3.2562 5.8257,9.8264 10.4132,8.675 1.2483,-0.3133 3.0102,-1.6999 3.9154,-3.0814 1.7568,-2.6812 5.2136,-3.554 4.2628,-1.0763 -0.3029,0.7894 -0.1003,1.5855 0.4503,1.769 1.4409,0.4803 -0.062,3.7956 -1.7204,3.7956 -0.7662,0 -2.2328,0.8398 -3.2592,1.8662 -1.0264,1.0264 -4.0639,2.6757 -6.75,3.6651 -2.6861,0.9894 -5.5589,2.5909 -6.3839,3.5589 -2.4441,2.8679 -5.4408,2.8296 -5.8502,-0.075 -0.2586,-1.8341 0.517,-3.2087 2.9622,-5.25 1.8219,-1.521 2.8795,-2.7587 2.3503,-2.7504 -2.1223,0.033 -8.489,2.6992 -10.2484,4.2914 -1.0292,0.9315 -2.4578,1.6936 -3.1746,1.6936 -4.9741,0 -12.001,8.3344 -10.0696,11.9433 1.7337,3.2395 1.2149,3.8436 -3.9056,4.5479 -3.8287,0.5265 -4.8065,1.0165 -4.3585,2.1839 0.4478,1.1668 -0.072,1.4287 -2.314,1.165 -2.2278,-0.2621 -2.83,0.036 -2.6235,1.2974 0.4205,2.5696 -1.5668,6.8625 -3.1769,6.8625 -0.8475,0 -1.5908,1.1518 -1.7747,2.75 -0.2207,1.9176 -0.8534,2.7067 -2.0906,2.6071 -1.9967,-0.1609 -2.1967,9.4498 -0.2259,10.8567 0.8413,0.6006 -8.7701,10.7862 -10.178,10.7862 -0.2479,0 -2.6598,1.9028 -5.3597,4.2284 -7.2624,6.2557 -8.1387,9.4648 -4.7724,17.4775 5.4952,13.08 1.3527,25.2381 -4.5296,13.2941 -0.4063,-0.825 -1.3894,-2.625 -2.1847,-4 -0.7954,-1.375 -1.4527,-3.8841 -1.4608,-5.5757 -0.021,-4.2987 -3.826,-7.8099 -7.107,-6.5577 -1.8207,0.6948 -2.8954,0.4922 -4.4078,-0.8311 -3.0481,-2.667 -14.7287,-1.7077 -16.0577,1.3187 -1.0916,2.486 -4.8925,3.3469 -7.0116,1.5882 -3.2123,-2.6659 -11.6937,-1.6098 -15.3702,1.914 -0.7917,0.7589 -2.6912,1.8161 -4.2211,2.3494 -2.8327,0.9875 -3.9408,3.9088 -3.7154,9.7942 0.053,1.375 -0.4777,5.5828 -1.1786,9.3506 -1.3877,7.4601 -0.507,12.1091 3.0593,16.1494 0.971,1.1 2.0536,2.9 2.4058,4 0.8194,2.5592 6.7099,5.3606 9.2085,4.3793 1.0346,-0.4063 3.4901,-0.7704 5.4567,-0.809 4.2949,-0.084 7.9243,-3.4507 7.9243,-7.3496 0,-3.1198 1.8158,-4.2887 8,-5.1502 6.5742,-0.9159 7.5353,0.087 5.5864,5.8268 -0.8725,2.5699 -1.5864,5.3318 -1.5864,6.1376 0,0.8058 -0.3999,1.4651 -0.8887,1.4651 -0.4888,0 -1.1877,1.6875 -1.5533,3.75 -0.3655,2.0625 -0.892,4.525 -1.1699,5.4723 -0.4569,1.5575 0.2644,1.6732 7.5398,1.21 10.0748,-0.6415 14.7287,1.7826 13.5578,7.062 -0.3666,1.6531 -0.8339,4.6422 -1.0384,6.6423 -0.2044,2.0002 -0.442,4.0252 -0.5279,4.5 -1.1712,6.4735 7.7259,12.1495 13.9771,8.9169 3.11,-1.6082 6.3367,-1.1301 10.1184,1.4992 2.9211,2.031 7.9851,-1.0653 7.9851,-4.8823 0,-2.5588 1.7146,-3.8447 6.2587,-4.6939 2.0673,-0.3863 4.8383,-1.5516 6.1578,-2.5895 2.5511,-2.0067 5.5835,-2.5154 5.5835,-0.9367 0,0.5226 -0.7381,1.3634 -1.6404,1.8683 -0.9022,0.5049 -1.3517,1.385 -0.999,1.9558 0.9409,1.5224 4.5388,0.2822 5.7507,-1.9823 0.9613,-1.7962 1.1925,-1.8272 2.7971,-0.3751 0.962,0.8706 2.3391,1.583 3.0601,1.583 0.7211,0 1.8497,0.7367 2.5081,1.6371 1.5627,2.1371 11.5067,3.0948 18.7734,1.8081 2.1848,-0.3869 3.75,-0.2644 3.75,0.2935 0,0.5266 1.815,1.7759 4.0332,2.7762 2.7751,1.2514 3.7109,2.141 3,2.8519 -1.6989,1.6989 -1.1826,2.3844 1.421,1.8867 1.9436,-0.3716 3.6588,0.6976 8.2438,5.1386 5.4951,5.3227 6.0493,5.6079 10.8966,5.6079 9.398,0 18.458,5.513 19.7602,12.024 0.3106,1.5526 1.5209,3.7139 2.6897,4.8028 l 2.1251,1.9798 -3.5187,3.8947 c -2.4709,2.735 -3.2576,4.3169 -2.6421,5.3128 0.6782,1.0974 1.1187,0.7809 1.9477,-1.3997 0.7435,-1.9554 1.5512,-2.6336 2.6392,-2.2161 0.8624,0.3309 2.6561,0.6017 3.9861,0.6017 1.3734,0 2.4182,0.5882 2.4182,1.3613 0,0.9177 0.8257,1.2035 2.5337,0.877 3.0766,-0.5881 11.3985,2.3555 13.4663,4.7634 1.4289,1.6638 7.4018,3.0277 15,3.4251 4.1908,0.2192 8.6176,2.4385 11.9244,5.9782 1.6838,1.8023 3.4557,2.595 5.801,2.595 3.2482,0 6.2746,3.8432 6.2746,7.9679 0,0.7019 -28.8744,1.0305 -90.25,1.0271 h -90.25 z m 37.1705,-64.6632 c 0,-1.9529 -1.2516,-4.0443 -2.1047,-3.5171 -1.4849,0.9177 -1.0052,4.4353 0.6047,4.4353 0.825,0 1.5,-0.4132 1.5,-0.9182 z m -206.7822,-184.8318 c -1.3225,-3.2246 -3.6877,-6.25 -4.8858,-6.25 -0.6529,0 -2.405,-1.4625 -3.8937,-3.25 -2.1286,-2.5559 -2.3618,-2.6766 -1.092,-0.565 0.8881,1.4768 2.7485,3.8188 4.1342,5.2045 2.7337,2.7337 3.2493,5.1494 1.2695,5.9482 -0.6875,0.2774 0.198,0.5399 1.9678,0.5833 2.6853,0.066 3.099,-0.2107 2.5,-1.671 z m -6.2178,0.25 c 0,-0.275 -0.225,-0.5 -0.5,-0.5 -0.275,0 -0.5,0.225 -0.5,0.5 0,0.275 0.225,0.5 0.5,0.5 0.275,0 0.5,-0.225 0.5,-0.5 z m -32.4554,-53.0294 c -2.1338,-3.1444 -2.4599,-3.3128 -3.0169,-1.5579 -0.9212,2.9025 3.6701,9.785 4.6894,7.0295 0.4833,-1.3065 -0.066,-3.1049 -1.6725,-5.4716 z m -9.5446,-7.5296 c 0,-1.1325 -0.4303,-1.7931 -0.9563,-1.468 -0.526,0.3251 -0.7028,1.2516 -0.393,2.059 0.7932,2.0671 1.3493,1.8235 1.3493,-0.591 z m -4.5,-6.941 c 0.34,-0.55 0.1681,-1 -0.3819,-1 -0.55,0 -1.2781,0.45 -1.6181,1 -0.3399,0.55 -0.168,1 0.382,1 0.55,0 1.2781,-0.45 1.618,-1 z m 190.5,-60.312 c 0,-0.1715 -1.4204,-1.3621 -3.1566,-2.6457 l -3.1566,-2.3338 1.9066,2.6143 c 1.5508,2.1264 4.4066,3.6593 4.4066,2.3652 z m -11.3333,353.6453 c -0.3667,-0.3667 -0.653,-1.3792 -0.6362,-2.25 0.025,-1.3003 0.2201,-1.2571 1.0916,0.2417 1.0768,1.8517 0.7646,3.2283 -0.4554,2.0083 z m 312.5921,-38.2074 c -0.6827,-1.8557 -4.1845,-6.1486 -7.7819,-9.5398 -5.1779,-4.8811 -6.5429,-6.7825 -6.5515,-9.1259 -0.01,-1.6281 -0.048,-4.3102 -0.094,-5.9602 -0.046,-1.65 0.7481,-5.8268 1.7635,-9.2817 1.4118,-4.8032 1.5835,-6.7024 0.7297,-8.0696 -0.6141,-0.9834 -0.8871,-2.9885 -0.6066,-4.4559 0.357,-1.8675 0.026,-2.8538 -1.1042,-3.2874 -2.7531,-1.0564 -0.1763,-9.1964 4.7835,-15.1109 1.2889,-1.537 2.6623,-4.2565 3.0521,-6.0433 0.3897,-1.7868 1.5518,-3.8394 2.5824,-4.5612 1.0306,-0.7219 2.4575,-2.6349 3.1708,-4.2512 1.1234,-2.5454 1.3332,-0.1027 1.5667,18.2435 0.5116,40.1788 -0.1053,65.2645 -1.5109,61.4436 z m -194.0296,-6.3134 c 0.6181,-1.8543 2.7708,-2.1618 2.7708,-0.3959 0,0.8709 -0.7125,1.5834 -1.5833,1.5834 -0.8708,0 -1.4052,-0.5344 -1.1875,-1.1875 z m -0.2292,-7.3125 c 0,-0.275 0.225,-0.5 0.5,-0.5 0.275,0 0.5,0.225 0.5,0.5 0,0.275 -0.225,0.5 -0.5,0.5 -0.275,0 -0.5,-0.225 -0.5,-0.5 z m -30,-1 c 0,-0.275 0.225,-0.5 0.5,-0.5 0.275,0 0.5,0.225 0.5,0.5 0,0.275 -0.225,0.5 -0.5,0.5 -0.275,0 -0.5,-0.225 -0.5,-0.5 z m 3,0 c 0,-0.275 0.225,-0.5 0.5,-0.5 0.275,0 0.5,0.225 0.5,0.5 0,0.275 -0.225,0.5 -0.5,0.5 -0.275,0 -0.5,-0.225 -0.5,-0.5 z m -7,-1 c 0,-0.275 0.225,-0.5 0.5,-0.5 0.275,0 0.5,0.225 0.5,0.5 0,0.275 -0.225,0.5 -0.5,0.5 -0.275,0 -0.5,-0.225 -0.5,-0.5 z m 35,-3 c 0,-0.275 0.225,-0.5 0.5,-0.5 0.275,0 0.5,0.225 0.5,0.5 0,0.275 -0.225,0.5 -0.5,0.5 -0.275,0 -0.5,-0.225 -0.5,-0.5 z m 7,0 c 0,-0.275 0.225,-0.5 0.5,-0.5 0.275,0 0.5,0.225 0.5,0.5 0,0.275 -0.225,0.5 -0.5,0.5 -0.275,0 -0.5,-0.225 -0.5,-0.5 z m -6,-5.5 c 0,-0.7334 0.3,-1.0334 0.6667,-0.6667 0.3667,0.3667 0.3667,0.9667 0,1.3333 -0.3667,0.3667 -0.6667,0.067 -0.6667,-0.6666 z m 150.4046,-2.1545 c -0.4421,-0.7153 -0.2744,-0.8831 0.4409,-0.441 1.1528,0.7124 1.5477,1.5955 0.7136,1.5955 -0.2426,0 -0.7621,-0.5196 -1.1545,-1.1545 z m -151.4046,-1.3455 c 0,-0.275 0.225,-0.5 0.5,-0.5 0.275,0 0.5,0.225 0.5,0.5 0,0.275 -0.225,0.5 -0.5,0.5 -0.275,0 -0.5,-0.225 -0.5,-0.5 z m -1,-4 c 0,-0.275 0.225,-0.5 0.5,-0.5 0.275,0 0.5,0.225 0.5,0.5 0,0.275 -0.225,0.5 -0.5,0.5 -0.275,0 -0.5,-0.225 -0.5,-0.5 z m -1,-3 c 0,-0.275 0.225,-0.5 0.5,-0.5 0.275,0 0.5,0.225 0.5,0.5 0,0.275 -0.225,0.5 -0.5,0.5 -0.275,0 -0.5,-0.225 -0.5,-0.5 z m -4,-1 c 0,-0.275 0.225,-0.5 0.5,-0.5 0.275,0 0.5,0.225 0.5,0.5 0,0.275 -0.225,0.5 -0.5,0.5 -0.275,0 -0.5,-0.225 -0.5,-0.5 z m -59.9822,-2.9787 c -1.7734,-2.1368 -0.7629,-2.8439 2.9107,-2.037 2.7715,0.6087 4.4038,2.5157 2.1533,2.5157 -0.505,0 -1.5579,0.2454 -2.3398,0.5455 -0.7818,0.3 -2.0077,-0.1609 -2.7242,-1.0242 z m 24.4323,0.3978 c -0.3736,-0.6044 -2.6749,-0.935 -5.2206,-0.75 -3.0022,0.2182 -4.6963,-0.095 -4.9744,-0.9191 -0.285,-0.8449 0.7317,-1.25 3.1369,-1.25 3.4067,0 3.5169,-0.1095 2.5833,-2.5651 -0.5364,-1.4108 -0.9753,-2.7171 -0.9753,-2.9029 0,-1.2301 10.4333,0.4993 14.2974,2.3699 6.2101,3.0062 6.0412,4.5572 -0.5181,4.7571 -2.8702,0.087 -5.3822,0.6499 -5.5823,1.25 -0.4657,1.3972 -1.8864,1.4024 -2.7469,0.01 z m 18.1883,-1.4191 c 0.6105,-1.5909 2.1896,-1.887 4.7741,-0.8952 2.3733,0.9107 0.861,2.3952 -2.4401,2.3952 -2.1755,0 -2.7644,-0.3785 -2.334,-1.5 z m 16.3616,0.5 c 0,-0.7334 0.3,-1.0334 0.6667,-0.6667 0.3667,0.3667 0.3667,0.9667 0,1.3333 -0.3667,0.3667 -0.6667,0.067 -0.6667,-0.6666 z m -372.8882,-4.7912 c -1.4055,-2.6262 0.2909,-5.0457 2.5503,-3.6374 2.5524,1.591 2.7104,3.1589 0.4407,4.3736 -1.6284,0.8715 -2.2068,0.7291 -2.991,-0.7362 z m 315.2303,-3.6578 c 0.3273,-0.8531 0.1593,-1.551 -0.3734,-1.551 -0.5328,0 -1.7788,-0.8102 -2.769,-1.8003 -0.9901,-0.9902 -4.4776,-2.6345 -7.75,-3.654 -3.2723,-1.0195 -6.2626,-2.3336 -6.645,-2.9203 -0.487,-0.747 -1.707,-0.7009 -4.071,0.1539 -6.5618,2.3728 -8.3754,0.2224 -2.0437,-2.4232 5.2726,-2.203 11.3395,-1.1691 21.1034,3.5962 4.5613,2.2262 8.7238,4.0477 9.25,4.0477 0.5261,0 0.9566,0.4012 0.9566,0.8916 0,0.4903 1.157,1.1819 2.5711,1.5368 4.6264,1.1612 2.0821,3.0567 -4.527,3.3726 -5.3522,0.2558 -6.2079,0.068 -5.702,-1.25 z m -22.3421,-6.551 c 0,-0.55 0.45,-1 1,-1 0.55,0 1,0.45 1,1 0,0.55 -0.45,1 -1,1 -0.55,0 -1,-0.45 -1,-1 z m 45,-0.5 c 0,-0.275 0.225,-0.5 0.5,-0.5 0.275,0 0.5,0.225 0.5,0.5 0,0.275 -0.225,0.5 -0.5,0.5 -0.275,0 -0.5,-0.225 -0.5,-0.5 z m -25.5697,-11.8212 c -0.8007,-2.0865 0.1997,-3.4489 1.5448,-2.1038 0.568,0.568 0.5827,1.5225 0.037,2.4053 -0.7672,1.2414 -1.0074,1.1956 -1.5819,-0.3015 z m 3.5697,-7.6788 c 0,-0.7334 0.3,-1.0334 0.6667,-0.6667 0.3667,0.3667 0.3667,0.9667 0,1.3333 -0.3667,0.3667 -0.6667,0.067 -0.6667,-0.6666 z m 243,-9 c 0,-0.55 0.45,-1 1,-1 0.55,0 1,0.45 1,1 0,0.55 -0.45,1 -1,1 -0.55,0 -1,-0.45 -1,-1 z m -187.5588,-91.4682 c -1.0676,-0.8075 -1.7162,-1.5113 -1.4412,-1.5639 5.9357,-1.1353 8.0877,-0.4556 5.8,1.8321 -1.5396,1.5396 -2.0067,1.5109 -4.3588,-0.2682 z m 37.8732,-4.4378 c -0.6036,-2.3081 -5.206,-3.4435 -14.3144,-3.5313 -7.3805,-0.071 -7.3572,-0.024 -3.8067,-7.7138 1.435,-3.108 2.9266,-6.6511 3.3145,-7.8734 1.3106,-4.1292 4.6255,-8.8831 6.6402,-9.5225 3.1431,-0.9976 3.4001,0.2392 1.0536,5.0689 -1.652,3.4005 -1.8458,4.4781 -0.8052,4.4781 0.7537,0 1.6213,0.9594 1.9279,2.1321 0.4253,1.6262 1.0845,1.9942 2.7783,1.5513 2.9267,-0.7654 6.2211,1.0309 5.4718,2.9835 -0.5465,1.4242 2.1285,7.4693 3.603,8.1422 0.3726,0.17 0.216,1.6325 -0.3478,3.25 -1.1864,3.4033 -4.7224,4.0668 -5.5152,1.0349 z m -9.3144,-0.594 c 0,-0.275 0.225,-0.5 0.5,-0.5 0.275,0 0.5,0.225 0.5,0.5 0,0.275 -0.225,0.5 -0.5,0.5 -0.275,0 -0.5,-0.225 -0.5,-0.5 z m -25.7269,-12.6128 c -3.754,-1.0848 -6.5264,-4.8897 -3.5582,-4.8835 2.5512,0.01 8.5,3.8396 7.7756,5.0117 -0.3347,0.5415 -0.6944,0.944 -0.7995,0.8944 -0.105,-0.05 -1.6431,-0.5098 -3.4179,-1.0226 z m -75.1512,-23.7907 c -0.7579,-0.4801 -1.0689,-1.3732 -0.691,-1.9847 1.0357,-1.6757 2.3754,-1.3423 3.5691,0.8882 1.174,2.1936 -0.2746,2.7455 -2.8781,1.0965 z m -206.5771,-3.9557 c -0.7295,-2.2981 0.2775,-5.1461 1.8122,-5.1255 2.5623,0.034 3.7525,1.7005 3.0926,4.3295 -0.7795,3.1061 -4.0055,3.6296 -4.9048,0.796 z m -128.0986,-7.228 c -0.902,-1.4593 0.5733,-2.7938 3.4649,-3.1341 3.299,-0.3882 3.6754,1.633 0.5678,3.049 -3.1447,1.4328 -3.1991,1.4339 -4.0327,0.085 z m 341.2292,-9.5708 c -0.9296,-0.9296 1.2749,-3.342 3.0541,-3.342 0.9428,0 1.263,0.5771 0.8775,1.5818 -0.3338,0.8699 -0.607,1.7699 -0.607,2 0,0.6697 -2.6028,0.482 -3.3246,-0.2398 z m -300.037,-8.842 c -1.4553,-3.7925 5.1393,-7.151 8.1431,-4.1472 1.1768,1.1769 0.8691,1.7 -2.0675,3.5149 -4.0842,2.5242 -5.301,2.6508 -6.0756,0.6323 z m -49.1872,-21.9121 c -1.8626,-1.362 -1.8329,-1.4569 0.836,-2.6729 3.1509,-1.4356 5.3981,-0.143 4.377,2.5178 -0.7465,1.9453 -2.6858,2.003 -5.213,0.1551 z m 490.2767,-0.9783 c -3.1851,-1.4108 -6.1349,-5.142 -5.2268,-6.6114 0.3394,-0.549 0.167,-0.9982 -0.383,-0.9982 -0.55,0 -1.2781,0.45 -1.6181,1 -2.0737,3.3553 -11.5,-3.4029 -11.5,-8.245 0,-1.3448 -0.9,-3.2595 -2,-4.255 -1.1,-0.9955 -2,-2.4386 -2,-3.2069 0,-0.7683 -0.8456,-3.061 -1.8793,-5.095 -3.5331,-6.9525 -4.9501,-10.6987 -5.4782,-14.4834 -0.2905,-2.082 -1.6728,-6.2855 -3.0717,-9.3412 -1.9989,-4.366 -2.3153,-5.9824 -1.4775,-7.5479 0.8258,-1.543 0.688,-2.4099 -0.6115,-3.8458 -0.9227,-1.0196 -1.3697,-2.3522 -0.9932,-2.9614 0.3765,-0.6091 0.8138,-2.55 0.9718,-4.313 0.7939,-8.8568 1.5489,-10.4846 5.1786,-11.1655 3.7806,-0.7093 5.0191,-2.7652 6.0064,-9.9704 l 0.5576,-4.0695 -4.6042,-1.0673 -4.6041,-1.0674 2.0027,2.1318 c 2.8494,3.033 2.4853,5.0603 -1.1815,6.5791 -2.5462,1.0547 -3.2684,1.0661 -3.6049,0.057 -0.2314,-0.6942 -1.527,-1.6828 -2.8792,-2.1969 -3.7874,-1.44 -3.0038,-7.2239 1.0746,-7.9317 2.6193,-0.4545 2.7427,-0.6399 1.25,-1.8768 -4.6629,-3.8637 -0.1668,-6.6851 5.7424,-3.6035 3.2685,1.7045 3.1146,1.7514 4.0295,-1.227 0.5669,-1.8458 0.031,-2.532 -3.3031,-4.2332 -2.1889,-1.1167 -4.2653,-2.93 -4.6143,-4.0296 -0.5911,-1.8624 -0.7969,-1.8929 -3.0056,-0.4457 -5.3905,3.532 -8.5431,-7.3896 -4.5437,-15.7404 1.126,-2.3511 0.9588,-3.2238 -1.4742,-7.694 -1.6239,-2.9837 -2.4785,-5.7349 -2.0931,-6.7391 0.3581,-0.9332 -0.064,-2.7874 -0.9369,-4.1204 -1.0498,-1.6023 -1.368,-3.4249 -0.9389,-5.3786 0.5434,-2.474 -0.097,-3.9588 -3.9347,-9.1232 -2.8706,-3.8629 -4.5838,-7.209 -4.5838,-8.9527 0,-2.3113 -1.0467,-3.4644 -6.1615,-6.788 -10.1416,-6.5899 -11.9444,-6.871 -19.773,-3.0838 l -6.6502,3.2172 -4.9577,-2.9055 c -4.3118,-2.5271 -4.9972,-3.373 -5.262,-6.494 -0.2456,-2.8943 -0.8743,-3.8245 -3.25,-4.8086 -3.9794,-1.6483 -4.2327,-7.088 -0.4456,-9.5694 3.5537,-2.3284 3.2619,-3.0901 -3.9792,-10.3871 -8.4371,-8.5023 -8.2101,-10.7611 1.6098,-16.0209 3.5939,-1.925 8.362,-4.9625 10.5958,-6.75 2.2338,-1.7875 5.1519,-3.25 6.4847,-3.25 2.1843,0 2.5919,-0.7151 4.1334,-7.25 0.9406,-3.9875 1.9588,-8.1993 2.2627,-9.3595 0.4762,-1.8179 0.01,-2.1966 -3.3944,-2.7405 -7.733,-1.2366 -6.8635,-6.8206 2.9744,-19.1008 4.4278,-5.5271 8.3346,-9.9944 8.6817,-9.9274 0.3472,0.067 1.8686,0.413 3.3811,0.769 l 2.75,0.6473 v -7.5789 -7.579 l 5.25,-5.5593 c 12.9435,-13.706 27.1425,-16.3469 33.3983,-6.2118 l 3.6639,5.936 3.8778,-7.0226 c 4.6941,-8.5006 3.9762,-8.5317 11.31,0.4894 6.9998,8.6101 7.0766,8.644 8.4748,3.7381 2.6754,-9.3868 2.4909,-11.3684 -1.8656,-20.0328 -2.26,-4.4951 -4.1092,-8.3667 -4.1092,-8.6038 0,-7.1483 45.2992,-23.6721 60.3455,-22.0122 11.7212,1.2931 21.9255,8.3642 25.6613,17.782 1.894,4.7747 3.4321,6.7363 8.1635,10.4105 6.8402,5.3119 6.663,4.6386 2.57,9.7639 -1.7821,2.2317 -4.7547,5.962 -6.6057,8.2897 l -3.3655,4.232 6.7148,-0.6879 c 7.6691,-0.7857 8.476,-0.2272 8.5008,5.8838 0.014,3.319 10.7475,10.7248 15.5447,10.7248 0.1539,0 1.675,-2.4723 3.3803,-5.494 l 3.1006,-5.494 5.2449,1.9935 c 2.8847,1.0964 5.3573,1.9937 5.4948,1.994 6.1477,0.012 -2.7937,23.5902 -10.3355,27.2543 -3.4952,1.6981 -4.4173,2.6759 -4.4281,4.6954 -0.033,6.2298 -0.8353,7.1083 -6.2249,6.8189 l -4.9957,-0.2681 -1.3408,4.4648 c -1.236,4.1157 -1.1877,4.6075 0.6171,6.289 3.5004,3.2611 2.7341,12.2999 -1.6695,19.6923 -5.6838,9.5414 -3.9142,27.7547 2.8851,29.6935 2.933,0.8363 3.2721,1.3345 3.5537,5.2221 l 0.3114,4.2975 -5.3853,-0.6728 c -8.1337,-1.0163 -12.1585,7.3108 -4.4936,9.2969 3.6854,0.955 5.5626,5.0974 5.6801,12.5341 0.069,4.3596 -0.1119,4.7577 -1.9019,4.1896 -1.8972,-0.6022 -1.8776,-0.3614 0.4802,5.9026 2.8128,7.4731 2.6185,8.7289 -1.5969,10.32 -2.6328,0.9938 -2.8978,1.4159 -1.9733,3.1434 2.0907,3.9066 1.3001,6.6459 -2.4321,8.4256 l -3.5,1.669 v 7.5162 c 0,8.2112 -0.6449,8.9227 -5,5.5162 -4.8772,-3.8151 -4.2257,-1.9176 1.3478,3.9257 5.2582,5.5127 5.6627,6.2795 5.8022,11 0.082,2.7909 0.195,5.6291 0.25,6.3073 0.3996,4.9272 -9.7681,1.9203 -10.8977,-3.2227 -0.5752,-2.619 -1.0982,-3.0103 -4.0227,-3.0103 -3.8289,0 -5.456,1.5114 -2.4683,2.2927 2.8848,0.7543 2.4377,3.3868 -0.7613,4.4825 -2.5773,0.8827 -2.2948,1.0789 4.5,3.1256 10.8245,3.2605 2.5161,16.7378 -13.25,21.4932 -3.3,0.9953 -7.1475,2.3663 -8.55,3.0466 -2.0815,1.0096 -2.9465,0.9736 -4.7074,-0.1956 -1.9994,-1.3275 -2.2043,-1.2455 -2.7981,1.1202 -0.3524,1.404 -1.2707,3.0756 -2.0408,3.7147 -0.77,0.6391 -2.5558,3.7373 -3.9683,6.8848 -4.0682,9.0651 -12.2319,15.0353 -20.5595,15.0353 -2.5658,0 -3.759,0.3801 -3.3369,1.063 0.3613,0.5846 -0.1288,1.9312 -1.0891,2.9924 -1.1438,1.2638 -1.8441,3.9361 -2.0302,7.7467 -0.2303,4.7167 -0.9618,6.8466 -3.8664,11.2569 -2.3598,3.5832 -3.5222,6.4635 -3.4063,8.4402 0.2138,3.6438 -0.7746,8.5703 -2.8591,14.2508 -1.6639,4.5344 -2.8048,4.9659 -7.56,2.8596 z m 68.2568,-103.8596 c -0.012,-1.8195 -0.2008,-1.963 -0.9847,-0.75 -1.2529,1.9387 -1.2529,3 0,3 0.55,0 0.9932,-1.0125 0.9847,-2.25 z m 2.682,-3.4167 c -0.3667,-0.3667 -0.9667,-0.3667 -1.3333,0 -0.3667,0.3667 -0.067,0.6667 0.6666,0.6667 0.7334,0 1.0334,-0.3 0.6667,-0.6667 z m -649.6667,56.5884 v -46.1487 l 3.25,0.7062 c 1.7875,0.3884 6.4,0.9275 10.25,1.198 3.85,0.2705 7.675,1.0938 8.5,1.8294 0.825,0.7357 2.7784,1.6566 4.3408,2.0466 1.5624,0.39 4.7929,2.3376 7.1788,4.328 2.3859,1.9903 8.1195,6.5438 12.7412,10.1188 4.6217,3.575 9.0763,7.625 9.8991,9 1.3699,2.2894 7.4528,5 11.2208,5 2.7696,0 7.8336,7.0002 7.1421,9.8731 -0.7244,3.0097 -3.084,5.1269 -5.7139,5.1269 -1.2379,0 -1.8089,0.7504 -1.8089,2.3775 0,1.3077 -0.675,2.9378 -1.5,3.6225 -0.825,0.6847 -1.5,2.0898 -1.5,3.1224 0,2.0329 -2.4556,2.5673 -3.563,0.7755 -0.3746,-0.6061 -2.2503,-1.7576 -4.1682,-2.559 -2.2297,-0.9316 -3.8877,-2.5183 -4.5981,-4.4004 -1.2334,-3.2678 -3.5997,-4.4241 -7.2028,-3.5198 -1.7583,0.4413 -2.6713,0.07 -3.463,-1.4097 -1.5054,-2.8128 -3.0049,-2.502 -3.0049,0.6229 0,3.6421 -6.4451,9.7073 -9.6619,9.0924 -3.0783,-0.5885 -3.0068,1.2988 0.1619,4.2757 1.375,1.2917 2.5144,3.2827 2.5318,4.4243 0.017,1.1416 0.6925,2.9492 1.5,4.0168 3.6062,4.7678 1.1835,8.7388 -4.4191,7.2434 -3.3348,-0.8901 -4.3217,-0.6955 -8.2018,1.617 -2.426,1.4458 -6.2368,3.4914 -8.4685,4.5456 -2.2318,1.0543 -4.8193,3.0792 -5.75,4.4997 -5.7466,8.7703 -5.6924,9.1647 -5.6924,-41.4251 z m 437.067,37.1196 c -1.7541,-1.0841 -0.5626,-6.0413 1.4521,-6.0413 0.9722,0 1.4809,1.0102 1.4809,2.941 0,3.3088 -0.9577,4.3212 -2.933,3.1003 z m 49.4853,-3.7969 c -3.2713,-1.3217 -6.4213,-2.9729 -7,-3.6694 -0.5787,-0.6964 -2.4643,-1.8194 -4.1901,-2.4955 -2.0135,-0.7888 -4.701,-3.4999 -7.5,-7.5659 -5.0187,-7.2904 -7.359,-9.1761 -9.3436,-7.529 -7.08,5.8759 -15.7608,1.7023 -12.374,-5.9492 1.4925,-3.3717 1.6634,-3.4391 5.2529,-2.0744 1.68,0.6387 3.6302,0.5929 5.8151,-0.1365 4.7457,-1.5843 5.2971,-2.3977 3.4925,-5.1519 -1.5082,-2.3018 -1.4599,-2.5543 0.9138,-4.7843 7.2417,-6.8032 7.04,-15.4067 -0.519,-22.1418 -1.5785,-1.4065 -3.0573,-3.1188 -3.2861,-3.8052 -0.3059,-0.9177 -1.1723,-0.7525 -3.2733,0.6241 l -2.8573,1.8722 0.5298,-2.4688 c 0.2914,-1.3579 0.8285,-3.1719 1.1934,-4.0311 0.4516,-1.0633 -0.1752,-2.0113 -1.9624,-2.9677 -1.4444,-0.773 -4.2038,-3.7825 -6.1322,-6.6877 -4.0007,-6.0273 -4.7342,-6.4823 -3.8327,-2.3775 0.8057,3.668 -0.4665,4.4688 -5.0769,3.1958 -2.7268,-0.753 -4.1546,-0.6685 -5.7635,0.3408 -2.5559,1.6035 -18.1916,-1.1 -19.607,-3.3901 -0.4942,-0.7997 -1.7484,-1.0942 -3.1743,-0.7455 -3.0717,0.7513 -5.4607,-1.1122 -7.4116,-5.7813 l -1.5754,-3.7706 3.0648,0.4499 c 2.1059,0.309 3.0648,0.035 3.0648,-0.877 0,-0.7298 -0.8151,-1.3268 -1.8114,-1.3268 -5.6892,0 -7.1634,-5.3763 -4.8296,-17.6131 2.3219,-12.1749 7.1979,-17.3869 16.266,-17.3869 2.9141,0 2.9557,-0.5572 -0.5321,7.135 -2.5253,5.5693 -2.7937,6.9998 -2.0436,10.8883 0.475,2.4622 0.8901,4.9267 0.9225,5.4767 0.2044,3.473 1.9492,-2.8721 1.7983,-6.54 -0.4636,-11.2715 14.5845,-21.6478 18.2463,-12.5816 0.7761,1.9217 0.8628,1.8522 0.9203,-0.7368 0.055,-2.4603 0.3791,-2.7792 2.3307,-2.2894 1.2471,0.313 4.6063,1.0707 7.465,1.6838 10.6955,2.2938 12.2093,10.4013 2.0974,11.2321 -6.6255,0.5444 -7.1701,0.2913 -10.5444,-4.8996 -0.6705,-1.0315 -0.5615,-0.2101 0.2434,1.8336 1.0823,2.7481 1.1949,4.3946 0.4367,6.3887 -1.5585,4.0993 3.9148,3.7492 8.4832,-0.5426 3.0312,-2.8477 12.0568,-0.172 13.0597,3.8716 0.9649,3.8905 4.242,6.8365 9.5753,8.608 4.073,1.3528 5.1206,2.2627 6.9456,6.0326 1.6314,3.37 2.7112,4.4396 4.4821,4.4396 6.7163,0 14.5693,15.8284 10.0802,20.3175 -3.9874,3.9874 0.2511,10.4904 8.2109,12.5976 1.4837,0.3928 3.2615,1.8743 3.9507,3.2922 0.6959,1.4317 2.9191,3.2451 5,4.0783 8.1743,3.2731 8.8216,7.6761 2.1743,14.792 -1.5367,1.6451 -2.9525,3.7631 -3.1463,4.7067 -0.8325,4.055 -6.5099,1.6902 -8.2761,-3.4472 -2.0497,-5.9622 -3.6655,-6.3919 -10.302,-2.74 -0.8631,0.475 6.0294,9.1893 8.1772,10.3388 4.3571,2.3318 7.8391,15.0641 4.1197,15.0641 -0.8333,0 -1.5,0.8889 -1.5,2 0,2.1091 -1.4548,2.691 -2.5,1 -0.6894,-1.1156 -5.5,-1.3907 -5.5,-0.3145 0,0.3771 0.9371,1.683 2.0824,2.9022 4.3658,4.6471 2.2161,6.3823 -4.5301,3.6567 z m -68.5695,-95.4944 c -0.011,-2.146 -0.8607,-4.05 -2.5,-5.605 -3.0539,-2.8967 -3.2575,-1.112 -0.3256,2.8536 1.7889,2.4197 1.9387,3.1809 0.8775,4.4596 -1.0634,1.2813 -1.0054,1.5418 0.3429,1.5418 1.1673,0 1.6176,-0.9117 1.6052,-3.25 z m 4.1768,94.5706 c -1.6798,-3.0017 0.6672,-6.3206 4.4696,-6.3206 2.7215,0 3.1975,0.3103 2.6842,1.75 -1.6098,4.5158 -5.7162,7.1394 -7.1538,4.5706 z m -349.435,-9.6645 c -2.847,-2.3304 -2.7222,-3.6561 0.3443,-3.6561 1.0293,0 2.1611,1.2208 2.7813,3 1.2431,3.5659 0.5953,3.7019 -3.1256,0.6561 z m 341.6896,-0.1421 c -0.5012,-1.9972 -1.2573,-2.514 -3.6776,-2.514 -2.9916,0 -3.0136,-0.036 -1.2214,-2.0168 1.146,-1.2663 1.8924,-3.7781 2.0059,-6.75 0.389,-10.1924 4.1308,-15.7408 5.8896,-8.7332 0.4554,1.8143 1.2984,2.5 3.0736,2.5 3.0415,0 9.2812,5.3365 9.7025,8.298 0.2018,1.4187 1.1354,2.3185 2.6244,2.5295 2.8052,0.3976 3.8578,2.6616 2.1783,4.6852 -1.6417,1.9781 -2.0922,1.9068 -6.3943,-1.0127 -4.5787,-3.1072 -4.9347,-3.1027 -6.6408,0.085 -2.3226,4.3397 -6.754,6.061 -7.5402,2.9287 z m 261.0217,-3.565 c -4.7827,-3.8008 -8.3277,-11.2914 -6.6301,-14.0096 1.5361,-2.4597 0.03,-3.3188 -4.3706,-2.4932 -3.8851,0.7288 -3.9968,0.5406 -1.9863,-3.3474 3.5287,-6.8237 8.8381,-6.4846 11.0203,0.7038 0.7416,2.443 3.5308,1.4093 3.5308,-1.3084 0,-1.6433 3.2349,-2.4637 9.7814,-2.4806 3.7628,-0.01 5.4469,-0.4449 5.857,-1.5136 0.9655,-2.5161 7.3616,1.2456 7.3616,4.3295 0,0.605 0.9,1.5818 2,2.1705 4.6764,2.5027 1.3707,10.2838 -6.1862,14.5618 -12.8176,7.256 -15.044,7.626 -20.3779,3.3872 z m -227.0301,-36.4684 c -1.2844,-5.1174 3.9401,-11.239 7.6402,-8.9522 1.3699,0.8466 1.1783,8.8473 -0.246,10.2716 -2.2576,2.2576 -6.6951,1.4658 -7.3942,-1.3194 z m -144.7291,-11.2306 c -0.2428,-0.4125 -0.7495,-2.1869 -1.126,-3.943 -0.627,-2.9248 -1.1483,-3.2893 -6.2059,-4.3393 -4.8862,-1.0143 -5.6838,-1.5348 -6.9331,-4.5248 -2.5021,-5.9886 -1.7104,-6.5658 9.5527,-6.9649 4.1055,-0.1454 7.6046,-0.685 7.7759,-1.1989 0.6854,-2.0562 -4.8002,-3.212 -12.4717,-2.6278 -8.6478,0.6586 -12.6592,-1.3439 -10.4828,-5.233 0.6982,-1.2476 0.4156,-2.6576 -1.0206,-5.0919 -4.165,-7.059 -0.1822,-16.487 9.5941,-22.711 3.2225,-2.0517 5.9682,-3.592 6.1015,-3.4229 1.0163,1.2894 2.3451,7.1498 1.8901,8.3356 -0.8183,2.1323 0.664,1.8065 3.377,-0.7422 2.0907,-1.9641 2.6036,-2.06 4.5419,-0.8495 1.8717,1.1688 10.9221,4.0159 12.8798,4.0517 0.3573,0.01 1.4716,-2.274 2.4762,-5.0679 1.7233,-4.7921 1.9907,-5.0469 4.7224,-4.5006 2.5631,0.5126 2.7438,0.3961 1.5731,-1.0145 -1.1288,-1.3601 -0.9634,-1.8699 1.128,-3.4772 3.3954,-2.6094 4.6552,-2.4001 6.4507,1.0721 1.783,3.4479 -0.3467,9.8087 -2.7925,8.3407 -0.9273,-0.5565 -0.9376,-0.3901 -0.044,0.7173 1.6004,1.9844 5.6572,19.6652 4.9406,21.5326 -0.8825,2.2998 1.8309,5.6874 7.9076,9.8726 3.0188,2.0792 5.4888,4.1387 5.4888,4.5768 0,0.438 0.3006,1.5796 0.6679,2.5367 0.5723,1.4915 0.2272,1.6523 -2.4128,1.1243 -3.9335,-0.7867 -6.0886,1.2973 -3.2042,3.0986 3.0358,1.8959 2.4402,4.9943 -1.2493,6.4997 -3.4824,1.421 -14.0272,-1.4284 -15.7796,-4.2638 -0.6113,-0.9892 -1.0827,-0.7906 -1.9441,0.819 -2.5123,4.6944 -23.4101,10.7786 -25.4012,7.3955 z m 30.3233,-55.75 c 0,-0.275 -0.225,-0.5 -0.5,-0.5 -0.275,0 -0.5,0.225 -0.5,0.5 0,0.275 0.225,0.5 0.5,0.5 0.275,0 0.5,-0.225 0.5,-0.5 z m -303,26.655 c 0,-5.7468 6.934,-8.7424 11.8401,-5.1151 4.5479,3.3624 -0.3431,7.9488 -6.703,6.2857 -1.0512,-0.2749 -2.2137,-0.011 -2.5832,0.5873 -1.2432,2.0115 -2.5539,1.1094 -2.5539,-1.7579 z m 230.7442,-4.5654 c -0.8945,-1.8757 -3.1703,-4.6423 -5.0575,-6.1481 l -3.4311,-2.7378 1.8722,-5.3269 c 1.0297,-2.9298 1.8821,-6.1256 1.8942,-7.1018 0.012,-0.9763 0.8896,-3.6864 1.95,-6.0226 1.7509,-3.8572 1.7948,-4.5664 0.478,-7.7178 -2.3491,-5.6224 -2.0497,-6.0286 5.3,-7.1898 6.7187,-1.0616 6.7646,-1.0529 9.8795,1.8737 2.8507,2.6782 3.5421,2.8783 7.7618,2.2455 4.529,-0.6792 4.7204,-0.5973 8.5795,3.6707 5.431,6.0062 5.1849,6.9963 -3.2977,13.2695 -8.3707,6.1904 -10.7593,9.2473 -12.1777,15.5846 -0.8851,3.9544 -1.5398,4.7509 -5.5,6.6909 -5.974,2.9266 -6.3601,2.8756 -8.2512,-1.0901 z m 98.7078,0.6451 c -0.5764,-0.4041 -2.2975,-2.8972 -3.8246,-5.5402 -1.5272,-2.643 -3.7937,-5.2688 -5.0367,-5.8352 -1.9793,-0.9018 -5.5907,-5.5939 -5.5907,-7.2636 0,-0.3277 2.025,-0.5957 4.5,-0.5957 5.1806,0 6.4833,-3.4975 2.3746,-6.3754 -2.7102,-1.8982 -1.9096,-5.9003 1.6463,-8.2303 1.9761,-1.2948 2.7902,-1.3811 3.9496,-0.4189 0.9403,0.7804 2.865,0.9747 5.4045,0.5457 4.5719,-0.7724 6.0596,1.3337 4.0529,5.7379 -0.905,1.9862 -0.7093,4.1681 0.9691,10.8053 2.7379,10.8269 2.7306,10.8847 -1.8477,14.6857 -4.0946,3.3993 -4.8739,3.6928 -6.5973,2.4847 z m 15.1754,-9.7635 c -5.925,-15.4403 1.7053,-33.382 11.544,-27.144 1.2807,0.812 3.7911,1.7814 5.5786,2.1541 3.9303,0.8194 3.9507,-0.1296 -0.1931,8.9633 -2.9497,6.4728 -3.8011,7.5554 -5.9418,7.5554 -2.1268,0 -2.6977,0.707 -3.8348,4.75 -1.442,5.1265 -5.753,7.3693 -7.1529,3.7212 z m -74.8443,-36.5391 c -1.8534,-4.4598 -2.3878,-4.9972 -4.4532,-4.4788 -2.0963,0.5261 -5.1123,-0.5558 -9.2007,-3.3004 -2.0491,-1.3757 3.1264,-16.4222 6.5842,-19.1421 4.7004,-3.6973 10.9872,-0.642 15.8273,7.6918 3.2559,5.606 4.0516,6.2615 7.626,6.2821 3.7544,0.021 3.9039,-1.6095 0.7862,-8.5751 l -2.726,-6.0905 3.3331,-2.6595 c 4.7455,-3.7866 5.44,-3.4223 5.44,2.853 v 5.5126 l 5.5,2.4324 c 3.9267,1.7365 5.5,2.9844 5.5,4.3623 0,8.1628 -4.7123,13.3703 -10.085,11.1448 -2.7431,-1.1362 -3.2994,-0.9905 -6.7229,1.7607 -10.3457,8.314 -14.6445,8.8589 -17.409,2.2067 z m 100.7169,3.3878 c -12.0863,-2.7079 -13.8001,-4.5201 -14.0148,-14.8199 -0.08,-3.85 -0.7106,-8.6979 -1.4008,-10.7732 l -1.2547,-3.7731 -4.6851,0.6215 c -4.5454,0.603 -4.7649,0.5094 -7.3584,-3.1357 -6.2012,-8.7154 3.2747,-13.6597 10.6212,-5.5419 1.2595,1.3918 3.1177,2.1036 5.4976,2.1061 3.3493,0 3.7271,0.3282 5.5267,4.75 5.3548,13.1572 13.1821,17.2087 22.7163,11.7583 12.2744,-7.0169 28.2752,4.2816 21.2492,15.0045 -2.5451,3.8845 -25.8247,6.2841 -36.8972,3.8034 z m -27.3038,-5.6175 c -3.7653,-3.8849 -3.8921,-4.9163 -1.0882,-8.8541 3.4546,-4.8515 6.7102,-3.6882 9.1915,3.2844 3.3026,9.2802 -1.3844,12.5018 -8.1033,5.5697 z m -19.6463,-5.4753 c -0.5411,-2.4636 -1.3045,-3.1461 -4.1072,-3.6719 -3.9749,-0.7457 -4.1862,-1.616 -1.4625,-6.0232 1.7556,-2.8405 1.8159,-3.4211 0.5318,-5.118 -1.4129,-1.8672 -1.4491,-1.8628 -1.4802,0.181 -0.094,6.1955 -4.7536,6.3129 -8.1138,0.2044 -0.8884,-1.6151 5.5353,-4.6795 6.9157,-3.2991 0.2454,0.2454 2.2382,-0.9732 4.4284,-2.7079 3.754,-2.9732 12.6545,-3.2092 15.454,-0.4097 0.9874,0.9874 0.722,20.5681 -0.2926,21.5881 -2.9422,2.9578 -11.1738,2.4422 -11.8736,-0.7437 z m -82.4268,-11.7714 c -4.6367,-2.0128 -3.8557,-6.6925 2.792,-16.731 l 4.9149,-7.4217 7.2311,-0.6721 c 8.5907,-0.7984 8.2822,-0.9954 7.0417,4.4974 -0.543,2.4044 -1.2244,5.5198 -1.5142,6.9231 -0.3999,1.936 -2.0007,3.2558 -6.637,5.4717 -4.6709,2.2325 -6.4326,3.6925 -7.4798,6.1986 -1.5489,3.7072 -1.7052,3.7498 -6.3487,1.734 z m 161.1331,-6.5881 c -1.2287,-3.2552 -5.6085,-3.4404 -13.9644,-0.5903 -3.049,1.0399 -16.8505,-0.2686 -19.3906,-1.8384 -3.5767,-2.2106 0.4947,-10.1297 6.348,-12.3473 l 2.7492,-1.0415 -2.183,-4.4932 c -2.0378,-4.1946 -2.073,-4.6148 -0.5289,-6.321 1.1808,-1.3047 1.4882,-2.8496 1.0744,-5.3996 -1.149,-7.0806 1.9194,-14.0711 7.1045,-16.1854 2.4941,-1.017 4.5346,-2.4573 4.5346,-3.2008 0,-4.5901 -2.555,-12.0127 -5.1539,-14.9727 -3.2719,-3.7264 -4.0453,-14.3337 -0.9986,-13.6949 7.5272,1.578 10.0144,1.3571 15.9791,-1.419 7.5334,-3.5062 7.5467,-3.6578 0.5154,-5.8694 -5.6082,-1.764 -5.6941,-1.7601 -9.75,0.4438 l -4.092,2.2235 -7.3025,-3.6204 c -9.8579,-4.8872 -12.474,-9.9306 -9.3651,-18.0545 l 1.9454,-5.0838 -2.9083,-4.2654 c -3.4994,-5.1321 -3.5529,-5.0257 4.8894,-9.7375 11.9035,-6.6435 24.9406,-16.2813 30.1357,-22.2781 l 5.0545,-5.8345 11.7755,-2.1364 c 17.8336,-3.2354 26.9003,-3.8003 29.0965,-1.8128 0.9827,0.8894 6.9195,3.0981 13.1928,4.9083 l 11.4061,3.2912 4.4317,5.7072 4.4318,5.7073 -1.2977,6.1151 c -1.094,5.1554 -1.9952,6.7679 -5.7415,10.274 -5.0071,4.6862 -6.7679,7.6029 -7.75,12.8376 -0.476,2.5375 -3.5751,7.0963 -10.4345,15.3495 -8.2997,9.9861 -10.1135,12.8274 -12.1417,19.0193 l -2.3844,7.2794 -7.8201,3.8127 c -6.9461,3.3866 -8.0369,4.3029 -9.7599,8.1981 l -1.9398,4.3853 2.664,2.1385 c 1.4653,1.1761 3.1069,2.4331 3.6481,2.7933 2.7288,1.8158 -4.7873,15.3095 -9.0314,16.2143 -3.7875,0.8074 -4.1228,1.1551 -4.7208,4.8947 -0.354,2.2141 -1.6127,5.3865 -2.7971,7.0498 l -2.1534,3.0242 2.1884,1.4531 c 4.0093,2.6621 3.0351,8.2719 -2.0617,11.8719 -6.3108,4.4574 -6.2687,4.4506 -7.4938,1.2048 z m -127.0872,-19.6176 c -1.7628,-1.5029 -2.6624,-4.98 -2.2749,-8.7926 0.058,-0.5735 2.0184,-1.5555 4.3559,-2.1823 2.3375,-0.6268 5.003,-1.43 5.9234,-1.785 4.913,-1.8946 4.3931,9.5836 -0.5712,12.6107 -3.836,2.3392 -4.8408,2.3593 -7.4332,0.1492 z m 67.2792,-2.9435 c 0.9971,-4.0359 1.7353,-4.4607 6.4429,-3.708 7.0402,1.1258 5.7176,5.7812 -1.7636,6.208 l -5.3726,0.3065 z m -16.4482,-5.081 c -1.6525,-0.2253 -3.0084,-1.423 -4,-3.5332 -0.825,-1.7558 -2.7245,-3.7732 -4.2212,-4.4831 -1.6398,-0.7778 -3.4924,-3.0341 -4.6616,-5.6773 -1.256,-2.8395 -3.3981,-5.3513 -6.0734,-7.1217 -2.6105,-1.7275 -3.9324,-3.258 -3.5884,-4.1545 0.2995,-0.7806 0.5446,-2.2825 0.5446,-3.3375 0,-5.3512 7.9838,-2.4852 16.2453,5.8318 9.997,10.0639 13.4432,23.5235 5.7547,22.4755 z m 9.1717,-4.9559 c -2.3739,-6.4445 -2.0266,-7.2366 3.4573,-7.8856 8.244,-0.9756 11.5629,8.3969 4.3028,12.1513 -4.5587,2.3573 -5.5137,1.8324 -7.7601,-4.2657 z m 24.3014,-2.4207 c -4.6549,-2.343 -13.8272,-18.7164 -14.9167,-26.6279 -0.3241,-2.3534 -1.8181,-6.4799 -3.32,-9.1699 l -2.7308,-4.8911 2.3746,-3.2118 c 2.0761,-2.8081 2.2416,-3.645 1.3166,-6.6589 -1.9935,-6.4954 1.2813,-11.6305 8.4385,-13.232 3.2256,-0.7218 6.3769,-1.5088 7.0028,-1.7489 0.6547,-0.2511 2.2566,2.4904 3.771,6.4537 2.5483,6.6688 2.8231,6.9811 8.5501,9.7184 6.4276,3.0721 5.9239,2.1032 7.6065,14.6283 0.5321,3.9612 1.0814,4.8293 3.9089,6.1776 5.1155,2.4395 5.3251,7.5268 0.504,12.2345 -1.9901,1.9433 -5.1199,6.637 -6.9551,10.4305 -4.2202,8.7236 -7.4798,9.9599 -15.5504,5.8975 z m -83.9731,-2.748 -3,-0.6624 5.8883,-3.7953 c 6.5648,-4.2313 7.8023,-3.9523 9.5536,2.1542 l 0.9185,3.2026 -5.1802,-0.1183 c -2.8491,-0.065 -6.5302,-0.4164 -8.1802,-0.7808 z"
         id="path5" /><path
         style="display:inline;fill:#daaa44;fill-opacity:1"
         d="m 3274.838,-704.74812 c -1.3738,-1.3738 -0.6612,-3.4957 1.0625,-3.1638 0.9625,0.1854 1.75,0.9684 1.75,1.74 0,1.5789 -1.7642,2.472 -2.8125,1.4238 z m 296.9417,-31.9896 c -2.5223,-4.0324 -3.3771,-6.3791 -3.0052,-8.25 0.7617,-3.8311 -4.4798,-8.7972 -7.5505,-7.1538 -1.7461,0.9344 -2.5968,0.7728 -4.7193,-0.8968 -1.4241,-1.1202 -2.9099,-1.8385 -3.3018,-1.5963 -0.392,0.2423 -3.9199,0.5507 -7.8398,0.6854 -5.592,0.1921 -6.9024,0.5157 -6.0838,1.5021 0.5739,0.6915 0.7531,1.727 0.3983,2.3011 -0.9564,1.5475 -5.0989,1.2646 -6.5179,-0.4452 -0.6797,-0.819 -1.7347,-1.1806 -2.3446,-0.8037 -0.6098,0.3769 -2.7132,0.5694 -4.6741,0.4278 -2.3042,-0.1663 -4.4364,0.4194 -6.0279,1.6561 -1.3544,1.0524 -4.1382,2.7005 -6.1863,3.6626 -3.8052,1.7874 -5.8237,6.3743 -4.4175,10.0386 0.3182,0.8292 0.1203,1.5076 -0.4398,1.5076 -2.2647,0 -6.8188,-3.1091 -7.4453,-5.0829 -2.6856,-8.4618 -10.4743,-14.8695 -13.5129,-11.117 -2.2036,2.7213 -6.6386,1.3318 -7.5679,-2.3711 -1.2084,-4.8146 -14.3929,-11.7059 -14.3929,-7.5229 0,3.559 -20.9108,0.2629 -25.45,-4.0115 -0.5225,-0.4921 -2.914,-0.8946 -5.3145,-0.8946 -3.5891,0 -4.7984,-0.5156 -6.8063,-2.9019 -1.343,-1.596 -4.6889,-3.7099 -7.4354,-4.6975 -2.7772,-0.9987 -4.9938,-2.4207 -4.9938,-3.2038 0,-0.7745 -1.128,-2.7487 -2.5066,-4.3871 -1.3787,-1.6385 -2.2837,-3.34 -2.0111,-3.7811 0.2727,-0.4411 -0.1743,-1.3581 -0.9933,-2.0378 -0.8189,-0.6796 -1.489,-1.8753 -1.489,-2.6569 0,-0.7817 -1.125,-2.6345 -2.5,-4.1174 -1.375,-1.4828 -2.5,-3.2339 -2.5,-3.8912 0,-0.6573 -0.5103,-2.4619 -1.1342,-4.0102 -1.5383,-3.8182 -1.7172,-11.9067 -0.517,-23.383 0.954,-9.1229 0.3131,-16.5447 -1.9254,-22.2975 -0.5861,-1.5061 -0.3596,-1.756 1.1754,-1.2975 6.2175,1.8572 7.4012,1.8853 7.4012,0.1756 0,-2.3958 -3.1827,-7.5127 -4.6729,-7.5127 -0.683,0 -2.4985,-1.575 -4.0344,-3.5 -1.7039,-2.1355 -3.6699,-3.5 -5.0427,-3.5 -1.2375,0 -2.25,-0.3975 -2.25,-0.8834 0,-0.4859 -0.853,-1.1065 -1.8957,-1.3791 -2.37,-0.6198 -5.6291,-7.29713 -5.2634,-10.78373 0.3124,-2.9774 -1.2281,-4.6074 -4.8274,-5.108 -3.3336,-0.4636 -4.522,-6.7115 -2.202,-11.5767 1.2126,-2.5429 1.2985,-3.5592 0.3785,-4.4791 -0.92,-0.92 -1.19,-0.5908 -1.19,1.451 0,3.2222 -1.9203,4.6526 -3.1931,2.3783 -0.5114,-0.9138 -1.3521,-1.4004 -1.8683,-1.0813 -0.5162,0.319 -0.9386,-0.4017 -0.9386,-1.6015 0,-1.8257 0.2447,-1.9784 1.5,-0.9365 2.527,2.0972 1.67,-0.034 -1.5554,-3.868 -1.6805,-1.9976 -3.8759,-4.6215 -4.8787,-5.8309 -1.0029,-1.2093 -2.1144,-3.3583 -2.47,-4.7754 -0.8824,-3.5158 -4.1638,-6.6288 -6.1741,-5.8573 -0.893,0.3426 -1.9679,0.066 -2.3887,-0.6149 -0.6059,-0.9804 -1.1899,-0.9725 -2.8079,0.038 -1.8339,1.1453 -2.6041,0.7629 -7.5276,-3.7369 -5.4561,-4.9866 -16.2683,-9.8552 -20.4519,-9.2093 -2.7122,0.4188 -11.2266,-3.2411 -12.328,-5.2991 -2.1125,-3.9473 -7.9177,-1.9231 -7.9177,2.7609 0,2.8793 -0.3501,3.393 -2.3129,3.393 -1.2721,0 -3.6063,1.35 -5.1871,3 -3.4777,3.6299 -6.5065,3.9802 -6.4849,0.75 0.019,-2.8918 2.3062,-9.4713 3.8171,-10.9822 0.6423,-0.6423 1.1678,-1.7783 1.1678,-2.5245 0,-2.1327 -3.4648,0.6778 -6.5783,5.3361 -1.4412,2.1563 -4.0382,5.4145 -5.7711,7.2405 -2.9806,3.1408 -3.0519,3.3926 -1.3231,4.6669 2.4223,1.7853 0.5268,4.8425 -5.8349,9.4111 -2.4709,1.7745 -4.4926,3.7113 -4.4926,4.304 0,1.3034 -2.6627,3.5171 -5.8101,4.8304 -1.2706,0.5302 -2.025,1.4254 -1.6764,1.9895 0.3532,0.5714 -1.5018,1.9428 -4.1898,3.0974 -2.653,1.1396 -6.7596,2.9805 -9.1258,4.0908 -2.3663,1.1104 -4.465,1.8549 -4.664,1.6544 -0.8943,-0.901 3.8694,-5.316 5.8284,-5.4018 3.7126,-0.1625 15.6377,-12.4337 15.6377,-16.0914 0,-3.6257 -3.0179,-6.9533 -4.7423,-5.2289 -0.82,0.82 -1.8242,0.5572 -3.7958,-0.9937 -2.4239,-1.9066 -2.8833,-1.9669 -4.7938,-0.6287 -3.0821,2.1588 -3.3559,1.9421 -3.925,-3.1069 -0.5982,-5.3075 -2.1044,-7.4517 -3.9431,-5.613 -2.793,2.793 -10.8562,-2.4729 -8.8233,-5.7623 0.6123,-0.9907 0.3217,-1.8409 -0.9285,-2.7165 -4.5257,-3.17 0.2282,-18.5286 5.4127,-17.4872 1.9494,0.3915 10.3701,-3.4234 11.7738,-5.334 1.364,-1.8566 0.7775,-6.2634 -1.1497,-8.6392 l -1.9151,-2.3608 -2.3504,2.2039 c -1.6124,1.5121 -2.8017,1.9251 -3.7878,1.3156 -0.7906,-0.4886 -2.6796,-0.6399 -4.1978,-0.3363 -4.5257,0.9051 -7.5234,-0.4361 -9.9046,-4.4316 -1.2298,-2.0634 -2.8845,-4.2823 -3.677,-4.9309 -1.1901,-0.9739 -0.235,-1.9812 5.4835,-5.7838 7.1065,-4.7254 10.2642,-5.1654 10.2642,-1.4299 0,2.5424 5.271,2.5589 10.2275,0.032 3.7435,-1.9085 3.5494,-4.1389 -0.3601,-4.1389 -0.9529,0 -2.0182,-0.9 -2.3674,-2 -0.3986,-1.2561 -1.513,-2 -2.9959,-2 -2.5273,0 -5.5041,-2.3598 -5.5041,-4.3633 0,-0.6712 -2.025,-3.20765 -4.5,-5.63665 -6.2998,-6.1828 -5.9208,-10 0.9929,-10 2.4392,0 7.5071,-5.0764 7.5071,-7.5196 0,-2.9313 4.1896,-8.4804 6.4027,-8.4804 1.2128,0 3.7522,-1.5963 5.6435,-3.5476 2.5229,-2.6031 4.0165,-3.4025 5.6095,-3.0027 1.5826,0.3972 2.8547,-0.2676 4.693,-2.4523 2.8142,-3.3445 5.8715,-2.9997 10.3163,1.1636 1.4547,1.3625 2.8489,1.8106 4.25,1.366 2.9041,-0.9218 5.8672,0.2112 6.6013,2.5241 0.5111,1.6103 1.5434,1.9489 5.9419,1.9489 3.1679,0 7.0886,0.8009 9.6826,1.978 2.3976,1.0879 5.7952,1.9879 7.5502,2 1.7551,0.012 3.4355,0.4175 3.7342,0.9009 0.2988,0.4834 2.5347,0.6545 4.9686,0.3802 3.6439,-0.4108 5.0153,-0.055 7.7658,2.0138 1.8373,1.3819 5.2893,2.8316 7.6713,3.2214 2.5024,0.4095 5.6689,1.8706 7.5,3.4606 6.6763,5.7971 9.7725,6.0558 11.5472,0.9649 0.9287,-2.6641 1.4268,-2.9198 5.6859,-2.9198 3.7601,0 5.5955,-0.6808 9.436,-3.5 5.6085,-4.117 5.4354,-4.0893 8.8379,-1.4129 l 2.6533,2.0871 2.5773,-3.0871 c 3.3719,-4.0391 4.1022,-3.9075 6.4574,1.1629 2.2947,4.9401 3.8117,5.3086 6.2914,1.5285 l 1.7853,-2.7214 1.7552,2.9714 c 2.0567,3.4817 3.2591,3.7541 4.152,0.9406 0.8001,-2.5207 6.7648,-1.8359 10.0547,1.1544 1.1354,1.0321 2.442,1.8765 2.9035,1.8765 0.4615,0 3.2437,1.1375 6.1827,2.5279 2.9389,1.3904 7.1387,2.6801 9.3327,2.8661 6.1449,0.521 7.1957,1.8469 5.43,6.8515 -1.7149,4.8606 -1.0458,5.6353 5.0866,5.88995 5.8131,0.2414 9.7415,-0.19435 11.8303,-1.31225 1.34,-0.7171 2.3078,-0.5558 3.5817,0.5971 0.96,0.86875 2.2351,1.57965 2.8334,1.57965 0.5983,0 2.0588,1.2375 3.2455,2.75 l 2.1576,2.75 -0.5818,-2.5 c -0.32,-1.375 -0.8581,-4.99745 -1.1958,-8.04985 l -0.6139,-5.5498 4.2852,-1.4142 c 3.9865,-1.3157 4.3609,-1.2816 5.3715,0.4896 1.5829,2.7742 6.8492,7.5476 8.0528,7.2991 0.5684,-0.1174 2.2779,0.6165 3.7988,1.6309 1.5209,1.0143 3.9959,1.75265 5.5,1.6407 1.5041,-0.112 4.0847,-0.1885 5.7347,-0.1702 5.6735,0.063 7.3498,-0.7266 7.6839,-3.6201 0.3658,-3.1693 2.9198,-4.0738 6.3377,-2.2446 1.917,1.026 2.1799,1.7955 1.7381,5.089 -0.3162,2.35785 -0.033,4.46825 0.7233,5.37885 1.7775,2.1418 3.2371,0.7987 2.5469,-2.3436 -0.4823,-2.19585 0.1329,-3.37705 3.4414,-6.60775 2.2158,-2.1637 4.0287,-4.6876 4.0287,-5.6089 0,-3.7584 -3.1948,-9.0197 -7.0103,-11.5447 -2.1943,-1.4521 -4.0036,-3.1429 -4.0207,-3.7573 -0.017,-0.6144 -0.2227,-3.8956 -0.4569,-7.2914 -0.4387,-6.362 2.2853,-14.0915 5.3229,-15.1041 1.9182,-0.6393 8.165,6.5543 8.165,9.4026 0,1.365 1.125,4.1375 2.5,6.161 3.0353,4.4667 3.062,4.9877 0.4008,7.8204 l -2.0993,2.2346 4.0993,2.7128 c 2.2546,1.492 4.1061,2.9904 4.1146,3.3299 0.064,2.5724 1.8516,3.2504 4.3149,1.6364 3.1202,-2.0445 3.9098,-1.6406 6.1911,3.1669 1.2244,2.5803 1.4147,3.8351 0.6216,4.0995 -2.4941,0.8313 -1.1197,7.48375 2.5013,12.10675 1.3519,1.7261 6.3522,-7.13095 6.3595,-11.26465 0,-1.1703 0.8855,-3.574 1.9632,-5.3415 1.1398,-1.8694 1.5566,-3.4628 0.9963,-3.8091 -0.5298,-0.3274 -0.9633,-2.1948 -0.9633,-4.1498 v -3.5545 l 4.75,0.7109 c 5.3504,0.8008 6.25,1.1867 6.25,2.6813 0,0.5759 1.125,1.932 2.5,3.0135 3.297,2.5934 3.2669,6.1509 -0.065,7.6689 -2.8654,1.3056 -2.7229,3.1465 0.6789,8.7705 4.2083,6.95745 -7.1537,19.27605 -12.9451,14.03485 -1.0045,-0.9091 -2.8035,-1.6529 -3.9977,-1.6529 -2.4773,0 -2.4897,0.032 -1.2614,3.263 2.3484,6.1768 -4.67,10.2076 -10.0507,5.7724 -4.3675,-3.6001 -5.9421,-2.7752 -2.1861,1.1452 1.6824,1.7561 3.7397,2.8194 5.455,2.8194 6.703,0 0.9554,11.9019 -5.8123,12.0359 -2.0769,0.041 -8.5093,4.9515 -6.4962,4.9591 2.7355,0.01 0.8044,4.47 -2.1645,4.9985 -8.2294,1.465 -17.0409,32.9422 -9.4665,33.817 2.336,0.2697 2.9681,1.1501 4.8187,6.7112 2.0492,6.158 2.2378,6.3793 4.9719,5.8324 4.2042,-0.8408 9.9708,1.4209 14.7485,5.7846 2.3252,2.1237 4.852,3.8613 5.6151,3.8613 0.7632,0 2.4607,0.8303 3.7724,1.8452 1.3865,1.0728 4.244,1.9102 6.826,2.0003 5.453,0.1904 6.0242,1.0297 6.0435,8.8803 0.016,6.3385 0.7081,8.0881 5.9534,15.042 3.1482,4.17363 9.0972,1.7645 9.0472,-3.6639 -0.017,-1.7921 -2.509,-12.7178 -3.47,-15.211 -0.4411,-1.1441 0.2612,-1.9719 2.4372,-2.8732 9.9219,-4.1098 12.2097,-16.9736 4.4633,-25.096 l -2.457,-2.5762 2.1161,-4.7839 c 1.4268,-3.2255 1.8878,-5.6439 1.4151,-7.4238 -0.3856,-1.4519 -0.8218,-4.6648 -0.9694,-7.1398 -0.1476,-2.475 -0.5973,-5.9172 -0.9993,-7.6494 -0.9701,-4.1797 1.7195,-5.0957 8.4236,-2.869 4.0382,1.3413 5.264,1.4049 6.9376,0.3597 2.3401,-1.4614 5.5968,0.9619 9.2615,6.8916 1.1105,1.7969 2.8274,3.2671 3.8152,3.2671 2.4046,0 4.5266,2.723 4.6033,5.9073 0.2236,9.2777 0.3357,9.584 4.9074,13.4055 l 4.4699,3.7364 3.7977,-3.431 c 2.566,-2.3182 4.1961,-4.9207 5.0263,-8.0246 1.5928,-5.9554 2.3926,-5.7931 5.6983,1.1564 2.3767,4.9962 5.6084,11.5284 8.6511,17.4864 0.4878,0.955 0.8868,2.8976 0.8868,4.3167 0,2.9467 4.3842,9.1828 7.4438,10.5882 4.4222,2.0313 7.0453,3.8992 6.809,4.8487 -0.3273,1.3151 2.8786,5.01 4.347,5.01 2.0118,0 3.2082,2.3586 3.5378,6.9746 0.3401,4.7617 -3.5885,9.0254 -8.316,9.0254 -1.0355,0 -3.2262,1.5302 -4.8683,3.40053 l -2.9857,3.4005 -13.1279,-0.089 -13.1278,-0.089 -2.2121,2.7743 c -1.2167,1.5258 -3.2595,3.298 -4.5395,3.9382 -1.2801,0.6401 -4.5192,4.2374 -7.1982,7.994 -4.9319,6.9158 -4.3965,8.0271 0.8441,1.7518 6.2963,-7.5395 19.2588,-12.2034 21.0371,-7.5692 0.7636,1.9898 -1.3786,4.4873 -3.849,4.4873 -1.1352,0 -1.7769,0.5263 -1.5238,1.25 0.2403,0.6875 1.2392,1.1037 2.2196,0.9248 1.4018,-0.2557 1.6581,0.1508 1.1998,1.9033 -1.3241,5.0633 5.7614,11.6627 11.0397,10.2823 6.2876,-1.6442 3.4448,3.0221 -3.2873,5.3959 -2.7197,0.959 -5.9569,2.7562 -7.1936,3.9937 -2.6805,2.682 -4.0836,2.8438 -4.9556,0.5713 -0.4487,-1.1692 0.514,-2.6799 3.1719,-4.9775 3.6408,-3.1472 2.9416,-6.5614 -0.7277,-3.5533 -0.6805,0.5579 -2.3623,1.1707 -3.7373,1.3619 -1.375,0.1912 -3.088,1.1351 -3.8067,2.0976 -0.7186,0.9625 -1.9658,1.75 -2.7714,1.75 -4.4928,0 -14.2638,10.7436 -11.3876,12.5211 2.151,1.3294 0.767,3.2931 -2.7843,3.9504 -6.8671,1.2711 -10.25,3.4397 -10.25,6.571 0,2.805 -2.211,5.9575 -4.1784,5.9575 -0.5695,0 -0.7546,0.732 -0.4113,1.6267 0.92,2.3974 -1.2844,4.7226 -3.0713,3.2397 -1.1718,-0.9726 -1.351,-0.2128 -1.1173,4.7376 0.1531,3.2428 0.7193,6.2115 1.2583,6.5971 0.9158,0.6552 -7.6215,9.7435 -9.2475,9.8443 -5.9356,0.3678 -13.9225,14.0258 -11.718,20.0382 6.5835,17.9552 4.8328,26.62 -2.8853,14.2809 z m 34.3708,-95.3645 c 0,-0.55 -0.1984,-1 -0.4409,-1 -0.2426,0 -0.7191,0.45 -1.0591,1 -0.3399,0.55 -0.1414,1 0.441,1 0.5825,0 1.059,-0.45 1.059,-1 z m 3.493,-3.9886 c 0.3503,-0.5668 -0.051,-0.7345 -0.941,-0.393 -1.7324,0.6648 -2.0494,1.3816 -0.611,1.3816 0.5176,0 1.2159,-0.4449 1.552,-0.9886 z m -3.493,30.4886 c 0,-0.275 0.225,-0.5 0.5,-0.5 0.275,0 0.5,0.225 0.5,0.5 0,0.275 -0.225,0.5 -0.5,0.5 -0.275,0 -0.5,-0.225 -0.5,-0.5 z m 48.5464,-27.4251 c -0.6937,-1.1224 1.4374,-6.0749 2.6142,-6.0749 1.1768,0 1.0506,2.7514 -0.1606,3.5 -0.55,0.3399 -0.9931,1.1539 -0.9846,1.809 0.01,0.7271 0.3776,0.6181 0.9456,-0.2801 0.5117,-0.809 1.2792,-1.1221 1.7057,-0.6956 0.4265,0.4265 0.1135,1.1941 -0.6956,1.7057 -1.8731,1.1846 -2.7094,1.1933 -3.4247,0.036 z m -9.0464,-3.0749 c -0.3519,-0.5694 0.5093,-1 2,-1 1.4908,0 2.352,0.4306 2,1 -0.3399,0.55 -1.2399,1 -2,1 -0.76,0 -1.66,-0.45 -2,-1 z m 38.5,-4.8641 c 0,-2.1159 -4.9244,-3.1359 -15.1395,-3.1359 -6.2307,0 -6.3606,-0.073 -4.9506,-2.7636 0.5004,-0.955 2.6096,-5.7032 4.6871,-10.5514 3.4442,-8.03753 6.5417,-11.87973 8.2224,-10.19903 0.3564,0.3564 -0.3748,2.42523 -1.6249,4.59733 -1.9539,3.3949 -2.0569,4.0322 -0.7337,4.54 0.8466,0.3248 1.5392,1.2175 1.5392,1.9837 0,1.4657 0.641,1.6768 5.4974,1.8105 2.4068,0.066 3.0208,0.5388 3.1166,2.3991 0.1198,2.3243 2.2606,7.2165 3.5969,8.2191 0.3926,0.2947 0.4534,1.5322 0.1349,2.75 -0.72,2.7535 -4.3458,3.0456 -4.3458,0.3502 z m -285.5,-10 c -1.65,-1.0211 -4.1862,-3.208 -5.6361,-4.8598 -1.4498,-1.6517 -3.6727,-3.7293 -4.9396,-4.6167 -3.2597,-2.2831 -1.8678,-2.9882 3.2248,-1.6334 3.0944,0.8231 5.5654,2.5027 8.5561,5.8157 6.0501,6.702 5.4351,9.4036 -1.2052,5.2942 z m 248.75,-3.6268 c -1.7875,-0.7769 -3.25,-1.6593 -3.25,-1.9609 0,-1.3025 3.9757,-0.3839 6.1393,1.4185 2.7736,2.3107 1.6601,2.5197 -2.8893,0.5424 z m -74.75,-23.50913 c -0.3399,-0.55 0.057,-1 0.882,-1 0.825,0 1.7781,0.45 2.118,1 0.34,0.55 -0.057,1 -0.8819,1 -0.825,0 -1.7781,-0.45 -2.1181,-1 z m -205.5,-4.4267 c 0,-1.9355 0.513,-2.5733 2.0696,-2.5733 1.5718,0 1.9927,0.5386 1.75,2.2398 -0.4742,3.3237 -3.8196,3.6158 -3.8196,0.3335 z m -127.8081,-6.664 c 0.5495,-1.6662 4.8081,-2.5332 4.8081,-0.9789 0,0.5883 -0.4132,1.0696 -0.9182,1.0696 -0.505,0 -1.6914,0.2967 -2.6364,0.6593 -1.206,0.4628 -1.5797,0.2392 -1.2535,-0.75 z m 127.3338,-4.8597 c -2.7346,-5.2881 -1.8982,-8.2558 1.0004,-3.5496 1.355,2.2 2.466,4.5625 2.4688,5.25 0.01,2.2523 -1.9121,1.3106 -3.4692,-1.7004 z m 213.9743,-5.0496 c 0.34,-0.55 1.0415,-1 1.5591,-1 0.5175,0 0.9409,0.45 0.9409,1 0,0.55 -0.7015,1 -1.559,1 -0.8574,0 -1.2809,-0.45 -0.941,-1 z m -216.7724,-4.9339 c -0.2972,-1.1364 -0.159,-2.0661 0.307,-2.0661 1.4331,0 2.2473,2.1181 1.2122,3.1532 -0.6386,0.6386 -1.1668,0.2606 -1.5192,-1.0871 z m -6.7276,-2.5661 c -1.0195,-1.2285 -0.9512,-1.5 0.3776,-1.5 0.8923,0 1.6224,0.675 1.6224,1.5 0,0.825 -0.1699,1.5 -0.3775,1.5 -0.2077,0 -0.9378,-0.675 -1.6225,-1.5 z m -77,-1.2553 c 0,-2.2394 6.6401,-4.6251 7.3953,-2.6571 0.5375,1.4007 -3.4623,4.4124 -5.8601,4.4124 -0.8443,0 -1.5352,-0.7899 -1.5352,-1.7553 z m 80.75,0.1835 c -0.4125,-0.4188 -0.75,-1.9016 -0.75,-3.2949 0,-1.8207 0.3052,-2.2282 1.0847,-1.4487 0.5966,0.5966 0.9341,2.0793 0.75,3.295 -0.1841,1.2156 -0.6722,1.8675 -1.0847,1.4486 z m -6.3088,-3.8609 c -1.4977,-1.1054 -1.6709,-1.7069 -0.7584,-2.6328 1.6467,-1.6707 4.3172,-0.4125 4.3172,2.0341 0,2.399 -0.9118,2.5524 -3.5588,0.5987 z m -123.7589,-17.2185 c -0.8139,-0.8138 2.5172,-3.3436 3.5567,-2.7011 0.4186,0.2586 0.761,1.1187 0.761,1.9113 0,1.4449 -3.0963,2.0113 -4.3177,0.7898 z m 348.3177,-16.7898 c 0,-1.3426 0.4029,-2.69 0.8953,-2.9943 1.1766,-0.7272 2.2008,2.0213 1.4664,3.9353 -0.8993,2.3434 -2.3617,1.7607 -2.3617,-0.941 z m 49.5759,-1.8092 c -2.7082,-1.0141 -5.4082,-2.4282 -6,-3.1424 -0.5917,-0.7143 -2.5607,-1.882 -4.3754,-2.5949 -1.9811,-0.7783 -4.5373,-3.1376 -6.3972,-5.9044 -5.9118,-8.7944 -10.4042,-12.1809 -12.2332,-9.2215 -0.7591,1.2283 -7.2603,2.3465 -9.5034,1.6345 -5.3766,-1.7064 -1.6287,-9.8112 4.1066,-8.8804 6.2235,1.0099 11.25,-1.9217 9.4067,-5.4862 -1.4027,-2.7125 -1.3626,-3.0398 0.5869,-4.7831 1.1509,-1.0293 3.1582,-3.5484 4.4606,-5.598 l 2.368,-3.7266 -2.4853,-5.61965 c -1.3669,-3.0908 -3.5893,-6.4881 -4.9386,-7.5495 -1.3493,-1.0614 -2.7352,-2.8177 -3.0796,-3.903 -0.4991,-1.5726 -1.0053,-1.7703 -2.4934,-0.9739 -2.8501,1.5254 -3.2118,1.2468 -2.513,-1.9351 0.5278,-2.403 0.2009,-3.2249 -1.8051,-4.5393 -1.3473,-0.8828 -4.1152,-4.1137 -6.151,-7.1798 -3.5855,-5.4001 -7.3615,-6.6382 -4.6194,-1.5146 1.4703,2.7473 0.048,3.5057 -4.9813,2.656 -2.6176,-0.4422 -4.5112,-0.2494 -5.4846,0.5584 -1.9036,1.5799 -17.5046,-1.5376 -18.7909,-3.755 -0.5549,-0.9565 -1.6822,-1.2499 -3.2705,-0.8512 -3.8951,0.9776 -8.3828,-3.3199 -8.3828,-8.0276 0,-0.159 1.1884,-0.2043 2.6408,-0.1008 4.1196,0.2937 3.8334,-1.8221 -0.4753,-3.5146 -10.1496,-3.9869 -1.9678,-32.7971 9.3139,-32.7971 5.3234,0 5.2278,-0.3223 1.8641,6.2832 -2.9464,5.7859 -2.2864,18.9124 1.1415,22.7001 2.0764,2.2944 1.9032,3.6314 -0.7075,5.46 -2.211,1.5486 -2.206,1.5567 0.9547,1.5567 4.7756,0 5.8885,-6.1327 1.7165,-9.4592 -2.6123,-2.083 -2.7252,-2.459 -1.5738,-5.2387 0.6822,-1.6471 0.9714,-4.0763 0.6427,-5.3984 -1.6782,-6.7487 7.2507,-16.1827 13.768,-14.5469 3.5924,0.9016 7.4151,11.5374 5.6652,15.762 -1.8721,4.5196 4.7201,4.3015 9.7278,-0.3218 3.0457,-2.812 10.1284,-0.6195 12.2009,3.7768 2.228,4.7264 4.9732,7.125 9.6548,8.4358 4.5061,1.2616 6.8571,3.7173 8.029,8.3862 0.5281,2.1043 1.2566,2.6101 3.7952,2.6351 6.2319,0.061 14.743,15.3621 10.2008,18.3383 -5.3984,3.5371 -0.7999,11.8663 7.7248,13.9918 1.5719,0.3919 3.2804,1.78365 3.9243,3.19685 0.6307,1.3843 2.9616,3.3103 5.216,4.3099 7.5488,3.3471 7.9162,9.5727 0.891,15.0987 -1.2734,1.0017 -2.3154,2.544 -2.3154,3.4274 0,1.0061 -0.8534,1.6061 -2.2843,1.6061 -2.3548,0 -5.7157,-4.3331 -5.7157,-7.3691 0,-3.615 -6.4296,-3.6264 -10.8744,-0.019 -0.2059,0.1672 0.8066,1.7074 2.25,3.4229 1.4435,1.7154 2.6244,3.509 2.6244,3.9857 0,0.4767 1.3876,1.6796 3.0834,2.6732 4.4044,2.5805 8.4342,14.3066 4.9166,14.3066 -0.55,0 -1,0.9481 -1,2.107 0,1.6292 -0.3967,1.9348 -1.75,1.3476 -0.9625,-0.4177 -3.2788,-0.9728 -5.1474,-1.2336 l -3.3975,-0.4743 2.7299,3.5792 c 4.0743,5.3416 3.2009,6.6931 -2.8591,4.4239 z m -63.9092,-0.4165 c -1.8968,-1.8969 -0.022,-4.955 3.5934,-5.8625 3.4971,-0.8777 3.7071,1.2719 0.4255,4.3549 -2.4963,2.3451 -2.9945,2.532 -4.0189,1.5076 z m -349.6667,-10.3333 c -1.9825,-1.5508 -2.145,-1.9602 -0.7851,-1.9778 0.9431,-0.012 2.1964,0.8778 2.7851,1.9778 1.3157,2.4583 1.1428,2.4583 -2,0 z m 342,0 c 0,-1.5774 -0.6666,-2 -3.1549,-2 -2.918,0 -3.0407,-0.1315 -1.6328,-1.75 0.8964,-1.0306 1.7932,-4.8158 2.1812,-9.2072 0.6102,-6.9052 1.8441,-9.6321 3.8088,-8.4178 0.4388,0.2711 0.7977,1.3491 0.7977,2.3954 0,1.344 1.1008,2.2124 3.75,2.9583 4.7553,1.3388 7.6603,3.7859 8.9699,7.556 0.5666,1.6309 1.5838,2.837 2.2604,2.6802 2.1802,-0.5052 4.1981,1.8652 2.9096,3.4177 -1.57,1.8919 -3.5477,1.7095 -5.7911,-0.5339 -2.2208,-2.2207 -6.0988,-3.6653 -6.0988,-2.2719 0,1.3682 -5.5849,7.1732 -6.9012,7.1732 -0.6043,0 -1.0988,-0.9 -1.0988,-2 z m 34.1052,-39.2448 c -1.1883,-3.21235 0.6388,-7.65285 3.4379,-8.35535 3.2988,-0.8279 4.4569,0.2125 4.4569,4.0042 0,5.64505 -6.1602,9.04025 -7.8948,4.35115 z m -84.0774,-12.82775 c -6.2551,-2.8374 -6.4806,-3.7918 -1.7754,-7.5152 4.8438,-3.833 7.4092,-3.0026 9.6211,3.1144 2.2724,6.284 -0.3953,7.7804 -7.8457,4.4008 z m -61.4844,-1.7301 c -0.835,-3.8018 -2.0529,-4.8333 -6.741,-5.7093 -13.7607,-2.5714 -9.4864,-10.9496 5.601,-10.9786 3.0064,-0.01 5.0689,-0.4907 5.3313,-1.2533 0.7274,-2.1143 -4.8723,-3.5405 -13.0475,-3.3232 -8.6799,0.2307 -11.0103,-0.7973 -10.0929,-4.4523 0.3619,-1.442 -0.2897,-3.7928 -1.7588,-6.3453 -2.2477,-3.9055 -2.2723,-4.176 -0.6681,-7.3451 0.9161,-1.8096 1.9351,-4.5212 2.2646,-6.0258 0.4305,-1.9662 2.3522,-3.8504 6.8335,-6.6997 6.998,-4.4496 8.1891,-4.1641 8.1891,1.9625 0,4.63 0.7214,4.8878 4.1323,1.4768 2.3839,-2.3839 2.608,-2.4225 4.993,-0.8597 4.4426,2.9109 13.5547,4.5549 14.0849,2.5412 4.1438,-15.7399 16.2274,-3.0548 16.3181,17.1302 0.023,5.235 0.9111,6.5363 7.9231,11.6161 6.6355,4.8071 8.0771,8.0128 3.2872,7.3098 -3.6255,-0.5321 -6.4013,2.2401 -3.2458,3.2417 3.2012,1.016 2.6796,5.0143 -0.8447,6.4741 -2.3393,0.969 -3.4466,0.9231 -5.75,-0.2383 -1.5689,-0.7912 -4.1094,-1.74 -5.6455,-2.1086 -1.536,-0.3686 -3.0415,-1.3182 -3.3454,-2.1103 -0.4132,-1.0768 -1.3517,-0.593 -3.7189,1.917 -3.5374,3.7507 -8.1914,5.4403 -17.2852,6.2753 l -6.1424,0.564 z m -41.4927,-31.098 c -1.0974,-2.151 -3.4031,-5.0128 -5.1239,-6.3596 -3.0875,-2.4162 -3.1076,-2.4893 -1.5277,-5.5445 0.8805,-1.7027 1.6009,-4.2032 1.6009,-5.5566 0,-1.3534 0.9801,-5.0217 2.1779,-8.1518 2.0628,-5.3903 2.0947,-5.9153 0.6048,-9.9354 l -1.5731,-4.2443 6.5438,-1.2058 6.5437,-1.2057 3.1914,3.0932 c 3.0351,2.9417 3.4073,3.0435 7.6015,2.0783 l 4.41,-1.0149 4.2116,4.7239 c 5.3748,6.0285 5.4018,5.8981 -2.3278,11.2239 -7.2912,5.0236 -13.3838,12.1078 -13.3838,15.562 0,3.9871 -1.1342,5.4723 -6.1018,7.9896 l -4.8522,2.4588 z m 95.6056,-4.1645 c -1.5641,-2.7847 -3.9603,-5.5719 -5.325,-6.1937 -1.3647,-0.6218 -3.1341,-2.3929 -3.9319,-3.9358 l -1.4507,-2.8053 h 4.0066 c 5.1215,0 6.9177,-4.0786 3.0733,-6.9785 -4.5792,-3.4541 -0.077,-10.9421 4.7622,-7.9201 1.4293,0.8926 2.7135,0.9184 5.0564,0.1017 4.1012,-1.4297 5.985,1.1638 3.4617,4.7662 -1.4629,2.0886 -1.4593,2.7119 0.042,7.4752 3.4491,10.9416 3.3615,14.3064 -0.4572,17.572 -4.699,4.0184 -5.9725,3.7314 -9.2375,-2.0817 z m 17.9917,-9.1848 c -2.3396,-19.478 1.7649,-26.8927 11.9985,-21.6754 2.077,1.059 4.5813,1.9254 5.565,1.9254 2.3656,0 2.3164,0.309 -1.3936,8.7589 -2.8022,6.3821 -3.4818,7.2276 -5.6272,7 -2.119,-0.2249 -2.625,0.3661 -3.8456,4.4911 -2.1312,7.2022 -5.8049,6.9279 -6.6971,-0.5 z m 60.8065,-8.8222 c -2.9141,-4.6162 -3.2092,-7.933 -0.7045,-7.916 13.5211,0.092 22.8809,11.328 9.7012,11.6461 l -6.5423,0.1579 z m -103.9131,-1.4626 -2.8439,-3.7284 2.4013,-1.83 c 3.9698,-3.0252 7.7623,3.1657 4.5938,7.4989 -1.2101,1.6549 -1.5191,1.5105 -4.1512,-1.9405 z m -30.5661,-19.9652 c -0.5364,-1.375 -1.4109,-3.6166 -1.9434,-4.9814 -0.8153,-2.0895 -1.4333,-2.3883 -3.9134,-1.8923 -3.1269,0.6254 -9.1185,-2.1084 -9.1185,-4.1604 0,-18.1525 13.4521,-23.554 22.207,-8.9169 2.8849,4.8233 3.6364,5.451 6.5267,5.451 1.7965,0 3.6038,0.08 4.0163,0.1789 1.7641,0.4207 1.2096,-3.5874 -1.2348,-8.9267 l -2.6314,-5.7478 2.8081,-2.2473 c 3.9318,-3.1464 4.3081,-2.908 4.3081,2.7285 v 4.9856 l 5.9747,3.016 c 9.729,4.9111 4.8945,17.9551 -5.2283,14.1064 -1.5287,-0.5812 -2.9108,-0.6366 -3.2244,-0.1292 -3.6324,5.8773 -16.97,10.5773 -18.5467,6.5356 z m 94.2047,-0.3696 c -7.2265,-2.5408 -7.4506,-2.8909 -7.9034,-12.3437 -0.2183,-4.5577 -1.1097,-9.9665 -1.9809,-12.0196 -1.6521,-3.8933 -1.7975,-3.9297 -8.4971,-2.1222 -3.2542,0.8779 -7.3264,-6.9097 -5.2612,-10.0615 2.3705,-3.6179 5.0266,-3.076 10.659,2.1745 2.0819,1.9406 3.3672,2.3793 5.6397,1.9249 2.7871,-0.5575 3.0781,-0.2859 5.4813,5.1142 5.9415,13.3511 13.4469,16.978 23.1826,11.203 12.3222,-7.3093 27.9682,4.7816 19.5905,15.1392 -2.6963,3.3336 -32.2142,4.0487 -40.9105,0.9912 z m -21.353,-3.8593 c -3.5642,-3.7127 -3.5965,-3.8201 -2.0849,-6.9311 2.5416,-5.2305 6.0124,-5.0788 8.3457,0.3648 2.0304,4.7367 2.5179,9.2952 0.994,9.2952 -0.505,0 -1.5294,0.2345 -2.2763,0.5211 -0.7479,0.287 -2.985,-1.1734 -4.9785,-3.25 z m -19.4729,-5.2506 c -0.4908,-2.4542 -1.3089,-3.2006 -4.4293,-4.0408 l -3.8273,-1.0306 2.0849,-3.5336 c 1.7789,-3.0151 1.9074,-3.9232 0.8753,-6.1883 -1.3447,-2.9513 3.7389,-8.6224 6.9423,-7.7448 0.825,0.226 3.1608,0.705 5.1906,1.0644 4.7092,0.8338 7.2607,18.6788 3.2006,22.3842 -2.9648,2.7057 -9.4311,2.1191 -10.0371,-0.9105 z m -13.8189,-12.6073 c -1.9743,-3.0131 -1.8768,-3.1949 2.1459,-3.9994 3.7115,-0.7423 5.2259,2.4554 2.3817,5.0294 -2.2747,2.0586 -2.5441,1.9973 -4.5276,-1.03 z m -69.7461,0.4375 c -5.2952,-1.9364 4.4639,-21.8513 11.3866,-23.2359 4.4275,-0.8855 10.8243,-0.7564 10.8243,0.2184 0,7.9906 -2.3075,12.108 -8.6169,15.3749 -4.5228,2.3418 -6.6349,4.0855 -7.3183,6.0419 -1.0234,2.9294 -1.9771,3.1727 -6.2757,1.6007 z m 162.0271,-6.3549 c -1.3725,-3.0123 -7.5722,-3.4603 -13.5163,-0.9766 -6.0764,2.5388 -21.2999,-0.6317 -21.2999,-4.436 0,-3.1963 4.2261,-7.6257 8.2163,-8.6118 l 2.7162,-0.6713 -2.4027,-4.7414 c -2.3944,-4.7252 -2.3959,-4.7482 -0.4229,-6.7211 1.5877,-1.5878 1.7884,-2.483 1.0135,-4.5212 -2.1033,-5.5321 1.455,-14.4889 6.5254,-16.4253 6.2591,-2.3903 6.1225,-14.6921 -0.2092,-18.8407 -3.8844,-2.5452 -3.7258,-14.0908 0.1801,-13.1105 7.3324,1.8403 8.0642,1.7459 15.4736,-1.9954 l 7.4097,-3.7415 -6.8942,-2.3344 -6.8942,-2.3345 -3.8055,2.1388 -3.8056,2.1389 -6.8002,-2.9892 c -6.0071,-2.6406 -7.0789,-3.5415 -9.1894,-7.7245 l -2.3891,-4.7352 1.821,-5.3574 1.8211,-5.3574 -2.6819,-4.0526 c -3.418,-5.1649 -3.8239,-4.3482 4.568,-9.1917 12.3913,-7.1517 26.4078,-17.6529 30.4146,-22.7864 l 3.8354,-4.9141 11,-2.1022 c 18.6952,-3.5727 28.5333,-4.2528 30.4189,-2.1027 0.8821,1.0059 6.4443,3.1554 12.5811,4.862 11.8353,3.2912 19.4275,9.1167 19.4795,14.9467 0.057,6.3624 -2.2833,11.7122 -6.9371,15.86 -3.7659,3.3564 -5.0474,5.3955 -6.5874,10.4816 -1.5752,5.2027 -3.5389,8.2549 -11.1511,17.333 -7.7377,9.2276 -9.671,12.2551 -11.896,18.6288 l -2.6569,7.6104 -7.7418,3.7746 c -6.6849,3.2593 -8.0271,4.3617 -9.8311,8.0749 l -2.0893,4.3003 3.6165,3.1753 c 3.553,3.1196 3.5934,3.2391 2.3028,6.8084 -3.7275,10.3081 -3.7801,10.365 -10.5081,11.365 -1.5487,0.2301 -2.0731,1.1979 -2.324,4.2889 -0.1917,2.3628 -1.3885,5.3884 -2.9326,7.4144 l -2.6087,3.4228 2.1827,1.4492 c 4.0987,2.7214 3.0258,8.226 -2.3407,12.0086 l -4.5233,3.1883 z m -127.2151,-19.595 c -4.9252,-3.8741 -3.7042,-8.1879 2.9074,-10.272 6.1476,-1.9378 7.4915,-1.6032 7.4915,1.8651 0,7.2393 -5.8603,11.977 -10.3989,8.4069 z m 67.3989,-1.819 c 0,-2.6013 1.46,-4.0818 4.0252,-4.0818 4.287,0 5.8157,0.8927 5.2477,3.0646 -0.5342,2.0428 -9.2729,3.0014 -9.2729,1.0172 z m -7.2561,-11.0696 -2.5143,-5.8272 4.0275,-1.0223 c 6.7212,-1.706 12.5848,5.7433 7.4929,9.5194 -5.1473,3.8172 -6.3625,3.457 -9.0061,-2.6699 z m -13.1938,1.0671 c -1.3613,-2.1564 -3.437,-4.226 -4.6126,-4.5992 -1.238,-0.3929 -2.9614,-2.5407 -4.0948,-5.103 -1.2419,-2.8074 -3.3983,-5.3783 -5.8999,-7.0337 -5.9642,-3.9469 -5.7619,-8.3434 0.3838,-8.3434 5.4975,0 19.6644,13.4117 19.6845,18.6351 0.01,1.5757 0.2899,4.5524 0.6308,6.6149 0.8918,5.3956 -2.6404,5.2966 -6.0918,-0.1707 z m 36.3228,-4.3306 c -4.2085,-2.5093 -12.3862,-17.6615 -13.4836,-24.9831 -0.3516,-2.3461 -1.9234,-6.5537 -3.493,-9.3502 l -2.8537,-5.0845 2.381,-3.2273 c 2.0641,-2.7978 2.2494,-3.7042 1.3919,-6.8097 -1.3349,-4.8347 1.3418,-11.0842 5.0961,-11.8981 1.4237,-0.3087 3.8931,-0.974 5.4877,-1.4785 4.8445,-1.5328 5.3592,-1.1531 7.6113,5.6145 2.1571,6.4819 2.2217,6.5536 8.4673,9.3855 l 6.2937,2.8537 0.7058,7.9729 c 0.6887,7.7808 0.7857,8.0111 4.0215,9.5541 5.4441,2.5961 5.7079,6.8702 0.7443,12.0592 -2.1796,2.2785 -5.4134,7.1803 -7.1863,10.8928 l -3.2234,6.75 -4.1667,-0.044 c -2.4169,-0.026 -5.69,-0.9525 -7.7939,-2.207 z m -79.3662,-1.6668 -5.9933,-0.5819 5.3103,-3.3973 c 4.5342,-2.9007 5.5102,-3.193 6.6776,-2 2.0668,2.1123 3.04,6.9374 1.3572,6.7292 -0.7472,-0.092 -4.0555,-0.43 -7.3518,-0.75 z"
         id="path6" /></g></g></svg>
