<?xml version="1.0" encoding="UTF-8" standalone="no"?>
<!-- Created with Inkscape (http://www.inkscape.org/) -->

<svg
   version="1.1"
   id="svg1"
   width="654"
   height="480.23334"
   viewBox="0 0 654 480.23334"
   sodipodi:docname="europe oves.svg"
   inkscape:version="1.3.2 (091e20e, 2023-11-25, custom)"
   xml:space="preserve"
   xmlns:inkscape="http://www.inkscape.org/namespaces/inkscape"
   xmlns:sodipodi="http://sodipodi.sourceforge.net/DTD/sodipodi-0.dtd"
   xmlns="http://www.w3.org/2000/svg"
   xmlns:svg="http://www.w3.org/2000/svg"><defs
     id="defs1" /><sodipodi:namedview
     id="namedview1"
     pagecolor="#ffffff"
     bordercolor="#000000"
     borderopacity="0.25"
     inkscape:showpageshadow="2"
     inkscape:pageopacity="0.0"
     inkscape:pagecheckerboard="0"
     inkscape:deskcolor="#d1d1d1"
     showgrid="false"
     inkscape:zoom="0.11313708"
     inkscape:cx="618.71843"
     inkscape:cy="1471.666"
     inkscape:window-width="1920"
     inkscape:window-height="1009"
     inkscape:window-x="-8"
     inkscape:window-y="-8"
     inkscape:window-maximized="1"
     inkscape:current-layer="g1" /><g
     inkscape:groupmode="layer"
     inkscape:label="Image"
     id="g1"
     style="display:inline"
     transform="translate(-10878.87,1080.4977)"><g
       id="g15"
       inkscape:label="Oceania"
       style="display:inline"
       transform="translate(-59.662137,216.55146)"><path
         style="fill:#000000"
         d="m 11486.264,-819.04913 c -1.184,-1.3828 -2.95,-2 -5.722,-2 -8.652,0 -1.882,-13.8692 10.49,-21.4914 6.232,-3.8394 14.441,-11.8012 15.512,-15.0443 0.6,-1.8174 1.713,-3.8214 2.475,-4.4534 0.761,-0.632 1.664,-2.4213 2.005,-3.9763 1.156,-5.2625 4.137,-6.843 6.183,-3.2782 1.498,2.6102 2.031,2.879 3.964,1.9983 7.371,-3.3585 5.484,9.5529 -2.639,18.0567 -0.825,0.8637 -1.5,2.9469 -1.5,4.6295 0,2.3417 -0.405,2.9915 -1.726,2.7709 -3.536,-0.5908 -7.501,2.5208 -8.242,6.4684 -2.509,13.3741 -14.959,23.1421 -20.8,16.3198 z m -138.982,-26.0801 c -1.992,-1.1601 -4.699,-5.9901 -5.84,-10.4199 -0.425,-1.65 -1.502,-4.9845 -2.392,-7.41 -2.164,-5.8972 1.236,-8.0972 7.309,-4.7283 1.914,1.0619 3.303,1.0422 7.831,-0.1111 8.261,-2.1041 11.541,3.5287 6.842,11.7494 -0.786,1.375 -1.445,3.7533 -1.465,5.2852 -0.03,2.4169 -0.285,2.6515 -1.924,1.7743 -1.585,-0.8486 -2.086,-0.5332 -3.121,1.9649 -1.3,3.139 -3.925,3.8262 -7.24,1.8955 z m 181.838,-17.4301 c -1.869,-1.4148 -1.87,-1.537 -0.06,-5.5542 2.172,-4.8174 1.462,-6.696 -3.354,-8.8661 -4.035,-1.8179 -4.229,-5.1351 -0.461,-7.8799 2.999,-2.1845 4.169,-13.062 1.5,-13.9515 -0.668,-0.2226 -1.214,-1.5064 -1.214,-2.8528 0,-1.3464 -0.638,-2.6927 -1.417,-2.9917 -2.128,-0.8166 -6.807,-8.3663 -6.187,-9.9823 1.197,-3.1197 8.369,-0.385 9.206,3.5102 0.304,1.4182 1.028,3.5607 1.609,4.7611 0.58,1.2003 0.784,2.8878 0.453,3.75 -0.364,0.9503 -0.07,1.5674 0.76,1.5674 0.749,0 1.621,-0.675 1.938,-1.5 1.014,-2.6427 2.427,-1.6198 4.209,3.0472 2.406,6.3006 7.512,8.4974 11.456,4.9287 3.036,-2.7475 5.28,-0.8047 4.53,3.9211 -0.358,2.2567 -1.08,4.253 -1.604,4.4363 -0.524,0.1834 -0.953,1.166 -0.953,2.1836 0,1.2751 -0.855,1.9486 -2.75,2.1667 -2.202,0.2534 -2.816,0.896 -3.082,3.2267 -0.439,3.8486 -5.711,13.0848 -8.901,15.5942 -2.989,2.3514 -3.19,2.3686 -5.679,0.4853 z m -203.51,-24.066 c -2.982,-1.2259 -5.937,-2.0315 -6.566,-1.7901 -3.374,1.2947 -11.512,-6.6344 -11.512,-11.2162 0,-4.1743 -3.856,-9.1678 -7.624,-9.8749 -3.022,-0.5668 -3.128,-0.7386 -2.115,-3.4222 1.673,-4.4333 -0.09,-7.5875 -1.884,-3.3704 -1.122,2.6362 -1.949,3.25 -4.38,3.25 -3.539,0 -3.638,-0.3695 -0.997,-3.7271 1.1,-1.3984 2,-3.3268 2,-4.2853 0,-0.9585 0.675,-2.3029 1.5,-2.9876 1.487,-1.2345 2.085,-4 0.865,-4 -0.35,0 -1.656,1.0125 -2.902,2.25 -1.247,1.2375 -3.886,3.8034 -5.865,5.7019 -1.979,1.8985 -3.598,3.811 -3.598,4.25 0,2.021 -2.032,0.5014 -2.61,-1.9519 -1.042,-4.4246 -4.515,-10.0494 -6.529,-10.5761 -1.15,-0.3006 -1.861,-1.3862 -1.861,-2.8397 0,-2.79 -2.33,-4.4392 -7.627,-5.3994 -2.13,-0.3862 -5.223,-1.3867 -6.873,-2.2235 -4.275,-2.1678 -13.458,-1.5862 -21.248,1.3458 -3.569,1.3436 -8.349,2.4457 -10.621,2.4491 -2.272,0 -5.481,0.7397 -7.131,1.6364 -1.65,0.8966 -4.229,2.2726 -5.731,3.0577 -1.502,0.7851 -3.512,2.7487 -4.466,4.3636 -2.045,3.4629 -1.101,3.242 -14.327,3.3501 -9.325,0.076 -10.85,0.3423 -13.385,2.336 -1.573,1.2375 -3.405,2.25 -4.071,2.25 -0.665,0 -2.025,0.9 -3.02,2 -4.759,5.2591 -23.549,-0.6711 -21.982,-6.9376 0.353,-1.4093 1.28,-2.9222 2.062,-3.3621 2.03,-1.143 1.946,-13.9679 -0.112,-17.109 -0.843,-1.2861 -1.801,-4.7577 -2.13,-7.7148 -0.329,-2.9571 -1.83,-8.0765 -3.337,-11.3765 -5.964,-13.0657 -8.443,-28.9562 -3.081,-19.75 2.121,3.6411 0.97,0.3408 -1.503,-4.3098 -1.89,-3.5545 -2.414,-5.6736 -1.952,-7.8989 0.346,-1.6727 0.855,-4.6163 1.131,-6.54127 1.03,-7.1931 1.434,-8.2025 3.035,-7.5883 0.85,0.3265 2.744,-0.3317 4.208,-1.4627 9.55,-7.3786 10.561,-7.949 14.099,-7.949 2.014,0 4.09,-0.3871 4.612,-0.8603 0.972,-0.8802 7.052,-2.9223 15.95,-5.3569 5.555,-1.52 11.5,-8.6715 11.5,-13.8343 0,-2.3054 5.397,-9.0296 6.321,-7.8756 0.188,0.2349 1.142,1.5521 2.119,2.9271 l 1.776,2.5 -0.645,-2.8228 c -0.564,-2.4669 -0.272,-2.9636 2.315,-3.9403 1.711,-0.6459 2.91,-1.7992 2.839,-2.7324 -0.174,-2.3092 5.36,-8.9598 8.025,-9.6438 1.237,-0.3176 2.25,-0.9787 2.25,-1.4691 0,-0.4904 0.81,-0.8916 1.8,-0.8916 0.99,0 2.292,-0.4917 2.893,-1.0926 1.26,-1.2605 4.101,-0.03 8.634,3.7412 2.807,2.3352 9.436,3.3945 8.142,1.3011 -0.782,-1.2645 2.227,-7.9497 3.578,-7.9497 0.524,0 0.953,-0.9096 0.953,-2.0214 0,-1.1858 1.033,-2.4924 2.5,-3.1605 1.375,-0.6265 2.5,-1.5169 2.5,-1.9786 0,-0.4617 2.201,-0.8395 4.892,-0.8395 4.383,0 4.956,-0.2596 5.519,-2.5 0.616,-2.4576 2.932,-3.3728 4.031,-1.5937 0.308,0.4985 2.719,1.2032 5.357,1.5661 2.638,0.3628 5.41,1.0387 6.159,1.5019 0.795,0.491 2.143,0.3592 3.233,-0.3161 1.474,-0.913 2.059,-0.8543 2.763,0.2775 0.698,1.1207 1.206,1.1763 2.318,0.2535 1.124,-0.933 1.778,-0.7915 3.101,0.671 1.498,1.6543 1.514,1.9888 0.152,3.1189 -0.839,0.6962 -1.525,1.8376 -1.525,2.5364 0,0.6988 -0.675,1.5296 -1.5,1.8461 -0.825,0.3166 -1.5,1.2871 -1.5,2.1567 0,0.8696 -0.724,2.9804 -1.608,4.6907 -1.716,3.3183 3.338,9.6538 7.781,9.7535 0.921,0.021 2.946,1.1009 4.5,2.4007 1.555,1.2997 3.817,2.6728 5.026,3.0512 1.21,0.3784 3.62,2.015 5.356,3.6368 6.912,6.4572 13.161,-3.1295 12.781,-19.6098 -0.221,-9.6097 3.389,-23.4414 6.118,-23.4414 1.203,0 6.34,12.1976 7.58,18 1.003,4.696 1.484,5.466 3.288,5.2676 4.173,-0.4591 9.254,7.7298 8.319,13.407 -0.107,0.646 0.275,1.4643 0.848,1.8184 1.654,1.0227 4.097,7.6612 3.505,9.5269 -0.297,0.9338 0.146,2.2664 0.983,2.9614 0.838,0.695 1.523,1.9065 1.523,2.6922 0,0.7857 1.462,2.1002 3.25,2.9211 7.893,3.6247 10.717,6.5746 14.901,15.5629 1.414,3.0378 2.643,4.475 3.535,4.1327 1.888,-0.7246 6.314,4.2961 6.314,7.1631 0,1.48407 1.049,3.03147 2.847,4.19847 6.925,4.495 11.153,11.5363 11.153,18.5754 0,2.2534 0.731,6.4154 1.624,9.249 1.509,4.7868 1.503,5.6438 -0.09,12.0879 -0.941,3.8148 -2.06,8.9609 -2.486,11.4359 -1.042,6.0532 -3.336,10.9933 -6.464,13.9243 -1.423,1.3334 -2.587,2.9151 -2.587,3.5148 0,0.5998 -0.9,2.7697 -2,4.8221 -1.1,2.0524 -2,4.2111 -2,4.7971 0,0.5861 -1.142,3.4803 -2.539,6.4317 -1.396,2.9514 -2.802,7.761 -3.125,10.6881 -0.683,6.1975 -3.057,8.7655 -8.136,8.7997 -3.792,0.025 -7.884,1.9111 -10.556,4.8632 -3.128,3.4568 -6.948,3.648 -11.584,0.58 -3.694,-2.4447 -4.255,-2.5596 -5.824,-1.1917 -3.81,3.3224 -5.533,3.5068 -11.158,1.1945 z m -37.729,-20.9577 c -0.759,-1.9777 1.312,-3.5849 4.151,-3.2218 1.248,0.1596 2,1.0076 2,2.2557 0,2.6386 -5.196,3.4547 -6.151,0.9661 z m 196.984,-52.1328 c 0.367,-0.3666 0.967,-0.3666 1.334,0 0.366,0.3667 0.07,0.6667 -0.667,0.6667 -0.733,0 -1.033,-0.3 -0.667,-0.6667 z m -12.333,-49.05177 c -4.587,-2.687 -12,-9.7075 -12,-11.3653 0,-2.0937 4.007,-0.6664 8.109,2.8887 2.415,2.0927 5.876,4.839 7.69,6.103 3.097,2.1571 3.775,4.1202 1.639,4.7382 -0.516,0.1491 -2.963,-0.915 -5.438,-2.3646 z m 118.5,-5.2815 c -0.34,-0.55 -0.141,-1 0.441,-1 0.582,0 1.059,0.45 1.059,1 0,0.55 -0.198,1 -0.441,1 -0.243,0 -0.719,-0.45 -1.059,-1 z m -45.394,-20.1565 c -2.42,-0.8952 -2.617,-1.822 -0.856,-4.0247 2.912,-3.6428 8.75,-2.5638 8.75,1.6174 0,2.6107 -4.026,3.8383 -7.894,2.4073 z m 8.351,-8.9125 c -0.939,-1.5196 3.272,-4.8784 6.154,-4.9088 1.717,-0.018 2.022,0.4452 1.634,2.4778 -0.299,1.5648 -1.152,2.5 -2.28,2.5 -0.991,0 -2.468,0.2557 -3.282,0.5682 -0.814,0.3125 -1.816,0.026 -2.226,-0.6372 z m -72.457,-3.9395 c 0,-1.7581 0.249,-1.8528 2,-0.7594 1.1,0.6869 2,1.5908 2,2.0085 0,0.4177 -0.9,0.7594 -2,0.7594 -1.336,0 -2,-0.6667 -2,-2.0085 z m -4.928,-6.2415 c -0.475,-1.2375 -0.498,-2.64 -0.05,-3.1166 1.084,-1.1562 5.377,2.9133 4.526,4.29 -1.13,1.8295 -3.568,1.1904 -4.475,-1.1734 z m -190.736,-7.3172 c -1.014,-2.6428 1.548,-4.2727 3.199,-2.0355 0.771,1.0436 1.164,2.2811 0.874,2.75 -0.872,1.4103 -3.43,0.9615 -4.073,-0.7145 z m 286.664,0.5672 c 0,-0.55 0.45,-1 1,-1 0.55,0 1,0.45 1,1 0,0.55 -0.45,1 -1,1 -0.55,0 -1,-0.45 -1,-1 z m -536.667,-13.6667 c 0.367,-0.3666 0.967,-0.3666 1.334,0 0.366,0.3667 0.07,0.6667 -0.667,0.6667 -0.733,0 -1.033,-0.3 -0.667,-0.6667 z m 214.334,-2 c -2.631,-2.6303 2.155,-6.5561 5.056,-4.1481 1.091,0.9053 1.028,1.4325 -0.353,2.9582 -1.727,1.9081 -3.529,2.3641 -4.703,1.1899 z m 196.028,-7.0333 c -0.993,-0.2574 -1.631,-0.9927 -1.417,-1.634 0.608,-1.8235 4.156,-1.3662 4.532,0.584 0.343,1.7821 0.07,1.875 -3.115,1.05 z m -75.312,-1.3172 c -0.602,-0.6016 -3.875,-1.4869 -7.274,-1.9674 -6.719,-0.9496 -9.154,-2.6038 -14.06,-9.5508 -3.485,-4.9344 -11.785,-7.8531 -14.853,-5.2228 -0.933,0.7998 -2.476,1.7306 -3.429,2.0684 -1.131,0.4005 -1.509,1.1992 -1.088,2.2966 2.144,5.587 -12.481,6.2645 -17.733,0.8215 -3.26,-3.3791 -3.716,-3.5423 -8.446,-3.0244 -9.861,1.0796 -9.907,1.0652 -8.938,-2.7946 0.41,-1.6338 1.562,-2.8534 3.049,-3.2264 3.812,-0.957 0.257,-10.6106 -4.848,-13.1622 -4.521,-2.2598 -10.05,-4.2207 -11.9,-4.2207 -1.041,0 -4.3,-1.3581 -7.241,-3.0179 -4.705,-2.6555 -5.499,-2.8356 -6.607,-1.5 -2.001,2.4115 -4.014,1.772 -4.665,-1.4821 -0.33,-1.65 -0.994,-3 -1.475,-3 -1.79,0 -0.796,-2.7325 1.375,-3.7795 2.101,-1.0133 2.118,-1.0917 0.25,-1.1846 -2.359,-0.1174 -5.5,-2.3037 -5.5,-3.8287 0,-0.5898 -0.9,-1.3581 -2,-1.7072 -3.637,-1.1543 -2.404,-4.4336 2.478,-6.5933 4.125,-1.8248 4.712,-1.8597 7.45,-0.4437 1.635,0.8453 3.654,1.537 4.487,1.537 2.068,0 3.759,3.4591 3.057,6.2545 -1.713,6.8271 5.876,11.3248 10.621,6.2943 1.841,-1.9518 3.698,-3.5488 4.127,-3.5488 0.429,0 1.68,-0.9 2.78,-2 2.558,-2.5578 6.518,-2.542 11.346,0.045 2.099,1.125 5.692,2.43 7.985,2.9 14.18,2.9069 36.669,13.8244 36.669,17.8014 0,1.2509 1.776,2.4935 5.914,4.1369 6.984,2.774 9.376,7.1164 3.919,7.1164 -2.824,0 -2.179,2.5315 1.417,5.5561 1.788,1.5037 3.791,4.0187 4.452,5.5889 0.661,1.5703 1.894,2.855 2.741,2.855 0.847,0 2.781,1.2892 4.298,2.8648 1.518,1.5756 3.797,3.1891 5.066,3.5854 1.422,0.4443 2.185,1.3592 1.99,2.3853 -0.376,1.9697 -3.855,2.707 -5.414,1.1473 z m -101.654,-52.587 c -0.332,-0.3322 -1.195,-0.3678 -1.916,-0.079 -0.798,0.3192 -0.561,0.5562 0.604,0.6042 1.054,0.043 1.644,-0.193 1.312,-0.5253 z m -177.396,51.9375 c 0.367,-0.3666 0.967,-0.3666 1.334,0 0.366,0.3667 0.07,0.6667 -0.667,0.6667 -0.733,0 -1.033,-0.3 -0.667,-0.6667 z m 88.944,-2.7243 c -4.765,-2.3803 -5.245,-4.9376 -1.016,-5.4256 2.716,-0.3134 8.739,3.029 8.739,4.8495 0,2.3425 -3.642,2.6141 -7.723,0.5761 z m 24.746,0.9186 c -1.411,-1.7 0.953,-6.5276 3.196,-6.5276 0.646,0 2.838,-1.1532 4.871,-2.5627 2.851,-1.9753 4.679,-2.491 7.976,-2.25 5.878,0.4296 5.976,2.263 0.233,4.3737 -2.639,0.9703 -6.149,2.9913 -7.799,4.4913 -3.913,3.5566 -6.864,4.4185 -8.477,2.4753 z m 231.477,-1.3567 c -2.685,-0.5184 -4.5,-2.0921 -4.5,-3.9017 0,-1.5536 4.549,-1.0549 6.344,0.6954 1.485,1.4484 0.242,3.6091 -1.844,3.2063 z m 4.358,-4.3863 c -0.89,-0.7065 -1.906,-2.5221 -2.257,-4.0346 -0.891,-3.8358 1.772,-3.6788 3.378,0.1992 1.574,3.7989 1.058,5.5644 -1.121,3.8354 z m -279.262,-1.5218 c -0.405,-0.4055 -1.493,-0.743 -2.417,-0.75 -2.303,-0.017 -2.769,-4.0725 -0.565,-4.9183 0.946,-0.363 2.13,-0.2505 2.63,0.25 0.506,0.5052 2.446,0.5638 4.361,0.1317 1.899,-0.4281 5.26,-0.5358 7.47,-0.2393 6.132,0.8225 4.816,3.3125 -2.575,4.8702 -7.307,1.5401 -7.971,1.5889 -8.904,0.6557 z m 21.904,-1.1409 c -3.705,-0.7924 -3.793,-2.2149 -0.241,-3.9173 1.953,-0.9361 3.245,-1.0055 4.656,-0.25 1.075,0.575 4.233,1.0454 7.019,1.0454 5.965,0 6.623,1.4737 1.316,2.9474 -4.062,1.1281 -8.036,1.1825 -12.75,0.1745 z m -39.873,-1.5535 c -1.58,-0.698 -6.178,-1.3319 -10.217,-1.4087 -4.508,-0.086 -9.663,-0.9421 -13.348,-2.2175 -3.302,-1.1428 -7.255,-1.9565 -8.783,-1.8083 -4.784,0.4642 -12.701,-1.3087 -14.568,-3.262 -0.984,-1.0295 -2.645,-1.8719 -3.691,-1.8719 -2.834,0 -3.402,-1.7685 -1.499,-4.6723 2.125,-3.2439 12.74,-2.9894 17.346,0.416 3.738,2.7634 11.933,3.896 13.469,1.8613 0.977,-1.2948 1.808,-1.3591 5.164,-0.3996 2.2,0.629 6.7,1.2242 10,1.3227 7.932,0.2368 7.938,0.2388 6.5,1.9719 -0.685,0.825 -2.566,1.5 -4.181,1.5 -1.875,0 -2.692,0.3964 -2.26,1.0961 0.373,0.6029 2.019,0.8993 3.659,0.6586 1.727,-0.2534 4.501,0.3372 6.593,1.4039 1.987,1.0128 4.165,1.8414 4.841,1.8414 2.102,0 2.66,2.1161 0.997,3.7791 -1.449,1.4496 -1.763,1.4279 -3.618,-0.2509 -1.816,-1.6437 -2.031,-1.663 -2.031,-0.1832 0,1.9196 -0.478,1.944 -4.373,0.2234 z m 411.873,-0.5684 c -0.34,-0.55 -0.141,-1 0.441,-1 0.582,0 1.059,0.45 1.059,1 0,0.55 -0.198,1 -0.441,1 -0.243,0 -0.719,-0.45 -1.059,-1 z m -125.25,-1.2205 c -2.214,-1.0678 -3.151,-3.7795 -1.306,-3.7795 0.52,0 2.207,1.1108 3.75,2.4684 2.967,2.6103 1.681,3.3004 -2.444,1.3111 z m -210,-2.4418 c -2.027,-0.8179 -1.437,-2.0739 1.296,-2.7599 3.3,-0.8283 4.931,0.1421 3.38,2.0112 -1.196,1.4415 -2.458,1.6436 -4.676,0.7487 z m 31.75,-1.2857 c 0,-2.1266 2.506,-3.8791 3.758,-2.6276 0.819,0.8191 -0.953,3.8074 -2.579,4.3494 -0.657,0.219 -1.179,-0.5429 -1.179,-1.7218 z m 19.47,-6.1006 c -0.368,-0.5946 -0.378,-2.627 -0.02,-4.5163 0.804,-4.2861 4.554,-5.0561 4.554,-0.9351 0,1.375 -0.45,2.5 -1,2.5 -0.55,0 -1,0.6485 -1,1.441 0,1.8885 -1.677,2.89 -2.53,1.5104 z m 132.182,-2.3407 c -2.76,-3.6194 -3.456,-6.6107 -1.537,-6.6107 1.557,0 7.988,7.1912 7.565,8.46 -0.761,2.2879 -3.517,1.4424 -6.028,-1.8493 z m -38.902,-2.2692 c -6.431,-2.6676 -4.86,-4.3415 4.076,-4.3415 8.177,0 12.174,-2.0287 12.174,-6.1785 0,-1.088 1.398,-1.7413 4.693,-2.1928 5.077,-0.696 6.737,0.087 5.733,2.7041 -0.751,1.9574 -2.008,2.1523 -3.046,0.4725 -0.466,-0.7531 -1.163,0.066 -1.887,2.2154 -2.337,6.9425 -13.552,10.7184 -21.743,7.3208 z m -283.775,-4.0241 c -1.361,-1.3369 -5.901,-5.5539 -10.088,-9.3711 -6.025,-5.4922 -8.347,-8.4648 -11.13,-14.2459 -1.934,-4.018 -4.944,-8.7332 -6.689,-10.4783 -1.745,-1.7451 -3.852,-5.1658 -4.682,-7.6016 -1.062,-3.1189 -2.316,-4.7631 -4.239,-5.5595 -1.501,-0.6219 -3.6,-2.7458 -4.663,-4.7197 -1.063,-1.9739 -3.069,-4.2943 -4.458,-5.1563 -8.412,-5.2199 -13.121,-14.0643 -6.776,-12.7269 1.788,0.3768 5.384,0.921 7.992,1.2094 4.397,0.4863 9.758,4.4475 9.758,7.2098 0,0.3981 2.054,2.0221 4.564,3.6087 2.51,1.5867 5.466,4.1514 6.568,5.6994 1.102,1.5481 2.82,2.8146 3.818,2.8146 0.998,0 4.004,2.0208 6.682,4.4907 2.677,2.4699 6.311,5.182 8.076,6.0268 3.971,1.9018 4.803,3.1615 3.292,4.9825 -1.457,1.7556 -0.541,3.3439 2.623,4.5467 1.335,0.5078 2.683,1.7176 2.993,2.6883 1.3,4.0595 2.818,6.2641 4.303,6.2497 1.335,-0.013 1.358,-0.1565 0.145,-0.9238 -1.19,-0.7529 -1.211,-1.1784 -0.127,-2.4847 2.123,-2.5588 4.722,-1.8197 6.964,1.981 2.617,4.4351 2.772,7.6434 0.349,7.2366 -1.506,-0.2528 -1.82,0.777 -2.25,7.3768 -0.585,8.9716 -0.57,8.9492 -6.209,9.3041 -3.476,0.2188 -4.835,-0.2115 -6.816,-2.1573 z m 11.025,-19.8174 c 0,-0.275 -0.225,-0.5 -0.5,-0.5 -0.275,0 -0.5,0.225 -0.5,0.5 0,0.275 0.225,0.5 0.5,0.5 0.275,0 0.5,-0.225 0.5,-0.5 z m 86.639,20.8057 c -0.382,-0.3819 -0.399,-3.3069 -0.04,-6.5 0.617,-5.4475 0.527,-5.8057 -1.453,-5.8057 -2.887,0 -3.84,-4.1808 -1.895,-8.3121 2.037,-4.325 3.795,-9.4761 4.672,-13.6879 1.479,-7.1082 6.828,-11.3446 11.587,-9.1766 4.689,2.1365 16.277,1.7233 18.826,-0.6711 4.758,-4.4701 6.786,-1.9711 2.56,3.1553 l -3.008,3.6498 -12.361,-0.5711 c -11.697,-0.5405 -12.418,-0.4624 -13.444,1.4555 -2.231,4.1688 2.516,10.7344 5.686,7.865 2.143,-1.939 11.229,-3.5405 11.229,-1.9791 0,1.4093 -4.843,6.0877 -7.016,6.7774 -1.664,0.528 -1.608,0.7973 0.67,3.2559 1.366,1.4741 2.732,3.9209 3.036,5.4372 0.303,1.5163 1.172,3.2722 1.931,3.9018 1.523,1.2646 1.873,3.9 0.518,3.9 -0.474,0 -0.647,1.125 -0.384,2.5 0.361,1.8889 0.05,2.5 -1.255,2.5 -1.316,0 -1.616,-0.6103 -1.248,-2.5356 0.46,-2.4104 0.393,-2.453 -1.365,-0.862 -2.171,1.9645 -4.887,0.4696 -4.887,-2.6896 0,-1.0134 -0.887,-2.3171 -1.971,-2.8973 -1.561,-0.8355 -1.842,-1.7025 -1.348,-4.1691 0.481,-2.4064 0.304,-3.0082 -0.779,-2.6478 -1.021,0.3395 -1.449,2.5754 -1.576,8.2159 -0.226,10.0085 -2.785,13.7936 -6.687,9.8912 z m -31.434,-11.5733 c -0.822,-2.1788 -1.571,-2.8059 -2.791,-2.3377 -0.917,0.3519 -2.231,0.1724 -2.919,-0.3989 -0.866,-0.7187 -2.102,-0.7154 -4.012,0.011 -1.518,0.5772 -2.982,0.8277 -3.253,0.5567 -0.271,-0.2711 -1.284,-0.069 -2.251,0.4481 -1.335,0.7142 -1.869,0.5174 -2.218,-0.8167 -0.339,-1.2966 -1.591,-1.8027 -4.772,-1.9296 -4.963,-0.1979 -5.952,-1.2861 -5.974,-6.5714 -0.01,-2.9632 -0.696,-4.4284 -3.09,-6.6148 -1.691,-1.5447 -2.969,-3.4318 -2.84,-4.1936 0.13,-0.7619 -0.241,-2.533 -0.824,-3.9358 -1.963,-4.7246 2.082,-13.5627 5.075,-11.0897 3.097,2.5584 8.664,2.4774 8.664,-0.126 0,-3.0907 1.894,-4.7098 7.827,-6.6901 3.328,-1.111 5.472,-2.7046 7.649,-5.686 2.192,-3.0022 4.194,-4.483 7.274,-5.3799 2.337,-0.6807 4.25,-1.7418 4.25,-2.3581 0,-5.5247 13.415,-12.5712 14.686,-7.7137 0.274,1.0483 2.707,2.9545 5.406,4.2361 5.646,2.6807 5.981,3.4902 2.132,5.1563 -1.817,0.7861 -2.656,1.807 -2.427,2.9517 0.244,1.2231 -0.284,1.75 -1.755,1.75 -1.158,0 -2.395,0.7875 -2.75,1.75 -0.356,0.9625 -1.084,2.0433 -1.619,2.4017 -0.568,0.3807 -0.08,1.7879 1.177,3.3848 1.183,1.5033 2.15,3.7134 2.15,4.9113 0,1.1979 1.334,3.4561 2.964,5.0181 3.411,3.2671 3.134,4.5341 -0.988,4.5341 -3.332,0 -4.976,2.2817 -4.976,6.9043 0,2.1858 -0.807,3.6323 -2.881,5.166 -2.187,1.6166 -2.999,3.1692 -3.367,6.4386 -0.631,5.597 -3.678,9.766 -8.532,11.6726 l -3.891,1.5284 z m 73.995,-0.9324 c -2.233,-2.2329 -1.335,-3.8 2.178,-3.8 3.498,0 6.276,2.1336 5.149,3.9562 -0.881,1.4255 -5.851,1.3196 -7.327,-0.1562 z m 25.609,0.1529 c -0.93,-0.5424 -3.922,-1.0365 -6.649,-1.0979 -5.878,-0.1325 -7.69,-1.0305 -6.794,-3.3662 0.996,-2.5955 13.968,-1.7544 16.082,1.0428 2.846,3.7647 1.327,5.7345 -2.639,3.4213 z m -143.629,-5.2029 c 0.21,-1.4768 1.007,-2.25 2.32,-2.25 1.313,0 2.11,0.7732 2.32,2.25 0.262,1.8457 -0.155,2.25 -2.32,2.25 -2.165,0 -2.582,-0.4043 -2.32,-2.25 z m 106.487,-5.4167 c -1.36,-1.3596 -0.595,-2.3333 1.833,-2.3333 2.793,0 3.353,1.4588 0.918,2.393 -1.958,0.7516 -1.94,0.752 -2.751,-0.06 z m -161.031,-1.8404 c -1.825,-1.8252 -2.132,-4.068 -0.68,-4.9657 1.446,-0.8938 4.568,4.3484 3.328,5.5884 -0.684,0.684 -1.544,0.4817 -2.648,-0.6227 z m 232.614,0.8448 c -0.687,-0.2774 -1.25,-0.9482 -1.25,-1.4906 0,-1.4071 4.261,-0.5981 4.755,0.9029 0.414,1.2571 -1.183,1.5248 -3.505,0.5877 z m -51.59,-1.8952 c 0.329,-0.8566 1.252,-1.3066 2.051,-1 0.799,0.3067 1.641,0.5575 1.871,0.5575 0.23,0 0.418,0.45 0.418,1 0,0.55 -1.111,1 -2.469,1 -1.824,0 -2.312,-0.4067 -1.871,-1.5575 z m 50.32,-3.9667 c -0.696,-0.8382 -0.995,-1.7938 -0.666,-2.1235 1.024,-1.024 3.686,0.5042 3.686,2.1163 0,1.9586 -1.398,1.962 -3.02,0.01 z m -48.671,-2.7258 c -1.687,-2.6061 -3.133,-11.2095 -2.183,-12.9846 1.022,-1.9096 3.394,-2.3511 4.347,-0.8091 0.325,0.526 1.248,0.7043 2.051,0.3963 1.823,-0.6997 3.142,2.3814 1.656,3.8678 -0.771,0.7708 -0.778,1.6619 -0.02,3.0702 0.96,1.7931 0.8,1.934 -1.658,1.4641 -2.604,-0.4977 -2.697,-0.3745 -2.172,2.8626 0.549,3.3839 -0.493,4.4862 -2.016,2.1327 z m 246.691,0.25 c 0,-0.7333 0.3,-1.0333 0.667,-0.6667 0.366,0.3667 0.366,0.9667 0,1.3334 -0.367,0.3666 -0.667,0.067 -0.667,-0.6667 z m -438.429,-8.5714 c -1.904,-1.9047 -2.059,-4.4286 -0.271,-4.4286 1.855,0 3.7,2.0943 3.7,4.2 0,2.2178 -1.349,2.3078 -3.429,0.2286 z m 34.929,-5.2224 c -7.231,-4.0009 -11.5,-7.3662 -11.5,-9.0655 0,-0.8158 -0.723,-2.2817 -1.606,-3.2576 -0.883,-0.976 -2.198,-4.8839 -2.922,-8.6844 -1.45,-7.6101 -7.968,-18.5561 -12.196,-20.4826 -2.63,-1.1983 -2.615,-1.1259 -1.204,-5.7227 2.488,-8.1057 2.249,-22.2907 -0.484,-28.7843 -1.394,-3.3117 -2.827,-7.9761 -3.185,-10.3652 -0.358,-2.3891 -1.319,-5.8008 -2.135,-7.5815 l -1.484,-3.2376 -2.527,1.9876 c -1.39,1.0932 -3.116,1.9876 -3.835,1.9876 -0.72,0 -1.994,0.979 -2.832,2.1755 -1.569,2.2391 -6.59,1.3836 -6.59,-1.1227 0,-0.5445 -0.746,-0.7036 -1.659,-0.3536 -1.422,0.5458 -1.555,0.1497 -0.935,-2.7814 1.847,-8.7303 1.808,-9.3508 -0.839,-13.2365 -1.43,-2.1004 -2.324,-4.2662 -1.986,-4.8131 0.761,-1.2313 -2.403,-4.8682 -4.236,-4.8682 -0.74,0 -1.345,-0.4465 -1.345,-0.9923 0,-0.5457 -1.295,-2.1464 -2.878,-3.5569 -1.586,-1.4127 -3.12,-3.9989 -3.415,-5.7577 -0.295,-1.7562 -0.848,-3.9806 -1.229,-4.9431 -0.655,-1.6565 3.026,-1.75 68.915,-1.75 42.071,0 69.607,0.3666 69.607,0.9268 0,1.2008 -5.759,4.0732 -8.167,4.0732 -1.023,0 -2.642,0.4387 -3.597,0.9748 -0.955,0.5361 -3.479,1.6612 -5.608,2.5001 -3.216,1.2665 -3.668,1.7724 -2.664,2.9814 0.664,0.8009 0.918,1.9258 0.563,2.4999 -2.028,3.2819 -7.222,-1.7899 -5.372,-5.2462 0.959,-1.7924 0.812,-1.9186 -1.547,-1.3264 -1.533,0.3847 -2.608,0.2343 -2.608,-0.3645 0,-3.3259 -13.663,2.7897 -14.603,6.5365 -0.328,1.305 -1.378,2.6209 -2.333,2.9242 -3.692,1.1716 -4.239,7.2513 -0.987,10.9554 1.608,1.8309 2.923,3.6898 2.923,4.1309 0,0.4411 3.322,4.06 7.382,8.0418 12.872,12.6237 14.331,29.4053 3.2,36.7937 -2.981,1.9791 -6.308,3.5984 -7.393,3.5984 -1.264,0 -2.195,0.888 -2.592,2.4711 -0.342,1.3592 -1.628,3.001 -2.859,3.6486 -1.231,0.6476 -3.51,2.2356 -5.065,3.5289 -4.137,3.4416 -4.912,2.9992 -4.52,-2.5819 0.361,-5.1278 -2.029,-8.0667 -6.557,-8.0667 -0.878,0 -1.596,-0.6609 -1.596,-1.4686 0,-0.8946 -0.586,-1.2436 -1.5,-0.893 -1.09,0.4183 -1.5,-0.1168 -1.5,-1.9586 0,-3.5322 -6.362,-8.6798 -10.728,-8.6798 -2.761,0 -3.272,-0.3643 -3.272,-2.3333 0,-2.842 -0.746,-3.7012 -2.598,-2.9908 -0.812,0.3118 -1.402,1.9312 -1.402,3.8501 0,1.8215 -0.639,4.5859 -1.42,6.143 -4.936,9.8373 -5.483,14.6002 -1.787,15.5666 1.072,0.2803 2.631,3.0138 4.111,7.2053 2.151,6.0936 2.786,6.934 6.49,8.5978 2.258,1.0142 5.419,3.2204 7.023,4.9027 1.604,1.6822 3.219,3.0586 3.589,3.0586 1.484,0 2.994,5.4077 2.994,10.7183 0,3.4033 0.553,6.2476 1.4,7.203 1.934,2.1802 4.693,9.0787 3.631,9.0787 -0.477,0 -1.467,0.2189 -2.199,0.4864 -0.733,0.2674 -3.582,-0.7586 -6.332,-2.2802 z m 138.466,-26.0265 c -4.821,-2.1369 -6.251,-4.0354 -5.682,-7.544 0.404,-2.4869 0.159,-3.6356 -0.86,-4.0263 -0.783,-0.3006 -1.424,-0.061 -1.424,0.5333 0,0.6855 -1.236,0.8481 -3.384,0.4451 -2.529,-0.4745 -3.532,-0.2501 -3.969,0.8887 -1.076,2.8057 -2.782,1.609 -2.46,-1.7265 0.24,-2.4909 0.838,-3.3246 2.563,-3.5695 1.237,-0.1758 2.25,-0.7225 2.25,-1.2149 0,-1.715 3.904,-3.0873 5.838,-2.0521 2.326,1.2449 6.162,0.2924 6.162,-1.5301 0,-0.7609 0.686,-1.3834 1.525,-1.3834 0.838,0 1.961,-1.1478 2.494,-2.5508 1.207,-3.1728 5.504,-0.7859 6.393,3.5508 2.259,11.0195 1.074,16.3081 -2.912,13 -1.669,-1.3852 -1.768,-1.1084 -1.52,4.25 0.179,3.8838 -1.132,4.6501 -5.014,2.9297 z m -274.933,-10.8464 0.03,-7.8333 2.131,4.8336 c 2.213,5.0177 1.805,9.5046 -0.946,10.418 -0.931,0.3091 -1.242,-1.5859 -1.217,-7.4183 z m 484.967,3.6667 c 0,-0.55 0.45,-1 1,-1 0.55,0 1,0.45 1,1 0,0.55 -0.45,1 -1,1 -0.55,0 -1,-0.45 -1,-1 z m 81.5,-1 c -0.34,-0.55 -0.141,-1 0.441,-1 0.582,0 1.059,0.45 1.059,1 0,0.55 -0.198,1 -0.441,1 -0.243,0 -0.719,-0.45 -1.059,-1 z m -230.957,-1.9309 c -0.317,-0.512 -0.118,-1.2135 0.441,-1.559 0.559,-0.3455 1.016,0.073 1.016,0.9309 0,1.7565 -0.6,2.0152 -1.457,0.6281 z m -108.543,-7.444 c 0,-0.7719 2.7,-4.015 6,-7.2071 3.3,-3.192 6,-6.4249 6,-7.1841 0,-1.9153 3.403,-1.0943 3.79,0.9142 0.189,0.9795 -1.077,2.4844 -3.187,3.7882 -1.925,1.1897 -3.762,2.9904 -4.083,4.0016 -0.78,2.4567 -8.52,7.6233 -8.52,5.6872 z m 34.18,-5.1233 c -2.362,-3.0027 -2.755,-4.5018 -1.18,-4.5018 0.55,0 1,-0.9481 1,-2.107 0,-1.3507 -0.481,-1.9223 -1.341,-1.5925 -2.513,0.9644 -3.913,-0.8695 -3.186,-4.1756 0.835,-3.8022 7.527,-4.8974 7.527,-1.2319 0,1.0412 0.675,2.1521 1.5,2.4686 0.825,0.3166 1.5,1.2135 1.5,1.9931 0,0.7796 1.601,2.1773 3.558,3.106 4.083,1.9372 4.072,3.8886 -0.02,4.369 -2.344,0.275 -2.709,0.026 -2.201,-1.5 0.572,-1.7153 0.533,-1.7129 -0.612,0.039 -3.966,6.0649 -4.162,6.1587 -6.542,3.1332 z m 12.82,-6.0154 c 0,-0.8324 -0.562,-2.4348 -1.25,-3.5609 -1.057,-1.7307 -0.967,-2.2574 0.581,-3.4057 1.762,-1.3077 1.753,-1.4359 -0.25,-3.4391 -1.145,-1.1444 -2.081,-2.5307 -2.081,-3.0807 0,-0.55 -0.653,-1 -1.452,-1 -0.798,0 -3.023,-1.6175 -4.943,-3.5944 -1.92,-1.9769 -3.948,-3.3117 -4.507,-2.9661 -0.559,0.3455 -1.875,0.092 -2.925,-0.5634 -3.109,-1.942 -5.93,-0.3699 -3.719,2.0731 1.857,2.0525 1.46,5.0477 -0.935,7.0347 -1.137,0.9438 -1.814,0.3582 -3.574,-3.0907 -2.009,-3.9386 -2.046,-4.3462 -0.498,-5.4782 1.165,-0.8517 1.326,-1.4371 0.532,-1.9281 -0.63,-0.3893 -0.88,-1.7447 -0.558,-3.0262 0.466,-1.8579 0.137,-2.385 -1.65,-2.6409 -1.802,-0.2583 -2.457,-1.3366 -3.402,-5.6056 -1.057,-4.7769 -1.01,-5.2351 0.487,-4.7599 1.385,0.4396 1.707,-0.3904 1.963,-5.0644 0.533,-9.7123 1.317,-10.7621 7.436,-9.9505 7.32,0.9711 9.404,11.4235 3.391,17.0074 -2.155,2.0018 -2.686,3.1891 -2.169,4.8518 0.376,1.2108 0.919,3.1782 1.205,4.3721 0.443,1.8458 1.027,2.0886 3.902,1.622 2.468,-0.4005 3.538,-0.1389 3.963,0.9688 0.352,0.9186 1.346,1.3177 2.518,1.0114 1.436,-0.3756 1.935,0.01 1.935,1.488 0,1.0968 0.675,2.5544 1.5,3.2391 0.825,0.6847 1.5,1.8648 1.5,2.6225 0,0.8121 1.053,1.3775 2.566,1.3775 4.824,0 6.434,1.6523 6.434,6.6026 0,4.1833 -0.166,4.4796 -2.151,3.8494 -1.813,-0.5754 -2.031,-0.3893 -1.387,1.1826 1.86,4.5366 1.807,5.3654 -0.345,5.3654 -1.224,0 -2.117,-0.6389 -2.117,-1.5136 z m 125.543,-19.4173 c -0.317,-0.512 -0.118,-1.2135 0.441,-1.559 0.559,-0.3455 1.016,0.073 1.016,0.9309 0,1.7565 -0.6,2.0152 -1.457,0.6281 z m 6.457,-12.0691 c 0,-0.55 0.477,-1 1.059,-1 0.582,0 0.781,0.45 0.441,1 -0.34,0.55 -0.816,1 -1.059,1 -0.243,0 -0.441,-0.45 -0.441,-1 z m -406,-28 v -21 h 29.5 c 24.39,0 29.5,0.2386 29.5,1.3776 0,1.8124 -2.107,3.5008 -4.546,3.6419 -1.075,0.062 -5.022,0.2787 -8.772,0.4811 -7.729,0.417 -9.682,1.5369 -9.682,5.5504 0,3.3091 -1.924,5.4727 -6.607,7.4294 -1.875,0.7833 -6.329,4.3445 -9.898,7.9139 -3.57,3.5694 -7.841,7.2879 -9.493,8.2634 -1.651,0.9754 -3.002,2.5607 -3.002,3.5227 0,1.8477 -2.806,3.8196 -5.434,3.8196 -1.372,0 -1.566,-2.6081 -1.566,-21 z m 174.25,6.9689 c -5.982,-2.4044 0.177,-11.5982 8.128,-12.1337 5.26,-0.3543 6.41,1.2751 4.044,5.7299 -3.264,6.1475 -7.398,8.3226 -12.172,6.4038 z m 364.083,-6.6356 c 0.367,-0.3666 0.967,-0.3666 1.334,0 0.366,0.3667 0.07,0.6667 -0.667,0.6667 -0.733,0 -1.033,-0.3 -0.667,-0.6667 z m -331.833,-20.3333 c -0.34,-0.55 0.11,-1 1,-1 0.89,0 1.34,0.45 1,1 -0.34,0.55 -0.79,1 -1,1 -0.21,0 -0.66,-0.45 -1,-1 z m 40.25,-0.6623 c 0.688,-0.2774 1.813,-0.2774 2.5,0 0.688,0.2774 0.125,0.5044 -1.25,0.5044 -1.375,0 -1.937,-0.227 -1.25,-0.5044 z"
         id="path14" /><path
         style="display:inline;fill:#daaa44;fill-opacity:1"
         d="m 11484.334,-821.98253 c -1.325,-1.1044 -3.847,-1.9667 -5.75,-1.9667 -7.649,0 0.317,-14.4968 10.942,-19.9139 6.189,-3.155 13.642,-10.3451 14.846,-14.32 0.621,-2.0536 1.961,-4.4859 2.976,-5.405 1.016,-0.9191 1.861,-2.3888 1.879,-3.2661 0.09,-4.5192 4.564,-6.5546 5.572,-2.5353 0.473,1.8826 1.073,2.3758 2.269,1.8648 7.699,-3.2885 5.039,12.1859 -2.942,17.1184 -0.601,0.3714 -0.823,1.7512 -0.493,3.0662 0.463,1.8456 0.197,2.3918 -1.169,2.3947 -3.813,0.01 -7.986,3.6726 -8.715,7.6532 -2.29,12.5134 -12.812,20.8106 -19.415,15.3097 z m -139.892,-26.2167 c -1.833,-2.2979 -4.247,-7.6311 -4.247,-9.3846 0,-0.9537 -0.972,-3.7419 -2.16,-6.196 -2.834,-5.8551 -0.89,-8.1145 4.693,-5.4524 2.8,1.3354 4.229,1.4061 9.01,0.4458 7.745,-1.5553 10.147,2.7345 6.011,10.7337 -0.796,1.5384 -1.18,3.8171 -0.854,5.0638 0.535,2.0476 0.388,2.1574 -1.519,1.1364 -1.854,-0.9921 -2.303,-0.7616 -3.672,1.8865 -1.661,3.2119 -5.385,4.1181 -7.262,1.7668 z m 183.273,-17.1119 c -1.659,-1.2129 -1.662,-1.4628 -0.06,-4.5683 2.251,-4.3533 1.387,-7.1586 -2.921,-9.4773 -3.687,-1.9849 -4.677,-4.9434 -1.998,-5.9714 3.681,-1.4125 5.823,-16.6211 2.341,-16.6211 -0.487,0 -0.886,-0.7068 -0.886,-1.5706 0,-0.8638 -1.8,-3.7053 -4,-6.3143 -4.361,-5.172 -4.968,-7.1151 -2.223,-7.1151 2.906,0 6.223,2.9304 6.223,5.4977 0,1.3114 0.45,2.6624 1,3.0023 0.55,0.3399 1,1.9415 1,3.559 0,2.2743 0.453,2.941 2,2.941 1.1,0 2,-0.45 2,-1 0,-2.5381 2.04,-0.5973 3.104,2.9524 1.642,5.4795 8.186,7.9053 12.004,4.4497 2.058,-1.8623 3.892,-1.1008 3.892,1.6158 0,3.0008 -3.343,8.9304 -5.05,8.9575 -2.322,0.037 -3.95,2.1061 -3.95,5.021 0,6.1639 -9.244,17.0084 -12.48,14.6417 z m -203.02,-23.6928 c -2.2,-1.0411 -5.019,-1.9046 -6.264,-1.9191 -5.285,-0.061 -13.376,-7.068 -12.61,-10.9202 0.73,-3.6656 -3.338,-9.5067 -6.909,-9.9225 -2.533,-0.2948 -2.68,-0.5694 -2.148,-4 0.902,-5.8199 -1.862,-8.8571 -3.511,-3.8586 -0.953,2.8883 -1.732,3.6751 -3.636,3.6751 h -2.422 l 2,-2 c 1.1,-1.1 2.014,-3.0125 2.032,-4.25 0.02,-1.2375 0.661,-3.0812 1.431,-4.0972 1.571,-2.0728 1.015,-4.6528 -1.003,-4.6528 -0.729,0 -1.604,0.877 -1.944,1.9489 -0.34,1.0718 -1.496,2.2272 -2.568,2.5676 -1.072,0.3403 -3.127,2.1633 -4.567,4.0511 -3.369,4.4166 -3.581,4.3619 -5.647,-1.4528 -0.985,-2.7743 -2.815,-5.593 -4.234,-6.5231 -1.375,-0.9008 -2.5,-2.517 -2.5,-3.5917 0,-2.4633 -3.337,-4.6462 -8.5,-5.56 -2.2,-0.3893 -5.49,-1.459 -7.311,-2.3769 -4.166,-2.1001 -15.624,-1.1271 -22.278,1.8917 -2.426,1.1007 -6.557,2.0112 -9.181,2.0233 -3.257,0.015 -5.953,0.7685 -8.5,2.3758 -2.051,1.2947 -4.63,2.6593 -5.73,3.0325 -1.1,0.3732 -2.91,2.1264 -4.023,3.8961 l -2.023,3.2175 h -11.12 c -9.186,0 -11.456,0.3043 -13.056,1.75 -1.064,0.9625 -2.428,1.75 -3.03,1.75 -0.602,0 -2.494,1.178 -4.206,2.6177 -4.057,3.4139 -13.728,3.1696 -17.083,-0.4317 -1.12,-1.2023 -2.743,-2.186 -3.606,-2.186 -1.957,0 -0.971,-5.0624 1.227,-6.2997 2.266,-1.2759 1.887,-13.3591 -0.58,-18.4642 -1.1,-2.2767 -2,-5.7935 -2,-7.8151 0,-2.0215 -1.28,-6.4308 -2.843,-9.7983 -5.766,-12.414 -7.801,-21.4207 -4.081,-18.0537 2.948,2.6673 2.586,-0.5834 -0.686,-6.1661 -2.009,-3.4285 -2.456,-5.1954 -1.943,-7.6781 0.366,-1.7736 0.894,-5.02477 1.173,-7.22477 0.778,-6.1422 1.279,-7.2738 2.42,-5.472 0.777,1.2264 1.31,1.0409 3.196,-1.1113 3.306,-3.7725 13.426,-10.2603 15.039,-9.6413 1.168,0.4481 5.335,-0.7126 12.725,-3.545 0.825,-0.3162 3.816,-1.0935 6.646,-1.7275 2.871,-0.643 6.005,-2.1142 7.088,-3.3278 3.318,-3.7156 6.266,-9.2999 6.266,-11.8689 0,-1.3517 1.123,-3.5129 2.496,-4.8026 2.714,-2.5493 2.686,-2.5541 4.419,0.7743 1.463,2.8118 3.459,1.8473 2.671,-1.291 -0.475,-1.8939 -0.03,-2.4841 2.531,-3.3779 2.01,-0.7008 2.918,-1.5745 2.573,-2.4751 -0.709,-1.8474 6.143,-9.634 8.478,-9.634 1.007,0 1.836,-0.3375 1.84,-0.75 0.04,-3.7147 7.891,-3.0262 11.075,0.971 2.492,3.1287 11.399,3.8741 10.447,0.8743 -0.495,-1.5598 0.05,-3.1649 1.888,-5.5761 1.42,-1.8621 2.582,-3.9884 2.582,-4.7251 0,-1.9113 5.801,-4.68 10.5,-5.0117 3.283,-0.2317 4.057,-0.6859 4.32,-2.5324 0.326,-2.2999 2.03,-2.9326 3.73,-1.3851 1.351,1.2302 13.266,3.3671 14.504,2.6014 0.569,-0.3511 1.708,-0.079 2.532,0.6052 1.117,0.927 1.787,0.955 2.633,0.1099 0.769,-0.7696 1.524,-0.81 2.348,-0.1257 1.596,1.3248 -0.338,5.6512 -2.817,6.2994 -1.171,0.3064 -1.75,1.4399 -1.75,3.4288 0,1.6342 -0.675,3.5314 -1.5,4.2161 -2.81,2.3321 -1.642,4.6583 4.077,8.1223 3.068,1.8577 7.2,4.4328 9.184,5.7224 1.984,1.2896 4.649,2.7409 5.923,3.2252 1.274,0.4844 2.316,1.2872 2.316,1.784 0,1.4939 5.789,3.4158 8.352,2.7727 4.077,-1.0233 6.853,-9.2171 7.207,-21.2725 0.171,-5.8169 0.971,-12.1498 1.87,-14.7967 0.864,-2.545 1.571,-5.26 1.571,-6.0333 0,-2.7156 2.004,-2.6073 3.137,0.1695 0.63,1.5435 2.207,5.1013 3.504,7.9061 1.298,2.8048 2.365,5.9548 2.373,7 0.03,4.4553 1.208,6.561 3.372,6.0384 3.532,-0.8529 7.249,3.132 7.947,8.5203 0.332,2.5622 1.55,6.4748 2.708,8.6949 1.157,2.22 2.014,4.8487 1.905,5.8415 -0.379,3.4383 2.391,8.2026 5.51,9.4776 3.656,1.4947 10.453,6.0449 10.506,7.0332 0.02,0.3881 1.131,2.3155 2.466,4.2832 1.335,1.9677 2.728,4.9444 3.095,6.615 0.46,2.0943 1.115,2.8653 2.111,2.4831 2.358,-0.9045 5.321,1.6584 5.98,5.1712 0.351,1.8686 1.748,4.1245 3.251,5.24867 7.885,5.8993 11.12,11.0507 11.128,17.7231 0,2.8763 0.738,7.0567 1.631,9.2896 1.714,4.2837 1.709,4.3593 -1.493,19.4806 -2.244,10.6018 -4.12,15.1349 -7.602,18.3642 -1.401,1.3003 -2.836,3.5503 -3.188,5 -0.352,1.4497 -1.247,3.5234 -1.99,4.6083 -0.743,1.0849 -1.351,2.6635 -1.351,3.508 0,0.8445 -1.079,3.5629 -2.398,6.041 -1.32,2.4781 -2.735,7.1979 -3.147,10.4886 -0.838,6.7142 -2.293,8.4103 -7.255,8.4581 -3.796,0.037 -7.889,1.9258 -10.556,4.8728 -2.099,2.3198 -7.575,3.8659 -8.519,2.4054 -2.308,-3.5725 -7.223,-4.4091 -10.631,-1.8096 -1.848,1.4097 -3.503,2.5268 -3.677,2.4823 -0.174,-0.045 -2.117,-0.9328 -4.317,-1.9738 z m -38.283,-21.1111 c 0.242,-0.7338 1.467,-1.4846 2.723,-1.6683 1.551,-0.2271 2.142,0.093 1.843,1 -0.242,0.7337 -1.467,1.4845 -2.723,1.6683 -1.551,0.227 -2.142,-0.094 -1.843,-1 z m -2.217,-153.33427 c 0,-0.825 0.45,-1.5 1,-1.5 0.55,0 1,0.675 1,1.5 0,0.825 -0.45,1.5 -1,1.5 -0.55,0 -1,-0.675 -1,-1.5 z m -36.541,-15.5665 c -0.791,-1.2795 -0.593,-1.4905 2.207,-2.3499 2.83,-0.8689 3.963,1.0092 1.428,2.3662 -2.449,1.3103 -2.816,1.3087 -3.635,-0.016 z"
         id="path15" /></g></g></svg>
