<?xml version="1.0" encoding="UTF-8" standalone="no"?>
<!-- Created with Inkscape (http://www.inkscape.org/) -->

<svg
   version="1.1"
   id="svg1"
   width="1037.2559"
   height="767.94244"
   viewBox="0 0 1037.2559 767.94244"
   xml:space="preserve"
   xmlns="http://www.w3.org/2000/svg"
   xmlns:svg="http://www.w3.org/2000/svg"><defs
     id="defs1" /><g
     id="g1"
     style="display:inline"
     transform="translate(-6606.3657,1228.6385)"><g
       id="g8"><path
         style="display:inline;fill:#000000"
         d="m 6606.3657,-491.61666 c 0,-23.8778 0.2667,-30.4334 1.2,-29.5 3.628,3.6279 8.3,-0.6133 8.3,-7.5348 0,-9.1256 12.5615,-13.618 18.9135,-6.7641 1.3349,1.4404 3.9244,2.6892 6.3959,3.0844 2.2841,0.3652 4.6665,1.2829 5.2942,2.0392 0.6277,0.7564 2.8136,1.3753 4.8576,1.3753 2.044,0 7.4917,1.1883 12.1061,2.6407 l 8.3899,2.6407 3.5214,-2.0153 c 5.1844,-2.9671 9.1929,-3.6015 11.5409,-1.8268 6.913,5.2253 17.1131,1.0847 19.7861,-8.0319 0.8212,-2.8008 2.5476,-7.0758 3.8365,-9.5 1.8455,-3.4711 2.3498,-6.0009 2.3733,-11.9074 0.017,-4.125 0.4255,-8.3399 0.9089,-9.3664 0.7824,-1.6612 0.6447,-1.7409 -1.2521,-0.7258 -1.1721,0.6273 -3.2398,0.8623 -4.5949,0.5222 -1.769,-0.444 -3.423,0.1132 -5.8649,1.9758 -4.2009,3.2042 -10.1253,3.5596 -11.6561,0.6993 -0.8923,-1.6673 -5.7799,-4.1051 -8.2303,-4.1051 -0.4815,0 -1.3032,1.125 -1.826,2.5 -1.1509,3.0272 -5.8991,3.458 -8.5787,0.7784 -2.4459,-2.4459 -6.2702,-4.2784 -8.9286,-4.2784 -2.4415,0 -3.4927,-1.6894 -3.4927,-5.6132 0,-1.3473 -0.675,-2.7086 -1.5,-3.0252 -1.8235,-0.6998 -1.957,-3.4956 -0.25,-5.2363 1.004,-1.0237 0.7087,-1.7103 -1.5,-3.4876 -5.378,-4.3276 -2.5122,-9.3514 5.3712,-9.4155 5.5935,-0.046 10.8788,-2.5491 10.8788,-5.1531 0,-1.6883 0.6028,-1.8248 5.9244,-1.3423 5.0929,0.4618 6.321,0.2252 8.75,-1.6857 7.7933,-6.1309 24.0704,-6.3694 28.8256,-0.4224 1.5405,1.9265 12.182,4.3305 15.2959,3.4553 1.4873,-0.4179 4.2791,-0.5866 6.2041,-0.3747 11.9531,1.3158 14.3553,-10.3144 3.5891,-17.3765 -2.6639,-1.7474 -6.2488,-4.5149 -7.9663,-6.1499 -1.7175,-1.635 -4.8455,-3.8799 -6.951,-4.9887 -5.9347,-3.1253 -8.1209,-6.572 -4.7308,-7.4586 2.2028,-0.576 5.354,-7.2208 4.5804,-9.6582 -0.3243,-1.0217 0.4923,-2.2326 2.2338,-3.3123 l 2.7448,-1.7019 -4.191,-0.027 c -2.305,-0.015 -4.4309,0.3616 -4.7242,0.8362 -0.2933,0.4745 -2.6823,1.4531 -5.309,2.1745 -8.9135,2.4481 -10.99,5.0703 -7.7162,9.7442 1.1296,1.6128 2.195,2.0672 3.8645,1.6482 1.5649,-0.3928 2.4988,-0.073 2.909,0.9959 0.4625,1.2052 -0.063,1.5744 -2.242,1.5744 -1.5654,0 -3.4064,0.675 -4.0911,1.5 -0.6847,0.825 -1.9418,1.5 -2.7937,1.5 -0.8518,0 -2.355,0.7295 -3.3403,1.6212 -2.3678,2.1429 -4.866,1.0714 -4.866,-2.087 0,-1.9039 -0.7875,-2.8499 -3.188,-3.8294 l -3.1881,-1.3008 3.1998,-2.2785 c 3.8119,-2.7143 3.3304,-4.1255 -1.4074,-4.1255 -2.7132,0 -3.6589,-0.508 -4.3552,-2.3394 -1.3501,-3.5512 -6.6448,-2.4805 -9.2067,1.8617 -1.0589,1.7946 -2.8111,3.4946 -3.8939,3.7777 -1.3081,0.3421 -1.7634,1.05 -1.3568,2.1096 0.9034,2.3542 -0.4246,6.5904 -2.066,6.5904 -2.1591,0 -4.5377,4.0435 -4.5377,7.714 0,2.186 -0.6626,3.6828 -2,4.518 -1.1,0.687 -2,1.9508 -2,2.8085 0,0.8577 -0.4952,2.0547 -1.1005,2.6599 -1.4478,1.4479 3.4346,9.9534 6.2214,10.8379 3.1258,0.9921 0.5192,3.2092 -3.1413,2.672 -1.8521,-0.2719 -3.7332,0.1383 -4.769,1.0398 -2.5193,2.1926 -7.0672,2.7067 -10.0724,1.1387 -4.6268,-2.4141 -8.6903,-1.7759 -11.4927,1.8049 -2.2723,2.9035 -2.7334,3.0872 -5.0725,2.0215 -3.0495,-1.3895 -3.216,-0.6483 -1.3892,6.1822 0.9863,3.6876 1.6655,4.5224 4.0709,5.0035 3.3157,0.6631 3.1384,3.9629 -0.3477,6.471 -1.0489,0.7546 -1.907,2.2171 -1.907,3.25 0,1.0329 -0.4586,1.8781 -1.019,1.8781 -0.6036,0 -0.7473,1.0826 -0.3527,2.6551 0.6125,2.4404 0.4725,2.5957 -1.7309,1.9193 -1.3186,-0.4048 -3.4099,-0.977 -4.6474,-1.2718 -1.2375,-0.2947 -2.25,-1.2832 -2.25,-2.1967 0,-0.9135 -0.6798,-2.6315 -1.5107,-3.8178 -0.9008,-1.286 -1.1209,-2.3978 -0.5453,-2.7535 0.5357,-0.3311 -0.3644,-2.4747 -2.022,-4.8157 -1.6431,-2.3204 -3.7321,-5.3439 -4.6422,-6.7189 -0.9101,-1.375 -2.3579,-3.3353 -3.2173,-4.3561 -1.0256,-1.2182 -1.5625,-3.8584 -1.5625,-7.6832 0,-4.9943 -0.3931,-6.2378 -2.75,-8.6987 l -2.75,-2.8715 0.079,-56.9453 c 0.043,-31.3199 0.3059,-56.38273 0.5833,-55.69523 1.0101,2.5032 6.0121,1.4502 7.2445,-1.525 1.0478,-2.5296 3.0082,-4.1139 7.0932,-5.7321 1.213,-0.4805 1.4342,-2.2788 1.1559,-9.399 -0.4454,-11.3973 5.1808,-22.1347 9.3754,-17.8926 0.1625,0.1643 1.617,1.9632 3.2323,3.9977 2.7186,3.4241 3.0901,3.5918 4.9975,2.2557 3.1896,-2.234 3.6867,-13.4592 0.5959,-13.4566 -2.5272,0 -3.357,-1.7428 -3.357,-7.0596 0,-6.6534 6.8175,-9.0888 20.75,-7.4127 5.4638,0.6573 6.25,0.5426 6.25,-0.912 0,-1.062 1.1256,-1.889 3.1119,-2.2862 2.9341,-0.5869 3.9794,-6.5697 1.569,-8.9802 -0.8689,-0.8688 -18.4009,2.5714 -23.6517,4.6411 -6.8731,2.7091 -10.5365,2.5933 -13.1528,-0.4157 -1.1607,-1.3349 -3.4361,-2.9763 -5.0565,-3.6474 -2.8923,-1.1981 -2.9435,-1.35 -2.8039,-8.3229 0.078,-3.9064 -0.4101,-9.8025 -1.0853,-13.1025 l -1.2275,-6 3.5386,-5.5 c 1.9462,-3.025 4.7504,-6.625 6.2315,-8 1.4811,-1.375 4.7048,-5.7267 7.1636,-9.6703 2.4589,-3.9436 5.5715,-7.8915 6.9169,-8.773 3.8682,-2.5346 3.367,-7.4443 -1.0521,-10.3067 -9.8088,-6.3536 -22.9917,2.971 -20.9858,14.8438 0.8184,4.8443 -1.5488,9.0534 -8.1203,14.4382 -2.5165,2.0621 -5.66,4.9189 -6.9855,6.3484 l -2.4101,2.5991 v -50.6355 -50.6356 l 4.8376,-3.1042 c 2.8444,-1.8252 6.1619,-3.1042 8.052,-3.1042 2.6399,0 3.3932,-0.5128 4.2145,-2.8688 1.3854,-3.974 8.8201,-7.1373 9.6165,-4.0916 0.9618,3.6779 8.7909,-4.3971 9.9762,-10.2896 0.5899,-2.9324 2.186,-3.4184 5.4644,-1.6638 1.5822,0.8468 3.3392,0.5965 7.9705,-1.1355 10.8481,-4.0569 31.4158,10.5786 22.3683,15.9168 -4.7155,2.7822 -4.8534,6.1472 -0.25,6.097 1.7875,-0.02 4.375,-0.6785 5.75,-1.4645 5.4219,-3.0995 12.2721,-0.091 9.4834,4.1656 -1.8358,2.8019 0.986,4.5146 9.5166,5.776 2.475,0.366 5.7156,0.8973 7.2012,1.1806 1.4857,0.2834 8.6857,5.474 16,11.5346 7.3144,6.0607 14.2653,11.4811 15.4466,12.0452 3.6757,1.7556 4.7937,15.5219 1.569,19.3198 -8.1511,9.6 -19.1396,9.8693 -37.2168,0.9122 -13.3106,-6.5953 -14.85,-5.5539 -5.9127,4 5.9338,6.3434 6.0593,6.5917 4.9813,9.8581 -0.8705,2.6378 -0.7827,4.2667 0.4128,7.655 0.8352,2.3674 1.5186,5.1362 1.5186,6.1529 0,1.0385 1.3017,2.5217 2.9704,3.3846 1.6337,0.8448 3.4499,2.4321 4.036,3.5274 1.4997,2.8021 7.8475,5.3541 9.6326,3.8726 2.2836,-1.8952 1.6728,-5.5896 -1.0366,-6.2696 -4.8177,-1.2092 -7.1427,-7.6809 -4.0963,-11.4024 0.1294,-0.158 3.3309,1.2515 7.1146,3.1323 10.1907,5.0655 10.6792,5.1338 12.1969,1.705 1.0506,-2.3734 1.0588,-3.7304 0.043,-7.1205 -1.2426,-4.1473 -1.2212,-4.217 2.1922,-7.15 6.299,-5.4124 9.947,-9.0504 9.947,-9.9199 0,-1.3176 3.3609,-1.0245 7.3458,0.6405 4.8571,2.0294 5.2264,1.9471 6.6462,-1.4806 1.383,-3.339 0.6705,-7.6114 -1.71,-10.253 -1.3613,-1.5106 -1.3986,-2.5049 -0.2898,-7.7297 0.6999,-3.2979 1.0432,-8.0303 0.763,-10.5165 l -0.5095,-4.5202 3.6272,0.014 c 6.4495,0.024 8.0885,0.9765 10.7624,6.2532 2.7112,5.3503 2.2681,6.685 -2.2303,6.7178 -4.714,0.034 -6.0909,3.5911 -3.3562,8.6692 4.5775,8.5001 12.5892,7.4493 14.2938,-1.8746 0.7021,-3.84 1.286,-4.7193 3.5,-5.2705 1.4616,-0.3638 5.2318,-2.8966 8.3782,-5.6284 3.1465,-2.7318 8.0965,-5.9358 11,-7.1199 2.9036,-1.1841 7.1256,-3.6397 9.3822,-5.4567 5.149,-4.146 5.394,-4.1257 5.4107,0.4463 0.033,9.0471 0.8742,9.5485 7.9057,4.7117 4.5315,-3.1172 5.5351,-3.4303 8.4315,-2.6305 2.934,0.8101 3.8707,0.4914 8.7055,-2.9617 6.5153,-4.6535 5.3492,-4.74 8.4965,0.6305 3.1885,5.4408 2.7718,5.4149 6.406,0.398 l 2.9715,-4.102 -2.5409,-5.0142 -2.541,-5.0143 2.649,-2.7649 2.649,-2.7649 7.6767,1.6734 c 7.1627,1.5613 8.6556,2.3905 22.2919,12.3811 16.4384,12.0437 16.3066,11.9901 17.8657,7.2661 1.0011,-3.0334 0.8879,-3.6897 -0.9537,-5.5313 -1.1493,-1.1492 -2.3677,-3.4803 -2.7077,-5.1802 -0.4232,-2.1158 -1.719,-3.7401 -4.1088,-5.1501 l -3.4906,-2.0595 0.5931,-9.7351 c 0.489,-8.026 0.3245,-9.958 -0.9364,-11.0045 -2.6113,-2.1672 -0.8083,-7.8031 4.1261,-12.8976 3.9262,-4.0536 4.5739,-5.4425 6.5287,-14 3.3789,-14.7914 10.5483,-18.9526 21.5475,-12.5066 l 4.6734,2.7388 -0.645,6.2958 c -0.3548,3.4627 -1.6091,8.6156 -2.7873,11.4508 l -2.1423,5.1549 2.5226,7.1831 c 2.1225,6.0439 2.3976,8.0555 1.7341,12.6832 -2.0631,14.3906 -1.2189,24.3398 2.4756,29.1784 l 3.41,4.466 -1.3335,5.7364 c -0.7334,3.1551 -2.1365,6.9476 -3.118,8.4278 -0.9815,1.4803 -3.1952,5.6164 -4.9194,9.1914 -4.3955,9.1136 -5.6652,9.9957 -10.4361,7.2499 -3.6091,-2.0771 -3.844,-2.0942 -5.3846,-0.3919 -1.5059,1.664 -1.372,1.8938 2.0569,3.529 6.4224,3.0626 12.6199,3.2707 14.1464,0.4751 0.7093,-1.2992 3.2333,-3.8357 5.6089,-5.6368 2.8655,-2.1725 4.5251,-4.3043 4.9311,-6.3341 0.3365,-1.6828 1.5922,-4.4363 2.7905,-6.1191 2.0013,-2.8107 2.0875,-3.5155 1.0599,-8.6658 -1.7382,-8.7113 -0.9913,-10.4987 5.2026,-12.4511 6.9239,-2.1826 6.8253,-2.2033 9.0341,1.8982 l 1.9136,3.5534 1.2783,-2.3034 c 1.8164,-3.2729 1.8515,-3.2122 -3.5692,-6.1625 -4.4897,-2.4436 -5.2959,-2.5789 -9.25,-1.5524 -9.9873,2.5929 -12.5703,-2.8534 -8.6367,-18.2098 l 2.2639,-8.8379 -3.7605,-7.5998 -3.7605,-7.5999 2.2811,-4.1296 c 1.377,-2.4928 4.6576,-5.7953 8.2769,-8.332 6.1902,-4.3387 7.4573,-4.276 7.4889,0.3705 0.02,3.0005 0.2326,2.9448 8.5674,-2.25 9.8538,-6.1416 17.5979,-4.4657 23.5011,5.086 1.8997,3.0738 9.9468,5.399 9.9468,2.8741 0,-2.3868 -4.7482,-8.8303 -8.2296,-11.168 -4.7806,-3.2099 -6.6457,-9.7478 -5.9358,-20.8065 l 0.3347,-5.21221 7.7463,-0.646 c 6.6561,-0.5551 25.996,-4.8368 28.3116,-6.2679 0.4251,-0.2627 0.7728,-4.2559 0.7728,-8.8739 0,-15.5057 11.0081,-27.1681 31.6895,-33.5729 8.459,-2.6197 10.3182,-3.6059 13.4957,-7.1589 l 3.6853,-4.1206 7.1081,2.7887 7.1082,2.7888 10.3265,-6.8195 10.3264,-6.8195 2.1853,-6.995 c 5.5736,-17.8406 17.9867,-29.2472 26.5041,-24.3551 6.409,3.6811 6.4045,3.6685 3.0367,8.5814 l -2.5342,3.697 7.8004,3.6288 c 5.1671,2.4039 8.274,4.5138 9.2032,6.25 1.3643,2.5492 1.6668,2.6212 11.018,2.6212 h 9.6151 l 5.1137,5.25 c 16.9014,17.3519 14.6988,32.869 -7.0469,49.6458 -3.1199,2.4069 -7.9436,7.4987 -10.7194,11.3151 -3.2319,4.4435 -6.1151,7.3112 -8.0173,7.9743 -2.4953,0.8699 -6.8984,6.78991 -6.8984,9.27491 0,1.5821 7.3204,0.1541 12.724,-2.4821 6.2424,-3.04551 8.2501,-5.99961 8.2704,-12.16901 0.01,-3.0161 1.731,-2.8859 7.6718,0.58 7.78,4.5389 15.0228,6.1987 19.951,4.5723 3.547,-1.1706 12.5441,-0.8791 20.2145,0.655 2.7876,0.5575 3.1683,1.0291 3.1683,3.9246 0,6.11811 5.3604,9.03541 18.0704,9.83441 12.2822,0.7722 13.8069,-0.2236 12.4688,-8.1435 -0.6162,-3.64731 -0.4145,-4.18451 2.297,-6.11521 3.7299,-2.6559 3.9187,-2.6473 8.3786,0.3834 2.8945,1.9668 4.9344,2.5 9.5656,2.5 9.47,0 13.153,3.82571 15.3037,15.89671 l 1.6334,9.1682 -2.8587,2.0356 c -3.6608,2.6067 -3.6332,2.9039 1.1991,12.8964 8.3047,17.1731 12.3373,17.8367 17.0996,2.814 l 3.1505,-9.9384 5.0978,5.0344 5.0978,5.0345 4.9982,-2.3402 4.9982,-2.3402 4.5787,2.5261 4.5786,2.5261 2.9214,-2.0954 c 1.6067,-1.1525 4.8724,-2.6007 7.257,-3.2183 l 4.3357,-1.1228 -0.3139,-7.5209 c -0.357,-8.5532 -0.5809,-8.2698 8.8041,-11.1449 5.9637,-1.827 6.2058,-1.8187 20.7497,0.7092 3.2511,0.5651 7.629,2.1643 9.7285,3.5537 2.9317,1.9401 5.1058,2.5262 9.3709,2.5262 8.8525,0 11.9293,1.8263 15.593,9.2559 1.8388,3.729 4.441,7.2662 6.2699,8.5227 1.7195,1.1814 4.2452,3.9645 5.6125,6.1847 2.9889,4.8531 6.2388,5.2593 15.6074,1.9507 18.2704,-6.4525 34.8912,2.2297 32.9642,17.2195 l -0.5957,4.6336 5.0633,3.2491 5.0634,3.2491 2.2329,-2.0978 c 2.7023,-2.5386 12.3064,-3.9722 15.426,-2.3026 3.8766,2.0747 15.6267,2.5939 17.1505,0.7578 2.007,-2.4182 2.856,-2.0252 5.0914,2.3566 1.1166,2.1887 3.3951,4.6853 5.0633,5.5479 1.6682,0.8627 3.4313,2.6158 3.918,3.8958 0.69,1.8149 1.4443,2.2203 3.4265,1.8413 4.2565,-0.8136 5.0855,-2.661 3.7637,-8.3871 -0.6385,-2.7664 -1.161,-7.0601 -1.161,-9.5414 v -4.5116 l 4.25,0.6993 c 2.3375,0.3846 6.05,1.405 8.25,2.2675 2.7752,1.088 6.6548,1.4926 12.6696,1.3212 7.8235,-0.2229 9.0435,-2e-4 12.5,2.2815 2.1067,1.3906 5.8144,3.2262 8.2392,4.079 2.4248,0.8528 6.568,3.5703 9.2071,6.0389 2.6392,2.4686 5.2578,4.4884 5.8192,4.4884 0.5614,0 4.6836,3.16 9.1606,7.0224 4.4769,3.8623 10.1152,8.441 12.5295,10.1749 2.4144,1.7338 5.5304,5.0987 6.9244,7.4775 2.1424,3.6557 3.0313,4.3301 5.7426,4.357 1.7643,0.017 4.0813,0.6924 5.149,1.5 1.0676,0.8075 2.7551,1.4682 3.75,1.4682 2.7898,0 2.7359,27.5477 -0.061,31.1151 -1.0283,1.3117 -2.1783,3.7987 -2.5557,5.5267 -0.8038,3.6814 -3.3664,3.6256 -7.5746,-0.1652 -1.375,-1.2386 -3.625,-2.5807 -5,-2.9826 -3.7873,-1.1068 -5.8921,-3.4023 -6.6053,-7.2036 -0.784,-4.1792 -3.5772,-5.5013 -9.8159,-4.6462 -4.1429,0.5679 -4.4911,0.426 -5.9691,-2.4322 -2.1722,-4.2005 -6.0447,-3.4693 -5.0724,0.9578 1.2642,5.7556 -9.4342,15.6706 -15.4767,14.3435 -4.4004,-0.9665 -4.1524,2.5302 0.4394,6.194 2.5106,2.0032 3.5,3.5889 3.5,5.6094 0,1.5492 1.1044,4.2646 2.4542,6.0342 2.7496,3.605 3.5062,9.035 1.7199,12.3433 l -1.1848,2.1943 -5.6229,-1.9345 -5.6229,-1.9346 -6.1218,3.198 c -3.3669,1.7589 -7.3937,4.2295 -8.9484,5.4903 -1.5547,1.2607 -3.7352,2.2923 -4.8456,2.2923 -2.6678,0 -7.546,3.5371 -8.3435,6.0498 -0.3487,1.0988 -3.1878,3.8385 -6.3091,6.0883 -3.1213,2.2497 -6.6912,5.2765 -7.9332,6.7262 l -2.2581,2.6357 -2.5643,-3.25 c -2.9771,-3.773 -6.0868,-4.1672 -12.5315,-1.5886 -2.9689,1.188 -4.6125,1.3713 -5.7668,0.6432 -1.2065,-0.7611 -2.5577,-0.4229 -5.3479,1.3385 -2.0535,1.2963 -4.8382,2.3569 -6.1883,2.3569 -5.097,0 -7.3496,1.6474 -8.0682,5.9004 -0.3739,2.2136 -2.0135,5.8657 -3.6435,8.1158 -5.5688,7.6875 -5.6237,12.0766 -0.1683,13.4458 2.4041,0.6034 2.9942,1.9878 1.295,3.038 -1.6052,0.992 -1.2064,7.4835 0.5,8.1383 2.9988,1.1508 1.8704,6.3617 -1.3775,6.3617 -4.6974,0 -7.5692,7.1443 -5.275,13.123 1.2751,3.3231 -0.1182,4.877 -4.3732,4.877 -4.0869,0 -7.4808,3.6299 -8.1653,8.733 -0.4333,3.23073 -1.2191,4.35733 -4.418,6.33433 -2.6994,1.6684 -3.891,3.1103 -3.891,4.7086 0,4.8303 -9.6349,17.9225 -11.6826,15.8747 -0.392,-0.3919 -1.2488,-4.4112 -1.9041,-8.9316 -0.6553,-4.5205 -1.8787,-12.044 -2.7187,-16.71903 -2.6945,-14.9953 -2.8481,-18.1746 -1.2727,-26.3307 1.1519,-5.9633 2.2314,-8.6494 4.5267,-11.2635 1.6577,-1.8881 3.709,-4.7768 4.5584,-6.4193 0.8494,-1.6426 1.9815,-2.9865 2.5158,-2.9865 1.65,0 9.0189,-7.18 10.6946,-10.4204 0.8733,-1.6889 4.1263,-5.7727 7.2287,-9.0752 3.1025,-3.3024 6.8849,-7.6961 8.4053,-9.7637 1.5205,-2.0676 4.5565,-4.6735 6.7468,-5.7909 2.1903,-1.1174 4.3657,-3.0397 4.8341,-4.2717 1.1227,-2.9531 2.4999,-19.6781 1.6203,-19.6781 -2.5833,0 -4.4997,2.4648 -5.117,6.5811 -0.4966,3.3112 -1.2814,4.8471 -2.8398,5.5572 -1.1844,0.5396 -4.3905,3.6897 -7.1246,7.0002 l -4.9712,6.019 -2.75,-3.291 c -2.9656,-3.549 -3.2915,-4.9862 -1.7737,-7.8223 0.8308,-1.5524 0.4956,-1.9176 -2.25,-2.4509 -9.5136,-1.8481 -16.5421,0.6769 -19.1692,6.8863 -0.7028,1.6612 -2.9485,4.5954 -4.9906,6.5204 -7.9282,7.4739 -9.487,11.2424 -5.9905,14.4828 l 2.5759,2.3873 -3.1836,1.6463 c -1.917,0.9913 -4.1778,1.3968 -5.6823,1.0192 -1.7225,-0.4323 -2.8764,-0.1105 -3.7148,1.0361 -1.4635,2.0014 -6.644,-0.1142 -8.8229,-3.6032 -0.6762,-1.0827 -2.1336,-1.9883 -3.2388,-2.0124 -1.1052,-0.024 -3.6804,-0.6405 -5.7226,-1.3695 -3.3475,-1.1951 -3.8797,-1.1415 -5.405,0.5439 -0.9305,1.0282 -2.7178,1.8695 -3.9718,1.8695 -1.2539,0 -3.4038,0.4273 -4.7774,0.9495 -1.5591,0.5928 -3.7211,0.5987 -5.7537,0.016 -2.4766,-0.7102 -3.6453,-0.5817 -4.8813,0.5368 -1.2776,1.1562 -1.8855,1.2101 -2.8435,0.2522 -1.7936,-1.7937 -14.9802,-1.0145 -18.2748,1.0799 -3.6378,2.3125 -12.4505,12.1906 -13.307,14.9159 -0.3889,1.2375 -1.1112,2.25 -1.605,2.25 -1.8666,0 -8.4643,6.7206 -12.0796,12.3047 -2.0669,3.1926 -6.5998,8.3106 -10.0729,11.3734 -3.4732,3.0628 -6.7233,5.9441 -7.2225,6.4029 -1.6263,1.4947 1.5344,3.919 5.1095,3.919 3.2938,0 3.427,0.1368 2.8206,2.8975 -0.5041,2.2953 -0.096,3.4386 1.966,5.5 4.1918,4.19193 9.5115,2.8312 9.5115,-2.4327 0,-5.2606 4.7862,-4.1288 11.1934,2.6471 6.4588,6.83043 7.3015,13.46293 2.9522,23.23353 -1.5491,3.4799 -2.362,7.1443 -2.3292,10.5 0.079,8.112 -1.8302,17.4063 -4.1819,20.3544 -2.8692,3.5971 -5.9613,8.6918 -9.197,15.1537 -1.4744,2.9444 -4.5385,7.4715 -6.8091,10.0602 -6.2871,7.1676 -9.6202,11.3335 -11.2706,14.0863 -4.0679,6.7849 -15.2406,11.0978 -18.4576,7.125 -2.364,-2.9194 -3.088,-2.7192 -6.7799,1.875 -1.768,2.2 -3.8166,4 -4.5524,4 -1.849,0 -4.1321,3.7776 -4.9517,8.1934 -0.7023,3.7836 -5.2063,8.2958 -10.8454,10.8651 -2.7752,1.2645 -4.4949,5.1774 -2.5644,5.8351 9.0258,3.075 16.0713,31.1064 7.8184,31.1064 -1.1136,0 -2.0248,0.45 -2.0248,1 0,0.55 -1.1097,1 -2.4661,1 -1.3563,0 -4.0506,0.7556 -5.9874,1.6792 -4.9688,2.3694 -5.719,0.7189 -4.0071,-8.8154 0.386,-2.1497 0.1722,-4.5343 -0.523,-5.8332 -0.9318,-1.7411 -0.8846,-2.5429 0.2275,-3.8638 2.9292,-3.4791 0.8208,-5.677 -4.9939,-5.206 -1.2375,0.1003 -2.25,-0.2999 -2.25,-0.8893 0,-0.5893 -0.675,-1.0715 -1.5,-1.0715 -1.6405,0 -2.0067,-2.0426 -0.6365,-3.55 0.475,-0.5225 1.3427,-2.3871 1.9283,-4.1436 2.6659,-7.9955 -13.3308,-8.5914 -19.8475,-0.7393 -2.5368,3.0566 -3.1988,-4.0214 -0.7624,-8.1507 3.3276,-5.64 -2.4529,-8.6741 -6.3873,-3.3525 -1.143,1.546 -3.3643,3.3436 -4.9364,3.9948 -1.572,0.6511 -2.8582,1.4714 -2.8582,1.8228 0,1.9674 -5.3825,6.1185 -7.9335,6.1185 -5.7103,0 -4.092,6.5128 1.7875,7.1936 2.1764,0.252 2.7016,0.8832 2.9594,3.5564 0.3797,3.9384 1.8375,4.1052 6.7492,0.772 3.0578,-2.075 3.9999,-2.2888 5.7944,-1.3148 1.1787,0.6397 3.718,1.4249 5.643,1.7449 4.6291,0.7695 4.4535,2.906 -0.3752,4.566 -5.1636,1.7752 -15.5184,11.3864 -15.6022,14.4819 -0.022,0.825 1.3137,2.625 2.9689,4 1.7423,1.4473 3.7689,4.6732 4.8132,7.6616 0.9921,2.8389 2.3772,5.8525 3.078,6.697 0.7009,0.8445 1.1334,2.6108 0.9612,3.9252 -0.1723,1.3143 0.4674,3.1703 1.4215,4.1244 2.3618,2.3617 2.1886,3.29 -0.9175,4.9174 l -2.652,1.3896 2.9389,2.1729 c 3.5809,2.6474 2.8903,11.9422 -1.0182,13.7049 -1.106,0.4988 -3.9748,4.732 -6.3751,9.407 -4.6233,9.0043 -9.8564,16 -11.9689,16 -0.6999,0 -1.3059,0.5625 -1.3466,1.25 -0.1724,2.9097 -11.2334,10.101 -16.8942,10.9837 -3.0425,0.4744 -5.6909,1.3184 -5.8855,1.8755 -0.1961,0.5618 -1.1984,0.2485 -2.25,-0.7031 -1.806,-1.6344 -1.8963,-1.6135 -1.8963,0.4389 0,1.3736 -0.6345,2.1665 -1.75,2.1868 -0.9625,0.017 -2.5885,0.6668 -3.6133,1.443 -1.5555,1.1782 -12.2462,1.4252 -64.7252,1.4955 l -62.8618,0.084 -1.5047,-3.6011 c -1.2167,-2.912 -1.8911,-3.4784 -3.5248,-2.9599 -1.1656,0.37 -2.0202,0.1897 -2.0202,-0.4262 0,-0.587 -0.4988,-1.0673 -1.1084,-1.0673 -0.6688,0 -0.8709,0.9461 -0.5097,2.3855 1.3061,5.2039 5.7506,4.8011 -58.1319,5.2679 l -52.25,0.3818 -0.052,-2.2676 -0.052,-2.2676 -1.5695,2.25 c -2.0174,2.892 -16.119,3.4087 -18.3888,0.6737 -1.3638,-1.6432 0,-3.3719 2.6908,-3.4084 0.6201,-0.01 1.7416,-0.7553 2.4921,-1.6596 1.2161,-1.4652 1.1125,-1.5642 -0.9512,-0.9092 -3.0773,0.9767 -7.5855,-0.9887 -9.2038,-4.0125 -0.7164,-1.3387 -2.1418,-2.434 -3.1674,-2.434 -1.0711,0 -2.7436,-1.4896 -3.9298,-3.5 -1.1358,-1.925 -2.4181,-3.5 -2.8496,-3.5 -0.4315,0 -1.0253,-0.9204 -1.3195,-2.0453 -0.4867,-1.8612 -1.0148,-1.979 -5.8666,-1.3086 -22.8059,3.151 -51.0263,-0.5393 -52.2059,-6.8268 -0.9698,-5.1696 -3.813,-6.3912 -9.0144,-3.8733 -6.1318,2.9683 -9.5068,2.6152 -16.2475,-1.7 -3.2252,-2.0646 -6.764,-4.2475 -7.864,-4.8508 -1.1,-0.6034 -3.125,-3.327 -4.5,-6.0525 -5.0217,-9.9542 -5.2452,-10.1479 -10.6765,-9.255 -2.6529,0.4362 -5.4422,0.8199 -6.1985,0.8526 -3.3853,0.1468 3.3245,15.7752 8.4519,19.6861 2.2307,1.7014 3.4231,3.4516 3.4231,5.0244 0,1.3273 0.7362,4.0864 1.6359,6.1313 l 1.6359,3.7179 0.7567,-3.3427 c 0.7902,-3.4903 2.5268,-5.9354 3.5141,-4.9481 1.0845,1.0845 1.3948,7.0393 0.4579,8.7898 -1.632,3.0495 1.6628,4.7937 9.2385,4.8906 l 6.739,0.086 6.4328,-6.7236 6.4328,-6.7236 0.6159,2.9856 c 1.5807,7.6627 5.141,11.6108 11.6585,12.9283 3.6035,0.7284 10.2269,8.8953 9.3795,11.5652 -0.63,1.9851 -1.3276,2.0042 -63.8172,1.7496 l -63.1803,-0.2574 0.3111,-2.6701 c 0.4135,-3.5489 -3.1627,-10.3718 -6.5739,-12.5422 -3.3252,-2.1157 -4.0625,-3.059 -4.9146,-6.2877 -1.0338,-3.9172 -12.3575,-21 -13.9202,-21 -1.6243,0 -1.6467,-0.2425 -0.4854,-5.243 0.4781,-2.0586 0.5193,-3.5267 0.092,-3.2623 -0.4277,0.2644 -1.0806,2.5007 -1.4509,4.9696 -1.0857,7.2403 -5.5473,6.0525 -9.2565,-2.4643 -0.9271,-2.1288 -1.7229,-2.9691 -2.0311,-2.1449 -0.2787,0.7453 0.8965,3.346 2.6116,5.7792 1.7152,2.4333 3.1184,5.0594 3.1184,5.8359 0,0.7764 0.45,1.6898 1,2.0298 0.55,0.3399 1,1.3796 1,2.3104 0,1.9379 7.5983,16.8232 9.0434,17.7164 0.5261,0.3251 0.9566,2.2088 0.9566,4.1858 0,2.9115 0.7601,4.2963 4,7.2874 6.8069,6.284 9.2923,6 -52.5,6 h -56.5 z m 213.2158,-76.3432 3.7158,-1.032 -0.59,-8.2124 c -0.473,-6.5832 -0.9892,-8.5312 -2.6019,-9.8194 -1.3632,-1.0888 -1.6455,-1.8332 -0.8757,-2.309 1.5977,-0.9874 1.4144,-2.584 -0.2966,-2.584 -2.0039,0 -2.9934,-3.7818 -1.4699,-5.6176 0.7274,-0.8764 2.1276,-1.2953 3.3025,-0.9881 5.5658,1.4555 8.274,-1.7204 4.6,-5.3943 -1.1,-1.1 -2,-2.7261 -2,-3.6135 0,-1.6778 -3.266,-1.6168 -7.4044,0.1383 -1.7491,0.7418 -1.8503,0.4697 -1.2415,-3.3374 0.6166,-3.8565 0.4838,-4.19 -1.907,-4.7901 -1.7542,-0.4403 -3.5481,-2.3785 -5.6529,-6.108 -1.6957,-3.0046 -3.6931,-5.6971 -4.4386,-5.9832 -1.7955,-0.689 -1.7458,-3.3061 0.063,-3.3061 0.7801,0 2.3918,-1.575 3.5815,-3.5 1.7844,-2.8873 2.7572,-3.5 5.5559,-3.5 6.9177,0 9.3003,-12.3441 2.4441,-12.6627 -1.925,-0.089 -4.6474,-0.4622 -6.0498,-0.8283 -2.9584,-0.7723 -9.4106,2.3162 -16.1576,7.7345 -2.3609,1.8959 -5.092,3.7321 -6.069,4.0805 -3.0661,1.0933 -6.121,9.5793 -4.2091,11.692 0.8613,0.9517 1.9212,3.9775 2.3553,6.724 0.553,3.4977 2.1886,6.9951 5.4598,11.6747 2.5687,3.6746 4.6704,6.968 4.6704,7.3187 0,0.3507 0.9009,1.5965 2.0019,2.7685 2.0418,2.1734 0.8394,9.2848 -2.2334,13.2087 -3.1193,3.9833 -0.4602,13.2894 3.7973,13.2894 1.2764,0 2.9088,0.8221 3.6275,1.827 2.9433,4.1154 10.0378,5.3474 18.0225,3.1298 z m -188.7158,-10.9568 c -0.3399,-0.55 -1.379,-0.9932 -2.309,-0.9847 -1.4573,0.013 -1.4837,0.1493 -0.191,0.9847 1.9584,1.2655 3.2822,1.2655 2.5,0 z m 599.127,111.8778 c -3.8245,-5.4603 4.1725,-20.779 8.8297,-16.9138 1.8086,1.501 -1.7116,13.5907 -4.9169,16.8863 l -2.2859,2.3503 z m -427.627,-22.8778 c 0,-0.7334 0.3,-1.0334 0.6667,-0.6667 0.3667,0.3667 0.3667,0.9667 0,1.3333 -0.3667,0.3667 -0.6667,0.067 -0.6667,-0.6666 z m 488.6427,-36.7692 c -0.6134,-0.9925 -0.1293,-6.2624 0.7655,-8.3329 0.4713,-1.0908 -0.1216,-2.1354 -1.858,-3.2731 -5.0862,-3.3326 1.1972,-8.9217 6.9572,-6.1884 6.5874,3.126 3.5254,18.4828 -3.6984,18.5482 -0.93,0.01 -1.9049,-0.3308 -2.1663,-0.7538 z m 13.1163,-13.7116 c -0.6698,-3.5036 1.7535,-6.5192 5.2387,-6.5192 1.5864,0 3.1624,-0.45 3.5023,-1 0.9328,-1.5094 4.4865,-1.199 5.1181,0.447 0.9987,2.6027 -2.7821,6.4451 -5.7674,5.8613 -2.0699,-0.4048 -2.7954,-0.058 -3.3174,1.5868 -0.9412,2.9655 -4.1844,2.7102 -4.7743,-0.3759 z m 17.2208,-4.557 c -0.5998,-1.1208 -0.8151,-2.9058 -0.4784,-3.9667 0.7161,-2.2561 -3.6598,-3.9299 -5.7644,-2.205 -0.6803,0.5577 -3.262,1.5301 -5.737,2.1611 -2.475,0.6309 -5.175,1.4178 -6,1.7486 -3.6773,1.4745 -8,1.0092 -8,-0.8612 0,-1.0115 0.5001,-1.839 1.1112,-1.839 0.6112,0 3.2612,-1.8 5.8888,-4 3.8465,-3.2205 5.5662,-4 8.8237,-4 2.2254,0 5.2299,-0.4501 6.6767,-1.0002 1.5367,-0.5843 3.331,-0.6404 4.3151,-0.1351 2.1525,1.1053 4.1845,0.3851 4.1845,-1.4833 0,-2.0409 2.9952,-6.3814 4.4036,-6.3814 8.4325,0 19.5964,-14.4605 19.5964,-25.383 0,-5.6735 1.1805,-7.617 4.6267,-7.617 1.2854,0 2.4137,-0.7398 2.6692,-1.75 0.3027,-1.1972 0.6799,-0.7304 1.1938,1.4775 0.4133,1.7752 1.3721,3.7428 2.1308,4.3725 1.6028,1.3301 1.9066,10.4562 0.3795,11.4 -0.55,0.3399 -1,1.3832 -1,2.3184 0,0.9353 -0.9493,2.2933 -2.1096,3.0179 -1.6583,1.0357 -1.9819,1.9561 -1.5126,4.3028 0.3499,1.7494 -0.039,4.5071 -0.9389,6.6614 -0.8448,2.0219 -1.2748,4.7169 -0.9556,5.9888 1.0577,4.2144 -5.3022,10.6998 -6.8261,6.9607 -0.348,-0.854 -1.0948,-0.529 -2.3572,1.026 -1.4315,1.7631 -2.1168,2.0071 -3.0411,1.0828 -0.9244,-0.9244 -1.344,-0.8006 -1.8619,0.5491 -0.5631,1.4674 -1.4468,1.6353 -5.6003,1.0641 -3.8718,-0.5325 -4.8741,-0.3875 -4.6635,0.6748 0.8121,4.0977 -7.3108,9.2583 -9.1534,5.8154 z m -629.6366,-7.5103 c -0.7211,-1.8793 2.2959,-4.3758 5.3417,-4.4201 1.2017,-0.017 3.4302,-0.5053 4.9522,-1.084 2.6674,-1.0141 2.7057,-0.9841 1.0629,0.8312 -0.9374,1.0358 -1.4093,2.1783 -1.0486,2.539 0.7432,0.7432 -5.762,3.682 -8.1506,3.682 -0.86,0 -1.8309,-0.6967 -2.1576,-1.5481 z m -47.8987,-1.5417 c -0.2571,-0.416 -1.8567,-1.0615 -3.5548,-1.4345 -1.698,-0.3729 -2.7054,-1.0515 -2.2385,-1.5078 1.1827,-1.1561 11.6015,0.2799 12.0604,1.6622 0.4182,1.2596 -5.529,2.4743 -6.2671,1.2801 z m 706.2027,-55.4679 c -0.6649,-4.8504 2.4437,-9.3336 6.5253,-9.4107 2.2098,-0.042 4.1132,-5.946 4.1132,-12.7588 0,-7.1785 0.7606,-7.27 7.1683,-0.8624 3.7077,3.7078 6.8253,5.8569 9.5669,6.5952 2.8729,0.7736 4.3476,1.8334 5.023,3.6098 1.4977,3.9391 1.2502,4.3139 -3.7233,5.6384 -3.5299,0.94 -5.1481,2.0397 -6.5873,4.4767 l -1.9079,3.2305 -3.1627,-1.6968 c -4.6463,-2.4927 -16.7499,-2.2903 -12.7004,0.2124 1.2649,0.7818 -0.87,5.5234 -2.4869,5.5234 -0.6706,0 -1.4801,-2.0181 -1.8282,-4.5577 z m 47.9176,-25.3376 c -0.3043,-0.4923 0.1559,-1.1673 1.0228,-1.5 2.7535,-1.0566 3.7312,-0.6938 2.4124,0.8953 -1.4122,1.7015 -2.6254,1.9151 -3.4352,0.6047 z m -35.2848,-10.2673 c -0.7772,-0.9366 -0.8535,-3.6725 -0.2519,-9.0371 0.479,-4.2714 0.4824,-9.0203 0.01,-10.6758 -0.4704,-1.64 -0.4753,-4.7015 -0.011,-6.8032 1.3454,-6.0891 1.008,-20.338 -0.5382,-22.727 -2.413,-3.7284 -0.8246,-18.1193 2.1495,-19.4744 1.8337,-0.83553 2.3638,-1.86683 2.3638,-4.59853 0,-10.3498 4.2835,4.2311 4.5472,15.47863 0.1451,6.1878 3.1361,21.4662 5.3179,27.1642 0.9668,2.5247 0.8268,2.7096 -2.6724,3.5309 -5.6176,1.3185 -8.4905,10.416 -5.3042,16.7961 2.7382,5.4826 2.7758,7.9157 0.1115,7.219 -1.1,-0.2877 -2,-0.2011 -2,0.1922 0,2.1566 -2.6384,4.2382 -3.72,2.935 z m -756.28,-112.77843 c 0,-3.0338 1.2924,-4.6144 2.9403,-3.596 1.1283,0.6974 -0.6924,6.537 -2.0381,6.537 -0.4962,0 -0.9022,-1.3235 -0.9022,-2.941 z m 22,-9.0094 c 0,-2.3311 2.5625,-3.9768 5.1421,-3.3023 2.5845,0.6759 2.3277,1.5439 -1.0464,3.537 -3.6819,2.175 -4.0957,2.1513 -4.0957,-0.2347 z m 867,-5.524 c 0,-2.0111 0.4973,-2.5256 2.441,-2.5256 3.6986,0 3.9916,1.7249 0.5917,3.483 -2.9904,1.5464 -3.0327,1.5331 -3.0327,-0.9574 z m -888.9608,-14.307 0.039,-4.7186 1.4609,3.3648 c 1.8263,4.2065 1.8222,4.7825 -0.039,5.4968 -1.2057,0.4627 -1.4923,-0.3501 -1.4608,-4.143 z m 6.9608,-3.2186 c 0,-0.55 0.9266,-1 2.059,-1 1.1325,0 1.7809,0.45 1.441,1 -0.3399,0.55 -1.2665,1 -2.059,1 -0.7925,0 -1.441,-0.45 -1.441,-1 z m 176.2124,-124.4333 c -3.3909,-7.4421 3.6834,-13.4163 9.1411,-7.7197 l 2.8125,2.9356 -2.833,3.073 c -4.0037,4.3428 -7.613,5.0199 -9.1206,1.7111 z m 734.9134,-14.3333 c -4.0298,-2.3799 -4.2293,-2.6846 -2.5571,-3.9073 4.5641,-3.3374 10.5367,0.8171 7.6643,5.3312 -0.5212,0.819 -2.0141,0.4028 -5.1072,-1.4239 z m -670.0528,-4.9322 c -5.6895,-8.0718 -1.3004,-10.8793 5.405,-3.4573 l 3.9245,4.3439 -2.4513,1.8838 c -3.2745,2.5166 -3.1028,2.5858 -6.8782,-2.7704 z m -25.073,-12.2219 c -6.3524,-1.2535 -7.4063,-2.4018 -8.4954,-9.2564 l -1.0046,-6.3229 -4.4835,-0.319 c -5.2762,-0.3752 -5.9808,-1.2098 -6.0012,-7.1082 -0.013,-3.6884 0.4846,-4.8565 2.9804,-7 2.1821,-1.8741 3.8715,-5.1529 6.2208,-12.0728 1.7738,-5.225 3.6883,-9.8307 4.2543,-10.2347 1.7364,-1.2395 9.4009,-0.8458 13.0266,0.6691 l 3.4331,1.4344 -3.4653,7.5001 c -4.1934,9.0761 -4.5901,15.8866 -1.3569,23.2981 1.1596,2.6581 3.6175,8.3205 5.4621,12.583 l 3.3538,7.75 -5.2121,-0.115 c -2.8666,-0.063 -6.7871,-0.4258 -8.7121,-0.8057 z m 759,-6.8832 c 0,-8.7917 11.0087,-13.4779 18.4065,-7.8352 6.499,4.9569 0.224,11.2078 -9.3407,9.3049 -1.4112,-0.2808 -3.6908,0.1136 -5.0658,0.8764 -3.6654,2.0334 -4,1.8372 -4,-2.3461 z m -227.7847,-46.4918 c -6.6527,-2.23531 -7.2982,-3.76941 -4.1325,-9.82221 3.3519,-6.409 15.7972,0.9103 14.3813,8.4579 -0.8025,4.27741 -1.3587,4.35151 -10.2488,1.36431 z m -524.9978,-1.13761 c -4.8331,-0.9519 -7.0957,-2.0252 -9.8076,-4.6521 l -3.5251,-3.4146 2.7741,-2.3883 c 1.7556,-1.5114 5.4255,-8.2372 9.9951,-18.3179 10.2495,-22.6106 14.1022,-26.8806 29.5214,-32.7197 16.5249,-6.2578 29.2847,-13.3032 36.3246,-20.057 7.8527,-7.5335 11.4121,-7.2421 13.3358,1.0919 2.105,9.1194 -3.1492,14.0985 -31.3059,29.6667 -13.7689,7.613 -14.021,7.8146 -17.5,13.9986 -2.5227,4.484 -4.7596,7.007 -7.8398,8.8423 -4.3328,2.5818 -6.1901,5.5329 -6.1901,9.8356 0,1.8251 -8.6474,19.84841 -9.3318,19.44981 -0.093,-0.054 -2.9953,-0.6548 -6.4507,-1.33531 z m 343.6294,-17.4176 c -2.6448,-1.6993 -1.892,-8.1491 0.9512,-8.1491 1.6869,0 7.2019,3.146 7.2019,4.1084 0,4.528 -4.1745,6.597 -8.1531,4.0407 z m 162.5452,-11.8939 c -1.8452,-0.8808 -4.4466,-3.6925 -6.4031,-6.9207 l -3.2953,-5.4372 1.3251,-8.5179 c 1.2509,-8.0412 1.5494,-8.7099 5.3331,-11.9487 5.015,-4.2926 4.8963,-4.3045 8.6115,0.8687 5.2571,7.3204 8.1481,8.4113 13.6878,5.1648 7.4258,-4.3518 24.7414,2.1702 21.0385,7.9242 -0.7473,1.1614 -2.5631,4.1844 -4.0351,6.718 -2.6418,4.547 -2.7567,4.6139 -8.9155,5.1937 -3.8086,0.3585 -8.9473,1.8175 -13.1911,3.7452 -10.5397,4.7874 -10.7507,4.8353 -14.1559,3.2099 z m 60.4385,-2.1236 c -3.2322,-0.7648 -13.7788,-8.1936 -13.809,-9.7267 -0.084,-4.246 6.7995,-4.5291 22.557,-0.9279 1.9852,0.4537 4.4214,4.2304 4.4214,6.8544 0,3.2226 -7.0335,5.2522 -13.1694,3.8002 z m -774.273,-70.3816 c -0.2088,-0.6875 -0.8877,-3.4334 -1.5087,-6.1019 -0.6209,-2.6685 -2.9109,-8.396 -5.0889,-12.7278 -4.78,-9.5069 -4.7634,-9.2281 -0.639,-10.7195 5.1921,-1.8774 5.3975,-1.7215 10.1216,7.6848 3.6898,7.3468 5.0104,9.0766 7.6253,9.9882 3.1762,1.1072 3.6421,5.5066 1.2447,11.754 -0.6958,1.8132 -11.2082,1.9224 -11.755,0.1222 z m -21.4262,-39.25 c 0.054,-18.4171 0.3358,-24.0784 1.0714,-21.5 3.534,12.386 2.9845,11.4742 7.1203,11.8147 3.6092,0.2971 3.9859,0.6589 6.7327,6.4672 3.1815,6.7272 3.127,6.9391 -2.2258,8.6484 -4.5902,1.4658 -4.8734,1.8216 -9.2114,11.5697 l -3.56,8 z m 503.3462,13.0276 c -1.4989,-4.1098 -2.4867,-8.2723 -2.1951,-9.25 0.8335,-2.7941 6.9924,-19.7359 7.324,-20.1465 2.9575,-3.662 22.1628,15.1248 23.0408,22.5388 l 0.589,4.9727 -4.9844,3.5809 c -4.4429,3.1919 -13.4326,5.7765 -20.092,5.7765 -0.5263,0 -2.1834,-3.3626 -3.6823,-7.4724 z m -28.3002,-16.8638 c -8.5964,-4.9047 -18.0006,-13.7582 -18.1392,-17.0769 -0.021,-0.5022 2.4742,-5.5017 5.5448,-11.1101 l 5.583,-10.197 8.5219,-1.1921 8.5218,-1.1922 6.1452,5.7279 c 3.3798,3.1503 6.7166,6.2363 7.415,6.8578 1.0252,0.9123 0.9786,3.3357 -0.2419,12.5744 -0.8315,6.2944 -1.5224,12.7944 -1.5352,14.4444 -0.063,8.0413 -8.932,8.5145 -21.8154,1.1638 z m -452.3624,-10.9673 c -20.7576,-7.6399 -29.5099,-23.5722 -16.065,-29.2441 3.7125,-1.5662 9,-4.175 11.75,-5.7974 6.1704,-3.6403 4.509,-3.7406 20.0248,1.2085 l 13.0247,4.1546 1.0734,4.6266 c 1.5053,6.488 -5.9386,20.4243 -13.5019,25.2776 -5.8162,3.7323 -5.5413,3.7361 -16.306,-0.2258 z m 435.685,-26.4067 c -1.65,-1.4091 -4.9135,-4.3109 -7.2522,-6.4486 l -4.2523,-3.8866 5.3622,-8.0092 c 4.916,-7.3427 5.3031,-8.3318 4.653,-11.8868 -2.228,-12.1842 16.0406,-15.4456 23.8625,-4.26 l 5.3731,7.6838 -1.7808,10.0088 c -2.1498,12.0829 -1.4181,11.18 -10.9418,13.503 -4.2788,1.0437 -8.7346,2.7886 -9.9017,3.8776 -2.12,1.9782 -2.1247,1.9776 -5.122,-0.582 z m -203.8433,-14.0304 -4.8433,-1.6104 0.6786,-5.5745 c 0.8783,-7.2151 0.8788,-7.2155 9.7903,-6.8694 l 7.5925,0.2949 -3.2833,7.4486 c -3.7805,8.5767 -3.5535,8.4325 -9.9348,6.3108 z m -31.9067,-9.4131 c -2.6125,-1.6585 -4.7434,-3.5399 -4.7354,-4.1809 0.015,-1.2322 2.7612,-9.4936 3.614,-10.8734 0.5126,-0.8295 18.3725,10.9026 18.3701,12.0672 0,0.5387 -8.2363,4.6023 -11.4987,5.674 -0.55,0.1806 -3.1375,-1.0285 -5.75,-2.6869 z"
         id="path7" /><path
         style="fill:#daaa44;fill-opacity:1"
         d="m 6779.4413,-609.33626 c -1.2502,-1.3308 -3.5787,-2.9604 -5.1744,-3.6214 -1.5956,-0.6609 -2.9012,-1.8063 -2.9012,-2.5452 0,-1.9347 -3.6192,-3.5895 -7.3167,-3.3454 -1.7508,0.1156 -5.2083,-0.7426 -7.6833,-1.9071 -2.475,-1.1646 -5.5269,-2.1273 -6.7821,-2.1394 -1.2552,-0.012 -3.8898,-0.6937 -5.8548,-1.5147 -1.9649,-0.821 -4.5415,-1.2496 -5.7256,-0.9524 -1.5803,0.3966 -3.0816,-0.4289 -5.6452,-3.1041 -1.9207,-2.0045 -4.3923,-4.0702 -5.4923,-4.5906 -7.6315,-3.6099 -11.1892,-7.8601 -6.5794,-7.8601 1.3208,0 2.1263,-0.9368 2.5794,-3 0.3624,-1.65 1.0619,-3 1.5545,-3 0.4925,0 0.6456,-1.2495 0.3402,-2.7765 -0.4877,-2.4384 -0.089,-3.0136 3.275,-4.7229 l 3.8303,-1.9463 -3.25,-0.3405 c -5.4067,-0.5665 -2.6406,-6.2138 3.0436,-6.2138 3.4381,0 4.8053,-2.628 3.7655,-7.2381 -0.4885,-2.1657 -0.4233,-3.9977 0.163,-4.584 2.6028,-2.6029 -4.5614,-9.0697 -10.1433,-9.156 -0.7817,-0.012 -2.2706,-0.7906 -3.3087,-1.7301 -1.2503,-1.1315 -3.1949,-1.6136 -5.7608,-1.4284 -4.7815,0.3452 -7.5925,-1.0669 -8.3815,-4.2105 -0.3572,-1.4231 -1.8572,-2.9196 -3.6857,-3.6769 -2.4773,-1.0262 -2.9734,-1.7152 -2.5239,-3.506 0.3578,-1.4257 -0.2244,-3.2633 -1.6155,-5.0994 -1.1961,-1.5789 -2.2313,-2.9734 -2.3003,-3.0989 -0.069,-0.1255 -2.7767,0.2033 -6.0169,0.7306 -6.7312,1.0956 -7.4459,0.6063 -7.4702,-5.1137 -0.014,-3.2371 0.2241,-3.5655 2.2955,-3.1696 6.1002,1.1661 4.9258,-4.4824 -2.4693,-11.8776 -1.0445,-1.0445 -2.0038,-4.1542 -2.4222,-7.852 -0.7228,-6.3892 -3.5229,-9.9311 -6.8436,-8.6569 -4.4354,1.7021 -11.2283,-3.9768 -12.5737,-10.5117 -0.7157,-3.4765 -1.7391,-6.8833 -2.2741,-7.5708 -0.6476,-0.8322 -0.5525,-1.7565 0.2847,-2.7652 0.9761,-1.1762 1.0112,-2.7415 0.1566,-6.9967 -0.9608,-4.7842 -0.8507,-6.0652 0.865,-10.0678 1.0812,-2.5224 1.9658,-5.2239 1.9658,-6.0033 0,-0.842 1.0069,-1.417 2.481,-1.417 3.1119,0 4.2852,-3.736 2.5153,-8.0091 -1.0527,-2.5414 -1.6093,-2.8752 -3.8544,-2.3117 -2.2686,0.5694 -1.7398,-0.3462 3.9049,-6.7603 16.7479,-19.03104 18.1766,-22.55164 11.9101,-29.34994 -3.8636,-4.1915 -4.1499,-4.8499 -3.1058,-7.1416 0.912,-2.0015 0.8394,-3.1254 -0.3504,-5.4262 -0.8254,-1.5961 -1.5007,-4.0227 -1.5007,-5.3926 0,-1.3698 -0.5034,-2.8017 -1.1186,-3.182 -0.7767,-0.48 -0.9047,-3.4265 -0.4186,-9.6394 0.616,-7.875 0.4251,-9.7266 -1.5917,-15.4394 l -2.2916,-6.4913 2.3861,-4.4977 c 2.7822,-5.2444 2.1098,-8.5584 -3.2662,-16.0978 -6.3557,-8.9135 11.0991,-32.3504 20.5506,-27.5937 3.12,1.5702 3.4018,2.5469 1.25,4.3327 -3.0526,2.5334 0.4754,4.2941 12.9428,6.4591 7.1248,1.2373 7.4661,1.4395 20.6509,12.2365 7.3735,6.0381 14.3656,11.4891 15.538,12.1132 6.6829,3.5578 2.7563,19.6515 -5.8412,23.9412 -6.0964,3.0417 -22.1896,0.6585 -27.6988,-4.102 -1.459,-1.2607 -13.3602,-5.648 -15.321,-5.648 -1.4821,0 1.0977,3.7437 6.8932,10.0037 5.4046,5.8375 5.599,6.2332 4.6234,9.412 -0.7592,2.4735 -0.6708,4.1452 0.3471,6.5661 0.7511,1.7863 1.3656,4.5346 1.3656,6.1073 0,2.1638 0.7276,3.2357 2.9906,4.406 1.6448,0.8506 3.7195,2.6589 4.6104,4.0186 2.0923,3.1932 8.6846,5.324 10.8673,3.5126 2.4983,-2.0734 1.934,-5.8873 -0.9794,-6.6185 -3.2942,-0.8268 -6.8229,-5.7802 -5.9891,-8.4072 0.7922,-2.4961 1.9349,-2.5116 5.8822,-0.08 1.7149,1.0566 5.413,2.8234 8.218,3.9263 l 5.0999,2.0052 1.6177,-3.3923 c 1.4457,-3.0317 1.4622,-3.8329 0.1555,-7.5366 -1.4422,-4.0875 -1.4246,-4.1728 1.2823,-6.2154 1.5096,-1.139 4.8786,-4.2342 7.4867,-6.8781 l 4.7422,-4.8072 5.0449,1.9885 c 6.2642,2.4692 5.807,2.518 7.1283,-0.7614 1.5734,-3.9052 1.0715,-9.4361 -1.0504,-11.5738 -1.6643,-1.6769 -1.6995,-2.2812 -0.4358,-7.5 0.7601,-3.1394 1.1133,-7.5757 0.7903,-9.9262 l -0.5841,-4.25 h 5.4381 5.4381 l 2.1232,4.9353 c 2.6265,6.1056 2.6278,6.0647 -0.1857,6.0647 -2.379,0 -4.3554,1.2593 -6.5489,4.173 -1.7992,2.39 4.2914,11.7827 7.6574,11.809 5.585,0.044 9.2003,-3.5106 9.2003,-9.0448 0,-2.3056 0.5451,-3.036 2.6624,-3.5674 1.4643,-0.3675 5.5034,-3.0783 8.9759,-6.0241 3.4724,-2.9458 8.6352,-6.2711 11.4729,-7.3896 2.8377,-1.1185 6.7861,-3.3759 8.7742,-5.0165 l 3.6146,-2.9828 0.6503,2.2716 c 0.3577,1.2493 0.6952,3.9894 0.75,6.0889 0.1181,4.5214 1.6542,4.4263 8.922,-0.5521 3.5205,-2.4115 4.9586,-2.8413 7.7531,-2.3171 2.7755,0.5207 4.242,0.094 7.6777,-2.2321 2.3358,-1.5816 4.7666,-3.1774 5.4018,-3.5461 0.6973,-0.4048 2.1997,1.1126 3.7921,3.8298 3.2104,5.478 2.7808,5.4831 6.6062,-0.077 l 3.1492,-4.5773 -2.1287,-5.1224 -2.1288,-5.1224 2.3453,-2.3454 c 2.4755,-2.4755 2.2791,-2.4787 14.2948,0.23 1.1467,0.2585 8.9897,5.4301 17.429,11.4924 17.6941,12.7104 16.3052,12.1812 18.3774,7.0021 2.0483,-5.119 2.0215,-5.6385 -0.3228,-6.2516 -1.2358,-0.3231 -2.3263,-1.9715 -3.0277,-4.5764 -0.7464,-2.7718 -2.0333,-4.6249 -4.0317,-5.8054 -3.7072,-2.1899 -4.3792,-5.2701 -3.0142,-13.815 0.9197,-5.7571 0.8506,-7.0445 -0.4554,-8.4876 -2.8029,-3.0972 -1.8692,-6.7771 3.0557,-12.0421 4.0803,-4.3622 4.8705,-5.9969 7.0521,-14.5882 3.8011,-14.9694 10.0738,-18.6406 20.9176,-12.2426 l 3.6793,2.1708 -0.5151,6.5792 c -0.2832,3.6185 -1.5026,8.7581 -2.7096,11.4212 l -2.1946,4.842 2.334,6.158 c 2.1666,5.7162 2.3089,7.3303 1.9843,22.5002 l -0.3498,16.3423 3.1094,4.3298 c 3.476,4.8402 3.1252,11.8896 -0.8732,17.5466 -0.9955,1.4086 -3.26,5.4586 -5.0322,9 -4.9185,9.8291 -5.5709,10.3658 -9.5854,7.8847 -3.3565,-2.0744 -7.9557,-1.0764 -7.0844,1.5374 1.4307,4.2921 15.6398,6.8148 17.6134,3.1271 0.7101,-1.3268 3.2703,-3.8953 5.6894,-5.7079 3.0549,-2.2889 4.7004,-4.4174 5.3873,-6.9684 0.544,-2.02 1.9359,-4.8765 3.0931,-6.3477 1.879,-2.3887 1.9857,-3.1457 0.9967,-7.0734 -2.4091,-9.5673 -1.679,-11.207 6.1515,-13.8134 l 4.7591,-1.5841 2.0112,3.9424 c 2.4698,4.8411 3.178,4.9111 4.5737,0.4519 l 1.0925,-3.4904 -5.3527,-3.0209 c -5.1309,-2.8957 -5.4991,-2.9598 -8.8808,-1.5469 -9.5392,3.9858 -12.6914,-2.9568 -8.3867,-18.4714 l 2.0754,-7.4799 -3.7505,-7.6985 -3.7505,-7.6985 1.7376,-3.8015 c 1.1649,-2.5486 3.7755,-5.2093 7.9208,-8.0728 l 6.1832,-4.2713 0.8442,3.2713 c 1.1777,4.5637 0.8848,4.5831 8.6405,-0.5741 10.2497,-6.8156 16.6819,-5.5087 23.6968,4.8145 2.1704,3.1941 11.3271,5.6173 11.3271,2.9976 0,-2.7825 -5.5622,-10.6548 -8.8232,-12.4876 -4.2028,-2.3621 -6.1768,-8.5252 -6.1768,-19.2854 0,-5.544 -0.4021,-5.2766 10.0283,-6.6668 7.7312,-1.0304 15.2567,-2.68 23.6361,-5.181 l 3.1643,-0.9445 0.6091,-8.7007 c 1.2019,-17.168 11.0508,-27.5725 32.3011,-34.1234 8.6398,-2.6634 10.6701,-3.6968 13,-6.6168 3.2925,-4.1265 3.5971,-4.1529 11.3881,-0.9871 l 6.0872,2.4735 10.6249,-7.2235 10.625,-7.2234 1.8903,-6.5 c 4.9602,-17.0564 17.7123,-28.8251 26.0591,-24.0496 l 5.583,3.1943 -3.0296,4.4034 -3.0297,4.4035 6.6697,3.0242 c 3.6684,1.6633 7.0041,3.0242 7.4127,3.0242 0.4087,0 1.9848,1.628 3.5026,3.6179 l 2.7596,3.618 8.6091,-0.6421 8.6091,-0.6421 5.181,5.0546 c 10.4226,10.1683 13.1544,17.7158 10.7477,29.6947 -0.6508,3.2393 -10.4065,14.3104 -17.6342,20.0118 -3.5303,2.7848 -8.2706,7.8715 -10.7945,11.5832 -3.1976,4.7026 -5.3035,6.7998 -7.2763,7.2462 -2.3803,0.5386 -7.7237,8.0965 -7.7237,10.9245 0,6.0959 20.3426,-4.9514 21.8956,-11.8906 1.4561,-6.5065 1.3206,-6.4591 7.4136,-2.595 6.8256,4.3286 15.7409,6.2096 21.0688,4.4452 3.39,-1.1227 5.7203,-1.1486 13.122,-0.1457 l 9,1.2194 0.3078,3.7059 c 0.5755,6.9307 6.2085,9.7941 19.2679,9.7941 h 10.6817 l 1.2299,-2.9692 c 0.9279,-2.2403 0.9566,-3.7531 0.1168,-6.1622 -0.6122,-1.7561 -0.9986,-3.2657 -0.8586,-3.3546 0.14,-0.089 1.644,-1.1196 3.3422,-2.2904 l 3.0878,-2.1287 3.6994,2.5138 c 2.7121,1.843 5.5415,2.6683 10.6018,3.0925 9.6632,0.8101 12.2704,3.5649 14.4792,15.2988 l 1.6,8.5 -3.146,2.5706 -3.1461,2.5706 4.2118,9.4563 c 8.2796,18.5892 13.6491,19.9171 18.5845,4.5959 l 3.0961,-9.6112 4.7807,4.8537 4.7808,4.8537 5.3613,-2.4544 5.3613,-2.4545 4.5819,2.6851 4.5818,2.6851 2.198,-2.0216 c 1.2089,-1.1119 4.422,-2.6386 7.1403,-3.3926 l 4.9423,-1.3711 0.058,-7.9741 0.058,-7.9741 7,-2.2878 c 8.7656,-2.8649 23.4385,-1.1098 31.5,3.7678 3.6135,2.1864 5.3541,2.6295 8.8358,2.2494 7.0751,-0.7723 11.4988,1.8711 15.6984,9.3807 1.9455,3.4788 4.9837,7.4352 6.7515,8.7919 1.7679,1.3566 4.3393,4.3154 5.7143,6.5749 l 2.5,4.1083 4.9436,-0.6718 c 2.719,-0.3695 7.4138,-1.5217 10.433,-2.5604 16.0515,-5.5225 30.6623,2.6264 30.0087,16.7368 l -0.2511,5.4198 5.2028,3.6422 5.2027,3.6421 2.4863,-2.3357 c 2.6421,-2.4821 12.0874,-4.4311 14.0256,-2.894 2.6827,2.1274 15.1689,3.2275 17.5671,1.5478 3.2027,-2.2433 3.5547,-2.1201 5.4693,1.9146 0.9249,1.9492 2.9905,4.2209 4.5902,5.0481 1.5997,0.8272 3.4113,2.6074 4.0257,3.956 2.9063,6.3787 10.7901,1.3006 8.9688,-5.777 -0.6045,-2.3491 -1.3733,-6.5637 -1.7083,-9.3658 l -0.6093,-5.0946 6.8225,1.4002 c 3.7523,0.7701 7.2499,1.8251 7.7724,2.3446 0.5225,0.5194 5.1781,0.9445 10.3457,0.9445 7.5215,0 9.925,0.3692 12.05,1.8513 1.4599,1.0182 4.9043,2.6646 7.6543,3.6587 2.75,0.994 7.025,3.6725 9.5,5.9521 2.475,2.2796 5.8128,4.7957 7.4172,5.5913 1.6045,0.7956 5.6616,3.9304 9.0157,6.9661 3.3542,3.0358 8.2439,7.0603 10.866,8.9434 2.6221,1.8831 6.1084,5.6029 7.7471,8.2663 2.3114,3.7565 3.4814,4.7783 5.2168,4.5566 1.2305,-0.1572 4.373,0.6142 6.9835,1.7142 l 4.7462,2 v 13.1732 c 0,12.5952 -0.106,13.3037 -2.4963,16.1444 -1.375,1.6341 -2.5,4.1436 -2.5,5.5767 0,3.4285 -1.8292,3.3175 -6.5,-0.3943 -2.0762,-1.65 -4.4086,-3 -5.1829,-3 -2.3341,0 -6.3171,-4.7325 -6.3171,-7.5056 0,-3.5804 -5.0397,-5.7259 -10.5374,-4.486 -2.1485,0.4846 -3.9743,0.7934 -4.0573,0.6863 -0.083,-0.1071 -0.8885,-1.6452 -1.7899,-3.4179 -2.3598,-4.6408 -6.7542,-2.9069 -5.9044,2.3297 0.6234,3.8414 -9.4154,15.1046 -12.4311,13.9473 -7.6906,-2.9511 -9.1029,1.0422 -2.2799,6.4462 3.0503,2.4158 4,3.8699 4,6.1245 0,1.626 0.8757,4.1757 1.9461,5.6659 5.7322,7.981 3.2311,14.0628 -4.731,11.504 l -5.2848,-1.6985 -7.2152,3.7372 c -3.9683,2.0555 -8.3401,4.3827 -9.7151,5.1717 -1.375,0.789 -4.1804,2.1711 -6.2342,3.0713 -2.0538,0.9002 -4.6226,3.0741 -5.7083,4.83084 -1.0857,1.7568 -4.1303,4.7383 -6.7657,6.6256 -2.6355,1.8873 -5.8312,4.5468 -7.1016,5.91 l -2.3098,2.4786 -2.565,-3.2774 c -2.7755,-3.5464 -7.2112,-3.7502 -13.3463,-0.6131 -1.7907,0.9156 -3.0625,0.9965 -4.3489,0.2767 -1.3905,-0.7782 -2.9439,-0.4048 -6.6045,1.5876 -2.6325,1.4328 -6.3229,2.6051 -8.201,2.6051 -4.2423,0 -5.8147,1.4965 -5.8147,5.5342 0,2.0285 -1.3854,5.1119 -3.927,8.7402 -5.5216,7.8823 -5.2132,13.7256 0.7243,13.7256 2.1937,0 2.2339,0.1174 0.7594,2.2225 -2.1427,3.0592 -1.9498,6.9964 0.4433,9.0454 2.6089,2.2338 2.5742,4.7321 -0.066,4.7321 -5.4942,0 -9.1828,6.9797 -6.9991,13.2439 1.3629,3.9094 -0.043,5.7561 -4.3833,5.7561 -4.3118,0 -7.5519,3.5102 -7.5519,8.1815 0,3.0342 -0.5811,3.9372 -3.9814,6.1875 -2.4832,1.6433 -4.2072,3.6689 -4.5813,5.3828 -1.1788,5.4003 -2.6181,8.0188 -6.4815,11.7913 -4.7457,4.6341 -4.8796,4.5284 -5.9578,-4.6984 -0.4721,-4.0396 -1.8763,-13.1169 -3.1205,-20.1718 -2.4637,-13.969 -1.8078,-26.4238 1.637,-31.0858 0.8483,-1.1479 2.8335,-4.0153 4.4117,-6.3718 1.5782,-2.3566 4.7284,-5.6313 7.0005,-7.2772 2.2721,-1.6459 5.3555,-4.8372 6.8522,-7.0919 1.4966,-2.2547 4.7675,-6.405 7.2685,-9.2228 2.5011,-2.8179 6.4567,-7.4575 8.7903,-10.3103 2.3336,-2.8528 5.9899,-6.0028 8.1252,-7 4.5131,-2.1078 5.5841,-5.0091 6.4616,-17.50504 l 0.5402,-7.6918 -2.9602,1.0319 c -2.7847,0.9708 -4.9795,5.1958 -4.9989,9.6232 0,0.6993 -1.0181,1.7507 -2.2556,2.3364 -1.2375,0.5858 -4.275,3.5315 -6.75,6.54604 l -4.5,5.481 -2.6569,-3.1681 c -2.5117,-2.9951 -2.5802,-3.3516 -1.2535,-6.52694 1.6062,-3.8441 2.2043,-3.6494 -10.5692,-3.4402 -7.1917,0.1177 -9.2968,1.3329 -11.5179,6.64864 -0.7328,1.7539 -3.2832,5.0789 -5.6674,7.389 -8.0803,7.8286 -9.4363,11.393 -5.6695,14.9024 l 2.1657,2.0176 -3.4016,1.4303 c -2.1795,0.9164 -3.9977,1.1112 -5.0606,0.5424 -1.1266,-0.603 -2.053,-0.4133 -2.8865,0.5911 -1.8713,2.2547 -3.615,1.8058 -7.8509,-2.021 -2.1307,-1.925 -4.6876,-3.5 -5.6819,-3.5 -0.9943,0 -3.3437,-0.5554 -5.2209,-1.2343 -2.8892,-1.0447 -3.591,-0.9983 -4.571,0.3022 -1.5272,2.0264 -11.3453,4.1446 -15.4272,3.3282 -1.9347,-0.3869 -3.7914,-0.1757 -4.6392,0.5279 -0.9659,0.8017 -1.6186,0.8411 -2.0615,0.1245 -1.1404,-1.8453 -15.1048,-1.2777 -18.4381,0.7494 -3.1823,1.9353 -14.0919,13.6897 -14.0919,15.1832 0,0.4981 -2.5306,3.2936 -5.6237,6.2122 -3.093,2.9187 -7.3182,7.7817 -9.3891,10.8067 -2.071,3.025 -6.7397,7.9467 -10.3748,10.9372 l -6.6093,5.4372 2.2391,2.3833 c 1.4697,1.5645 3.0154,2.235 4.4984,1.9515 1.9778,-0.3781 2.2594,-0.019 2.2594,2.8779 0,7.9484 11.0611,11.3449 11.8134,3.6275 0.5223,-5.3579 5.0651,-4.5378 11.2739,2.0354 4.7933,5.0746 4.9407,5.4061 4.4112,9.9257 -0.3162,2.6993 -0.1188,4.9409 0.467,5.3029 0.6248,0.3862 -0.01,2.6236 -1.6482,5.8242 -2.1617,4.219 -2.7996,7.2023 -3.3893,15.8507 -0.7624,11.1813 -1.028,11.9503 -7.4023,21.4337 -2.1858,3.252 -4.9405,7.9701 -6.1215,10.4847 -1.1809,2.5145 -4.1175,6.8389 -6.5257,9.6096 -8.4427,9.7138 -10.0233,11.6976 -11.3519,14.2476 -3.4473,6.6161 -15.1026,10.6 -17.5628,6.0031 -1.5354,-2.8688 -3.0054,-2.3919 -7.1439,2.3178 -3.3038,3.7597 -3.7395,3.9904 -3.7772,2 -0.025,-1.3218 0.5575,-2.25 1.412,-2.25 1.9452,0 2.9604,-5.811 2.1781,-12.4674 -0.7151,-6.0843 2.6103,-9.0785 7.2972,-6.5701 2.2778,1.219 4.07,0.6512 4.07,-1.2894 0,-0.6649 1.067,-2.7791 2.3711,-4.6982 1.3041,-1.9192 2.6914,-5.3854 3.0829,-7.7027 0.3915,-2.3174 1.5746,-5.3101 2.6289,-6.6505 3.8633,-4.9114 1.6523,-10.6969 -3.0858,-8.0746 -1.3734,0.7601 -3.1366,1.3979 -3.9183,1.4174 -0.7817,0.019 -2.1317,0.6498 -3,1.4008 -0.8683,0.7509 -3.6737,1.6365 -6.2341,1.9679 -4.8641,0.6296 -5.8447,-0.088 -5.8447,-4.2742 0,-3.2222 -7.4817,-10.58 -12.1712,-11.9697 -6.5366,-1.937 -7.2805,-2.5207 -7.9,-6.1982 -0.3142,-1.8651 -1.2704,-4.7411 -2.1248,-6.3911 -0.8545,-1.65 -2.3253,-5.7 -3.2685,-9 -2.2035,-7.7095 -5.4508,-13.5 -7.5707,-13.5 -0.9168,0 -3.8409,-1.156 -6.4981,-2.5688 -9.4226,-5.0101 -29.4255,0.9918 -24.4379,7.3325 2.5184,3.2016 2.4783,4.3253 -0.2788,7.812 -2.9324,3.7086 -7.6882,14.4216 -7.092,15.9754 0.2555,0.6658 -0.8005,1.7076 -2.3467,2.3152 -1.5462,0.6076 -3.5726,1.6549 -4.503,2.3274 -1.3773,0.9952 -2.731,0.7918 -7.2811,-1.0941 -3.0742,-1.2742 -6.3984,-2.1051 -7.3872,-1.8465 -0.9889,0.2586 -2.6359,-0.1426 -3.6601,-0.8915 -3.1079,-2.2725 -9.5412,-0.3463 -12.4799,3.7367 -0.275,0.3821 -2.525,1.2123 -5,1.8449 -2.475,0.6327 -5.7829,1.6527 -7.351,2.2667 -2.0787,0.8139 -4.1104,0.8207 -7.5,0.025 -2.5569,-0.6003 -5.8565,-1.3498 -7.3323,-1.6654 -1.4759,-0.3157 -2.9687,-1.4729 -3.3174,-2.5716 -0.3487,-1.0987 -1.218,-1.9976 -1.9318,-1.9976 -0.7138,0 -2.3709,-0.8431 -3.6826,-1.8734 -3.4945,-2.7451 -11.448,-3.5631 -16.6616,-1.7136 -6.8789,2.4402 -13.2233,-0.951 -13.2233,-7.068 0,-2.3174 -0.4641,-3.345 -1.5109,-3.345 -0.831,0 -3.4185,-0.8882 -5.75,-1.9737 -2.3315,-1.0855 -6.2641,-2.6844 -8.7391,-3.5531 l -4.5,-1.5796 -3.2829,3.8032 c -3.3251,3.8519 -3.4151,4.4659 -1.6798,11.4553 0.9842,3.9641 -2.5735,7.2206 -6.8524,6.2724 -1.7517,-0.3882 -5.6354,-0.7941 -8.6305,-0.9019 -3.406,-0.1227 -5.6064,-0.6787 -5.875,-1.4844 -2.5827,-7.7483 -24.9793,-5.9419 -29.9348,2.4143 -1.009,1.7013 -4.6812,3.5475 -7.0564,3.5475 -1.0688,0 -2.5035,0.675 -3.1882,1.5 -1.7308,2.0854 -4.3535,1.8718 -6.5287,-0.5318 -1.0113,-1.1174 -2.5435,-1.9656 -3.405,-1.8848 -4.7302,0.4436 -6.8062,-0.2171 -7.8448,-2.4967 -0.6048,-1.3273 -1.9786,-2.6923 -3.053,-3.0333 -1.0743,-0.341 -2.5087,-1.9607 -3.1875,-3.5994 -1.3904,-3.3568 -4.7729,-4.671 -7.8221,-3.0391 -3.7262,1.9942 -7.8274,1.3111 -9.9951,-1.6647 l -2.0031,-2.7498 -2.633,2.4736 c -2.5579,2.403 -4.4553,1.8461 -4.5124,-1.3244 -0.047,-2.5947 -11.6909,-20.9734 -16.3231,-25.7637 l -5.4288,-5.614 -5.3354,3.364 c -4.5679,2.8802 -13.9614,5.0641 -11.5925,2.6952 1.3074,-1.3073 -2.6881,-4.3313 -5.7405,-4.3448 -5.2185,-0.023 -7.595,-1.0499 -7.595,-3.282 0,-5.0823 -2.2103,-8.5408 -5.4209,-8.482 -1.6935,0.031 -4.6928,-0.2783 -6.6651,-0.6873 -3.0309,-0.6284 -4.0046,-0.3555 -6.2905,1.7629 -1.6864,1.5629 -5.4184,3.1681 -9.914,4.264 -3.9652,0.9667 -7.8845,2.0944 -8.7095,2.5062 -3.8453,1.9191 -19.7369,5.8134 -21.6652,5.3092 -4.9505,-1.2946 -5.4049,6.7819 -0.4992,8.8729 l 2.6644,1.1356 -2.9967,0.3973 c -3.5645,0.4726 -4.7138,1.9062 -3.9913,4.9783 0.4074,1.7321 -0.068,2.5346 -2.029,3.4283 -3.4625,1.5776 -2.7898,3.916 1.767,6.1426 2.6845,1.3117 3.75,2.4737 3.75,4.0895 0,2.8788 -4.2465,5.0518 -6.9964,3.58 -1.2573,-0.6728 -2.0879,-0.6744 -2.5019,0 -1.0234,1.656 -5.074,1.1328 -6.9064,-0.8919 -2.5378,-2.8043 -13.2051,-2.6595 -16.3723,0.2222 -2.2191,2.0191 -2.3543,2.0261 -5.3192,0.2747 -1.6732,-0.9884 -3.3008,-1.5385 -3.6169,-1.2224 -0.3161,0.316 -2.1006,-0.7651 -3.9656,-2.4026 -1.865,-1.6375 -4.4737,-2.9772 -5.7971,-2.9772 -1.3234,0 -2.6659,-0.4204 -2.9835,-0.9342 -0.3175,-0.5138 -2.1403,-0.6805 -4.0505,-0.3705 -1.9413,0.315 -4.0638,0.073 -4.8121,-0.5476 -1.0297,-0.8545 -1.9987,-0.4225 -4.1956,1.8705 -1.5712,1.64 -3.4075,2.9818 -4.0807,2.9818 -2.3117,0 -6.5807,6.1508 -5.9668,8.597 0.8071,3.2155 -1.174,3.9967 -3.8235,1.5077 -4.0417,-3.797 -7.0932,-0.5082 -8.0395,8.6648 -0.2117,2.0518 -0.6724,4.4459 -1.0239,5.3202 -0.3608,0.8975 0.034,2.1484 0.9064,2.8725 0.85,0.7054 1.5455,1.8668 1.5455,2.5807 0,0.714 1.3523,1.5952 3.0051,1.9582 3.2916,0.7229 8.7457,8.475 7.4443,10.5808 -0.3881,0.6279 -0.1033,1.5139 0.6327,1.9688 1.7602,1.0878 -0.9878,4.2533 -5.2109,6.0026 -1.9757,0.8184 -3.8174,2.8804 -5.4498,6.1019 l -2.4657,4.8658 2.0126,2.7395 c 1.1069,1.5067 2.1537,4.5395 2.3263,6.7395 0.199,2.5378 1.4699,5.5918 3.477,8.355 4.8673,6.7012 -0.1516,12.6271 -5.696,6.7254 z m 617.2578,-30.2471 c 0.3666,-0.3667 0.9666,-0.3667 1.3333,0 0.3667,0.3667 0.067,0.6667 -0.6667,0.6667 -0.7333,0 -1.0333,-0.3 -0.6666,-0.6667 z m -35.6379,-9.841 c -0.372,-1.1042 -0.296,-5.1542 0.1689,-9 0.4763,-3.9404 0.4615,-8.3017 -0.034,-9.9923 -0.4835,-1.65 -0.6226,-4.5753 -0.309,-6.5007 1.2334,-7.5738 1.1235,-20.5066 -0.1972,-23.1997 -2.3897,-4.8729 -1.3876,-18.7996 1.3527,-18.7996 0.7849,0 1.9258,-1.4309 2.5355,-3.1796 l 1.1084,-3.1796 1.3511,4.4296 c 0.7432,2.4362 1.2767,7.1296 1.1857,10.4296 -0.1575,5.7064 2.7734,21.7857 5.07,27.8151 1.416,3.7174 1.4269,3.6849 -1.2365,3.6849 -5.8204,0 -9.6875,10.5905 -6.3911,17.503 2.1837,4.5793 2.1521,6.497 -0.107,6.497 -1.0604,0 -2.2231,1.1361 -2.8141,2.75 -0.9233,2.521 -1.0635,2.5828 -1.6835,0.7423 z m -740.1955,-78.4923 c -5.5456,-0.3466 -7.9693,-0.8835 -7.9,-1.75 0.2227,-2.7836 0.4503,-3.25 1.5856,-3.25 0.652,0 2.178,-0.9325 3.3911,-2.0721 l 2.2056,-2.072 5.1088,2.5889 c 9.1545,4.6389 7.3781,7.2907 -4.3911,6.5552 z m 873.1844,-48.9012 c 0.3336,-1.2757 1.1064,-1.7048 2.4415,-1.3557 2.1895,0.5726 2.1942,0.5598 -0.7777,2.104 -1.8721,0.9728 -2.0884,0.8755 -1.6638,-0.7483 z M 6788.4565,-918.7471 c -3.2521,-6.0766 2.3061,-12.0797 7.011,-7.5722 3.386,3.244 3.3852,3.2395 0.9969,6.1004 -2.7112,3.2477 -6.6682,3.975 -8.0079,1.4718 z m 734.5334,-14.3505 c -3.3588,-1.7298 -3.6853,-2.1866 -2.4475,-3.4244 1.4251,-1.4251 7.9318,-0.2055 7.753,1.4531 -0.3876,3.5967 -1.411,3.977 -5.3055,1.9713 z m -669.8742,-4.7503 c -3.1029,-4.3875 -3.3054,-5.363 -1.4354,-6.9149 1.0107,-0.8388 2.1903,-0.043 5.1034,3.4417 3.6025,4.3098 3.6977,4.6017 1.9354,5.9367 -2.5281,1.9152 -2.497,1.9288 -5.6034,-2.4635 z m -21.75,-12.03 c -9.7055,-1.0111 -10.6049,-1.7676 -12.011,-10.1039 l -1.1965,-7.0941 -4.7618,0.6549 -4.7617,0.6549 -0.5694,-5.3253 c -0.5424,-5.0728 -0.4119,-5.4676 2.752,-8.3253 2.5634,-2.3154 4.0588,-5.2494 6.5527,-12.8562 l 3.2314,-9.8562 6.8638,0.3878 c 9.1223,0.5155 9.3893,0.9545 5.6696,9.3246 -5.1117,11.5022 -4.9318,14.7909 1.6317,29.8275 6.2555,14.331 6.0607,13.7249 4.3492,13.5305 -0.6875,-0.078 -4.175,-0.4467 -7.75,-0.8192 z m 755.6467,-7.2888 c 1.5787,-8.5983 10.6073,-12.093 17.3814,-6.7278 3.9605,3.1368 4.0528,3.336 2.299,4.9621 -2.4906,2.3094 -10.2836,4.4592 -11.5552,3.1876 -0.6427,-0.6428 -2.1439,-0.4966 -4.3448,0.423 -4.4835,1.8733 -4.4647,1.8824 -3.7804,-1.8449 z m -226.6467,-46.2446 c -6.7855,-2.3244 -8.4582,-5.8386 -4.8491,-10.1873 3.3846,-4.0781 12.8491,2.1243 12.8491,8.4204 0,4.2315 -0.4898,4.3396 -8,1.7669 z m -527.5,-1.6758 c -3.4322,-0.6498 -6.0371,-1.9474 -8.3076,-4.1382 l -3.3076,-3.1914 2.4321,-2.0941 c 1.3548,-1.1666 5.698,-9.3179 9.8052,-18.4025 10.2821,-22.7431 14.2505,-26.9265 31.759,-33.4791 15.7395,-5.8906 27.1115,-12.2708 34.208,-19.1921 6.7616,-6.5948 10.1503,-6.7311 11.887,-0.4784 2.7076,9.7481 -1.6683,14.1655 -28.9227,29.1967 -15.3603,8.4713 -15.5372,8.6083 -19.1179,14.8011 -2.5558,4.4202 -5.1255,7.2685 -8.7748,9.7261 -4.6161,3.1087 -5.1607,3.8555 -5.1607,7.078 0,3.9767 -8.5694,21.4261 -10.4272,21.2324 -0.59,-0.061 -3.3228,-0.5378 -6.0728,-1.0585 z m 345.7415,-16.6384 c -2.5768,-1.2353 -3.1286,-1.9941 -2.6376,-3.6267 1.0405,-3.4598 2.0814,-3.904 5.7341,-2.4471 l 3.471,1.3844 -1.6545,3.1258 c -1.6466,3.1109 -1.67,3.1184 -4.913,1.5636 z m 160.6305,-12.9694 c -1.4455,-0.8775 -4.0321,-3.9426 -5.748,-6.8115 l -3.1199,-5.2161 1.5953,-7.8471 c 2.7269,-13.4136 7.7353,-17.1129 13.4053,-9.9016 5.0321,6.3999 8.0109,7.4313 13.6087,4.7116 6.3922,-3.1055 9.9614,-2.7824 16.1202,1.4593 l 5.251,3.6165 -3.4422,6.1335 -3.4422,6.1336 -5.8001,0.828 c -3.19,0.4554 -9.9964,2.5929 -15.1253,4.75 -10.4907,4.4121 -9.7601,4.2944 -13.3028,2.1438 z m 63.4615,-1.2498 c -3.7571,-0.5269 -7.3066,-2.4791 -14.1381,-7.7762 -5.2401,-4.0629 0,-5.7199 11.6346,-3.6767 15.3414,2.6948 17.7224,13.587 2.5035,11.4529 z m -294.4703,-97.1148 -2.5819,-7.3572 3.7411,-9.9606 c 4.9915,-13.2896 6.7864,-13.3039 19.1851,-0.1535 11.9089,12.6308 7.5471,22.4507 -10.735,24.1684 l -7.0275,0.6602 z m -28.4127,-16.8057 c -7.2271,-3.9266 -9.9802,-6.1014 -13.6706,-10.7987 l -4.6211,-5.8818 5.6706,-10.1295 c 6.1378,-10.964 5.9303,-10.8136 16.1706,-11.7186 l 6.5,-0.5745 6.9003,6.4108 6.9003,6.4107 -1.835,15.615 -1.8349,15.6151 -5.5654,-0.016 c -4.7561,-0.014 -6.8811,-0.7308 -14.6148,-4.9327 z m -20.0449,-40.1641 c -3.2481,-2.812 -6.313,-5.4919 -6.811,-5.9554 -0.5249,-0.4887 1.3011,-4.2035 4.3458,-8.8412 4.7222,-7.1928 5.186,-8.3832 4.6055,-11.8193 -1.1955,-7.0759 15.3875,-16.0192 18.5822,-10.0215 0.6592,1.2375 2.925,4.5408 5.0352,7.3408 4.3777,5.8087 4.575,7.7263 1.991,19.3513 l -1.6543,7.4422 -7.5,1.8781 c -4.125,1.0329 -8.429,2.7465 -9.5644,3.8078 -2.7035,2.527 -2.2497,2.687 -9.03,-3.1828 z m -200.4056,-11.286 c -3.8307,-1.3896 -4.6245,-3.4589 -3.5414,-9.2324 l 0.632,-3.369 h 7.4125 7.4125 l -2.8755,6.75 c -3.1203,7.3247 -3.7876,7.7566 -9.0401,5.8514 z m -32.1554,-9.6701 -4.6555,-3.045 1.8618,-5.1932 c 1.0241,-2.8562 2.3913,-5.0607 3.0384,-4.8989 1.0288,0.2574 12.9202,8.2723 15.2823,10.3005 0.7853,0.6743 -8.1974,5.9219 -10.0883,5.8935 -0.4308,-0.01 -2.8782,-1.3821 -5.4387,-3.0569 z"
         id="path8" /></g></g></svg>
