<?xml version="1.0" encoding="UTF-8" standalone="no"?>
<!-- Created with Inkscape (http://www.inkscape.org/) -->

<svg
   version="1.1"
   id="svg1"
   width="953.00879"
   height="704.07446"
   viewBox="0 0 953.00879 704.07446"
   xml:space="preserve"
   xmlns="http://www.w3.org/2000/svg"
   xmlns:svg="http://www.w3.org/2000/svg"><defs
     id="defs1" /><g
     id="g1"
     style="display:inline"
     transform="translate(-9189.4775,1130.6688)"><g
       id="g16"
       style="display:inline"><path
         style="fill:#000000"
         d="m 9189.4775,-471.25658 v -44.5879 l 4.25,0.7002 c 8.7249,1.4375 25.1727,9.2949 34.627,16.5419 14.4918,11.1084 23.1392,9.3862 33.6221,-6.6959 l 5.6544,-8.6747 -2.6942,-10.8598 -2.6942,-10.8598 2.2004,-5.8837 c 7.9344,-21.2165 41.3266,-32.4854 66.5424,-22.4563 l 11.0079,4.3782 2.2638,5.8382 2.2638,5.8381 10.7339,3.1547 c 7.4305,2.1838 12.8358,3.1547 17.5633,3.1547 h 6.8293 l 8.1651,6.9954 c 8.9278,7.6488 8.808,7.6083 16.4755,5.5673 7.3181,-1.948 35.8732,3.9602 49.1895,10.1775 5.9324,2.7698 10.509,4.1689 15.1507,4.6319 4.1148,0.4103 9.2617,1.8471 13.4985,3.7682 l 6.8478,3.1049 5.5015,-1.8685 c 3.0259,-1.0277 10.5893,-5.1206 16.8077,-9.0953 10.5653,-6.7533 11.5482,-7.174 15,-6.4211 2.91,0.6347 4.8344,0.3106 9.0683,-1.5273 7.3138,-3.1749 7.0505,-3.2385 19.3406,4.6722 l 10.8834,7.0051 8.7008,-0.9969 c 4.7854,-0.5484 13.9322,-1.0007 20.3263,-1.0052 23.4466,-0.016 30.3008,-6.54 39.9351,-38.0082 5.8716,-19.1781 6.5849,-20.9716 17.8293,-44.8283 l 9.1105,-19.3282 v -9.2519 c 0,-7.4119 -0.469,-10.4032 -2.356,-15.0413 -2.2458,-5.5203 -2.286,-6.0259 -0.865,-10.8735 1.159,-3.9549 1.277,-6.5096 0.531,-11.5042 l -0.96,-6.4202 4.325,-5.0665 c 4.903,-5.7445 5.274,-8.3441 1.784,-12.5082 -0.149,-0.1772 -3.014,1.8081 -6.367,4.4119 l -6.0961,4.7341 -11.4442,-2.7895 c -13.508,-3.2927 -11.5303,-3.8514 -24.2314,6.8451 -18.3742,15.474 -37.8643,16.9232 -48.0152,3.5703 -5.4322,-7.1458 -17.8497,-13.4539 -29.3133,-14.8913 -10.0672,-1.2624 -9.2643,-1.8133 -11.4773,7.876 -1.2342,5.4039 -2.3549,8.1716 -3.4247,8.4579 -0.8747,0.2341 -5.424,1.386 -10.1097,2.5598 l -8.5194,2.1342 -6.9327,-3.7931 c -6.3514,-3.475 -7.0544,-4.1855 -8.3844,-8.4731 l -1.4517,-4.68 -6.8395,-1.6761 c -4.5184,-1.1073 -8.2841,-2.8245 -11.0962,-5.0603 -4.1977,-3.3373 -4.396,-3.3843 -14.3195,-3.3939 l -10.0628,-0.01 -3.3622,-10.6099 c -3.3451,-10.5564 -3.3536,-10.6328 -1.677,-15.1565 0.9268,-2.5007 1.568,-4.645 1.425,-4.7652 -0.1431,-0.1201 -3.0727,-1.6703 -6.5102,-3.4448 -6.9958,-3.6113 -7.02,-3.678 -5.2706,-14.5236 0.7111,-4.40871 1.6379,-6.58401 3.4942,-8.20201 5.0867,-4.4337 -1.1268,-14.3521 -11.7046,-18.6836 l -7.0469,-2.8857 0.6049,-8.5717 0.6049,-8.5717 6.9638,-6.9637 6.9637,-6.9638 9.9388,1.3155 c 16.4032,2.171 25.962,0.373 42.5411,-8.0021 l 13.1607,-6.6483 -0.3549,-7.1901 -0.3549,-7.19 3.8549,0.5246 c 3.4326,0.4671 9.2545,0.965 37.386,3.1976 l 7.5311,0.5977 2.3351,-3.4078 c 3.0265,-4.4168 22.4474,-16.7948 31.6027,-20.1419 20.9115,-7.6453 17.7276,-7.1373 36.6503,-5.8471 16.9969,1.1589 17.1003,1.1804 24.709,5.1388 6.6422,3.4556 8.7786,4.053 16.3478,4.5714 l 8.7074,0.5963 5.648,6.9035 c 4.247,5.1914 6.552,7.1441 9.293,7.8734 8.977,2.3886 37.425,9.0694 40.853,9.594 2.518,0.3854 7.946,-0.4224 16.163,-2.4058 l 12.372,-2.9861 10.494,2.5681 10.494,2.5681 8.083,-3.8938 c 14.8015,-7.1309 22.7795,-13.891 25.9595,-21.9975 3.355,-8.5494 3.387,-7.3208 -0.524,-20.1248 l -3.25,-10.6395 -8,-6.8528 c -4.3995,-3.7691 -12.8565,-9.6221 -18.7935,-13.0068 -9.167,-5.2271 -13.188,-8.4433 -26.695,-21.3528 -14.376,-13.7408 -16.458,-15.3687 -21.706,-16.9699 -4.503,-1.3737 -6.895,-2.9133 -10.661,-6.8604 -4.214,-4.4154 -5.604,-5.2243 -10.5,-6.1086 l -5.644,-1.0194 -5.728,-9.4806 c -3.15,-5.2144 -5.737,-9.7576 -5.75,-10.096 -0.01,-0.3385 3.881,-1.2385 8.653,-2 l 8.675,-1.3847 3.656,-10.9913 c 3.115,-9.3665 4.106,-11.2543 6.702,-12.7706 l 3.047,-1.7792 -2.378,-8.17811 c -1.307,-4.4979 -2.377,-8.8775 -2.377,-9.7323 0,-0.9779 5.654,-4.6049 15.25,-9.7822 l 15.25,-8.2281 -20.301,-0.019 -20.301,-0.019 -3.199,3.3647 c -3.623,3.8099 -25.683,11.9885 -35.621,13.2059 -4.531,0.5552 -23.296,10.904 -28.8793,15.9271 -2.1714,1.9535 4.5942,17.66261 10.4014,24.15111 l 6.4431,7.1991 7.5598,-2.5419 c 8.48,-2.851 8.234,-2.9587 11.371,4.9799 2.871,7.2643 3.083,7.1214 -8.657,5.8442 l -9.8175,-1.068 -5.529,5.469 c -5.1579,5.1019 -5.852,5.4689 -10.342,5.4689 -4.3977,0 -5.7124,0.6478 -15.2356,7.507 l -10.4225,7.5071 -5.9601,-3.0087 c -5.4558,-2.754 -5.9177,-3.2412 -5.4586,-5.757 3.16,-17.3155 3.8598,-15.8733 -10.5522,-21.7484 -6.325,-2.5784 -11.8529,-5.0212 -12.2843,-5.4284 -0.4314,-0.4072 5.5311,-4.9292 13.25,-10.0488 16.4195,-10.8904 15.2601,-9.0542 8.7524,-13.8617 l -5.2819,-3.90201 -8.9681,1.74781 -8.9681,1.7478 -4.5,-2.50461 c -6.6488,-3.7005 -7.0166,-4.2652 -7.8485,-12.051 -0.9622,-9.0058 0.6219,-8.4662 -15.6515,-5.331 l -14,2.6971 -7.4678,12.5407 -7.4678,12.54071 -7.2822,2.907 c -8.1037,3.2351 -8.1461,3.3198 -6.1981,12.4026 0.8862,4.1325 0.7586,6.4348 -0.6998,12.6209 -1.9322,8.1961 -2.2664,8.545 -9.8968,10.3335 -8.4573,1.9824 -14.3288,12.4304 -16.0667,28.5894 -1.1632,10.8154 -2.676,19.2237 -3.5833,19.9159 -0.1856,0.1416 -3.0375,1.7637 -6.3375,3.6047 -7.4782,4.172 -7.4661,4.153 -7.4846,11.7435 -0.015,6.2536 -0.024,6.2723 -5.2413,11.1711 l -5.226,4.907 6.2344,7.8289 c 3.429,4.3059 8.3318,11.9401 10.8951,16.965 4.5129,8.8464 4.8335,9.2077 10.1133,11.396 2.9989,1.243 7.0448,3.0345 8.9909,3.9811 l 3.5384,1.7211 -4.0583,4.3506 -4.0582,4.3506 -7.249,-1.7397 c -11.7876,-2.829 -22.7294,-0.2803 -26.9354,6.2742 l -3.0185,4.7038 -10.7504,1.1646 c -15.3894,1.667 -19.3345,1.5504 -19.9017,-0.5884 -0.4579,-1.7266 -20.9235,-10.25 -24.6114,-10.25 -14.7906,0 -26.4387,7.1151 -32.1806,19.6572 l -2.446,5.3428 h -5.22 c -4.2248,0 -6.6359,-0.777 -12.6463,-4.0758 -8.6825,-4.7652 -8.1288,-4.9678 -8.8967,3.2553 -0.5884,6.3013 -0.4986,6.6305 3.5611,13.0586 3.9788,6.3 4.192,7.0421 4.7759,16.6259 0.7332,12.035 4.3963,19.1424 12.9049,25.03901 l 4.9104,3.4031 -5.3699,-5.556 -5.3699,-5.55591 1.8699,-2.5657 c 2.4071,-3.3027 2.1806,-3.333 10.9123,1.4593 9.3385,5.1253 9.2777,4.9987 4.7904,9.96561 l -3.7352,4.1344 2.402,1.8119 2.4021,1.8119 -4.9508,4.4927 c -3.8559,3.4991 -5.969,4.629 -9.5543,5.1092 l -4.6035,0.6165 -0.6808,9.686 c -0.8019,11.4069 -0.3232,10.5837 -5.4803,9.425 -4.9819,-1.1194 -4.9515,-1.5729 -0.632,9.4299 1.925,4.9035 3.5,9.0309 3.5,9.1722 0,2.4047 -12.0785,-0.3256 -18.7708,-4.2431 -4.228,-2.475 -8.878,-4.5 -10.3333,-4.5 -1.4552,0 -4.0521,-0.2813 -5.7709,-0.625 l -3.125,-0.625 v -7.125 -7.125 l -5.4954,-6.1603 -5.4955,-6.1602 3.8459,-4.8398 c 2.8821,-3.627 5.1099,-5.2788 8.8909,-6.5921 l 5.0451,-1.7524 10.7557,5.0224 c 5.9156,2.7623 10.955,4.8231 11.1986,4.5795 0.3765,-0.3765 -7.4168,-12.607 -8.0235,-12.5918 -0.117,0 -5.4488,0.8893 -11.8485,1.9696 -17.7552,2.9973 -19.084,2.4217 -24.7226,-10.70911 -3.8714,-9.0155 -5.0025,-10.6864 -10.1251,-14.9576 -6.2972,-5.2504 -12.6988,-14.8247 -15.4495,-23.1062 -1.4249,-4.2899 -2.6293,-5.7974 -7.2521,-9.0769 l -5.5435,-3.9326 0.1667,-20.5856 c 0.2699,-33.3384 -0.7068,-35.0391 -34.6,-60.2452 -6.7583,-5.0261 -15.2241,-11.829 -18.813,-15.1175 l -6.5252,-5.9792 v -115.13251 -115.1325 h 476.5005 476.499 v 352.00001 352.00004 h -46.345 c -53.369,0 -48.046,1.1526 -51.658,-11.1851 -1.734,-5.9219 -3.483,-9.2322 -7.624,-14.4284 -4.188,-5.2554 -5.382,-7.5315 -5.413,-10.31493 -0.03,-2.8716 -1.65,-5.7528 -8.258,-14.7002 l -8.218,-11.1287 -4.992,2.4594 c -4.847,2.3875 -5.235,2.4227 -13.3015,1.2082 -7.868,-1.1846 -8.547,-1.1357 -12.777,0.9193 -3.252,1.58 -6.327,2.1704 -11.304,2.1704 h -6.838 l -0.607,4.432 c -0.85,6.2038 3.436,19.91563 11.169,35.72823 3.392,6.9346 6.167,13.1105 6.167,13.7241 0,1.5808 -337.6329,1.5895 -345.2007,0.01 -7.1585,-1.4951 -7.4196,-1.92 -4.968,-8.0836 2.0102,-5.0536 6.6041,-29.00363 5.9434,-30.98573 -1.3501,-4.0503 -12.7747,31.45103 -12.7747,39.69663 0,0.2637 -3.7735,0.4795 -8.3855,0.4795 h -8.3856 l -6.5746,-7.5085 c -5.479,-6.2573 -6.932,-8.7084 -8.719,-14.7088 -1.1914,-4.0006 -3.9759,-9.8849 -6.2659,-13.2415 l -4.1215,-6.04123 -1.0806,7.00003 c -1.3062,8.4616 1.6464,15.1565 11.725,26.5862 3.1943,3.6224 5.8077,6.8849 5.8077,7.25 0,0.3651 -92.25,0.6638 -205,0.6638 h -205 z m 904.4995,-215.9851 c 24.739,-5.5233 21.932,-4.0283 20.502,-10.9164 -2.598,-12.5133 -3.543,-25.3225 -2.99,-40.5106 l 0.564,-15.50001 -2.865,-4.7067 c -2.154,-3.5398 -4.5,-5.6214 -9.462,-8.3962 l -6.597,-3.6895 4.189,-3.6038 c 7.051,-6.0649 5.802,-13.0302 -2.485,-13.8678 l -4.856,-0.4908 -3.189,-6.8462 -3.188,-6.8462 4.563,-6.2764 c 2.509,-3.452 4.912,-6.659 5.338,-7.1266 0.427,-0.4676 4.493,0.3199 9.037,1.75 9.842,3.0979 28.006,-0.1012 29.717,-5.2341 1.148,-3.4449 -2.106,-9.2094 -8.239,-14.5936 -6.133,-5.3845 -6.576,-6.0816 -9.118,-14.3656 -1.47,-4.7886 -2.961,-9.0288 -3.313,-9.4227 -1.417,-1.5839 -21.924,3.0949 -27.597,6.2965 -7.174,4.0487 -7.259,3.5103 -4.002,-25.1939 l 0.523,-4.6137 -6.266,-1.7006 c -12.963,-3.5178 -12.338,-3.0907 -19.599,-13.4039 -3.743,-5.3175 -9.509,-15.2932 -12.813,-22.1682 l -6.007,-12.5 -5.424,-1.8897 c -7.17,-2.4981 -7.148,-2.4664 -5.867,-8.4369 l 1.109,-5.1734 h 5.667 5.668 l 6.682,-12.7475 6.683,-12.7474 6.317,-0.6331 c 3.475,-0.3482 9.714,-0.6857 13.865,-0.75 9.854,-0.1526 12.695,-2.8751 18.865,-18.0761 7.468,-18.40211 5.567,-40.08621 -3.298,-37.61331 -1.163,0.3243 -5.155,1.2976 -8.871,2.1627 l -6.756,1.573 -12.244,-4.7697 c -6.734,-2.6233 -12.918,-4.7153 -13.743,-4.6489 -3.561,0.2865 -19.042,8.4299 -23.884,12.5633 -4.277,3.6512 -6.741,4.8671 -12.949,6.3914 -6.922,1.6993 -7.8495,2.2201 -9.5465,5.3525 -3.576,6.6002 -26.581,24.00391 -36.283,27.44821 l -8.451,3 -9.398,20.4395 -9.399,20.4394 5.205,3.4445 c 2.863,1.8944 5.536,3.737 5.94,4.0946 2.822,2.4995 7.635,24.5505 7.079,32.4319 l -0.582,8.2414 14.799,21.4543 c 8.14,11.7999 17.232,24.6866 20.205,28.6371 2.973,3.9505 6.297,9.5279 7.386,12.3943 1.27,3.3422 4.411,7.8764 8.7575,12.6405 l 6.778,7.4289 -5.44,15.1768 c -4.142,11.5534 -5.4085,16.3974 -5.3075,20.2892 0.127,4.8943 -0.06,5.267 -4.293,8.7388 -3.928,3.2183 -4.5,4.2185 -5.085,8.8876 -0.363,2.8937 -1.127,7.7861 -1.698,10.87211 -1.004,5.4204 2.727,27.9338 4.976,30.0339 2.424,2.2633 11.8195,5.8167 18.1905,6.8794 l 7.5,1.251 5.291,6.3428 c 9.416,11.2849 32.81,20.2204 46.709,17.8399 1.1,-0.1884 11.45,-2.4523 23,-5.0309 z m -513.098,66.3904 c -7.0349,-2.7031 -9.9701,-8.1186 -6.1192,-11.2899 1.3542,-1.1151 4.9584,-4.1887 8.0093,-6.8301 l 5.5471,-4.8025 6.6053,0.885 c 6.1827,0.8283 7.3544,0.6398 18.3146,-2.9475 14.7812,-4.8378 15.0802,-4.8055 7.0781,0.7651 l -6.6042,4.5975 1.2681,4.8072 1.2681,4.8072 -13.4593,6.0953 c -14.8483,6.7243 -14.6722,6.6929 -21.9079,3.9127 z m -201.163,-12.1181 c -3.3812,-2.8249 -5.449,-3.5615 -14.3446,-5.1095 -12.9356,-2.2511 -12.745,-2.1165 -8.7846,-6.2025 3.9064,-4.0304 4.2369,-4.0615 10.8043,-1.0188 4.3843,2.0313 5.7866,2.2395 9.8493,1.4623 18.2431,-3.4896 36.0077,6.8434 19.5618,11.3783 -12.4372,3.4296 -12.3685,3.4316 -17.0862,-0.5098 z m -190.2385,-129.78261 c 0,-6.0189 0.3193,-7.9785 1.25,-7.6729 1.8914,0.621 3.3434,12.3364 1.7647,14.2385 -2.3835,2.8719 -3.0147,1.4973 -3.0147,-6.5656 z m 23.6836,-30.2967 -2.4631,-5.38 -9.6257,-2.3206 c -12.5993,-3.0374 -11.7102,-1.9225 -11.3803,-14.2699 l 0.2855,-10.6886 11.6543,7.2696 c 11.8155,7.37 12.5921,8.1396 22.6344,22.4311 l 2.2217,3.1616 -4.6312,2.5884 c -6.045,3.3787 -5.8407,3.4442 -8.6956,-2.7916 z"
         id="path13" /><path
         style="display:inline;fill:#daaa44;fill-opacity:1"
         d="m 9667.6355,-663.90129 c -4.2721,-4.2721 -3.6211,-11.7969 1.5437,-17.8424 l 4.6377,-5.4285 -1.9197,-3.8981 -1.9197,-3.8981 -6.3924,4.8091 -6.3924,4.809 -11.4072,-2.8828 c -6.274,-1.5856 -11.9475,-2.5564 -12.6076,-2.1574 -0.6602,0.3989 -5.9254,4.6131 -11.7004,9.3648 l -10.5,8.6395 -11.2282,2.2467 -11.2283,2.2467 -5.3391,-2.4443 c -3.6332,-1.6633 -6.5955,-4.0409 -9.2717,-7.4414 -5.4793,-6.9624 -18.885,-13.7929 -28.9327,-14.742 -3.85,-0.3636 -7.739,-0.8735 -8.6423,-1.1332 -1.2829,-0.3687 -1.9053,0.6839 -2.8447,4.8112 -3.1126,13.6765 -1.7691,12.1289 -12.7878,14.7301 l -9.7963,2.3125 -4.4644,-2.2603 c -7.5632,-3.8292 -9.6968,-5.7589 -10.3772,-9.3857 -0.827,-4.4084 -1.8534,-5.1728 -9.2357,-6.8783 -4.1714,-0.9637 -7.5333,-2.5696 -10.5438,-5.0364 -4.3361,-3.5532 -4.6059,-3.627 -14.2762,-3.9101 l -9.8566,-0.2886 -3.3173,-9.9015 -3.3173,-9.9014 1.9798,-4.4757 c 1.0889,-2.4616 1.9798,-4.6378 1.9798,-4.8359 0,-0.1982 -3.0696,-1.9062 -6.8213,-3.7955 l -6.8214,-3.4352 0.896,-7.8274 c 0.7667,-6.6979 1.3304,-8.2798 3.9064,-10.9627 4.9668,-5.173 -1.6192,-15.304 -12.5882,-19.3639 l -6.7523,-2.4993 0.5794,-3.5007 c 0.3187,-1.9255 0.5844,-5.4701 0.5904,-7.8769 0.01,-4.0833 0.4962,-4.8689 7.261,-11.7387 l 7.25,-7.3626 9.2207,1.5111 c 15.0468,2.4659 26.6674,0.2906 43.4962,-8.1424 l 12.9435,-6.486 -0.3302,-6.9549 c -0.269,-5.66572 -0.052,-6.95302 1.1698,-6.94452 0.825,0.01 11.6222,0.8891 23.9936,1.9632 l 22.4936,1.9528 2.2205,-2.711 c 1.2212,-1.491 2.2366,-3.004 2.2564,-3.3621 0.1437,-2.6022 23.4903,-15.4663 35.9392,-19.8028 l 13.5967,-4.7363 17,1.1187 c 16.8826,1.111 17.0453,1.1443 23.5505,4.8196 5.3656,3.0315 7.8979,3.8075 14,4.2898 11.2509,0.8894 11.4299,0.9745 17.4503,8.2927 4.791,5.8237 6.2963,6.991 10.3049,7.9913 2.5819,0.6443 13.1506,3.197 23.486,5.67262 l 18.7917,4.5013 12.9976,-3.09 12.9977,-3.08992 10.6782,2.49292 10.6782,2.4929 8.8765,-4.45812 c 4.8821,-2.4519 11.8792,-6.642 15.549,-9.3112 l 6.6725,-4.8531 11.9834,1.3159 c 11.5633,1.2697 12.1143,1.243 15.7137,-0.7626 3.686,-2.0539 3.7568,-2.0557 5.9883,-0.1555 8.4683,7.2113 14.8922,14.29152 17.937,19.76972 l 3.5365,6.3632 -1.906,3.7163 -1.9068,3.7162 2.6668,6.7975 2.667,6.7974 5.98,0.6251 c 6.515,0.6809 8.978,2.0808 15.548,8.8349 l 4.241,4.3599 -10.025,4.412 c -5.513,2.4267 -9.843,4.8888 -9.62,5.4714 3.174,8.3186 9.716,31.3893 9.349,32.9685 -0.267,1.15 -1.431,4.5595 -2.586,7.5768 -1.155,3.0172 -2.1,5.5857 -2.1,5.7078 0,0.1221 1.955,1.3676 4.344,2.7678 4.099,2.4023 4.468,2.9989 6.546,10.5801 1.211,4.4189 2.42,8.6036 2.687,9.2993 0.442,1.1521 -8.42,5.6591 -11.128,5.6591 -0.557,0 -1.577,-1.9125 -2.267,-4.25 l -1.254,-4.25 -8.722,0.3405 c -5.399,0.2107 -11.6552,-0.2655 -16.4217,-1.25 -10.1363,-2.0937 -9.7398,-2.1486 -15.1933,2.1002 -4.7512,3.7017 -5.5514,3.6843 -6.8944,-0.1498 -0.1877,-0.5358 -3.6155,0.1083 -7.7663,1.4593 -5.7888,1.8841 -10.1281,2.4951 -19.6425,2.7657 -11.9604,0.3401 -12.383,0.4314 -20.5,4.4277 -19.0418,9.375 -33.735,11.0823 -46.7681,5.4344 l -7.7811,-3.372 -9.588,3.9848 -9.5879,3.9847 -9.6489,-2.4712 -9.649,-2.4713 -2.4241,5.6085 c -10.8873,25.1886 -11.444,26.0051 -15.1827,22.2665 z m -246.9918,-151.8475 c -0.8269,-1.5451 0.252,-3.8405 5.9112,-12.5766 8.0509,-12.42832 7.8924,-11.64522 3.5746,-17.65522 l -3.348,-4.6602 3.598,-4.1056 c 11.0997,-12.6657 36.534,-9.6673 43.1173,5.083 l 3.2931,7.3783 8.8302,3.8629 c 10.1525,4.4413 9.7223,3.7799 5.5699,8.5641 l -3.2125,3.70122 -7.5348,-1.7729 c -4.1442,-0.9751 -7.9692,-1.66432 -8.5,-1.53142 -0.5308,0.13282 -4.4515,0.98302 -8.7127,1.88932 -7.5097,1.5973 -7.8273,1.7841 -10.3483,6.0859 -2.8687,4.8951 -3.2784,5.0578 -14.9042,5.9196 -4.4,0.3261 -9.8725,0.8437 -12.1611,1.1503 -3.4071,0.4562 -4.3445,0.2147 -5.1727,-1.3327 z"
         id="path12" /></g></g></svg>
